<?xml version="1.0" encoding="utf-8" standalone="no"?>
<!DOCTYPE svg PUBLIC "-//W3C//DTD SVG 1.1//EN"
  "http://www.w3.org/Graphics/SVG/1.1/DTD/svg11.dtd">
<!-- Created with matplotlib (http://matplotlib.org/) -->
<svg height="339pt" version="1.1" viewBox="0 0 555 339" width="555pt" xmlns="http://www.w3.org/2000/svg" xmlns:xlink="http://www.w3.org/1999/xlink">
 <defs>
  <style type="text/css">
*{stroke-linecap:butt;stroke-linejoin:round;}
  </style>
 </defs>
 <g id="figure_1">
  <g id="patch_1">
   <path d="M 0 339.84 
L 555.84 339.84 
L 555.84 0 
L 0 0 
z
" style="fill:none;"/>
  </g>
  <g id="axes_1">
   <g id="patch_2">
    <path d="M 54.083746 293.301871 
L 545.14 293.301871 
L 545.14 10.7 
L 54.083746 10.7 
z
" style="fill:#ffffff;"/>
   </g>
   <g id="PathCollection_1">
    <defs>
     <path d="M -3 3 
L 3 -3 
M -3 -3 
L 3 3 
" id="md5d72b0583" style="stroke:#000000;stroke-width:1.5;"/>
    </defs>
    <g clip-path="url(#p058918458e)">
     <use style="stroke:#000000;stroke-width:1.5;" x="272.791918" xlink:href="#md5d72b0583" y="26.319954"/>
     <use style="stroke:#000000;stroke-width:1.5;" x="372.36226" xlink:href="#md5d72b0583" y="26.319954"/>
     <use style="stroke:#000000;stroke-width:1.5;" x="135.926455" xlink:href="#md5d72b0583" y="277.681917"/>
     <use style="stroke:#000000;stroke-width:1.5;" x="235.140839" xlink:href="#md5d72b0583" y="277.681917"/>
     <use style="stroke:#000000;stroke-width:1.5;" x="184.066997" xlink:href="#md5d72b0583" y="26.319954"/>
     <use style="stroke:#000000;stroke-width:1.5;" x="166.202492" xlink:href="#md5d72b0583" y="26.319954"/>
     <use style="stroke:#000000;stroke-width:1.5;" x="197.035762" xlink:href="#md5d72b0583" y="26.319954"/>
     <use style="stroke:#000000;stroke-width:1.5;" x="249.332091" xlink:href="#md5d72b0583" y="277.681917"/>
     <use style="stroke:#000000;stroke-width:1.5;" x="266.142614" xlink:href="#md5d72b0583" y="26.319954"/>
     <use style="stroke:#000000;stroke-width:1.5;" x="312.775576" xlink:href="#md5d72b0583" y="277.681917"/>
     <use style="stroke:#000000;stroke-width:1.5;" x="273.505125" xlink:href="#md5d72b0583" y="277.681917"/>
     <use style="stroke:#000000;stroke-width:1.5;" x="360.837738" xlink:href="#md5d72b0583" y="26.319954"/>
     <use style="stroke:#000000;stroke-width:1.5;" x="203.007976" xlink:href="#md5d72b0583" y="26.319954"/>
     <use style="stroke:#000000;stroke-width:1.5;" x="424.163673" xlink:href="#md5d72b0583" y="277.681917"/>
     <use style="stroke:#000000;stroke-width:1.5;" x="144.879905" xlink:href="#md5d72b0583" y="26.319954"/>
     <use style="stroke:#000000;stroke-width:1.5;" x="355.994848" xlink:href="#md5d72b0583" y="26.319954"/>
     <use style="stroke:#000000;stroke-width:1.5;" x="272.884757" xlink:href="#md5d72b0583" y="277.681917"/>
     <use style="stroke:#000000;stroke-width:1.5;" x="319.299659" xlink:href="#md5d72b0583" y="277.681917"/>
     <use style="stroke:#000000;stroke-width:1.5;" x="181.976151" xlink:href="#md5d72b0583" y="26.319954"/>
     <use style="stroke:#000000;stroke-width:1.5;" x="200.923102" xlink:href="#md5d72b0583" y="26.319954"/>
     <use style="stroke:#000000;stroke-width:1.5;" x="398.763146" xlink:href="#md5d72b0583" y="277.681917"/>
     <use style="stroke:#000000;stroke-width:1.5;" x="453.756845" xlink:href="#md5d72b0583" y="277.681917"/>
     <use style="stroke:#000000;stroke-width:1.5;" x="238.782072" xlink:href="#md5d72b0583" y="26.319954"/>
     <use style="stroke:#000000;stroke-width:1.5;" x="363.1696" xlink:href="#md5d72b0583" y="277.681917"/>
     <use style="stroke:#000000;stroke-width:1.5;" x="423.596299" xlink:href="#md5d72b0583" y="277.681917"/>
     <use style="stroke:#000000;stroke-width:1.5;" x="429.576876" xlink:href="#md5d72b0583" y="277.681917"/>
     <use style="stroke:#000000;stroke-width:1.5;" x="163.807839" xlink:href="#md5d72b0583" y="277.681917"/>
     <use style="stroke:#000000;stroke-width:1.5;" x="148.710095" xlink:href="#md5d72b0583" y="26.319954"/>
     <use style="stroke:#000000;stroke-width:1.5;" x="191.64207" xlink:href="#md5d72b0583" y="26.319954"/>
     <use style="stroke:#000000;stroke-width:1.5;" x="424.171902" xlink:href="#md5d72b0583" y="277.681917"/>
     <use style="stroke:#000000;stroke-width:1.5;" x="168.17492" xlink:href="#md5d72b0583" y="277.681917"/>
     <use style="stroke:#000000;stroke-width:1.5;" x="274.133175" xlink:href="#md5d72b0583" y="277.681917"/>
     <use style="stroke:#000000;stroke-width:1.5;" x="450.351835" xlink:href="#md5d72b0583" y="277.681917"/>
     <use style="stroke:#000000;stroke-width:1.5;" x="310.920277" xlink:href="#md5d72b0583" y="277.681917"/>
     <use style="stroke:#000000;stroke-width:1.5;" x="363.023348" xlink:href="#md5d72b0583" y="277.681917"/>
     <use style="stroke:#000000;stroke-width:1.5;" x="239.468669" xlink:href="#md5d72b0583" y="277.681917"/>
     <use style="stroke:#000000;stroke-width:1.5;" x="361.258414" xlink:href="#md5d72b0583" y="277.681917"/>
     <use style="stroke:#000000;stroke-width:1.5;" x="409.885881" xlink:href="#md5d72b0583" y="277.681917"/>
     <use style="stroke:#000000;stroke-width:1.5;" x="141.892716" xlink:href="#md5d72b0583" y="26.319954"/>
     <use style="stroke:#000000;stroke-width:1.5;" x="382.151728" xlink:href="#md5d72b0583" y="277.681917"/>
     <use style="stroke:#000000;stroke-width:1.5;" x="460.519403" xlink:href="#md5d72b0583" y="277.681917"/>
     <use style="stroke:#000000;stroke-width:1.5;" x="381.502158" xlink:href="#md5d72b0583" y="277.681917"/>
     <use style="stroke:#000000;stroke-width:1.5;" x="227.955097" xlink:href="#md5d72b0583" y="26.319954"/>
     <use style="stroke:#000000;stroke-width:1.5;" x="394.999254" xlink:href="#md5d72b0583" y="277.681917"/>
     <use style="stroke:#000000;stroke-width:1.5;" x="169.77669" xlink:href="#md5d72b0583" y="26.319954"/>
     <use style="stroke:#000000;stroke-width:1.5;" x="282.926645" xlink:href="#md5d72b0583" y="277.681917"/>
     <use style="stroke:#000000;stroke-width:1.5;" x="434.169234" xlink:href="#md5d72b0583" y="277.681917"/>
     <use style="stroke:#000000;stroke-width:1.5;" x="232.278691" xlink:href="#md5d72b0583" y="277.681917"/>
     <use style="stroke:#000000;stroke-width:1.5;" x="230.361884" xlink:href="#md5d72b0583" y="26.319954"/>
     <use style="stroke:#000000;stroke-width:1.5;" x="178.575631" xlink:href="#md5d72b0583" y="26.319954"/>
     <use style="stroke:#000000;stroke-width:1.5;" x="142.246833" xlink:href="#md5d72b0583" y="26.319954"/>
     <use style="stroke:#000000;stroke-width:1.5;" x="358.741963" xlink:href="#md5d72b0583" y="277.681917"/>
     <use style="stroke:#000000;stroke-width:1.5;" x="205.363721" xlink:href="#md5d72b0583" y="277.681917"/>
     <use style="stroke:#000000;stroke-width:1.5;" x="223.064492" xlink:href="#md5d72b0583" y="277.681917"/>
     <use style="stroke:#000000;stroke-width:1.5;" x="297.266112" xlink:href="#md5d72b0583" y="26.319954"/>
     <use style="stroke:#000000;stroke-width:1.5;" x="153.407151" xlink:href="#md5d72b0583" y="26.319954"/>
     <use style="stroke:#000000;stroke-width:1.5;" x="324.364402" xlink:href="#md5d72b0583" y="26.319954"/>
     <use style="stroke:#000000;stroke-width:1.5;" x="184.058029" xlink:href="#md5d72b0583" y="26.319954"/>
     <use style="stroke:#000000;stroke-width:1.5;" x="329.350406" xlink:href="#md5d72b0583" y="26.319954"/>
     <use style="stroke:#000000;stroke-width:1.5;" x="365.610661" xlink:href="#md5d72b0583" y="277.681917"/>
     <use style="stroke:#000000;stroke-width:1.5;" x="169.483997" xlink:href="#md5d72b0583" y="26.319954"/>
     <use style="stroke:#000000;stroke-width:1.5;" x="271.818212" xlink:href="#md5d72b0583" y="277.681917"/>
     <use style="stroke:#000000;stroke-width:1.5;" x="363.851631" xlink:href="#md5d72b0583" y="26.319954"/>
     <use style="stroke:#000000;stroke-width:1.5;" x="271.858684" xlink:href="#md5d72b0583" y="277.681917"/>
     <use style="stroke:#000000;stroke-width:1.5;" x="152.287992" xlink:href="#md5d72b0583" y="26.319954"/>
     <use style="stroke:#000000;stroke-width:1.5;" x="311.816869" xlink:href="#md5d72b0583" y="26.319954"/>
     <use style="stroke:#000000;stroke-width:1.5;" x="353.804231" xlink:href="#md5d72b0583" y="26.319954"/>
     <use style="stroke:#000000;stroke-width:1.5;" x="304.920442" xlink:href="#md5d72b0583" y="277.681917"/>
     <use style="stroke:#000000;stroke-width:1.5;" x="445.98733" xlink:href="#md5d72b0583" y="277.681917"/>
     <use style="stroke:#000000;stroke-width:1.5;" x="328.447453" xlink:href="#md5d72b0583" y="26.319954"/>
     <use style="stroke:#000000;stroke-width:1.5;" x="432.464245" xlink:href="#md5d72b0583" y="277.681917"/>
     <use style="stroke:#000000;stroke-width:1.5;" x="181.020101" xlink:href="#md5d72b0583" y="26.319954"/>
     <use style="stroke:#000000;stroke-width:1.5;" x="181.611558" xlink:href="#md5d72b0583" y="26.319954"/>
     <use style="stroke:#000000;stroke-width:1.5;" x="400.94518" xlink:href="#md5d72b0583" y="277.681917"/>
     <use style="stroke:#000000;stroke-width:1.5;" x="266.441146" xlink:href="#md5d72b0583" y="277.681917"/>
     <use style="stroke:#000000;stroke-width:1.5;" x="190.172584" xlink:href="#md5d72b0583" y="277.681917"/>
     <use style="stroke:#000000;stroke-width:1.5;" x="440.378156" xlink:href="#md5d72b0583" y="277.681917"/>
     <use style="stroke:#000000;stroke-width:1.5;" x="250.056008" xlink:href="#md5d72b0583" y="277.681917"/>
     <use style="stroke:#000000;stroke-width:1.5;" x="382.370954" xlink:href="#md5d72b0583" y="26.319954"/>
     <use style="stroke:#000000;stroke-width:1.5;" x="374.224795" xlink:href="#md5d72b0583" y="26.319954"/>
     <use style="stroke:#000000;stroke-width:1.5;" x="425.867042" xlink:href="#md5d72b0583" y="277.681917"/>
     <use style="stroke:#000000;stroke-width:1.5;" x="340.632546" xlink:href="#md5d72b0583" y="26.319954"/>
     <use style="stroke:#000000;stroke-width:1.5;" x="382.41374" xlink:href="#md5d72b0583" y="277.681917"/>
     <use style="stroke:#000000;stroke-width:1.5;" x="250.427787" xlink:href="#md5d72b0583" y="277.681917"/>
     <use style="stroke:#000000;stroke-width:1.5;" x="224.502795" xlink:href="#md5d72b0583" y="26.319954"/>
     <use style="stroke:#000000;stroke-width:1.5;" x="429.996937" xlink:href="#md5d72b0583" y="277.681917"/>
     <use style="stroke:#000000;stroke-width:1.5;" x="276.42579" xlink:href="#md5d72b0583" y="26.319954"/>
     <use style="stroke:#000000;stroke-width:1.5;" x="452.633601" xlink:href="#md5d72b0583" y="277.681917"/>
     <use style="stroke:#000000;stroke-width:1.5;" x="353.688297" xlink:href="#md5d72b0583" y="277.681917"/>
     <use style="stroke:#000000;stroke-width:1.5;" x="339.983691" xlink:href="#md5d72b0583" y="277.681917"/>
     <use style="stroke:#000000;stroke-width:1.5;" x="173.558548" xlink:href="#md5d72b0583" y="26.319954"/>
     <use style="stroke:#000000;stroke-width:1.5;" x="447.594132" xlink:href="#md5d72b0583" y="277.681917"/>
     <use style="stroke:#000000;stroke-width:1.5;" x="283.589328" xlink:href="#md5d72b0583" y="277.681917"/>
     <use style="stroke:#000000;stroke-width:1.5;" x="325.766848" xlink:href="#md5d72b0583" y="26.319954"/>
     <use style="stroke:#000000;stroke-width:1.5;" x="269.875019" xlink:href="#md5d72b0583" y="277.681917"/>
     <use style="stroke:#000000;stroke-width:1.5;" x="213.701845" xlink:href="#md5d72b0583" y="26.319954"/>
     <use style="stroke:#000000;stroke-width:1.5;" x="432.456893" xlink:href="#md5d72b0583" y="277.681917"/>
     <use style="stroke:#000000;stroke-width:1.5;" x="324.220573" xlink:href="#md5d72b0583" y="277.681917"/>
     <use style="stroke:#000000;stroke-width:1.5;" x="136.831199" xlink:href="#md5d72b0583" y="26.319954"/>
     <use style="stroke:#000000;stroke-width:1.5;" x="338.489719" xlink:href="#md5d72b0583" y="26.319954"/>
     <use style="stroke:#000000;stroke-width:1.5;" x="243.122267" xlink:href="#md5d72b0583" y="277.681917"/>
     <use style="stroke:#000000;stroke-width:1.5;" x="308.915367" xlink:href="#md5d72b0583" y="277.681917"/>
     <use style="stroke:#000000;stroke-width:1.5;" x="426.73241" xlink:href="#md5d72b0583" y="277.681917"/>
     <use style="stroke:#000000;stroke-width:1.5;" x="253.176017" xlink:href="#md5d72b0583" y="277.681917"/>
     <use style="stroke:#000000;stroke-width:1.5;" x="434.149421" xlink:href="#md5d72b0583" y="26.319954"/>
     <use style="stroke:#000000;stroke-width:1.5;" x="340.53009" xlink:href="#md5d72b0583" y="26.319954"/>
     <use style="stroke:#000000;stroke-width:1.5;" x="141.08282" xlink:href="#md5d72b0583" y="26.319954"/>
     <use style="stroke:#000000;stroke-width:1.5;" x="441.011308" xlink:href="#md5d72b0583" y="277.681917"/>
     <use style="stroke:#000000;stroke-width:1.5;" x="362.701562" xlink:href="#md5d72b0583" y="26.319954"/>
     <use style="stroke:#000000;stroke-width:1.5;" x="463.297291" xlink:href="#md5d72b0583" y="277.681917"/>
     <use style="stroke:#000000;stroke-width:1.5;" x="192.4661" xlink:href="#md5d72b0583" y="26.319954"/>
     <use style="stroke:#000000;stroke-width:1.5;" x="180.908827" xlink:href="#md5d72b0583" y="26.319954"/>
     <use style="stroke:#000000;stroke-width:1.5;" x="442.048115" xlink:href="#md5d72b0583" y="277.681917"/>
     <use style="stroke:#000000;stroke-width:1.5;" x="364.645431" xlink:href="#md5d72b0583" y="26.319954"/>
     <use style="stroke:#000000;stroke-width:1.5;" x="157.555923" xlink:href="#md5d72b0583" y="26.319954"/>
     <use style="stroke:#000000;stroke-width:1.5;" x="383.897801" xlink:href="#md5d72b0583" y="277.681917"/>
     <use style="stroke:#000000;stroke-width:1.5;" x="383.376854" xlink:href="#md5d72b0583" y="277.681917"/>
     <use style="stroke:#000000;stroke-width:1.5;" x="438.906101" xlink:href="#md5d72b0583" y="277.681917"/>
     <use style="stroke:#000000;stroke-width:1.5;" x="369.473419" xlink:href="#md5d72b0583" y="26.319954"/>
     <use style="stroke:#000000;stroke-width:1.5;" x="176.685481" xlink:href="#md5d72b0583" y="26.319954"/>
     <use style="stroke:#000000;stroke-width:1.5;" x="142.415302" xlink:href="#md5d72b0583" y="26.319954"/>
     <use style="stroke:#000000;stroke-width:1.5;" x="144.493641" xlink:href="#md5d72b0583" y="26.319954"/>
     <use style="stroke:#000000;stroke-width:1.5;" x="145.181567" xlink:href="#md5d72b0583" y="26.319954"/>
     <use style="stroke:#000000;stroke-width:1.5;" x="216.716864" xlink:href="#md5d72b0583" y="277.681917"/>
     <use style="stroke:#000000;stroke-width:1.5;" x="418.225124" xlink:href="#md5d72b0583" y="277.681917"/>
     <use style="stroke:#000000;stroke-width:1.5;" x="312.78028" xlink:href="#md5d72b0583" y="26.319954"/>
     <use style="stroke:#000000;stroke-width:1.5;" x="317.373319" xlink:href="#md5d72b0583" y="26.319954"/>
     <use style="stroke:#000000;stroke-width:1.5;" x="412.31692" xlink:href="#md5d72b0583" y="277.681917"/>
     <use style="stroke:#000000;stroke-width:1.5;" x="176.653425" xlink:href="#md5d72b0583" y="26.319954"/>
     <use style="stroke:#000000;stroke-width:1.5;" x="227.541352" xlink:href="#md5d72b0583" y="26.319954"/>
     <use style="stroke:#000000;stroke-width:1.5;" x="328.186212" xlink:href="#md5d72b0583" y="26.319954"/>
     <use style="stroke:#000000;stroke-width:1.5;" x="454.194837" xlink:href="#md5d72b0583" y="277.681917"/>
     <use style="stroke:#000000;stroke-width:1.5;" x="320.06798" xlink:href="#md5d72b0583" y="26.319954"/>
     <use style="stroke:#000000;stroke-width:1.5;" x="142.010575" xlink:href="#md5d72b0583" y="26.319954"/>
     <use style="stroke:#000000;stroke-width:1.5;" x="398.726412" xlink:href="#md5d72b0583" y="277.681917"/>
     <use style="stroke:#000000;stroke-width:1.5;" x="212.371393" xlink:href="#md5d72b0583" y="26.319954"/>
     <use style="stroke:#000000;stroke-width:1.5;" x="400.851259" xlink:href="#md5d72b0583" y="277.681917"/>
     <use style="stroke:#000000;stroke-width:1.5;" x="263.218615" xlink:href="#md5d72b0583" y="277.681917"/>
     <use style="stroke:#000000;stroke-width:1.5;" x="419.378695" xlink:href="#md5d72b0583" y="277.681917"/>
     <use style="stroke:#000000;stroke-width:1.5;" x="381.159423" xlink:href="#md5d72b0583" y="277.681917"/>
     <use style="stroke:#000000;stroke-width:1.5;" x="318.495489" xlink:href="#md5d72b0583" y="277.681917"/>
     <use style="stroke:#000000;stroke-width:1.5;" x="180.685419" xlink:href="#md5d72b0583" y="26.319954"/>
     <use style="stroke:#000000;stroke-width:1.5;" x="155.559122" xlink:href="#md5d72b0583" y="26.319954"/>
     <use style="stroke:#000000;stroke-width:1.5;" x="175.724418" xlink:href="#md5d72b0583" y="26.319954"/>
     <use style="stroke:#000000;stroke-width:1.5;" x="150.514722" xlink:href="#md5d72b0583" y="26.319954"/>
     <use style="stroke:#000000;stroke-width:1.5;" x="171.17786" xlink:href="#md5d72b0583" y="26.319954"/>
     <use style="stroke:#000000;stroke-width:1.5;" x="209.986407" xlink:href="#md5d72b0583" y="26.319954"/>
     <use style="stroke:#000000;stroke-width:1.5;" x="369.954105" xlink:href="#md5d72b0583" y="26.319954"/>
     <use style="stroke:#000000;stroke-width:1.5;" x="319.636861" xlink:href="#md5d72b0583" y="277.681917"/>
     <use style="stroke:#000000;stroke-width:1.5;" x="140.010876" xlink:href="#md5d72b0583" y="26.319954"/>
     <use style="stroke:#000000;stroke-width:1.5;" x="159.517147" xlink:href="#md5d72b0583" y="26.319954"/>
     <use style="stroke:#000000;stroke-width:1.5;" x="453.433401" xlink:href="#md5d72b0583" y="277.681917"/>
     <use style="stroke:#000000;stroke-width:1.5;" x="322.38905" xlink:href="#md5d72b0583" y="26.319954"/>
     <use style="stroke:#000000;stroke-width:1.5;" x="202.627486" xlink:href="#md5d72b0583" y="26.319954"/>
     <use style="stroke:#000000;stroke-width:1.5;" x="218.724234" xlink:href="#md5d72b0583" y="26.319954"/>
     <use style="stroke:#000000;stroke-width:1.5;" x="380.077457" xlink:href="#md5d72b0583" y="277.681917"/>
     <use style="stroke:#000000;stroke-width:1.5;" x="200.045916" xlink:href="#md5d72b0583" y="26.319954"/>
     <use style="stroke:#000000;stroke-width:1.5;" x="326.741636" xlink:href="#md5d72b0583" y="277.681917"/>
     <use style="stroke:#000000;stroke-width:1.5;" x="454.33411" xlink:href="#md5d72b0583" y="277.681917"/>
     <use style="stroke:#000000;stroke-width:1.5;" x="413.892012" xlink:href="#md5d72b0583" y="277.681917"/>
     <use style="stroke:#000000;stroke-width:1.5;" x="214.627871" xlink:href="#md5d72b0583" y="26.319954"/>
     <use style="stroke:#000000;stroke-width:1.5;" x="297.987213" xlink:href="#md5d72b0583" y="26.319954"/>
     <use style="stroke:#000000;stroke-width:1.5;" x="339.41247" xlink:href="#md5d72b0583" y="26.319954"/>
     <use style="stroke:#000000;stroke-width:1.5;" x="408.032774" xlink:href="#md5d72b0583" y="277.681917"/>
     <use style="stroke:#000000;stroke-width:1.5;" x="187.361525" xlink:href="#md5d72b0583" y="26.319954"/>
     <use style="stroke:#000000;stroke-width:1.5;" x="141.987238" xlink:href="#md5d72b0583" y="277.681917"/>
     <use style="stroke:#000000;stroke-width:1.5;" x="158.876285" xlink:href="#md5d72b0583" y="26.319954"/>
     <use style="stroke:#000000;stroke-width:1.5;" x="295.54981" xlink:href="#md5d72b0583" y="26.319954"/>
     <use style="stroke:#000000;stroke-width:1.5;" x="334.939144" xlink:href="#md5d72b0583" y="26.319954"/>
     <use style="stroke:#000000;stroke-width:1.5;" x="322.635586" xlink:href="#md5d72b0583" y="26.319954"/>
     <use style="stroke:#000000;stroke-width:1.5;" x="240.074943" xlink:href="#md5d72b0583" y="277.681917"/>
     <use style="stroke:#000000;stroke-width:1.5;" x="460.438994" xlink:href="#md5d72b0583" y="26.319954"/>
     <use style="stroke:#000000;stroke-width:1.5;" x="326.211876" xlink:href="#md5d72b0583" y="26.319954"/>
     <use style="stroke:#000000;stroke-width:1.5;" x="260.684411" xlink:href="#md5d72b0583" y="277.681917"/>
     <use style="stroke:#000000;stroke-width:1.5;" x="316.758188" xlink:href="#md5d72b0583" y="26.319954"/>
     <use style="stroke:#000000;stroke-width:1.5;" x="380.572704" xlink:href="#md5d72b0583" y="277.681917"/>
     <use style="stroke:#000000;stroke-width:1.5;" x="355.589539" xlink:href="#md5d72b0583" y="26.319954"/>
     <use style="stroke:#000000;stroke-width:1.5;" x="222.858623" xlink:href="#md5d72b0583" y="26.319954"/>
     <use style="stroke:#000000;stroke-width:1.5;" x="157.665788" xlink:href="#md5d72b0583" y="26.319954"/>
     <use style="stroke:#000000;stroke-width:1.5;" x="257.382834" xlink:href="#md5d72b0583" y="277.681917"/>
     <use style="stroke:#000000;stroke-width:1.5;" x="342.617141" xlink:href="#md5d72b0583" y="277.681917"/>
     <use style="stroke:#000000;stroke-width:1.5;" x="204.886357" xlink:href="#md5d72b0583" y="26.319954"/>
     <use style="stroke:#000000;stroke-width:1.5;" x="383.008964" xlink:href="#md5d72b0583" y="277.681917"/>
     <use style="stroke:#000000;stroke-width:1.5;" x="157.731987" xlink:href="#md5d72b0583" y="26.319954"/>
     <use style="stroke:#000000;stroke-width:1.5;" x="221.347037" xlink:href="#md5d72b0583" y="26.319954"/>
     <use style="stroke:#000000;stroke-width:1.5;" x="400.079576" xlink:href="#md5d72b0583" y="277.681917"/>
     <use style="stroke:#000000;stroke-width:1.5;" x="199.390918" xlink:href="#md5d72b0583" y="26.319954"/>
     <use style="stroke:#000000;stroke-width:1.5;" x="345.815767" xlink:href="#md5d72b0583" y="277.681917"/>
     <use style="stroke:#000000;stroke-width:1.5;" x="308.131485" xlink:href="#md5d72b0583" y="26.319954"/>
     <use style="stroke:#000000;stroke-width:1.5;" x="439.49158" xlink:href="#md5d72b0583" y="277.681917"/>
     <use style="stroke:#000000;stroke-width:1.5;" x="222.325882" xlink:href="#md5d72b0583" y="26.319954"/>
     <use style="stroke:#000000;stroke-width:1.5;" x="157.543093" xlink:href="#md5d72b0583" y="26.319954"/>
     <use style="stroke:#000000;stroke-width:1.5;" x="377.201697" xlink:href="#md5d72b0583" y="277.681917"/>
     <use style="stroke:#000000;stroke-width:1.5;" x="389.385115" xlink:href="#md5d72b0583" y="277.681917"/>
     <use style="stroke:#000000;stroke-width:1.5;" x="433.913284" xlink:href="#md5d72b0583" y="277.681917"/>
     <use style="stroke:#000000;stroke-width:1.5;" x="441.843462" xlink:href="#md5d72b0583" y="277.681917"/>
     <use style="stroke:#000000;stroke-width:1.5;" x="140.469031" xlink:href="#md5d72b0583" y="26.319954"/>
     <use style="stroke:#000000;stroke-width:1.5;" x="212.826994" xlink:href="#md5d72b0583" y="277.681917"/>
     <use style="stroke:#000000;stroke-width:1.5;" x="338.369383" xlink:href="#md5d72b0583" y="26.319954"/>
     <use style="stroke:#000000;stroke-width:1.5;" x="447.438873" xlink:href="#md5d72b0583" y="277.681917"/>
    </g>
   </g>
   <g id="PolyCollection_1">
    <defs>
     <path d="M 54.083746 -62.158083 
L 54.083746 -313.520046 
L 56.551366 -313.520046 
L 59.018985 -313.520046 
L 61.486605 -313.520046 
L 63.954224 -313.520046 
L 66.421843 -313.520046 
L 68.889463 -313.520046 
L 71.357082 -313.520046 
L 73.824701 -313.520046 
L 76.292321 -313.520046 
L 78.75994 -313.520046 
L 81.22756 -313.520046 
L 83.695179 -313.520046 
L 86.162798 -313.520046 
L 88.630418 -313.520046 
L 91.098037 -313.520046 
L 93.565656 -313.520046 
L 96.033276 -313.520046 
L 98.500895 -313.520046 
L 100.968514 -313.520046 
L 103.436134 -313.520046 
L 105.903753 -313.520046 
L 108.371373 -313.520046 
L 110.838992 -313.520046 
L 113.306611 -313.520046 
L 115.774231 -313.520046 
L 118.24185 -313.520046 
L 120.709469 -313.520046 
L 123.177089 -313.520046 
L 125.644708 -313.520046 
L 128.112327 -313.520046 
L 130.579947 -313.520046 
L 133.047566 -313.520046 
L 135.515186 -313.520046 
L 137.982805 -313.520046 
L 140.450424 -313.520046 
L 142.918044 -313.520046 
L 145.385663 -313.520046 
L 147.853282 -313.520046 
L 150.320902 -313.520046 
L 152.788521 -313.520046 
L 155.25614 -313.520046 
L 157.72376 -313.520046 
L 160.191379 -313.520046 
L 162.658999 -313.520046 
L 165.126618 -313.520046 
L 167.594237 -313.520046 
L 170.061857 -313.520046 
L 172.529476 -313.520046 
L 174.997095 -313.520046 
L 177.464715 -313.520046 
L 179.932334 -313.520046 
L 182.399953 -313.520046 
L 184.867573 -313.520046 
L 187.335192 -313.520046 
L 189.802812 -313.520046 
L 192.270431 -313.520046 
L 194.73805 -313.520046 
L 197.20567 -313.520046 
L 199.673289 -313.520046 
L 202.140908 -313.520046 
L 204.608528 -313.520046 
L 207.076147 -313.520046 
L 209.543766 -313.520046 
L 212.011386 -313.520046 
L 214.479005 -313.520046 
L 216.946625 -313.520046 
L 219.414244 -313.520046 
L 221.881863 -313.520046 
L 224.349483 -313.520046 
L 226.817102 -313.520046 
L 229.284721 -313.520046 
L 231.752341 -313.520046 
L 234.21996 -313.520046 
L 236.687579 -313.520046 
L 239.155199 -313.520046 
L 241.622818 -313.520046 
L 244.090438 -313.520046 
L 246.558057 -313.520046 
L 249.025676 -313.520046 
L 251.493296 -313.520046 
L 253.960915 -313.520046 
L 256.428534 -313.520046 
L 258.896154 -313.520046 
L 261.363773 -313.520046 
L 263.831392 -313.520046 
L 266.299012 -313.520046 
L 268.766631 -313.520046 
L 271.234251 -313.520046 
L 273.70187 -313.520046 
L 276.169489 -313.520046 
L 278.637109 -313.520046 
L 281.104728 -313.520046 
L 283.572347 -313.520046 
L 286.039967 -313.520046 
L 288.507586 -313.520046 
L 290.975205 -313.520046 
L 293.442825 -313.520046 
L 295.910444 -313.520046 
L 298.378064 -313.520046 
L 300.845683 -313.520046 
L 303.313302 -313.520046 
L 305.780922 -313.520046 
L 308.248541 -313.520046 
L 310.71616 -313.520046 
L 313.18378 -313.520046 
L 315.651399 -313.520046 
L 318.119018 -313.520046 
L 320.586638 -313.520046 
L 323.054257 -313.520046 
L 325.521877 -313.520046 
L 327.989496 -313.520046 
L 330.457115 -313.520046 
L 332.924735 -313.520046 
L 335.392354 -313.520046 
L 337.859973 -313.520046 
L 340.327593 -313.520046 
L 342.795212 -313.520046 
L 345.262831 -313.520046 
L 347.730451 -313.520046 
L 350.19807 -313.520046 
L 352.66569 -313.520046 
L 355.133309 -313.520046 
L 357.600928 -313.520046 
L 360.068548 -313.520046 
L 362.536167 -313.520046 
L 365.003786 -313.520046 
L 367.471406 -313.520046 
L 369.939025 -313.520046 
L 372.406644 -313.520046 
L 374.874264 -313.520046 
L 377.341883 -313.520046 
L 379.809503 -313.520046 
L 382.277122 -313.520046 
L 384.744741 -313.520046 
L 387.212361 -313.520046 
L 389.67998 -313.520046 
L 392.147599 -313.520046 
L 394.615219 -313.520046 
L 397.082838 -313.520046 
L 399.550458 -313.520046 
L 402.018077 -313.520046 
L 404.485696 -313.520046 
L 406.953316 -313.520046 
L 409.420935 -313.520046 
L 411.888554 -313.520046 
L 414.356174 -313.520046 
L 416.823793 -313.520046 
L 419.291412 -313.520046 
L 421.759032 -313.520046 
L 424.226651 -313.520046 
L 426.694271 -313.520046 
L 429.16189 -313.520046 
L 431.629509 -313.520046 
L 434.097129 -313.520046 
L 436.564748 -313.520046 
L 439.032367 -313.520046 
L 441.499987 -313.520046 
L 443.967606 -313.520046 
L 446.435225 -313.520046 
L 448.902845 -313.520046 
L 451.370464 -313.520046 
L 453.838084 -313.520046 
L 456.305703 -313.520046 
L 458.773322 -313.520046 
L 461.240942 -313.520046 
L 463.708561 -313.520046 
L 466.17618 -313.520046 
L 468.6438 -313.520046 
L 471.111419 -313.520046 
L 473.579038 -313.520046 
L 476.046658 -313.520046 
L 478.514277 -313.520046 
L 480.981897 -313.520046 
L 483.449516 -313.520046 
L 485.917135 -313.520046 
L 488.384755 -313.520046 
L 490.852374 -313.520046 
L 493.319993 -313.520046 
L 495.787613 -313.520046 
L 498.255232 -313.520046 
L 500.722851 -313.520046 
L 503.190471 -313.520046 
L 505.65809 -313.520046 
L 508.12571 -313.520046 
L 510.593329 -313.520046 
L 513.060948 -313.520046 
L 515.528568 -313.520046 
L 517.996187 -313.520046 
L 520.463806 -313.520046 
L 522.931426 -313.520046 
L 525.399045 -313.520046 
L 527.866664 -313.520046 
L 530.334284 -313.520046 
L 532.801903 -313.520046 
L 535.269523 -313.520046 
L 537.737142 -313.520046 
L 540.204761 -313.520046 
L 542.672381 -313.520046 
L 545.14 -313.520046 
L 545.14 -62.158083 
L 545.14 -62.158083 
L 542.672381 -62.158083 
L 540.204761 -62.158083 
L 537.737142 -62.158083 
L 535.269523 -62.158083 
L 532.801903 -62.158083 
L 530.334284 -62.158083 
L 527.866664 -62.158083 
L 525.399045 -62.158083 
L 522.931426 -62.158083 
L 520.463806 -62.158083 
L 517.996187 -62.158083 
L 515.528568 -62.158083 
L 513.060948 -62.158083 
L 510.593329 -62.158083 
L 508.12571 -62.158083 
L 505.65809 -62.158083 
L 503.190471 -62.158083 
L 500.722851 -62.158083 
L 498.255232 -62.158083 
L 495.787613 -62.158083 
L 493.319993 -62.158083 
L 490.852374 -62.158083 
L 488.384755 -62.158083 
L 485.917135 -62.158083 
L 483.449516 -62.158083 
L 480.981897 -62.158083 
L 478.514277 -62.158083 
L 476.046658 -62.158083 
L 473.579038 -62.158083 
L 471.111419 -62.158083 
L 468.6438 -62.158083 
L 466.17618 -62.158083 
L 463.708561 -62.158083 
L 461.240942 -62.158083 
L 458.773322 -62.158083 
L 456.305703 -62.158083 
L 453.838084 -62.158083 
L 451.370464 -62.158083 
L 448.902845 -62.158083 
L 446.435225 -62.158083 
L 443.967606 -62.158083 
L 441.499987 -62.158083 
L 439.032367 -62.158083 
L 436.564748 -62.158083 
L 434.097129 -62.158083 
L 431.629509 -62.158083 
L 429.16189 -62.158083 
L 426.694271 -62.158083 
L 424.226651 -62.158083 
L 421.759032 -62.158083 
L 419.291412 -62.158083 
L 416.823793 -62.158083 
L 414.356174 -62.158083 
L 411.888554 -62.158083 
L 409.420935 -62.158083 
L 406.953316 -62.158083 
L 404.485696 -62.158083 
L 402.018077 -62.158083 
L 399.550458 -62.158083 
L 397.082838 -62.158083 
L 394.615219 -62.158083 
L 392.147599 -62.158083 
L 389.67998 -62.158083 
L 387.212361 -62.158083 
L 384.744741 -62.158083 
L 382.277122 -62.158083 
L 379.809503 -62.158083 
L 377.341883 -62.158083 
L 374.874264 -62.158083 
L 372.406644 -62.158083 
L 369.939025 -62.158083 
L 367.471406 -62.158083 
L 365.003786 -62.158083 
L 362.536167 -62.158083 
L 360.068548 -62.158083 
L 357.600928 -62.158083 
L 355.133309 -62.158083 
L 352.66569 -62.158083 
L 350.19807 -62.158083 
L 347.730451 -62.158083 
L 345.262831 -62.158083 
L 342.795212 -62.158083 
L 340.327593 -62.158083 
L 337.859973 -62.158083 
L 335.392354 -62.158083 
L 332.924735 -62.158083 
L 330.457115 -62.158083 
L 327.989496 -62.158083 
L 325.521877 -62.158083 
L 323.054257 -62.158083 
L 320.586638 -62.158083 
L 318.119018 -62.158083 
L 315.651399 -62.158083 
L 313.18378 -62.158083 
L 310.71616 -62.158083 
L 308.248541 -62.158083 
L 305.780922 -62.158083 
L 303.313302 -62.158083 
L 300.845683 -62.158083 
L 298.378064 -62.158083 
L 295.910444 -62.158083 
L 293.442825 -62.158083 
L 290.975205 -62.158083 
L 288.507586 -62.158083 
L 286.039967 -62.158083 
L 283.572347 -62.158083 
L 281.104728 -62.158083 
L 278.637109 -62.158083 
L 276.169489 -62.158083 
L 273.70187 -62.158083 
L 271.234251 -62.158083 
L 268.766631 -62.158083 
L 266.299012 -62.158083 
L 263.831392 -62.158083 
L 261.363773 -62.158083 
L 258.896154 -62.158083 
L 256.428534 -62.158083 
L 253.960915 -62.158083 
L 251.493296 -62.158083 
L 249.025676 -62.158083 
L 246.558057 -62.158083 
L 244.090438 -62.158083 
L 241.622818 -62.158083 
L 239.155199 -62.158083 
L 236.687579 -62.158083 
L 234.21996 -62.158083 
L 231.752341 -62.158083 
L 229.284721 -62.158083 
L 226.817102 -62.158083 
L 224.349483 -62.158083 
L 221.881863 -62.158083 
L 219.414244 -62.158083 
L 216.946625 -62.158083 
L 214.479005 -62.158083 
L 212.011386 -62.158083 
L 209.543766 -62.158083 
L 207.076147 -62.158083 
L 204.608528 -62.158083 
L 202.140908 -62.158083 
L 199.673289 -62.158083 
L 197.20567 -62.158083 
L 194.73805 -62.158083 
L 192.270431 -62.158083 
L 189.802812 -62.158083 
L 187.335192 -62.158083 
L 184.867573 -62.158083 
L 182.399953 -62.158083 
L 179.932334 -62.158083 
L 177.464715 -62.158083 
L 174.997095 -62.158083 
L 172.529476 -62.158083 
L 170.061857 -62.158083 
L 167.594237 -62.158083 
L 165.126618 -62.158083 
L 162.658999 -62.158083 
L 160.191379 -62.158083 
L 157.72376 -62.158083 
L 155.25614 -62.158083 
L 152.788521 -62.158083 
L 150.320902 -62.158083 
L 147.853282 -62.158083 
L 145.385663 -62.158083 
L 142.918044 -62.158083 
L 140.450424 -62.158083 
L 137.982805 -62.158083 
L 135.515186 -62.158083 
L 133.047566 -62.158083 
L 130.579947 -62.158083 
L 128.112327 -62.158083 
L 125.644708 -62.158083 
L 123.177089 -62.158083 
L 120.709469 -62.158083 
L 118.24185 -62.158083 
L 115.774231 -62.158083 
L 113.306611 -62.158083 
L 110.838992 -62.158083 
L 108.371373 -62.158083 
L 105.903753 -62.158083 
L 103.436134 -62.158083 
L 100.968514 -62.158083 
L 98.500895 -62.158083 
L 96.033276 -62.158083 
L 93.565656 -62.158083 
L 91.098037 -62.158083 
L 88.630418 -62.158083 
L 86.162798 -62.158083 
L 83.695179 -62.158083 
L 81.22756 -62.158083 
L 78.75994 -62.158083 
L 76.292321 -62.158083 
L 73.824701 -62.158083 
L 71.357082 -62.158083 
L 68.889463 -62.158083 
L 66.421843 -62.158083 
L 63.954224 -62.158083 
L 61.486605 -62.158083 
L 59.018985 -62.158083 
L 56.551366 -62.158083 
L 54.083746 -62.158083 
z
" id="m2012c323dc" style="stroke:#204a87;stroke-opacity:0.2;stroke-width:0.5;"/>
    </defs>
    <g clip-path="url(#p058918458e)">
     <use style="fill:#729fcf;fill-opacity:0.2;stroke:#204a87;stroke-opacity:0.2;stroke-width:0.5;" x="0" xlink:href="#m2012c323dc" y="339.84"/>
    </g>
   </g>
   <g id="matplotlib.axis_1">
    <g id="xtick_1">
     <g id="line2d_1">
      <defs>
       <path d="M 0 0 
L 0 3.5 
" id="m0381fe2b6e" style="stroke:#000000;stroke-width:0.8;"/>
      </defs>
      <g>
       <use style="stroke:#000000;stroke-width:0.8;" x="70.231456" xlink:href="#m0381fe2b6e" y="293.301871"/>
      </g>
     </g>
     <g id="text_1">
      <!-- $-0.2$ -->
      <defs>
       <path d="M 65.90625 23 
C 67.59375 23 69.40625 23 69.40625 25 
C 69.40625 27 67.59375 27 65.90625 27 
L 11.796875 27 
C 10.09375 27 8.296875 27 8.296875 25 
C 8.296875 23 10.09375 23 11.796875 23 
z
" id="CMSY10-0"/>
       <path d="M 42 31.640625 
C 42 37.75 41.90625 48.125 37.703125 56.109375 
C 34 63.109375 28.09375 65.59375 22.90625 65.59375 
C 18.09375 65.59375 12 63.40625 8.203125 56.203125 
C 4.203125 48.71875 3.796875 39.4375 3.796875 31.640625 
C 3.796875 25.953125 3.90625 17.28125 7 9.671875 
C 11.296875 -0.609375 19 -2 22.90625 -2 
C 27.5 -2 34.5 -0.109375 38.59375 9.375 
C 41.59375 16.28125 42 24.359375 42 31.640625 
z
M 22.90625 -0.40625 
C 16.5 -0.40625 12.703125 5.078125 11.296875 12.6875 
C 10.203125 18.5625 10.203125 27.15625 10.203125 32.75 
C 10.203125 40.4375 10.203125 46.828125 11.5 52.921875 
C 13.40625 61.390625 19 64 22.90625 64 
C 27 64 32.296875 61.296875 34.203125 53.125 
C 35.5 47.4375 35.59375 40.734375 35.59375 32.75 
C 35.59375 26.25 35.59375 18.265625 34.40625 12.375 
C 32.296875 1.484375 26.40625 -0.40625 22.90625 -0.40625 
z
" id="CMR17-48"/>
       <path d="M 18.40625 4.796875 
C 18.40625 7.6875 16 9.671875 13.59375 9.671875 
C 10.703125 9.671875 8.703125 7.28125 8.703125 4.890625 
C 8.703125 2 11.09375 0 13.5 0 
C 16.40625 0 18.40625 2.390625 18.40625 4.796875 
z
" id="CMMI12-58"/>
       <path d="M 41.703125 15.453125 
L 39.90625 15.453125 
C 38.90625 8.375 38.09375 7.171875 37.703125 6.5625 
C 37.203125 5.765625 30 5.765625 28.59375 5.765625 
L 9.40625 5.765625 
C 13 9.671875 20 16.75 28.5 24.953125 
C 34.59375 30.734375 41.703125 37.53125 41.703125 47.421875 
C 41.703125 59.21875 32.296875 66 21.796875 66 
C 10.796875 66 4.09375 56.3125 4.09375 47.34375 
C 4.09375 43.4375 7 42.9375 8.203125 42.9375 
C 9.203125 42.9375 12.203125 43.546875 12.203125 47.03125 
C 12.203125 50.109375 9.59375 51 8.203125 51 
C 7.59375 51 7 50.90625 6.59375 50.703125 
C 8.5 59.21875 14.296875 63.40625 20.40625 63.40625 
C 29.09375 63.40625 34.796875 56.515625 34.796875 47.421875 
C 34.796875 38.734375 29.703125 31.25 24 24.75 
L 4.09375 2.28125 
L 4.09375 0 
L 39.296875 0 
z
" id="CMR17-50"/>
      </defs>
      <g transform="translate(54.060697 311.371459)scale(0.16 -0.16)">
       <use transform="scale(0.996264)" xlink:href="#CMSY10-0"/>
       <use transform="translate(77.487468 0)scale(0.996264)" xlink:href="#CMR17-48"/>
       <use transform="translate(123.177945 0)scale(0.996264)" xlink:href="#CMMI12-58"/>
       <use transform="translate(150.275122 0)scale(0.996264)" xlink:href="#CMR17-50"/>
      </g>
     </g>
    </g>
    <g id="xtick_2">
     <g id="line2d_2">
      <g>
       <use style="stroke:#000000;stroke-width:0.8;" x="135.888908" xlink:href="#m0381fe2b6e" y="293.301871"/>
      </g>
     </g>
     <g id="text_2">
      <!-- $0.0$ -->
      <g transform="translate(125.917146 311.371459)scale(0.16 -0.16)">
       <use transform="scale(0.996264)" xlink:href="#CMR17-48"/>
       <use transform="translate(45.690477 0)scale(0.996264)" xlink:href="#CMMI12-58"/>
       <use transform="translate(72.787654 0)scale(0.996264)" xlink:href="#CMR17-48"/>
      </g>
     </g>
    </g>
    <g id="xtick_3">
     <g id="line2d_3">
      <g>
       <use style="stroke:#000000;stroke-width:0.8;" x="201.546359" xlink:href="#m0381fe2b6e" y="293.301871"/>
      </g>
     </g>
     <g id="text_3">
      <!-- $0.2$ -->
      <g transform="translate(191.574598 311.371459)scale(0.16 -0.16)">
       <use transform="scale(0.996264)" xlink:href="#CMR17-48"/>
       <use transform="translate(45.690477 0)scale(0.996264)" xlink:href="#CMMI12-58"/>
       <use transform="translate(72.787654 0)scale(0.996264)" xlink:href="#CMR17-50"/>
      </g>
     </g>
    </g>
    <g id="xtick_4">
     <g id="line2d_4">
      <g>
       <use style="stroke:#000000;stroke-width:0.8;" x="267.203811" xlink:href="#m0381fe2b6e" y="293.301871"/>
      </g>
     </g>
     <g id="text_4">
      <!-- $0.4$ -->
      <defs>
       <path d="M 33.59375 64.40625 
C 33.59375 66.5 33.5 66.5 31.703125 66.5 
L 2 19.59375 
L 2 17 
L 27.796875 17 
L 27.796875 7.140625 
C 27.796875 3.5 27.59375 2.5 20.59375 2.5 
L 18.703125 2.5 
L 18.703125 0 
C 21.90625 0 27.296875 0 30.703125 0 
C 34.09375 0 39.5 0 42.703125 0 
L 42.703125 2.5 
L 40.796875 2.5 
C 33.796875 2.5 33.59375 3.5 33.59375 7.140625 
L 33.59375 17 
L 43.796875 17 
L 43.796875 19.59375 
L 33.59375 19.59375 
z
M 28.09375 57.859375 
L 28.09375 19.59375 
L 4 19.59375 
z
" id="CMR17-52"/>
      </defs>
      <g transform="translate(257.232049 311.371459)scale(0.16 -0.16)">
       <use transform="scale(0.996264)" xlink:href="#CMR17-48"/>
       <use transform="translate(45.690477 0)scale(0.996264)" xlink:href="#CMMI12-58"/>
       <use transform="translate(72.787654 0)scale(0.996264)" xlink:href="#CMR17-52"/>
      </g>
     </g>
    </g>
    <g id="xtick_5">
     <g id="line2d_5">
      <g>
       <use style="stroke:#000000;stroke-width:0.8;" x="332.861262" xlink:href="#m0381fe2b6e" y="293.301871"/>
      </g>
     </g>
     <g id="text_5">
      <!-- $0.6$ -->
      <defs>
       <path d="M 10.59375 34 
C 10.59375 57.65625 21.796875 63 28.296875 63 
C 30.40625 63 35.5 62.640625 37.5 59 
C 35.90625 59 32.90625 59 32.90625 55.515625 
C 32.90625 52.828125 35.09375 51.921875 36.5 51.921875 
C 37.40625 51.921875 40.09375 52.3125 40.09375 55.625 
C 40.09375 61.78125 35.09375 65.296875 28.203125 65.296875 
C 16.296875 65.296875 3.796875 52.96875 3.796875 31 
C 3.796875 3.953125 15.09375 -2 23.09375 -2 
C 32.796875 -2 42 6.671875 42 20.046875 
C 42 32.515625 33.90625 41.59375 23.703125 41.59375 
C 17.59375 41.59375 13.09375 37.609375 10.59375 30.625 
z
M 23.09375 0.390625 
C 10.796875 0.390625 10.796875 18.75 10.796875 22.4375 
C 10.796875 29.625 14.203125 40 23.5 40 
C 25.203125 40 30.09375 40 33.40625 33.125 
C 35.203125 29.21875 35.203125 25.140625 35.203125 20.140625 
C 35.203125 14.75 35.203125 10.78125 33.09375 6.78125 
C 30.90625 2.671875 27.703125 0.390625 23.09375 0.390625 
z
" id="CMR17-54"/>
      </defs>
      <g transform="translate(322.889501 311.371459)scale(0.16 -0.16)">
       <use transform="scale(0.996264)" xlink:href="#CMR17-48"/>
       <use transform="translate(45.690477 0)scale(0.996264)" xlink:href="#CMMI12-58"/>
       <use transform="translate(72.787654 0)scale(0.996264)" xlink:href="#CMR17-54"/>
      </g>
     </g>
    </g>
    <g id="xtick_6">
     <g id="line2d_6">
      <g>
       <use style="stroke:#000000;stroke-width:0.8;" x="398.518714" xlink:href="#m0381fe2b6e" y="293.301871"/>
      </g>
     </g>
     <g id="text_6">
      <!-- $0.8$ -->
      <defs>
       <path d="M 27.203125 35.375 
C 33.5 38.546875 39.90625 43.328125 39.90625 50.984375 
C 39.90625 60.015625 31.09375 65.296875 23 65.296875 
C 13.90625 65.296875 5.90625 58.734375 5.90625 49.6875 
C 5.90625 47.203125 6.5 42.921875 10.40625 39.140625 
C 11.40625 38.15625 15.59375 35.171875 18.296875 33.28125 
C 13.796875 30.984375 3.296875 25.53125 3.296875 14.59375 
C 3.296875 4.359375 13.09375 -2 22.796875 -2 
C 33.5 -2 42.5 5.65625 42.5 15.78125 
C 42.5 24.84375 36.40625 29.015625 32.40625 31.703125 
z
M 14.09375 44.09375 
C 13.296875 44.59375 9.296875 47.671875 9.296875 52.359375 
C 9.296875 58.421875 15.59375 63 22.796875 63 
C 30.703125 63 36.5 57.4375 36.5 50.96875 
C 36.5 41.703125 26.09375 36.421875 25.59375 36.421875 
C 25.5 36.421875 25.40625 36.421875 24.59375 37.03125 
z
M 32.5 23.734375 
C 34 22.640625 38.796875 19.375 38.796875 13.296875 
C 38.796875 5.953125 31.40625 0.390625 23 0.390625 
C 13.90625 0.390625 7 6.84375 7 14.6875 
C 7 22.546875 13.09375 29.09375 20 32.1875 
z
" id="CMR17-56"/>
      </defs>
      <g transform="translate(388.546952 311.371459)scale(0.16 -0.16)">
       <use transform="scale(0.996264)" xlink:href="#CMR17-48"/>
       <use transform="translate(45.690477 0)scale(0.996264)" xlink:href="#CMMI12-58"/>
       <use transform="translate(72.787654 0)scale(0.996264)" xlink:href="#CMR17-56"/>
      </g>
     </g>
    </g>
    <g id="xtick_7">
     <g id="line2d_7">
      <g>
       <use style="stroke:#000000;stroke-width:0.8;" x="464.176165" xlink:href="#m0381fe2b6e" y="293.301871"/>
      </g>
     </g>
     <g id="text_7">
      <!-- $1.0$ -->
      <defs>
       <path d="M 26.59375 63.40625 
C 26.59375 65.5 26.5 65.5 25.09375 65.5 
C 21.203125 61.1875 15.296875 59.796875 9.703125 59.796875 
C 9.40625 59.796875 8.90625 59.796875 8.796875 59.5 
C 8.703125 59.296875 8.703125 59.09375 8.703125 57 
C 11.796875 57 17 57.59375 21 59.984375 
L 21 7.203125 
C 21 3.6875 20.796875 2.5 12.203125 2.5 
L 9.203125 2.5 
L 9.203125 0 
C 14 0 19 0 23.796875 0 
C 28.59375 0 33.59375 0 38.40625 0 
L 38.40625 2.5 
L 35.40625 2.5 
C 26.796875 2.5 26.59375 3.59375 26.59375 7.15625 
z
" id="CMR17-49"/>
      </defs>
      <g transform="translate(454.204404 311.371459)scale(0.16 -0.16)">
       <use transform="scale(0.996264)" xlink:href="#CMR17-49"/>
       <use transform="translate(45.690477 0)scale(0.996264)" xlink:href="#CMMI12-58"/>
       <use transform="translate(72.787654 0)scale(0.996264)" xlink:href="#CMR17-48"/>
      </g>
     </g>
    </g>
    <g id="xtick_8">
     <g id="line2d_8">
      <g>
       <use style="stroke:#000000;stroke-width:0.8;" x="529.833617" xlink:href="#m0381fe2b6e" y="293.301871"/>
      </g>
     </g>
     <g id="text_8">
      <!-- $1.2$ -->
      <g transform="translate(519.861856 311.371459)scale(0.16 -0.16)">
       <use transform="scale(0.996264)" xlink:href="#CMR17-49"/>
       <use transform="translate(45.690477 0)scale(0.996264)" xlink:href="#CMMI12-58"/>
       <use transform="translate(72.787654 0)scale(0.996264)" xlink:href="#CMR17-50"/>
      </g>
     </g>
    </g>
    <g id="text_9">
     <!-- $x$ -->
     <defs>
      <path d="M 47.40625 40.71875 
C 44.203125 40.109375 43 37.71875 43 35.828125 
C 43 33.421875 44.90625 32.625 46.296875 32.625 
C 49.296875 32.625 51.40625 35.21875 51.40625 37.921875 
C 51.40625 42.109375 46.59375 44 42.40625 44 
C 36.296875 44 32.90625 38.015625 32 36.125 
C 29.703125 44 23.5 44 21.703125 44 
C 11.5 44 6.09375 30.9375 6.09375 28.734375 
C 6.09375 28.34375 6.5 27.84375 7.203125 27.84375 
C 8 27.84375 8.203125 28.4375 8.40625 28.84375 
C 11.796875 39.921875 18.5 42.015625 21.40625 42.015625 
C 25.90625 42.015625 26.796875 37.8125 26.796875 35.421875 
C 26.796875 33.234375 26.203125 30.9375 25 26.140625 
L 21.59375 12.46875 
C 20.09375 6.484375 17.203125 1 11.90625 1 
C 11.40625 1 8.90625 1 6.796875 2.296875 
C 10.40625 3 11.203125 5.984375 11.203125 7.1875 
C 11.203125 9.1875 9.703125 10.375 7.796875 10.375 
C 5.40625 10.375 2.796875 8.28125 2.796875 5.09375 
C 2.796875 0.890625 7.5 -1 11.796875 -1 
C 16.59375 -1 20 2.796875 22.09375 6.890625 
C 23.703125 1 28.703125 -1 32.40625 -1 
C 42.59375 -1 48 12.078125 48 14.265625 
C 48 14.765625 47.59375 15.171875 47 15.171875 
C 46.09375 15.171875 46 14.671875 45.703125 13.875 
C 43 5.09375 37.203125 1 32.703125 1 
C 29.203125 1 27.296875 3.59375 27.296875 7.6875 
C 27.296875 9.875 27.703125 11.46875 29.296875 18.0625 
L 32.796875 31.625 
C 34.296875 37.625 37.703125 42.015625 42.296875 42.015625 
C 42.5 42.015625 45.296875 42.015625 47.40625 40.71875 
z
" id="CMMI12-120"/>
     </defs>
     <g transform="translate(295.177148 329.540524)scale(0.16 -0.16)">
      <use transform="scale(0.996264)" xlink:href="#CMMI12-120"/>
     </g>
    </g>
   </g>
   <g id="matplotlib.axis_2">
    <g id="ytick_1">
     <g id="line2d_9">
      <defs>
       <path d="M 0 0 
L -3.5 0 
" id="m6a9a0640b6" style="stroke:#000000;stroke-width:0.8;"/>
      </defs>
      <g>
       <use style="stroke:#000000;stroke-width:0.8;" x="54.083746" xlink:href="#m6a9a0640b6" y="277.681917"/>
      </g>
     </g>
     <g id="text_10">
      <!-- $0.0$ -->
      <g transform="translate(27.140224 283.216711)scale(0.16 -0.16)">
       <use transform="scale(0.996264)" xlink:href="#CMR17-48"/>
       <use transform="translate(45.690477 0)scale(0.996264)" xlink:href="#CMMI12-58"/>
       <use transform="translate(72.787654 0)scale(0.996264)" xlink:href="#CMR17-48"/>
      </g>
     </g>
    </g>
    <g id="ytick_2">
     <g id="line2d_10">
      <g>
       <use style="stroke:#000000;stroke-width:0.8;" x="54.083746" xlink:href="#m6a9a0640b6" y="227.409524"/>
      </g>
     </g>
     <g id="text_11">
      <!-- $0.2$ -->
      <g transform="translate(27.140224 232.944318)scale(0.16 -0.16)">
       <use transform="scale(0.996264)" xlink:href="#CMR17-48"/>
       <use transform="translate(45.690477 0)scale(0.996264)" xlink:href="#CMMI12-58"/>
       <use transform="translate(72.787654 0)scale(0.996264)" xlink:href="#CMR17-50"/>
      </g>
     </g>
    </g>
    <g id="ytick_3">
     <g id="line2d_11">
      <g>
       <use style="stroke:#000000;stroke-width:0.8;" x="54.083746" xlink:href="#m6a9a0640b6" y="177.137132"/>
      </g>
     </g>
     <g id="text_12">
      <!-- $0.4$ -->
      <g transform="translate(27.140224 182.671926)scale(0.16 -0.16)">
       <use transform="scale(0.996264)" xlink:href="#CMR17-48"/>
       <use transform="translate(45.690477 0)scale(0.996264)" xlink:href="#CMMI12-58"/>
       <use transform="translate(72.787654 0)scale(0.996264)" xlink:href="#CMR17-52"/>
      </g>
     </g>
    </g>
    <g id="ytick_4">
     <g id="line2d_12">
      <g>
       <use style="stroke:#000000;stroke-width:0.8;" x="54.083746" xlink:href="#m6a9a0640b6" y="126.864739"/>
      </g>
     </g>
     <g id="text_13">
      <!-- $0.6$ -->
      <g transform="translate(27.140224 132.399533)scale(0.16 -0.16)">
       <use transform="scale(0.996264)" xlink:href="#CMR17-48"/>
       <use transform="translate(45.690477 0)scale(0.996264)" xlink:href="#CMMI12-58"/>
       <use transform="translate(72.787654 0)scale(0.996264)" xlink:href="#CMR17-54"/>
      </g>
     </g>
    </g>
    <g id="ytick_5">
     <g id="line2d_13">
      <g>
       <use style="stroke:#000000;stroke-width:0.8;" x="54.083746" xlink:href="#m6a9a0640b6" y="76.592347"/>
      </g>
     </g>
     <g id="text_14">
      <!-- $0.8$ -->
      <g transform="translate(27.140224 82.127141)scale(0.16 -0.16)">
       <use transform="scale(0.996264)" xlink:href="#CMR17-48"/>
       <use transform="translate(45.690477 0)scale(0.996264)" xlink:href="#CMMI12-58"/>
       <use transform="translate(72.787654 0)scale(0.996264)" xlink:href="#CMR17-56"/>
      </g>
     </g>
    </g>
    <g id="ytick_6">
     <g id="line2d_14">
      <g>
       <use style="stroke:#000000;stroke-width:0.8;" x="54.083746" xlink:href="#m6a9a0640b6" y="26.319954"/>
      </g>
     </g>
     <g id="text_15">
      <!-- $1.0$ -->
      <g transform="translate(27.140224 31.854748)scale(0.16 -0.16)">
       <use transform="scale(0.996264)" xlink:href="#CMR17-49"/>
       <use transform="translate(45.690477 0)scale(0.996264)" xlink:href="#CMMI12-58"/>
       <use transform="translate(72.787654 0)scale(0.996264)" xlink:href="#CMR17-48"/>
      </g>
     </g>
    </g>
    <g id="text_16">
     <!-- $y, p(y=1)$ -->
     <defs>
      <path d="M 26.296875 -10.9375 
C 23.59375 -14.671875 19.703125 -18 14.796875 -18 
C 13.59375 -18 8.796875 -18 7.296875 -13.890625 
C 7.59375 -13.984375 8.09375 -13.984375 8.296875 -13.984375 
C 11.296875 -13.984375 13.296875 -11.390625 13.296875 -9.09375 
C 13.296875 -6.796875 11.40625 -6 9.90625 -6 
C 8.296875 -6 4.796875 -7.15625 4.796875 -11.859375 
C 4.796875 -16.734375 9.09375 -20.09375 14.796875 -20.09375 
C 24.796875 -20.09375 34.90625 -10.9375 37.703125 0.09375 
L 47.5 38.828125 
C 47.59375 39.328125 47.796875 39.9375 47.796875 40.53125 
C 47.796875 42.015625 46.59375 43.015625 45.09375 43.015625 
C 44.203125 43.015625 42.09375 42.609375 41.296875 39.609375 
L 33.90625 10.28125 
C 33.40625 8.484375 33.40625 8.28125 32.59375 7.1875 
C 30.59375 4.390625 27.296875 1 22.5 1 
C 16.90625 1 16.40625 6.484375 16.40625 9.1875 
C 16.40625 14.875 19.09375 22.546875 21.796875 29.734375 
C 22.90625 32.625 23.5 34.03125 23.5 36.015625 
C 23.5 40.21875 20.5 44 15.59375 44 
C 6.40625 44 2.703125 29.53125 2.703125 28.734375 
C 2.703125 28.34375 3.09375 27.84375 3.796875 27.84375 
C 4.703125 27.84375 4.796875 28.234375 5.203125 29.640625 
C 7.59375 38.015625 11.40625 42.015625 15.296875 42.015625 
C 16.203125 42.015625 17.90625 42.015625 17.90625 38.71875 
C 17.90625 36.125 16.796875 33.234375 15.296875 29.4375 
C 10.40625 16.359375 10.40625 13.078125 10.40625 10.671875 
C 10.40625 1.203125 17.203125 -1 22.203125 -1 
C 25.09375 -1 28.703125 -0.09375 32.203125 3.59375 
L 32.296875 3.5 
C 30.796875 -2.296875 29.796875 -6.125 26.296875 -10.9375 
z
" id="CMMI12-121"/>
      <path d="M 19.5 -0.484375 
C 19.5 5.359375 17.59375 9.671875 13.5 9.671875 
C 10.296875 9.671875 8.703125 7.078125 8.703125 4.890625 
C 8.703125 2.6875 10.203125 0 13.59375 0 
C 14.90625 0 16 0.40625 16.90625 1.296875 
C 17.09375 1.5 17.203125 1.5 17.296875 1.5 
C 17.5 1.5 17.5 0.078125 17.5 -0.421875 
C 17.5 -3.75 16.90625 -10.296875 11.09375 -16.875 
C 10 -18.078125 10 -18.28125 10 -18.484375 
C 10 -19 10.5 -19.5 11 -19.5 
C 11.796875 -19.5 19.5 -12.046875 19.5 -0.484375 
z
" id="CMMI12-59"/>
      <path d="M 4.296875 -12.328125 
C 3.59375 -15.3125 3.203125 -16.109375 -0.90625 -16.109375 
C -2.09375 -16.109375 -3.09375 -16.109375 -3.09375 -18 
C -3.09375 -18.203125 -3 -19 -1.90625 -19 
C -0.59375 -19 0.796875 -19 2.09375 -19 
L 6.40625 -19 
C 8.5 -19 13.59375 -19 15.703125 -19 
C 16.296875 -19 17.5 -19 17.5 -17.203125 
C 17.5 -16.109375 16.796875 -16.109375 15.09375 -16.109375 
C 10.5 -16.109375 10.203125 -15.421875 10.203125 -14.640625 
C 10.203125 -13.453125 14.703125 3.421875 15.296875 5.6875 
C 16.40625 2.890625 19.09375 -1 24.296875 -1 
C 35.59375 -1 47.796875 13.671875 47.796875 28.34375 
C 47.796875 37.515625 42.59375 44 35.09375 44 
C 28.703125 44 23.296875 37.8125 22.203125 36.421875 
C 21.40625 41.40625 17.5 44 13.5 44 
C 10.59375 44 8.296875 42.609375 6.40625 38.8125 
C 4.59375 35.21875 3.203125 29.140625 3.203125 28.734375 
C 3.203125 28.34375 3.59375 27.84375 4.296875 27.84375 
C 5.09375 27.84375 5.203125 27.9375 5.796875 30.234375 
C 7.296875 36.125 9.203125 42.015625 13.203125 42.015625 
C 15.5 42.015625 16.296875 40.421875 16.296875 37.453125 
C 16.296875 35.078125 16 34.078125 15.59375 32.296875 
z
M 21.59375 31.140625 
C 22.296875 33.921875 25.09375 36.828125 26.703125 38.21875 
C 27.796875 39.21875 31.09375 42.015625 34.90625 42.015625 
C 39.296875 42.015625 41.296875 37.625 41.296875 32.4375 
C 41.296875 27.640625 38.5 16.359375 36 11.171875 
C 33.5 5.78125 28.90625 1 24.296875 1 
C 17.5 1 16.40625 9.578125 16.40625 9.984375 
C 16.40625 10.28125 16.59375 11.078125 16.703125 11.578125 
z
" id="CMMI12-112"/>
      <path d="M 30.59375 -24.390625 
C 30.59375 -24.296875 30.59375 -24.09375 30.296875 -23.796875 
C 25.703125 -19.125 13.40625 -6.359375 13.40625 24.703125 
C 13.40625 55.765625 25.5 68.421875 30.40625 73.390625 
C 30.40625 73.5 30.59375 73.703125 30.59375 74 
C 30.59375 74.296875 30.296875 74.5 29.90625 74.5 
C 28.796875 74.5 20.296875 67.125 15.40625 56.15625 
C 10.40625 45.109375 9 34.359375 9 24.8125 
C 9 17.625 9.703125 5.484375 15.703125 -7.359375 
C 20.5 -17.734375 28.703125 -25 29.90625 -25 
C 30.40625 -25 30.59375 -24.796875 30.59375 -24.390625 
z
" id="CMR17-40"/>
      <path d="M 64.296875 31.515625 
C 65.796875 31.515625 67.296875 31.515625 67.296875 33.203125 
C 67.296875 35 65.59375 35 63.90625 35 
L 8 35 
C 6.296875 35 4.59375 35 4.59375 33.203125 
C 4.59375 31.515625 6.09375 31.515625 7.59375 31.515625 
z
M 63.90625 14 
C 65.59375 14 67.296875 14 67.296875 15.796875 
C 67.296875 17.484375 65.796875 17.484375 64.296875 17.484375 
L 7.59375 17.484375 
C 6.09375 17.484375 4.59375 17.484375 4.59375 15.796875 
C 4.59375 14 6.296875 14 8 14 
z
" id="CMR17-61"/>
      <path d="M 26.296875 24.703125 
C 26.296875 31.875 25.59375 44.015625 19.59375 56.859375 
C 14.796875 67.234375 6.59375 74.5 5.40625 74.5 
C 5.09375 74.5 4.703125 74.390625 4.703125 73.890625 
C 4.703125 73.703125 4.796875 73.59375 4.90625 73.390625 
C 9.703125 68.40625 21.90625 55.75 21.90625 24.75 
C 21.90625 -6.359375 9.796875 -19.015625 4.90625 -24.015625 
C 4.796875 -24.203125 4.703125 -24.3125 4.703125 -24.5 
C 4.703125 -25 5.09375 -25 5.40625 -25 
C 6.5 -25 15 -17.625 19.90625 -6.65625 
C 24.90625 4.390625 26.296875 15.140625 26.296875 24.703125 
z
" id="CMR17-41"/>
     </defs>
     <g transform="translate(19.155168 188.065378)rotate(-90)scale(0.16 -0.16)">
      <use transform="scale(0.996264)" xlink:href="#CMMI12-121"/>
      <use transform="translate(51.138781 0)scale(0.996264)" xlink:href="#CMMI12-59"/>
      <use transform="translate(94.840363 0)scale(0.996264)" xlink:href="#CMMI12-112"/>
      <use transform="translate(143.799877 0)scale(0.996264)" xlink:href="#CMR17-40"/>
      <use transform="translate(179.080645 0)scale(0.996264)" xlink:href="#CMMI12-121"/>
      <use transform="translate(257.893434 0)scale(0.996264)" xlink:href="#CMR17-61"/>
      <use transform="translate(357.282231 0)scale(0.996264)" xlink:href="#CMR17-49"/>
      <use transform="translate(402.972709 0)scale(0.996264)" xlink:href="#CMR17-41"/>
     </g>
    </g>
   </g>
   <g id="line2d_15">
    <path clip-path="url(#p058918458e)" d="M 54.083746 51.112075 
L 66.421843 52.197186 
L 76.292321 53.264344 
L 86.162798 54.523411 
L 96.033276 55.989535 
L 105.903753 57.678999 
L 115.774231 59.609022 
L 125.644708 61.797487 
L 135.515186 64.262568 
L 145.385663 67.022276 
L 152.788521 69.295849 
L 160.191379 71.751723 
L 167.594237 74.396118 
L 174.997095 77.234471 
L 182.399953 80.271247 
L 189.802812 83.509748 
L 197.20567 86.951914 
L 204.608528 90.598142 
L 212.011386 94.447112 
L 219.414244 98.495629 
L 229.284721 104.194778 
L 239.155199 110.221052 
L 249.025676 116.549471 
L 258.896154 123.148253 
L 271.234251 131.71805 
L 283.572347 140.562573 
L 303.313302 155.034837 
L 325.521877 171.300589 
L 337.859973 180.105632 
L 350.19807 188.616313 
L 360.068548 195.15276 
L 369.939025 201.404859 
L 379.809503 207.340531 
L 387.212361 211.569374 
L 394.615219 215.598251 
L 402.018077 219.421625 
L 409.420935 223.036147 
L 416.823793 226.440541 
L 424.226651 229.635438 
L 431.629509 232.623195 
L 439.032367 235.407687 
L 446.435225 237.994093 
L 453.838084 240.388674 
L 461.240942 242.598556 
L 471.111419 245.271274 
L 480.981897 247.649148 
L 490.852374 249.752511 
L 500.722851 251.601762 
L 510.593329 253.21684 
L 520.463806 254.616819 
L 530.334284 255.819603 
L 542.672381 257.070816 
L 545.14 257.289787 
L 545.14 257.289787 
" style="fill:none;stroke:#3465a4;stroke-linecap:square;stroke-width:2;"/>
   </g>
   <g id="line2d_16">
    <defs>
     <path d="M 0 3 
C 0.795609 3 1.55874 2.683901 2.12132 2.12132 
C 2.683901 1.55874 3 0.795609 3 0 
C 3 -0.795609 2.683901 -1.55874 2.12132 -2.12132 
C 1.55874 -2.683901 0.795609 -3 0 -3 
C -0.795609 -3 -1.55874 -2.683901 -2.12132 -2.12132 
C -2.683901 -1.55874 -3 -0.795609 -3 0 
C -3 0.795609 -2.683901 1.55874 -2.12132 2.12132 
C -1.55874 2.683901 -0.795609 3 0 3 
z
" id="mffa9dd062c" style="stroke:#ff0000;"/>
    </defs>
    <g clip-path="url(#p058918458e)">
     <use style="fill:#ff0000;stroke:#ff0000;" x="272.791918" xlink:href="#mffa9dd062c" y="244.024375"/>
     <use style="fill:#ff0000;stroke:#ff0000;" x="372.36226" xlink:href="#mffa9dd062c" y="218.989138"/>
     <use style="fill:#ff0000;stroke:#ff0000;" x="135.926455" xlink:href="#mffa9dd062c" y="93.129767"/>
     <use style="fill:#ff0000;stroke:#ff0000;" x="235.140839" xlink:href="#mffa9dd062c" y="139.546822"/>
     <use style="fill:#ff0000;stroke:#ff0000;" x="184.066997" xlink:href="#mffa9dd062c" y="39.953429"/>
     <use style="fill:#ff0000;stroke:#ff0000;" x="166.202492" xlink:href="#mffa9dd062c" y="50.861949"/>
     <use style="fill:#ff0000;stroke:#ff0000;" x="197.035762" xlink:href="#mffa9dd062c" y="40.383294"/>
     <use style="fill:#ff0000;stroke:#ff0000;" x="249.332091" xlink:href="#mffa9dd062c" y="207.323043"/>
     <use style="fill:#ff0000;stroke:#ff0000;" x="266.142614" xlink:href="#mffa9dd062c" y="242.017645"/>
     <use style="fill:#ff0000;stroke:#ff0000;" x="312.775576" xlink:href="#mffa9dd062c" y="139.354733"/>
     <use style="fill:#ff0000;stroke:#ff0000;" x="273.505125" xlink:href="#mffa9dd062c" y="243.926641"/>
     <use style="fill:#ff0000;stroke:#ff0000;" x="360.837738" xlink:href="#mffa9dd062c" y="161.586211"/>
     <use style="fill:#ff0000;stroke:#ff0000;" x="203.007976" xlink:href="#mffa9dd062c" y="43.393312"/>
     <use style="fill:#ff0000;stroke:#ff0000;" x="424.163673" xlink:href="#mffa9dd062c" y="274.316588"/>
     <use style="fill:#ff0000;stroke:#ff0000;" x="144.879905" xlink:href="#mffa9dd062c" y="80.607255"/>
     <use style="fill:#ff0000;stroke:#ff0000;" x="355.994848" xlink:href="#mffa9dd062c" y="138.930944"/>
     <use style="fill:#ff0000;stroke:#ff0000;" x="272.884757" xlink:href="#mffa9dd062c" y="244.015043"/>
     <use style="fill:#ff0000;stroke:#ff0000;" x="319.299659" xlink:href="#mffa9dd062c" y="117.294741"/>
     <use style="fill:#ff0000;stroke:#ff0000;" x="181.976151" xlink:href="#mffa9dd062c" y="40.517979"/>
     <use style="fill:#ff0000;stroke:#ff0000;" x="200.923102" xlink:href="#mffa9dd062c" y="42.077889"/>
     <use style="fill:#ff0000;stroke:#ff0000;" x="398.763146" xlink:href="#mffa9dd062c" y="272.238346"/>
     <use style="fill:#ff0000;stroke:#ff0000;" x="453.756845" xlink:href="#mffa9dd062c" y="253.434776"/>
     <use style="fill:#ff0000;stroke:#ff0000;" x="238.782072" xlink:href="#mffa9dd062c" y="158.955739"/>
     <use style="fill:#ff0000;stroke:#ff0000;" x="363.1696" xlink:href="#mffa9dd062c" y="173.421634"/>
     <use style="fill:#ff0000;stroke:#ff0000;" x="423.596299" xlink:href="#mffa9dd062c" y="274.3894"/>
     <use style="fill:#ff0000;stroke:#ff0000;" x="429.576876" xlink:href="#mffa9dd062c" y="273.292533"/>
     <use style="fill:#ff0000;stroke:#ff0000;" x="163.807839" xlink:href="#mffa9dd062c" y="53.452062"/>
     <use style="fill:#ff0000;stroke:#ff0000;" x="148.710095" xlink:href="#mffa9dd062c" y="74.678318"/>
     <use style="fill:#ff0000;stroke:#ff0000;" x="191.64207" xlink:href="#mffa9dd062c" y="39.343147"/>
     <use style="fill:#ff0000;stroke:#ff0000;" x="424.171902" xlink:href="#mffa9dd062c" y="274.315482"/>
     <use style="fill:#ff0000;stroke:#ff0000;" x="168.17492" xlink:href="#mffa9dd062c" y="48.934124"/>
     <use style="fill:#ff0000;stroke:#ff0000;" x="274.133175" xlink:href="#mffa9dd062c" y="243.791179"/>
     <use style="fill:#ff0000;stroke:#ff0000;" x="450.351835" xlink:href="#mffa9dd062c" y="258.507037"/>
     <use style="fill:#ff0000;stroke:#ff0000;" x="310.920277" xlink:href="#mffa9dd062c" y="146.609064"/>
     <use style="fill:#ff0000;stroke:#ff0000;" x="363.023348" xlink:href="#mffa9dd062c" y="172.669933"/>
     <use style="fill:#ff0000;stroke:#ff0000;" x="239.468669" xlink:href="#mffa9dd062c" y="162.555352"/>
     <use style="fill:#ff0000;stroke:#ff0000;" x="361.258414" xlink:href="#mffa9dd062c" y="163.691945"/>
     <use style="fill:#ff0000;stroke:#ff0000;" x="409.885881" xlink:href="#mffa9dd062c" y="274.665052"/>
     <use style="fill:#ff0000;stroke:#ff0000;" x="141.892716" xlink:href="#mffa9dd062c" y="85.077849"/>
     <use style="fill:#ff0000;stroke:#ff0000;" x="382.151728" xlink:href="#mffa9dd062c" y="252.57737"/>
     <use style="fill:#ff0000;stroke:#ff0000;" x="460.519403" xlink:href="#mffa9dd062c" y="240.904069"/>
     <use style="fill:#ff0000;stroke:#ff0000;" x="381.502158" xlink:href="#mffa9dd062c" y="250.980165"/>
     <use style="fill:#ff0000;stroke:#ff0000;" x="227.955097" xlink:href="#mffa9dd062c" y="103.165212"/>
     <use style="fill:#ff0000;stroke:#ff0000;" x="394.999254" xlink:href="#mffa9dd062c" y="270.276198"/>
     <use style="fill:#ff0000;stroke:#ff0000;" x="169.77669" xlink:href="#mffa9dd062c" y="47.506893"/>
     <use style="fill:#ff0000;stroke:#ff0000;" x="282.926645" xlink:href="#mffa9dd062c" y="236.817141"/>
     <use style="fill:#ff0000;stroke:#ff0000;" x="434.169234" xlink:href="#mffa9dd062c" y="271.817993"/>
     <use style="fill:#ff0000;stroke:#ff0000;" x="232.278691" xlink:href="#mffa9dd062c" y="124.448623"/>
     <use style="fill:#ff0000;stroke:#ff0000;" x="230.361884" xlink:href="#mffa9dd062c" y="114.71312"/>
     <use style="fill:#ff0000;stroke:#ff0000;" x="178.575631" xlink:href="#mffa9dd062c" y="41.812194"/>
     <use style="fill:#ff0000;stroke:#ff0000;" x="142.246833" xlink:href="#mffa9dd062c" y="84.559264"/>
     <use style="fill:#ff0000;stroke:#ff0000;" x="358.741963" xlink:href="#mffa9dd062c" y="151.37688"/>
     <use style="fill:#ff0000;stroke:#ff0000;" x="205.363721" xlink:href="#mffa9dd062c" y="45.291215"/>
     <use style="fill:#ff0000;stroke:#ff0000;" x="223.064492" xlink:href="#mffa9dd062c" y="82.785004"/>
     <use style="fill:#ff0000;stroke:#ff0000;" x="297.266112" xlink:href="#mffa9dd062c" y="201.52221"/>
     <use style="fill:#ff0000;stroke:#ff0000;" x="153.407151" xlink:href="#mffa9dd062c" y="67.443706"/>
     <use style="fill:#ff0000;stroke:#ff0000;" x="324.364402" xlink:href="#mffa9dd062c" y="104.982963"/>
     <use style="fill:#ff0000;stroke:#ff0000;" x="184.058029" xlink:href="#mffa9dd062c" y="39.955498"/>
     <use style="fill:#ff0000;stroke:#ff0000;" x="329.350406" xlink:href="#mffa9dd062c" y="97.451464"/>
     <use style="fill:#ff0000;stroke:#ff0000;" x="365.610661" xlink:href="#mffa9dd062c" y="186.02656"/>
     <use style="fill:#ff0000;stroke:#ff0000;" x="169.483997" xlink:href="#mffa9dd062c" y="47.758467"/>
     <use style="fill:#ff0000;stroke:#ff0000;" x="271.818212" xlink:href="#mffa9dd062c" y="244.061553"/>
     <use style="fill:#ff0000;stroke:#ff0000;" x="363.851631" xlink:href="#mffa9dd062c" y="176.936766"/>
     <use style="fill:#ff0000;stroke:#ff0000;" x="271.858684" xlink:href="#mffa9dd062c" y="244.062245"/>
     <use style="fill:#ff0000;stroke:#ff0000;" x="152.287992" xlink:href="#mffa9dd062c" y="69.14271"/>
     <use style="fill:#ff0000;stroke:#ff0000;" x="311.816869" xlink:href="#mffa9dd062c" y="143.062408"/>
     <use style="fill:#ff0000;stroke:#ff0000;" x="353.804231" xlink:href="#mffa9dd062c" y="129.963444"/>
     <use style="fill:#ff0000;stroke:#ff0000;" x="304.920442" xlink:href="#mffa9dd062c" y="171.434005"/>
     <use style="fill:#ff0000;stroke:#ff0000;" x="445.98733" xlink:href="#mffa9dd062c" y="263.730341"/>
     <use style="fill:#ff0000;stroke:#ff0000;" x="328.447453" xlink:href="#mffa9dd062c" y="98.474252"/>
     <use style="fill:#ff0000;stroke:#ff0000;" x="432.464245" xlink:href="#mffa9dd062c" y="272.444321"/>
     <use style="fill:#ff0000;stroke:#ff0000;" x="181.020101" xlink:href="#mffa9dd062c" y="40.834067"/>
     <use style="fill:#ff0000;stroke:#ff0000;" x="181.611558" xlink:href="#mffa9dd062c" y="40.634175"/>
     <use style="fill:#ff0000;stroke:#ff0000;" x="400.94518" xlink:href="#mffa9dd062c" y="273.030282"/>
     <use style="fill:#ff0000;stroke:#ff0000;" x="266.441146" xlink:href="#mffa9dd062c" y="242.224962"/>
     <use style="fill:#ff0000;stroke:#ff0000;" x="190.172584" xlink:href="#mffa9dd062c" y="39.283095"/>
     <use style="fill:#ff0000;stroke:#ff0000;" x="440.378156" xlink:href="#mffa9dd062c" y="268.518706"/>
     <use style="fill:#ff0000;stroke:#ff0000;" x="250.056008" xlink:href="#mffa9dd062c" y="209.914321"/>
     <use style="fill:#ff0000;stroke:#ff0000;" x="382.370954" xlink:href="#mffa9dd062c" y="253.097153"/>
     <use style="fill:#ff0000;stroke:#ff0000;" x="374.224795" xlink:href="#mffa9dd062c" y="226.925524"/>
     <use style="fill:#ff0000;stroke:#ff0000;" x="425.867042" xlink:href="#mffa9dd062c" y="274.061949"/>
     <use style="fill:#ff0000;stroke:#ff0000;" x="340.632546" xlink:href="#mffa9dd062c" y="97.465225"/>
     <use style="fill:#ff0000;stroke:#ff0000;" x="382.41374" xlink:href="#mffa9dd062c" y="253.197517"/>
     <use style="fill:#ff0000;stroke:#ff0000;" x="250.427787" xlink:href="#mffa9dd062c" y="211.203314"/>
     <use style="fill:#ff0000;stroke:#ff0000;" x="224.502795" xlink:href="#mffa9dd062c" y="88.303184"/>
     <use style="fill:#ff0000;stroke:#ff0000;" x="429.996937" xlink:href="#mffa9dd062c" y="273.184104"/>
     <use style="fill:#ff0000;stroke:#ff0000;" x="276.42579" xlink:href="#mffa9dd062c" y="242.900989"/>
     <use style="fill:#ff0000;stroke:#ff0000;" x="452.633601" xlink:href="#mffa9dd062c" y="255.205298"/>
     <use style="fill:#ff0000;stroke:#ff0000;" x="353.688297" xlink:href="#mffa9dd062c" y="129.515168"/>
     <use style="fill:#ff0000;stroke:#ff0000;" x="339.983691" xlink:href="#mffa9dd062c" y="96.80733"/>
     <use style="fill:#ff0000;stroke:#ff0000;" x="173.558548" xlink:href="#mffa9dd062c" y="44.624296"/>
     <use style="fill:#ff0000;stroke:#ff0000;" x="447.594132" xlink:href="#mffa9dd062c" y="261.97066"/>
     <use style="fill:#ff0000;stroke:#ff0000;" x="283.589328" xlink:href="#mffa9dd062c" y="235.879065"/>
     <use style="fill:#ff0000;stroke:#ff0000;" x="325.766848" xlink:href="#mffa9dd062c" y="102.399474"/>
     <use style="fill:#ff0000;stroke:#ff0000;" x="269.875019" xlink:href="#mffa9dd062c" y="243.801979"/>
     <use style="fill:#ff0000;stroke:#ff0000;" x="213.701845" xlink:href="#mffa9dd062c" y="56.772261"/>
     <use style="fill:#ff0000;stroke:#ff0000;" x="432.456893" xlink:href="#mffa9dd062c" y="272.446811"/>
     <use style="fill:#ff0000;stroke:#ff0000;" x="324.220573" xlink:href="#mffa9dd062c" y="105.268447"/>
     <use style="fill:#ff0000;stroke:#ff0000;" x="136.831199" xlink:href="#mffa9dd062c" y="92.00701"/>
     <use style="fill:#ff0000;stroke:#ff0000;" x="338.489719" xlink:href="#mffa9dd062c" y="95.607015"/>
     <use style="fill:#ff0000;stroke:#ff0000;" x="243.122267" xlink:href="#mffa9dd062c" y="180.920432"/>
     <use style="fill:#ff0000;stroke:#ff0000;" x="308.915367" xlink:href="#mffa9dd062c" y="154.758857"/>
     <use style="fill:#ff0000;stroke:#ff0000;" x="426.73241" xlink:href="#mffa9dd062c" y="273.910395"/>
     <use style="fill:#ff0000;stroke:#ff0000;" x="253.176017" xlink:href="#mffa9dd062c" y="219.852422"/>
     <use style="fill:#ff0000;stroke:#ff0000;" x="434.149421" xlink:href="#mffa9dd062c" y="271.825878"/>
     <use style="fill:#ff0000;stroke:#ff0000;" x="340.53009" xlink:href="#mffa9dd062c" y="97.355825"/>
     <use style="fill:#ff0000;stroke:#ff0000;" x="141.08282" xlink:href="#mffa9dd062c" y="86.249824"/>
     <use style="fill:#ff0000;stroke:#ff0000;" x="441.011308" xlink:href="#mffa9dd062c" y="268.074634"/>
     <use style="fill:#ff0000;stroke:#ff0000;" x="362.701562" xlink:href="#mffa9dd062c" y="171.019308"/>
     <use style="fill:#ff0000;stroke:#ff0000;" x="463.297291" xlink:href="#mffa9dd062c" y="234.991945"/>
     <use style="fill:#ff0000;stroke:#ff0000;" x="192.4661" xlink:href="#mffa9dd062c" y="39.416385"/>
     <use style="fill:#ff0000;stroke:#ff0000;" x="180.908827" xlink:href="#mffa9dd062c" y="40.873269"/>
     <use style="fill:#ff0000;stroke:#ff0000;" x="442.048115" xlink:href="#mffa9dd062c" y="267.297699"/>
     <use style="fill:#ff0000;stroke:#ff0000;" x="364.645431" xlink:href="#mffa9dd062c" y="181.039346"/>
     <use style="fill:#ff0000;stroke:#ff0000;" x="157.555923" xlink:href="#mffa9dd062c" y="61.405106"/>
     <use style="fill:#ff0000;stroke:#ff0000;" x="383.897801" xlink:href="#mffa9dd062c" y="256.457229"/>
     <use style="fill:#ff0000;stroke:#ff0000;" x="383.376854" xlink:href="#mffa9dd062c" y="255.361036"/>
     <use style="fill:#ff0000;stroke:#ff0000;" x="438.906101" xlink:href="#mffa9dd062c" y="269.466842"/>
     <use style="fill:#ff0000;stroke:#ff0000;" x="369.473419" xlink:href="#mffa9dd062c" y="205.513697"/>
     <use style="fill:#ff0000;stroke:#ff0000;" x="176.685481" xlink:href="#mffa9dd062c" y="42.741191"/>
     <use style="fill:#ff0000;stroke:#ff0000;" x="142.415302" xlink:href="#mffa9dd062c" y="84.311295"/>
     <use style="fill:#ff0000;stroke:#ff0000;" x="144.493641" xlink:href="#mffa9dd062c" y="81.196015"/>
     <use style="fill:#ff0000;stroke:#ff0000;" x="145.181567" xlink:href="#mffa9dd062c" y="80.145764"/>
     <use style="fill:#ff0000;stroke:#ff0000;" x="216.716864" xlink:href="#mffa9dd062c" y="63.366294"/>
     <use style="fill:#ff0000;stroke:#ff0000;" x="418.225124" xlink:href="#mffa9dd062c" y="274.820417"/>
     <use style="fill:#ff0000;stroke:#ff0000;" x="312.78028" xlink:href="#mffa9dd062c" y="139.33672"/>
     <use style="fill:#ff0000;stroke:#ff0000;" x="317.373319" xlink:href="#mffa9dd062c" y="123.147915"/>
     <use style="fill:#ff0000;stroke:#ff0000;" x="412.31692" xlink:href="#mffa9dd062c" y="274.815901"/>
     <use style="fill:#ff0000;stroke:#ff0000;" x="176.653425" xlink:href="#mffa9dd062c" y="42.758268"/>
     <use style="fill:#ff0000;stroke:#ff0000;" x="227.541352" xlink:href="#mffa9dd062c" y="101.271093"/>
     <use style="fill:#ff0000;stroke:#ff0000;" x="328.186212" xlink:href="#mffa9dd062c" y="98.798255"/>
     <use style="fill:#ff0000;stroke:#ff0000;" x="454.194837" xlink:href="#mffa9dd062c" y="252.718749"/>
     <use style="fill:#ff0000;stroke:#ff0000;" x="320.06798" xlink:href="#mffa9dd062c" y="115.133852"/>
     <use style="fill:#ff0000;stroke:#ff0000;" x="142.010575" xlink:href="#mffa9dd062c" y="84.905619"/>
     <use style="fill:#ff0000;stroke:#ff0000;" x="398.726412" xlink:href="#mffa9dd062c" y="272.223129"/>
     <use style="fill:#ff0000;stroke:#ff0000;" x="212.371393" xlink:href="#mffa9dd062c" y="54.330781"/>
     <use style="fill:#ff0000;stroke:#ff0000;" x="400.851259" xlink:href="#mffa9dd062c" y="273.000415"/>
     <use style="fill:#ff0000;stroke:#ff0000;" x="263.218615" xlink:href="#mffa9dd062c" y="239.35328"/>
     <use style="fill:#ff0000;stroke:#ff0000;" x="419.378695" xlink:href="#mffa9dd062c" y="274.764451"/>
     <use style="fill:#ff0000;stroke:#ff0000;" x="381.159423" xlink:href="#mffa9dd062c" y="250.102572"/>
     <use style="fill:#ff0000;stroke:#ff0000;" x="318.495489" xlink:href="#mffa9dd062c" y="119.663936"/>
     <use style="fill:#ff0000;stroke:#ff0000;" x="180.685419" xlink:href="#mffa9dd062c" y="40.953462"/>
     <use style="fill:#ff0000;stroke:#ff0000;" x="155.559122" xlink:href="#mffa9dd062c" y="64.252225"/>
     <use style="fill:#ff0000;stroke:#ff0000;" x="175.724418" xlink:href="#mffa9dd062c" y="43.273232"/>
     <use style="fill:#ff0000;stroke:#ff0000;" x="150.514722" xlink:href="#mffa9dd062c" y="71.872806"/>
     <use style="fill:#ff0000;stroke:#ff0000;" x="171.17786" xlink:href="#mffa9dd062c" y="46.359734"/>
     <use style="fill:#ff0000;stroke:#ff0000;" x="209.986407" xlink:href="#mffa9dd062c" y="50.589215"/>
     <use style="fill:#ff0000;stroke:#ff0000;" x="369.954105" xlink:href="#mffa9dd062c" y="207.839785"/>
     <use style="fill:#ff0000;stroke:#ff0000;" x="319.636861" xlink:href="#mffa9dd062c" y="116.333829"/>
     <use style="fill:#ff0000;stroke:#ff0000;" x="140.010876" xlink:href="#mffa9dd062c" y="87.767955"/>
     <use style="fill:#ff0000;stroke:#ff0000;" x="159.517147" xlink:href="#mffa9dd062c" y="58.74015"/>
     <use style="fill:#ff0000;stroke:#ff0000;" x="453.433401" xlink:href="#mffa9dd062c" y="253.954309"/>
     <use style="fill:#ff0000;stroke:#ff0000;" x="322.38905" xlink:href="#mffa9dd062c" y="109.235642"/>
     <use style="fill:#ff0000;stroke:#ff0000;" x="202.627486" xlink:href="#mffa9dd062c" y="43.129338"/>
     <use style="fill:#ff0000;stroke:#ff0000;" x="218.724234" xlink:href="#mffa9dd062c" y="68.655"/>
     <use style="fill:#ff0000;stroke:#ff0000;" x="380.077457" xlink:href="#mffa9dd062c" y="247.170715"/>
     <use style="fill:#ff0000;stroke:#ff0000;" x="200.045916" xlink:href="#mffa9dd062c" y="41.614814"/>
     <use style="fill:#ff0000;stroke:#ff0000;" x="326.741636" xlink:href="#mffa9dd062c" y="100.818139"/>
     <use style="fill:#ff0000;stroke:#ff0000;" x="454.33411" xlink:href="#mffa9dd062c" y="252.488091"/>
     <use style="fill:#ff0000;stroke:#ff0000;" x="413.892012" xlink:href="#mffa9dd062c" y="274.865178"/>
     <use style="fill:#ff0000;stroke:#ff0000;" x="214.627871" xlink:href="#mffa9dd062c" y="58.634924"/>
     <use style="fill:#ff0000;stroke:#ff0000;" x="297.987213" xlink:href="#mffa9dd062c" y="198.931918"/>
     <use style="fill:#ff0000;stroke:#ff0000;" x="339.41247" xlink:href="#mffa9dd062c" y="96.296871"/>
     <use style="fill:#ff0000;stroke:#ff0000;" x="408.032774" xlink:href="#mffa9dd062c" y="274.481883"/>
     <use style="fill:#ff0000;stroke:#ff0000;" x="187.361525" xlink:href="#mffa9dd062c" y="39.410609"/>
     <use style="fill:#ff0000;stroke:#ff0000;" x="141.987238" xlink:href="#mffa9dd062c" y="84.93974"/>
     <use style="fill:#ff0000;stroke:#ff0000;" x="158.876285" xlink:href="#mffa9dd062c" y="59.595381"/>
     <use style="fill:#ff0000;stroke:#ff0000;" x="295.54981" xlink:href="#mffa9dd062c" y="207.407521"/>
     <use style="fill:#ff0000;stroke:#ff0000;" x="334.939144" xlink:href="#mffa9dd062c" y="94.472621"/>
     <use style="fill:#ff0000;stroke:#ff0000;" x="322.635586" xlink:href="#mffa9dd062c" y="108.665982"/>
     <use style="fill:#ff0000;stroke:#ff0000;" x="240.074943" xlink:href="#mffa9dd062c" y="165.703095"/>
     <use style="fill:#ff0000;stroke:#ff0000;" x="460.438994" xlink:href="#mffa9dd062c" y="241.069723"/>
     <use style="fill:#ff0000;stroke:#ff0000;" x="326.211876" xlink:href="#mffa9dd062c" y="101.655689"/>
     <use style="fill:#ff0000;stroke:#ff0000;" x="260.684411" xlink:href="#mffa9dd062c" y="236.047122"/>
     <use style="fill:#ff0000;stroke:#ff0000;" x="316.758188" xlink:href="#mffa9dd062c" y="125.142636"/>
     <use style="fill:#ff0000;stroke:#ff0000;" x="380.572704" xlink:href="#mffa9dd062c" y="248.543435"/>
     <use style="fill:#ff0000;stroke:#ff0000;" x="355.589539" xlink:href="#mffa9dd062c" y="137.202933"/>
     <use style="fill:#ff0000;stroke:#ff0000;" x="222.858623" xlink:href="#mffa9dd062c" y="82.029099"/>
     <use style="fill:#ff0000;stroke:#ff0000;" x="157.665788" xlink:href="#mffa9dd062c" y="61.252152"/>
     <use style="fill:#ff0000;stroke:#ff0000;" x="257.382834" xlink:href="#mffa9dd062c" y="230.187388"/>
     <use style="fill:#ff0000;stroke:#ff0000;" x="342.617141" xlink:href="#mffa9dd062c" y="100.002293"/>
     <use style="fill:#ff0000;stroke:#ff0000;" x="204.886357" xlink:href="#mffa9dd062c" y="44.867975"/>
     <use style="fill:#ff0000;stroke:#ff0000;" x="383.008964" xlink:href="#mffa9dd062c" y="254.555834"/>
     <use style="fill:#ff0000;stroke:#ff0000;" x="157.731987" xlink:href="#mffa9dd062c" y="61.160226"/>
     <use style="fill:#ff0000;stroke:#ff0000;" x="221.347037" xlink:href="#mffa9dd062c" y="76.741366"/>
     <use style="fill:#ff0000;stroke:#ff0000;" x="400.079576" xlink:href="#mffa9dd062c" y="272.741262"/>
     <use style="fill:#ff0000;stroke:#ff0000;" x="199.390918" xlink:href="#mffa9dd062c" y="41.301217"/>
     <use style="fill:#ff0000;stroke:#ff0000;" x="345.815767" xlink:href="#mffa9dd062c" y="105.807154"/>
     <use style="fill:#ff0000;stroke:#ff0000;" x="308.131485" xlink:href="#mffa9dd062c" y="158.005473"/>
     <use style="fill:#ff0000;stroke:#ff0000;" x="439.49158" xlink:href="#mffa9dd062c" y="269.103458"/>
     <use style="fill:#ff0000;stroke:#ff0000;" x="222.325882" xlink:href="#mffa9dd062c" y="80.112725"/>
     <use style="fill:#ff0000;stroke:#ff0000;" x="157.543093" xlink:href="#mffa9dd062c" y="61.422967"/>
     <use style="fill:#ff0000;stroke:#ff0000;" x="377.201697" xlink:href="#mffa9dd062c" y="238.149984"/>
     <use style="fill:#ff0000;stroke:#ff0000;" x="389.385115" xlink:href="#mffa9dd062c" y="265.238068"/>
     <use style="fill:#ff0000;stroke:#ff0000;" x="433.913284" xlink:href="#mffa9dd062c" y="271.918615"/>
     <use style="fill:#ff0000;stroke:#ff0000;" x="441.843462" xlink:href="#mffa9dd062c" y="267.456077"/>
     <use style="fill:#ff0000;stroke:#ff0000;" x="140.469031" xlink:href="#mffa9dd062c" y="87.123987"/>
     <use style="fill:#ff0000;stroke:#ff0000;" x="212.826994" xlink:href="#mffa9dd062c" y="55.136683"/>
     <use style="fill:#ff0000;stroke:#ff0000;" x="338.369383" xlink:href="#mffa9dd062c" y="95.529213"/>
     <use style="fill:#ff0000;stroke:#ff0000;" x="447.438873" xlink:href="#mffa9dd062c" y="262.14882"/>
    </g>
   </g>
   <g id="patch_3">
    <path d="M 54.083746 293.301871 
L 54.083746 10.7 
" style="fill:none;stroke:#000000;stroke-linecap:square;stroke-linejoin:miter;stroke-width:0.8;"/>
   </g>
   <g id="patch_4">
    <path d="M 545.14 293.301871 
L 545.14 10.7 
" style="fill:none;stroke:#000000;stroke-linecap:square;stroke-linejoin:miter;stroke-width:0.8;"/>
   </g>
   <g id="patch_5">
    <path d="M 54.083746 293.301871 
L 545.14 293.301871 
" style="fill:none;stroke:#000000;stroke-linecap:square;stroke-linejoin:miter;stroke-width:0.8;"/>
   </g>
   <g id="patch_6">
    <path d="M 54.083746 10.7 
L 545.14 10.7 
" style="fill:none;stroke:#000000;stroke-linecap:square;stroke-linejoin:miter;stroke-width:0.8;"/>
   </g>
   <g id="legend_1">
    <g id="patch_7">
     <path d="M 408.168569 187.85015 
L 533.94 187.85015 
Q 537.14 187.85015 537.14 184.65015 
L 537.14 119.351721 
Q 537.14 116.151721 533.94 116.151721 
L 408.168569 116.151721 
Q 404.968569 116.151721 404.968569 119.351721 
L 404.968569 184.65015 
Q 404.968569 187.85015 408.168569 187.85015 
z
" style="fill:#ffffff;opacity:0.8;stroke:#cccccc;stroke-linejoin:miter;"/>
    </g>
    <g id="line2d_17">
     <path d="M 411.368569 128.151721 
L 443.368569 128.151721 
" style="fill:none;stroke:#3465a4;stroke-linecap:square;stroke-width:2;"/>
    </g>
    <g id="line2d_18"/>
    <g id="text_17">
     <!-- Mean -->
     <defs>
      <path d="M 20.90625 66 
C 20.296875 67.5 20.203125 67.5 18.09375 67.5 
L 5.296875 67.5 
L 5.296875 65 
C 12.203125 65 13.296875 65 13.296875 60.546875 
L 13.296875 9.53125 
C 13.296875 7.046875 13.296875 2.390625 5.296875 2.390625 
L 5.296875 -0.203125 
C 7.59375 0 11.796875 0 14.296875 0 
C 16.796875 0 21 0 23.296875 -0.203125 
L 23.296875 2.390625 
C 15.296875 2.390625 15.296875 7.046875 15.296875 9.53125 
L 15.296875 64.609375 
L 15.40625 64.609375 
L 38.90625 1.390625 
C 39.296875 0.390625 39.5 -0.203125 40.296875 -0.203125 
C 41.09375 -0.203125 41.296875 0.390625 41.703125 1.390625 
L 65.40625 65.09375 
L 65.5 65.09375 
L 65.5 6.84375 
C 65.5 2.390625 64.40625 2.390625 57.5 2.390625 
L 57.5 -0.203125 
C 60.203125 0 65.59375 0 68.5 0 
C 71.40625 0 76.90625 0 79.59375 -0.203125 
L 79.59375 2.390625 
C 72.703125 2.390625 71.59375 2.390625 71.59375 6.84375 
L 71.59375 60.546875 
C 71.59375 65 72.703125 65 79.59375 65 
L 79.59375 67.5 
L 66.90625 67.5 
C 64.796875 67.5 64.703125 67.40625 64.09375 65.90625 
L 42.5 7.84375 
z
" id="CMR17-77"/>
      <path d="M 38.09375 23 
C 38.5 23.40625 38.5 23.609375 38.5 24.625 
C 38.5 34.96875 33.09375 44 21.703125 44 
C 11.09375 44 2.703125 33.890625 2.703125 21.609375 
C 2.703125 8.609375 12.203125 -1 22.796875 -1 
C 34 -1 38.40625 9.484375 38.40625 11.5625 
C 38.40625 12.25 37.796875 12.25 37.59375 12.25 
C 36.90625 12.25 36.796875 12.046875 36.40625 10.875 
C 34.203125 4.140625 28.703125 0.796875 23.5 0.796875 
C 19.203125 0.796875 14.90625 3.171875 12.203125 7.5 
C 9.09375 12.546875 9.09375 18.375 9.09375 23 
z
M 9.203125 24.5 
C 9.90625 39.140625 17.59375 42.40625 21.59375 42.40625 
C 28.40625 42.40625 33 35.890625 33.09375 24.5 
z
" id="CMR17-101"/>
      <path d="M 36 25.828125 
C 36 32.375 36 35.84375 31.796875 39.734375 
C 28.09375 43 23.796875 44 20.40625 44 
C 12.5 44 6.796875 37.609375 6.796875 30.796875 
C 6.796875 27 9.796875 27 10.40625 27 
C 11.703125 27 14 27.78125 14 30.53125 
C 14 33 12.09375 34.078125 10.40625 34.078125 
C 10 34.078125 9.5 33.96875 9.203125 33.875 
C 11.296875 40.5 16.703125 42.40625 20.203125 42.40625 
C 25.203125 42.40625 30.703125 37.953125 30.703125 29.453125 
L 30.703125 25 
C 24.796875 25 17.703125 24.203125 12.09375 21.203125 
C 5.796875 17.703125 4 12.703125 4 8.90625 
C 4 1.203125 13 -1 18.296875 -1 
C 23.796875 -1 28.90625 2.171875 31.09375 7.984375 
C 31.296875 3.640625 34.09375 -0.28125 38.5 -0.28125 
C 40.59375 -0.28125 45.90625 1.09375 45.90625 8.859375 
L 45.90625 14.375 
L 44.09375 14.375 
L 44.09375 8.78125 
C 44.09375 2.78125 41.40625 2 40.09375 2 
C 36 2 36 7.15625 36 11.53125 
z
M 30.703125 13.59375 
C 30.703125 4.953125 24.5 0.59375 19 0.59375 
C 14 0.59375 10.09375 4.296875 10.09375 8.90625 
C 10.09375 11.890625 11.40625 17.1875 17.203125 20.390625 
C 22 23.09375 27.5 23.5 30.703125 23.5 
z
" id="CMR17-97"/>
      <path d="M 41.5 30.203125 
C 41.5 35.296875 40.5 43.59375 28.703125 43.59375 
C 20.796875 43.59375 16.703125 37.5 15.203125 33.5 
L 15.09375 33.5 
L 15.09375 43.59375 
L 3.296875 42.5 
L 3.296875 39.90625 
C 9.203125 39.90625 10.09375 39.296875 10.09375 34.5 
L 10.09375 6.6875 
C 10.09375 2.875 9.703125 2.390625 3.296875 2.390625 
L 3.296875 -0.203125 
C 5.703125 0 10.09375 0 12.703125 0 
C 15.296875 0 19.796875 0 22.203125 -0.203125 
L 22.203125 2.390625 
C 15.796875 2.390625 15.40625 2.78125 15.40625 6.6875 
L 15.40625 25.90625 
C 15.40625 35.109375 21 42 28 42 
C 35.40625 42 36.203125 35.40625 36.203125 30.59375 
L 36.203125 6.6875 
C 36.203125 2.875 35.796875 2.390625 29.40625 2.390625 
L 29.40625 -0.203125 
C 31.796875 0 36.203125 0 38.796875 0 
C 41.40625 0 45.90625 0 48.296875 -0.203125 
L 48.296875 2.390625 
C 41.90625 2.390625 41.5 2.78125 41.5 6.6875 
z
" id="CMR17-110"/>
     </defs>
     <g transform="translate(456.168569 133.751721)scale(0.16 -0.16)">
      <use transform="scale(0.996264)" xlink:href="#CMR17-77"/>
      <use transform="translate(84.686941 0)scale(0.996264)" xlink:href="#CMR17-101"/>
      <use transform="translate(125.172601 0)scale(0.996264)" xlink:href="#CMR17-97"/>
      <use transform="translate(170.863078 0)scale(0.996264)" xlink:href="#CMR17-110"/>
     </g>
    </g>
    <g id="PathCollection_2">
     <g>
      <use style="stroke:#000000;stroke-width:1.5;" x="427.368569" xlink:href="#md5d72b0583" y="151.851197"/>
     </g>
    </g>
    <g id="text_18">
     <!-- Data -->
     <defs>
      <path d="M 5.203125 68 
L 5.203125 65.40625 
C 12.09375 65.40625 13.203125 65.40625 13.203125 60.9375 
L 13.203125 7.0625 
C 13.203125 2.59375 12.09375 2.59375 5.203125 2.59375 
L 5.203125 0 
L 37 0 
C 53.09375 0 66 14.734375 66 33.453125 
C 66 52.28125 53.296875 68 37 68 
z
M 23.796875 2.59375 
C 19.796875 2.59375 19.59375 3.078125 19.59375 6.46875 
L 19.59375 61.53125 
C 19.59375 64.921875 19.796875 65.40625 23.796875 65.40625 
L 35 65.40625 
C 43.296875 65.40625 58.59375 60.53125 58.59375 33.453125 
C 58.59375 19.40625 54.5 13.734375 52.59375 11.046875 
C 50.203125 7.96875 44.5 2.59375 35 2.59375 
z
" id="CMR17-68"/>
      <path d="M 15.09375 40 
L 29.09375 40 
L 29.09375 42.578125 
L 15.09375 42.578125 
L 15.09375 61 
L 13.296875 61 
C 13.09375 50.703125 9.59375 41.6875 1.09375 41.6875 
L 1.09375 40 
L 9.796875 40 
L 9.796875 12.046875 
C 9.796875 10.15625 9.796875 -1 21.40625 -1 
C 27.296875 -1 30.703125 4.78125 30.703125 12.140625 
L 30.703125 17.8125 
L 28.90625 17.8125 
L 28.90625 12.234375 
C 28.90625 5.375 26.203125 0.796875 22 0.796875 
C 19.09375 0.796875 15.09375 2.78125 15.09375 11.84375 
z
" id="CMR17-116"/>
     </defs>
     <g transform="translate(456.168569 156.051197)scale(0.16 -0.16)">
      <use transform="scale(0.996264)" xlink:href="#CMR17-68"/>
      <use transform="translate(70.393556 0)scale(0.996264)" xlink:href="#CMR17-97"/>
      <use transform="translate(116.084033 0)scale(0.996264)" xlink:href="#CMR17-116"/>
      <use transform="translate(151.364801 0)scale(0.996264)" xlink:href="#CMR17-97"/>
     </g>
    </g>
    <g id="patch_8">
     <path d="M 411.368569 178.350674 
L 443.368569 178.350674 
L 443.368569 167.150674 
L 411.368569 167.150674 
z
" style="fill:#729fcf;opacity:0.2;stroke:#204a87;stroke-linejoin:miter;stroke-width:0.5;"/>
    </g>
    <g id="text_19">
     <!-- Confidence -->
     <defs>
      <path d="M 62.09375 67.015625 
C 62.09375 68.796875 62 68.90625 61.40625 68.90625 
C 61 68.90625 60.90625 68.796875 60.203125 67.609375 
L 55.796875 59.25 
C 50.90625 65.421875 44.90625 69 37.203125 69 
C 20.09375 69 4.59375 54 4.59375 33.5625 
C 4.59375 12.90625 20.09375 -2 37.296875 -2 
C 52.59375 -2 62.09375 11.40625 62.09375 22.828125 
C 62.09375 23.8125 62.09375 24.21875 61.203125 24.21875 
C 60.40625 24.21875 60.40625 23.921875 60.296875 23.03125 
C 59.5 9.140625 49.5 0.59375 38.703125 0.59375 
C 28.5 0.59375 12.203125 7.734375 12.203125 33.546875 
C 12.203125 59.453125 28.796875 66.40625 38.5 66.40625 
C 49.796875 66.40625 58 56.6875 59.90625 42.890625 
C 60.09375 41.6875 60.09375 41.484375 61 41.484375 
C 62.09375 41.484375 62.09375 41.6875 62.09375 43.484375 
z
" id="CMR17-67"/>
      <path d="M 43.09375 21.1875 
C 43.09375 34 33.796875 44 22.90625 44 
C 12 44 2.703125 34 2.703125 21.1875 
C 2.703125 8.609375 12 -1 22.90625 -1 
C 33.796875 -1 43.09375 8.609375 43.09375 21.1875 
z
M 22.90625 0.796875 
C 18.203125 0.796875 14.203125 3.59375 11.90625 7.5 
C 9.40625 11.984375 9.09375 17.59375 9.09375 22 
C 9.09375 26.203125 9.296875 31.40625 11.90625 35.90625 
C 13.90625 39.203125 17.796875 42.40625 22.90625 42.40625 
C 27.40625 42.40625 31.203125 39.90625 33.59375 36.40625 
C 36.703125 31.703125 36.703125 25.109375 36.703125 22 
C 36.703125 18.09375 36.5 12.109375 33.796875 7.296875 
C 31 2.703125 26.703125 0.796875 22.90625 0.796875 
z
" id="CMR17-111"/>
      <path d="M 39.90625 43.1875 
C 37.5 43.1875 30.09375 43.1875 28.203125 42.796875 
C 27.59375 42.578125 27.40625 42.578125 26.203125 42.578125 
L 14.796875 42.578125 
L 14.796875 54.203125 
C 14.796875 63.640625 22.40625 68 28.40625 68 
C 30.296875 68 34.59375 67.5 36.796875 64.078125 
C 35.796875 64.078125 32.59375 64.078125 32.59375 60.59375 
C 32.59375 58.203125 34.203125 57 36.203125 57 
C 38 57 39.796875 58 39.796875 60.703125 
C 39.796875 65.703125 35 69.59375 28.796875 69.59375 
C 20.90625 69.59375 9.90625 65.125 9.90625 54.203125 
L 9.90625 42.578125 
L 1.90625 42.578125 
L 1.90625 40 
L 9.90625 40 
L 9.90625 6.671875 
C 9.90625 2.875 9.5 2.390625 3.09375 2.390625 
L 3.09375 -0.203125 
C 5.5 0 9.90625 0 12.40625 0 
C 15 0 19.40625 0 21.796875 -0.203125 
L 21.796875 2.390625 
C 15.40625 2.390625 15 2.78125 15 6.671875 
L 15 40 
L 29.703125 40 
C 34 40 34.796875 39.09375 34.796875 34.71875 
L 34.796875 6.671875 
C 34.796875 2.875 34.40625 2.390625 28 2.390625 
L 28 -0.203125 
C 30.40625 0 34.796875 0 37.296875 0 
C 39.90625 0 44.296875 0 46.703125 -0.203125 
L 46.703125 2.390625 
C 40.296875 2.390625 39.90625 2.78125 39.90625 6.671875 
z
" id="CMR17-12"/>
      <path d="M 29.203125 67.59375 
L 29.203125 65 
C 35.09375 65 36 64.40625 36 59.6875 
L 36 36.640625 
C 35.59375 37.140625 31.5 43.59375 23.40625 43.59375 
C 13.203125 43.59375 3.296875 34.5 3.296875 21.3125 
C 3.296875 8.203125 12.59375 -1 22.40625 -1 
C 30.90625 -1 35.296875 5.265625 35.796875 5.9375 
L 35.796875 -0.984375 
L 47.90625 -0.984375 
L 47.90625 2 
C 42 2 41.09375 2.59375 41.09375 7.390625 
L 41.09375 68.6875 
z
M 35.796875 11.796875 
C 35.796875 8.796875 34 6.09375 31.703125 4.09375 
C 28.296875 1.09375 24.90625 0.59375 23 0.59375 
C 20.09375 0.59375 9.703125 2.09375 9.703125 21.1875 
C 9.703125 40.8125 21.296875 42 23.90625 42 
C 28.5 42 32.203125 39.40625 34.5 35.796875 
C 35.796875 33.703125 35.796875 33.40625 35.796875 31.609375 
z
" id="CMR17-100"/>
      <path d="M 34.90625 35 
C 33 35 30.203125 35 30.203125 31.515625 
C 30.203125 28.71875 32.5 27.921875 33.796875 27.921875 
C 34.5 27.921875 37.40625 28.234375 37.40625 31.625 
C 37.40625 38.546875 30.59375 43.796875 22.90625 43.796875 
C 12.296875 43.796875 3.296875 34.03125 3.296875 21.296875 
C 3.296875 8.0625 12.703125 -1 22.90625 -1 
C 35.296875 -1 38.40625 10.578125 38.40625 11.6875 
C 38.40625 12.09375 38.296875 12.390625 37.59375 12.390625 
C 36.90625 12.390625 36.796875 12.296875 36.40625 10.984375 
C 33.796875 2.8125 28.09375 0.796875 23.796875 0.796875 
C 17.40625 0.796875 9.703125 6.671875 9.703125 21.390625 
C 9.703125 36.53125 17.09375 42 23 42 
C 26.90625 42 32.703125 40.203125 34.90625 35 
z
" id="CMR17-99"/>
     </defs>
     <g transform="translate(456.168569 178.350674)scale(0.16 -0.16)">
      <use transform="scale(0.996264)" xlink:href="#CMR17-67"/>
      <use transform="translate(66.509881 0)scale(0.996264)" xlink:href="#CMR17-111"/>
      <use transform="translate(112.200358 0)scale(0.996264)" xlink:href="#CMR17-110"/>
      <use transform="translate(163.095727 0)scale(0.996264)" xlink:href="#CMR17-12"/>
      <use transform="translate(212.837951 0)scale(0.996264)" xlink:href="#CMR17-100"/>
      <use transform="translate(263.733321 0)scale(0.996264)" xlink:href="#CMR17-101"/>
      <use transform="translate(304.218981 0)scale(0.996264)" xlink:href="#CMR17-110"/>
      <use transform="translate(355.114351 0)scale(0.996264)" xlink:href="#CMR17-99"/>
      <use transform="translate(395.600011 0)scale(0.996264)" xlink:href="#CMR17-101"/>
     </g>
    </g>
   </g>
  </g>
 </g>
 <defs>
  <clipPath id="p058918458e">
   <rect height="282.601871" width="491.056254" x="54.083746" y="10.7"/>
  </clipPath>
 </defs>
</svg>
