<?xml version="1.0" encoding="utf-8" standalone="no"?>
<!DOCTYPE svg PUBLIC "-//W3C//DTD SVG 1.1//EN"
  "http://www.w3.org/Graphics/SVG/1.1/DTD/svg11.dtd">
<!-- Created with matplotlib (http://matplotlib.org/) -->
<svg height="344pt" version="1.1" viewBox="0 0 511 344" width="511pt" xmlns="http://www.w3.org/2000/svg" xmlns:xlink="http://www.w3.org/1999/xlink">
 <defs>
  <style type="text/css">
*{stroke-linecap:butt;stroke-linejoin:round;}
  </style>
 </defs>
 <g id="figure_1">
  <g id="patch_1">
   <path d="M 0 344.821644 
L 511.442207 344.821644 
L 511.442207 0 
L 0 0 
z
" style="fill:none;"/>
  </g>
  <g id="axes_1">
   <g id="patch_2">
    <path d="M 54.342207 298.283515 
L 500.742207 298.283515 
L 500.742207 26.483515 
L 54.342207 26.483515 
z
" style="fill:#ffffff;"/>
   </g>
   <g id="matplotlib.axis_1">
    <g id="xtick_1">
     <g id="line2d_1">
      <defs>
       <path d="M 0 0 
L 0 3.5 
" id="m76e3679584" style="stroke:#000000;stroke-width:0.8;"/>
      </defs>
      <g>
       <use style="stroke:#000000;stroke-width:0.8;" x="74.586571" xlink:href="#m76e3679584" y="298.283515"/>
      </g>
     </g>
     <g id="text_1">
      <!-- $0.0$ -->
      <defs>
       <path d="M 42 31.640625 
C 42 37.75 41.90625 48.125 37.703125 56.109375 
C 34 63.109375 28.09375 65.59375 22.90625 65.59375 
C 18.09375 65.59375 12 63.40625 8.203125 56.203125 
C 4.203125 48.71875 3.796875 39.4375 3.796875 31.640625 
C 3.796875 25.953125 3.90625 17.28125 7 9.671875 
C 11.296875 -0.609375 19 -2 22.90625 -2 
C 27.5 -2 34.5 -0.109375 38.59375 9.375 
C 41.59375 16.28125 42 24.359375 42 31.640625 
z
M 22.90625 -0.40625 
C 16.5 -0.40625 12.703125 5.078125 11.296875 12.6875 
C 10.203125 18.5625 10.203125 27.15625 10.203125 32.75 
C 10.203125 40.4375 10.203125 46.828125 11.5 52.921875 
C 13.40625 61.390625 19 64 22.90625 64 
C 27 64 32.296875 61.296875 34.203125 53.125 
C 35.5 47.4375 35.59375 40.734375 35.59375 32.75 
C 35.59375 26.25 35.59375 18.265625 34.40625 12.375 
C 32.296875 1.484375 26.40625 -0.40625 22.90625 -0.40625 
z
" id="CMR17-48"/>
       <path d="M 18.40625 4.796875 
C 18.40625 7.6875 16 9.671875 13.59375 9.671875 
C 10.703125 9.671875 8.703125 7.28125 8.703125 4.890625 
C 8.703125 2 11.09375 0 13.5 0 
C 16.40625 0 18.40625 2.390625 18.40625 4.796875 
z
" id="CMMI12-58"/>
      </defs>
      <g transform="translate(64.61481 316.353103)scale(0.16 -0.16)">
       <use transform="scale(0.996264)" xlink:href="#CMR17-48"/>
       <use transform="translate(45.690477 0)scale(0.996264)" xlink:href="#CMMI12-58"/>
       <use transform="translate(72.787654 0)scale(0.996264)" xlink:href="#CMR17-48"/>
      </g>
     </g>
    </g>
    <g id="xtick_2">
     <g id="line2d_2">
      <g>
       <use style="stroke:#000000;stroke-width:0.8;" x="155.977412" xlink:href="#m76e3679584" y="298.283515"/>
      </g>
     </g>
     <g id="text_2">
      <!-- $0.2$ -->
      <defs>
       <path d="M 41.703125 15.453125 
L 39.90625 15.453125 
C 38.90625 8.375 38.09375 7.171875 37.703125 6.5625 
C 37.203125 5.765625 30 5.765625 28.59375 5.765625 
L 9.40625 5.765625 
C 13 9.671875 20 16.75 28.5 24.953125 
C 34.59375 30.734375 41.703125 37.53125 41.703125 47.421875 
C 41.703125 59.21875 32.296875 66 21.796875 66 
C 10.796875 66 4.09375 56.3125 4.09375 47.34375 
C 4.09375 43.4375 7 42.9375 8.203125 42.9375 
C 9.203125 42.9375 12.203125 43.546875 12.203125 47.03125 
C 12.203125 50.109375 9.59375 51 8.203125 51 
C 7.59375 51 7 50.90625 6.59375 50.703125 
C 8.5 59.21875 14.296875 63.40625 20.40625 63.40625 
C 29.09375 63.40625 34.796875 56.515625 34.796875 47.421875 
C 34.796875 38.734375 29.703125 31.25 24 24.75 
L 4.09375 2.28125 
L 4.09375 0 
L 39.296875 0 
z
" id="CMR17-50"/>
      </defs>
      <g transform="translate(146.005651 316.353103)scale(0.16 -0.16)">
       <use transform="scale(0.996264)" xlink:href="#CMR17-48"/>
       <use transform="translate(45.690477 0)scale(0.996264)" xlink:href="#CMMI12-58"/>
       <use transform="translate(72.787654 0)scale(0.996264)" xlink:href="#CMR17-50"/>
      </g>
     </g>
    </g>
    <g id="xtick_3">
     <g id="line2d_3">
      <g>
       <use style="stroke:#000000;stroke-width:0.8;" x="237.368253" xlink:href="#m76e3679584" y="298.283515"/>
      </g>
     </g>
     <g id="text_3">
      <!-- $0.4$ -->
      <defs>
       <path d="M 33.59375 64.40625 
C 33.59375 66.5 33.5 66.5 31.703125 66.5 
L 2 19.59375 
L 2 17 
L 27.796875 17 
L 27.796875 7.140625 
C 27.796875 3.5 27.59375 2.5 20.59375 2.5 
L 18.703125 2.5 
L 18.703125 0 
C 21.90625 0 27.296875 0 30.703125 0 
C 34.09375 0 39.5 0 42.703125 0 
L 42.703125 2.5 
L 40.796875 2.5 
C 33.796875 2.5 33.59375 3.5 33.59375 7.140625 
L 33.59375 17 
L 43.796875 17 
L 43.796875 19.59375 
L 33.59375 19.59375 
z
M 28.09375 57.859375 
L 28.09375 19.59375 
L 4 19.59375 
z
" id="CMR17-52"/>
      </defs>
      <g transform="translate(227.396492 316.353103)scale(0.16 -0.16)">
       <use transform="scale(0.996264)" xlink:href="#CMR17-48"/>
       <use transform="translate(45.690477 0)scale(0.996264)" xlink:href="#CMMI12-58"/>
       <use transform="translate(72.787654 0)scale(0.996264)" xlink:href="#CMR17-52"/>
      </g>
     </g>
    </g>
    <g id="xtick_4">
     <g id="line2d_4">
      <g>
       <use style="stroke:#000000;stroke-width:0.8;" x="318.759094" xlink:href="#m76e3679584" y="298.283515"/>
      </g>
     </g>
     <g id="text_4">
      <!-- $0.6$ -->
      <defs>
       <path d="M 10.59375 34 
C 10.59375 57.65625 21.796875 63 28.296875 63 
C 30.40625 63 35.5 62.640625 37.5 59 
C 35.90625 59 32.90625 59 32.90625 55.515625 
C 32.90625 52.828125 35.09375 51.921875 36.5 51.921875 
C 37.40625 51.921875 40.09375 52.3125 40.09375 55.625 
C 40.09375 61.78125 35.09375 65.296875 28.203125 65.296875 
C 16.296875 65.296875 3.796875 52.96875 3.796875 31 
C 3.796875 3.953125 15.09375 -2 23.09375 -2 
C 32.796875 -2 42 6.671875 42 20.046875 
C 42 32.515625 33.90625 41.59375 23.703125 41.59375 
C 17.59375 41.59375 13.09375 37.609375 10.59375 30.625 
z
M 23.09375 0.390625 
C 10.796875 0.390625 10.796875 18.75 10.796875 22.4375 
C 10.796875 29.625 14.203125 40 23.5 40 
C 25.203125 40 30.09375 40 33.40625 33.125 
C 35.203125 29.21875 35.203125 25.140625 35.203125 20.140625 
C 35.203125 14.75 35.203125 10.78125 33.09375 6.78125 
C 30.90625 2.671875 27.703125 0.390625 23.09375 0.390625 
z
" id="CMR17-54"/>
      </defs>
      <g transform="translate(308.787332 316.353103)scale(0.16 -0.16)">
       <use transform="scale(0.996264)" xlink:href="#CMR17-48"/>
       <use transform="translate(45.690477 0)scale(0.996264)" xlink:href="#CMMI12-58"/>
       <use transform="translate(72.787654 0)scale(0.996264)" xlink:href="#CMR17-54"/>
      </g>
     </g>
    </g>
    <g id="xtick_5">
     <g id="line2d_5">
      <g>
       <use style="stroke:#000000;stroke-width:0.8;" x="400.149934" xlink:href="#m76e3679584" y="298.283515"/>
      </g>
     </g>
     <g id="text_5">
      <!-- $0.8$ -->
      <defs>
       <path d="M 27.203125 35.375 
C 33.5 38.546875 39.90625 43.328125 39.90625 50.984375 
C 39.90625 60.015625 31.09375 65.296875 23 65.296875 
C 13.90625 65.296875 5.90625 58.734375 5.90625 49.6875 
C 5.90625 47.203125 6.5 42.921875 10.40625 39.140625 
C 11.40625 38.15625 15.59375 35.171875 18.296875 33.28125 
C 13.796875 30.984375 3.296875 25.53125 3.296875 14.59375 
C 3.296875 4.359375 13.09375 -2 22.796875 -2 
C 33.5 -2 42.5 5.65625 42.5 15.78125 
C 42.5 24.84375 36.40625 29.015625 32.40625 31.703125 
z
M 14.09375 44.09375 
C 13.296875 44.59375 9.296875 47.671875 9.296875 52.359375 
C 9.296875 58.421875 15.59375 63 22.796875 63 
C 30.703125 63 36.5 57.4375 36.5 50.96875 
C 36.5 41.703125 26.09375 36.421875 25.59375 36.421875 
C 25.5 36.421875 25.40625 36.421875 24.59375 37.03125 
z
M 32.5 23.734375 
C 34 22.640625 38.796875 19.375 38.796875 13.296875 
C 38.796875 5.953125 31.40625 0.390625 23 0.390625 
C 13.90625 0.390625 7 6.84375 7 14.6875 
C 7 22.546875 13.09375 29.09375 20 32.1875 
z
" id="CMR17-56"/>
      </defs>
      <g transform="translate(390.178173 316.353103)scale(0.16 -0.16)">
       <use transform="scale(0.996264)" xlink:href="#CMR17-48"/>
       <use transform="translate(45.690477 0)scale(0.996264)" xlink:href="#CMMI12-58"/>
       <use transform="translate(72.787654 0)scale(0.996264)" xlink:href="#CMR17-56"/>
      </g>
     </g>
    </g>
    <g id="xtick_6">
     <g id="line2d_6">
      <g>
       <use style="stroke:#000000;stroke-width:0.8;" x="481.540775" xlink:href="#m76e3679584" y="298.283515"/>
      </g>
     </g>
     <g id="text_6">
      <!-- $1.0$ -->
      <defs>
       <path d="M 26.59375 63.40625 
C 26.59375 65.5 26.5 65.5 25.09375 65.5 
C 21.203125 61.1875 15.296875 59.796875 9.703125 59.796875 
C 9.40625 59.796875 8.90625 59.796875 8.796875 59.5 
C 8.703125 59.296875 8.703125 59.09375 8.703125 57 
C 11.796875 57 17 57.59375 21 59.984375 
L 21 7.203125 
C 21 3.6875 20.796875 2.5 12.203125 2.5 
L 9.203125 2.5 
L 9.203125 0 
C 14 0 19 0 23.796875 0 
C 28.59375 0 33.59375 0 38.40625 0 
L 38.40625 2.5 
L 35.40625 2.5 
C 26.796875 2.5 26.59375 3.59375 26.59375 7.15625 
z
" id="CMR17-49"/>
      </defs>
      <g transform="translate(471.569014 316.353103)scale(0.16 -0.16)">
       <use transform="scale(0.996264)" xlink:href="#CMR17-49"/>
       <use transform="translate(45.690477 0)scale(0.996264)" xlink:href="#CMMI12-58"/>
       <use transform="translate(72.787654 0)scale(0.996264)" xlink:href="#CMR17-48"/>
      </g>
     </g>
    </g>
    <g id="text_7">
     <!-- $x$ -->
     <defs>
      <path d="M 47.40625 40.71875 
C 44.203125 40.109375 43 37.71875 43 35.828125 
C 43 33.421875 44.90625 32.625 46.296875 32.625 
C 49.296875 32.625 51.40625 35.21875 51.40625 37.921875 
C 51.40625 42.109375 46.59375 44 42.40625 44 
C 36.296875 44 32.90625 38.015625 32 36.125 
C 29.703125 44 23.5 44 21.703125 44 
C 11.5 44 6.09375 30.9375 6.09375 28.734375 
C 6.09375 28.34375 6.5 27.84375 7.203125 27.84375 
C 8 27.84375 8.203125 28.4375 8.40625 28.84375 
C 11.796875 39.921875 18.5 42.015625 21.40625 42.015625 
C 25.90625 42.015625 26.796875 37.8125 26.796875 35.421875 
C 26.796875 33.234375 26.203125 30.9375 25 26.140625 
L 21.59375 12.46875 
C 20.09375 6.484375 17.203125 1 11.90625 1 
C 11.40625 1 8.90625 1 6.796875 2.296875 
C 10.40625 3 11.203125 5.984375 11.203125 7.1875 
C 11.203125 9.1875 9.703125 10.375 7.796875 10.375 
C 5.40625 10.375 2.796875 8.28125 2.796875 5.09375 
C 2.796875 0.890625 7.5 -1 11.796875 -1 
C 16.59375 -1 20 2.796875 22.09375 6.890625 
C 23.703125 1 28.703125 -1 32.40625 -1 
C 42.59375 -1 48 12.078125 48 14.265625 
C 48 14.765625 47.59375 15.171875 47 15.171875 
C 46.09375 15.171875 46 14.671875 45.703125 13.875 
C 43 5.09375 37.203125 1 32.703125 1 
C 29.203125 1 27.296875 3.59375 27.296875 7.6875 
C 27.296875 9.875 27.703125 11.46875 29.296875 18.0625 
L 32.796875 31.625 
C 34.296875 37.625 37.703125 42.015625 42.296875 42.015625 
C 42.5 42.015625 45.296875 42.015625 47.40625 40.71875 
z
" id="CMMI12-120"/>
     </defs>
     <g transform="translate(273.107482 334.522168)scale(0.16 -0.16)">
      <use transform="scale(0.996264)" xlink:href="#CMMI12-120"/>
     </g>
    </g>
   </g>
   <g id="matplotlib.axis_2">
    <g id="ytick_1">
     <g id="line2d_7">
      <defs>
       <path d="M 0 0 
L -3.5 0 
" id="mf57c556aa9" style="stroke:#000000;stroke-width:0.8;"/>
      </defs>
      <g>
       <use style="stroke:#000000;stroke-width:0.8;" x="54.342207" xlink:href="#mf57c556aa9" y="268.039245"/>
      </g>
     </g>
     <g id="text_8">
      <!-- $-2$ -->
      <defs>
       <path d="M 65.90625 23 
C 67.59375 23 69.40625 23 69.40625 25 
C 69.40625 27 67.59375 27 65.90625 27 
L 11.796875 27 
C 10.09375 27 8.296875 27 8.296875 25 
C 8.296875 23 10.09375 23 11.796875 23 
z
" id="CMSY10-0"/>
      </defs>
      <g transform="translate(27.140224 273.574039)scale(0.16 -0.16)">
       <use transform="scale(0.996264)" xlink:href="#CMSY10-0"/>
       <use transform="translate(77.487468 0)scale(0.996264)" xlink:href="#CMR17-50"/>
      </g>
     </g>
    </g>
    <g id="ytick_2">
     <g id="line2d_8">
      <g>
       <use style="stroke:#000000;stroke-width:0.8;" x="54.342207" xlink:href="#mf57c556aa9" y="204.89499"/>
      </g>
     </g>
     <g id="text_9">
      <!-- $-1$ -->
      <g transform="translate(27.140224 210.429784)scale(0.16 -0.16)">
       <use transform="scale(0.996264)" xlink:href="#CMSY10-0"/>
       <use transform="translate(77.487468 0)scale(0.996264)" xlink:href="#CMR17-49"/>
      </g>
     </g>
    </g>
    <g id="ytick_3">
     <g id="line2d_9">
      <g>
       <use style="stroke:#000000;stroke-width:0.8;" x="54.342207" xlink:href="#mf57c556aa9" y="141.750735"/>
      </g>
     </g>
     <g id="text_10">
      <!-- $0$ -->
      <g transform="translate(39.53822 147.285529)scale(0.16 -0.16)">
       <use transform="scale(0.996264)" xlink:href="#CMR17-48"/>
      </g>
     </g>
    </g>
    <g id="ytick_4">
     <g id="line2d_10">
      <g>
       <use style="stroke:#000000;stroke-width:0.8;" x="54.342207" xlink:href="#mf57c556aa9" y="78.606479"/>
      </g>
     </g>
     <g id="text_11">
      <!-- $1$ -->
      <g transform="translate(39.53822 84.141274)scale(0.16 -0.16)">
       <use transform="scale(0.996264)" xlink:href="#CMR17-49"/>
      </g>
     </g>
    </g>
    <g id="text_12">
     <!-- $f(x)$ -->
     <defs>
      <path d="M 44.59375 40.09375 
C 46.59375 40.09375 47.40625 40.09375 47.40625 42 
C 47.40625 43 46.59375 43 44.796875 43 
L 36.703125 43 
C 38.59375 53.578125 40 60.890625 40.796875 64.171875 
C 41.40625 66.640625 43.5 69 46.09375 69 
C 48.203125 69 50.296875 68.09375 51.296875 67.15625 
C 47.40625 66.75 46.203125 63.78125 46.203125 62.015625 
C 46.203125 59.953125 47.703125 58.734375 49.59375 58.734375 
C 51.59375 58.734375 54.59375 60.46875 54.59375 64.359375 
C 54.59375 68.640625 50.40625 71 46 71 
C 41.703125 71 37.5 67.71875 35.5 63.71875 
C 33.703125 60.125 32.703125 56.421875 30.40625 43 
L 23.703125 43 
C 21.796875 43 20.796875 43 20.796875 41.203125 
C 20.796875 40.09375 21.40625 40.09375 23.40625 40.09375 
L 29.796875 40.09375 
C 28 30.875 23.90625 8.46875 21.59375 -2.140625 
C 19.90625 -10.765625 18.40625 -18 13.40625 -18 
C 13.09375 -18 10.203125 -18 8.40625 -16.109375 
C 13.5 -15.703125 13.5 -11.34375 13.5 -11.25 
C 13.5 -9.265625 12 -8.078125 10.09375 -8.078125 
C 8.09375 -8.078125 5.09375 -9.765625 5.09375 -13.546875 
C 5.09375 -17.8125 9.5 -20 13.40625 -20 
C 23.59375 -20 27.796875 -1.84375 28.90625 3.109375 
C 30.703125 10.75 35.59375 37.125 36.09375 40.09375 
z
" id="CMMI12-102"/>
      <path d="M 30.59375 -24.390625 
C 30.59375 -24.296875 30.59375 -24.09375 30.296875 -23.796875 
C 25.703125 -19.125 13.40625 -6.359375 13.40625 24.703125 
C 13.40625 55.765625 25.5 68.421875 30.40625 73.390625 
C 30.40625 73.5 30.59375 73.703125 30.59375 74 
C 30.59375 74.296875 30.296875 74.5 29.90625 74.5 
C 28.796875 74.5 20.296875 67.125 15.40625 56.15625 
C 10.40625 45.109375 9 34.359375 9 24.8125 
C 9 17.625 9.703125 5.484375 15.703125 -7.359375 
C 20.5 -17.734375 28.703125 -25 29.90625 -25 
C 30.40625 -25 30.59375 -24.796875 30.59375 -24.390625 
z
" id="CMR17-40"/>
      <path d="M 26.296875 24.703125 
C 26.296875 31.875 25.59375 44.015625 19.59375 56.859375 
C 14.796875 67.234375 6.59375 74.5 5.40625 74.5 
C 5.09375 74.5 4.703125 74.390625 4.703125 73.890625 
C 4.703125 73.703125 4.796875 73.59375 4.90625 73.390625 
C 9.703125 68.40625 21.90625 55.75 21.90625 24.75 
C 21.90625 -6.359375 9.796875 -19.015625 4.90625 -24.015625 
C 4.796875 -24.203125 4.703125 -24.3125 4.703125 -24.5 
C 4.703125 -25 5.09375 -25 5.40625 -25 
C 6.5 -25 15 -17.625 19.90625 -6.65625 
C 24.90625 4.390625 26.296875 15.140625 26.296875 24.703125 
z
" id="CMR17-41"/>
     </defs>
     <g transform="translate(19.155168 177.585632)rotate(-90)scale(0.16 -0.16)">
      <use transform="scale(0.996264)" xlink:href="#CMMI12-102"/>
      <use transform="translate(58.720305 0)scale(0.996264)" xlink:href="#CMR17-40"/>
      <use transform="translate(94.001073 0)scale(0.996264)" xlink:href="#CMMI12-120"/>
      <use transform="translate(149.435132 0)scale(0.996264)" xlink:href="#CMR17-41"/>
     </g>
    </g>
   </g>
   <g id="line2d_11">
    <defs>
     <path d="M 0 3 
C 0.795609 3 1.55874 2.683901 2.12132 2.12132 
C 2.683901 1.55874 3 0.795609 3 0 
C 3 -0.795609 2.683901 -1.55874 2.12132 -2.12132 
C 1.55874 -2.683901 0.795609 -3 0 -3 
C -0.795609 -3 -1.55874 -2.683901 -2.12132 -2.12132 
C -2.683901 -1.55874 -3 -0.795609 -3 0 
C -3 0.795609 -2.683901 1.55874 -2.12132 2.12132 
C -1.55874 2.683901 -0.795609 3 0 3 
z
" id="mf9904e52ed" style="stroke:#0000ff;"/>
    </defs>
    <g clip-path="url(#p491ad4ed47)">
     <use style="fill:#0000ff;stroke:#0000ff;" x="244.295429" xlink:href="#mf9904e52ed" y="211.723404"/>
     <use style="fill:#0000ff;stroke:#0000ff;" x="367.725652" xlink:href="#mf9904e52ed" y="187.680098"/>
     <use style="fill:#0000ff;stroke:#0000ff;" x="74.633116" xlink:href="#mf9904e52ed" y="102.248187"/>
     <use style="fill:#0000ff;stroke:#0000ff;" x="197.622083" xlink:href="#mf9904e52ed" y="133.88828"/>
     <use style="fill:#0000ff;stroke:#0000ff;" x="134.309498" xlink:href="#mf9904e52ed" y="40.399335"/>
     <use style="fill:#0000ff;stroke:#0000ff;" x="112.16415" xlink:href="#mf9904e52ed" y="59.970122"/>
     <use style="fill:#0000ff;stroke:#0000ff;" x="150.385947" xlink:href="#mf9904e52ed" y="41.368821"/>
     <use style="fill:#0000ff;stroke:#0000ff;" x="215.213962" xlink:href="#mf9904e52ed" y="178.570602"/>
     <use style="fill:#0000ff;stroke:#0000ff;" x="236.052763" xlink:href="#mf9904e52ed" y="209.434598"/>
     <use style="fill:#0000ff;stroke:#0000ff;" x="293.860306" xlink:href="#mf9904e52ed" y="133.766369"/>
     <use style="fill:#0000ff;stroke:#0000ff;" x="245.179541" xlink:href="#mf9904e52ed" y="211.609802"/>
     <use style="fill:#0000ff;stroke:#0000ff;" x="353.439528" xlink:href="#mf9904e52ed" y="147.795671"/>
     <use style="fill:#0000ff;stroke:#0000ff;" x="157.789274" xlink:href="#mf9904e52ed" y="47.575054"/>
     <use style="fill:#0000ff;stroke:#0000ff;" x="431.940154" xlink:href="#mf9904e52ed" y="281.599909"/>
     <use style="fill:#0000ff;stroke:#0000ff;" x="85.732067" xlink:href="#mf9904e52ed" y="92.127729"/>
     <use style="fill:#0000ff;stroke:#0000ff;" x="347.436143" xlink:href="#mf9904e52ed" y="133.497299"/>
     <use style="fill:#0000ff;stroke:#0000ff;" x="244.410515" xlink:href="#mf9904e52ed" y="211.712548"/>
     <use style="fill:#0000ff;stroke:#0000ff;" x="301.947746" xlink:href="#mf9904e52ed" y="119.441136"/>
     <use style="fill:#0000ff;stroke:#0000ff;" x="131.717626" xlink:href="#mf9904e52ed" y="41.667764"/>
     <use style="fill:#0000ff;stroke:#0000ff;" x="155.204805" xlink:href="#mf9904e52ed" y="44.977381"/>
     <use style="fill:#0000ff;stroke:#0000ff;" x="400.45294" xlink:href="#mf9904e52ed" y="269.345248"/>
     <use style="fill:#0000ff;stroke:#0000ff;" x="468.62469" xlink:href="#mf9904e52ed" y="223.962761"/>
     <use style="fill:#0000ff;stroke:#0000ff;" x="202.135858" xlink:href="#mf9904e52ed" y="146.133595"/>
     <use style="fill:#0000ff;stroke:#0000ff;" x="356.33017" xlink:href="#mf9904e52ed" y="155.343304"/>
     <use style="fill:#0000ff;stroke:#0000ff;" x="431.236821" xlink:href="#mf9904e52ed" y="282.137633"/>
     <use style="fill:#0000ff;stroke:#0000ff;" x="438.650514" xlink:href="#mf9904e52ed" y="274.936439"/>
     <use style="fill:#0000ff;stroke:#0000ff;" x="109.19567" xlink:href="#mf9904e52ed" y="63.606189"/>
     <use style="fill:#0000ff;stroke:#0000ff;" x="90.480079" xlink:href="#mf9904e52ed" y="86.869557"/>
     <use style="fill:#0000ff;stroke:#0000ff;" x="143.699774" xlink:href="#mf9904e52ed" y="38.980508"/>
     <use style="fill:#0000ff;stroke:#0000ff;" x="431.950355" xlink:href="#mf9904e52ed" y="281.591817"/>
     <use style="fill:#0000ff;stroke:#0000ff;" x="114.609228" xlink:href="#mf9904e52ed" y="57.076751"/>
     <use style="fill:#0000ff;stroke:#0000ff;" x="245.958089" xlink:href="#mf9904e52ed" y="211.452719"/>
     <use style="fill:#0000ff;stroke:#0000ff;" x="464.403743" xlink:href="#mf9904e52ed" y="232.079845"/>
     <use style="fill:#0000ff;stroke:#0000ff;" x="291.560425" xlink:href="#mf9904e52ed" y="138.35391"/>
     <use style="fill:#0000ff;stroke:#0000ff;" x="356.148871" xlink:href="#mf9904e52ed" y="154.859268"/>
     <use style="fill:#0000ff;stroke:#0000ff;" x="202.986984" xlink:href="#mf9904e52ed" y="148.409024"/>
     <use style="fill:#0000ff;stroke:#0000ff;" x="353.96101" xlink:href="#mf9904e52ed" y="149.129159"/>
     <use style="fill:#0000ff;stroke:#0000ff;" x="414.240997" xlink:href="#mf9904e52ed" y="284.271291"/>
     <use style="fill:#0000ff;stroke:#0000ff;" x="82.029062" xlink:href="#mf9904e52ed" y="95.874773"/>
     <use style="fill:#0000ff;stroke:#0000ff;" x="379.860954" xlink:href="#mf9904e52ed" y="222.718678"/>
     <use style="fill:#0000ff;stroke:#0000ff;" x="477.007749" xlink:href="#mf9904e52ed" y="208.202026"/>
     <use style="fill:#0000ff;stroke:#0000ff;" x="379.05573" xlink:href="#mf9904e52ed" y="220.481448"/>
     <use style="fill:#0000ff;stroke:#0000ff;" x="188.714433" xlink:href="#mf9904e52ed" y="109.671448"/>
     <use style="fill:#0000ff;stroke:#0000ff;" x="395.787112" xlink:href="#mf9904e52ed" y="261.01473"/>
     <use style="fill:#0000ff;stroke:#0000ff;" x="116.594828" xlink:href="#mf9904e52ed" y="54.814345"/>
     <use style="fill:#0000ff;stroke:#0000ff;" x="256.858725" xlink:href="#mf9904e52ed" y="203.880657"/>
     <use style="fill:#0000ff;stroke:#0000ff;" x="444.343331" xlink:href="#mf9904e52ed" y="267.369837"/>
     <use style="fill:#0000ff;stroke:#0000ff;" x="194.074083" xlink:href="#mf9904e52ed" y="124.177172"/>
     <use style="fill:#0000ff;stroke:#0000ff;" x="191.697955" xlink:href="#mf9904e52ed" y="117.702179"/>
     <use style="fill:#0000ff;stroke:#0000ff;" x="127.502245" xlink:href="#mf9904e52ed" y="44.432359"/>
     <use style="fill:#0000ff;stroke:#0000ff;" x="82.468036" xlink:href="#mf9904e52ed" y="95.448557"/>
     <use style="fill:#0000ff;stroke:#0000ff;" x="350.841545" xlink:href="#mf9904e52ed" y="141.357773"/>
     <use style="fill:#0000ff;stroke:#0000ff;" x="160.709523" xlink:href="#mf9904e52ed" y="51.063468"/>
     <use style="fill:#0000ff;stroke:#0000ff;" x="182.6519" xlink:href="#mf9904e52ed" y="93.97403"/>
     <use style="fill:#0000ff;stroke:#0000ff;" x="274.634335" xlink:href="#mf9904e52ed" y="174.322143"/>
     <use style="fill:#0000ff;stroke:#0000ff;" x="96.302683" xlink:href="#mf9904e52ed" y="79.884882"/>
     <use style="fill:#0000ff;stroke:#0000ff;" x="308.226144" xlink:href="#mf9904e52ed" y="110.967041"/>
     <use style="fill:#0000ff;stroke:#0000ff;" x="134.298381" xlink:href="#mf9904e52ed" y="40.404058"/>
     <use style="fill:#0000ff;stroke:#0000ff;" x="314.406937" xlink:href="#mf9904e52ed" y="105.506022"/>
     <use style="fill:#0000ff;stroke:#0000ff;" x="359.356178" xlink:href="#mf9904e52ed" y="163.604765"/>
     <use style="fill:#0000ff;stroke:#0000ff;" x="116.231997" xlink:href="#mf9904e52ed" y="55.221236"/>
     <use style="fill:#0000ff;stroke:#0000ff;" x="243.088396" xlink:href="#mf9904e52ed" y="211.766679"/>
     <use style="fill:#0000ff;stroke:#0000ff;" x="357.175635" xlink:href="#mf9904e52ed" y="157.6179"/>
     <use style="fill:#0000ff;stroke:#0000ff;" x="243.138566" xlink:href="#mf9904e52ed" y="211.767485"/>
     <use style="fill:#0000ff;stroke:#0000ff;" x="94.915341" xlink:href="#mf9904e52ed" y="81.591176"/>
     <use style="fill:#0000ff;stroke:#0000ff;" x="292.671866" xlink:href="#mf9904e52ed" y="136.114792"/>
     <use style="fill:#0000ff;stroke:#0000ff;" x="344.720593" xlink:href="#mf9904e52ed" y="127.760404"/>
     <use style="fill:#0000ff;stroke:#0000ff;" x="284.12286" xlink:href="#mf9904e52ed" y="154.065086"/>
     <use style="fill:#0000ff;stroke:#0000ff;" x="458.993378" xlink:href="#mf9904e52ed" y="242.382435"/>
     <use style="fill:#0000ff;stroke:#0000ff;" x="313.287611" xlink:href="#mf9904e52ed" y="106.262803"/>
     <use style="fill:#0000ff;stroke:#0000ff;" x="442.229779" xlink:href="#mf9904e52ed" y="270.360656"/>
     <use style="fill:#0000ff;stroke:#0000ff;" x="130.53248" xlink:href="#mf9904e52ed" y="42.36067"/>
     <use style="fill:#0000ff;stroke:#0000ff;" x="131.265666" xlink:href="#mf9904e52ed" y="41.923879"/>
     <use style="fill:#0000ff;stroke:#0000ff;" x="403.157851" xlink:href="#mf9904e52ed" y="273.446781"/>
     <use style="fill:#0000ff;stroke:#0000ff;" x="236.422832" xlink:href="#mf9904e52ed" y="209.66693"/>
     <use style="fill:#0000ff;stroke:#0000ff;" x="141.878157" xlink:href="#mf9904e52ed" y="38.838061"/>
     <use style="fill:#0000ff;stroke:#0000ff;" x="452.040087" xlink:href="#mf9904e52ed" y="254.993839"/>
     <use style="fill:#0000ff;stroke:#0000ff;" x="216.11135" xlink:href="#mf9904e52ed" y="180.52246"/>
     <use style="fill:#0000ff;stroke:#0000ff;" x="380.132713" xlink:href="#mf9904e52ed" y="223.469087"/>
     <use style="fill:#0000ff;stroke:#0000ff;" x="370.034504" xlink:href="#mf9904e52ed" y="194.461238"/>
     <use style="fill:#0000ff;stroke:#0000ff;" x="434.051699" xlink:href="#mf9904e52ed" y="279.795106"/>
     <use style="fill:#0000ff;stroke:#0000ff;" x="328.392598" xlink:href="#mf9904e52ed" y="105.516239"/>
     <use style="fill:#0000ff;stroke:#0000ff;" x="380.185752" xlink:href="#mf9904e52ed" y="223.615317"/>
     <use style="fill:#0000ff;stroke:#0000ff;" x="216.572218" xlink:href="#mf9904e52ed" y="181.507239"/>
     <use style="fill:#0000ff;stroke:#0000ff;" x="184.434861" xlink:href="#mf9904e52ed" y="98.480422"/>
     <use style="fill:#0000ff;stroke:#0000ff;" x="439.171234" xlink:href="#mf9904e52ed" y="274.311568"/>
     <use style="fill:#0000ff;stroke:#0000ff;" x="248.800081" xlink:href="#mf9904e52ed" y="210.430994"/>
     <use style="fill:#0000ff;stroke:#0000ff;" x="467.232285" xlink:href="#mf9904e52ed" y="226.638045"/>
     <use style="fill:#0000ff;stroke:#0000ff;" x="344.576878" xlink:href="#mf9904e52ed" y="127.470968"/>
     <use style="fill:#0000ff;stroke:#0000ff;" x="327.588258" xlink:href="#mf9904e52ed" y="105.026736"/>
     <use style="fill:#0000ff;stroke:#0000ff;" x="121.282927" xlink:href="#mf9904e52ed" y="49.869466"/>
     <use style="fill:#0000ff;stroke:#0000ff;" x="460.985217" xlink:href="#mf9904e52ed" y="238.619317"/>
     <use style="fill:#0000ff;stroke:#0000ff;" x="257.680205" xlink:href="#mf9904e52ed" y="202.929215"/>
     <use style="fill:#0000ff;stroke:#0000ff;" x="309.964656" xlink:href="#mf9904e52ed" y="109.121635"/>
     <use style="fill:#0000ff;stroke:#0000ff;" x="240.679559" xlink:href="#mf9904e52ed" y="211.465226"/>
     <use style="fill:#0000ff;stroke:#0000ff;" x="171.045697" xlink:href="#mf9904e52ed" y="67.918612"/>
     <use style="fill:#0000ff;stroke:#0000ff;" x="442.220665" xlink:href="#mf9904e52ed" y="270.373138"/>
     <use style="fill:#0000ff;stroke:#0000ff;" x="308.04785" xlink:href="#mf9904e52ed" y="111.169332"/>
     <use style="fill:#0000ff;stroke:#0000ff;" x="75.754663" xlink:href="#mf9904e52ed" y="101.384684"/>
     <use style="fill:#0000ff;stroke:#0000ff;" x="325.736288" xlink:href="#mf9904e52ed" y="104.127902"/>
     <use style="fill:#0000ff;stroke:#0000ff;" x="207.516087" xlink:href="#mf9904e52ed" y="160.220988"/>
     <use style="fill:#0000ff;stroke:#0000ff;" x="289.075082" xlink:href="#mf9904e52ed" y="143.487579"/>
     <use style="fill:#0000ff;stroke:#0000ff;" x="435.124433" xlink:href="#mf9904e52ed" y="278.772227"/>
     <use style="fill:#0000ff;stroke:#0000ff;" x="219.979002" xlink:href="#mf9904e52ed" y="188.391232"/>
     <use style="fill:#0000ff;stroke:#0000ff;" x="444.31877" xlink:href="#mf9904e52ed" y="267.405777"/>
     <use style="fill:#0000ff;stroke:#0000ff;" x="328.265591" xlink:href="#mf9904e52ed" y="105.434992"/>
     <use style="fill:#0000ff;stroke:#0000ff;" x="81.025092" xlink:href="#mf9904e52ed" y="96.830401"/>
     <use style="fill:#0000ff;stroke:#0000ff;" x="452.824961" xlink:href="#mf9904e52ed" y="253.624381"/>
     <use style="fill:#0000ff;stroke:#0000ff;" x="355.749976" xlink:href="#mf9904e52ed" y="153.799053"/>
     <use style="fill:#0000ff;stroke:#0000ff;" x="480.451298" xlink:href="#mf9904e52ed" y="202.04206"/>
     <use style="fill:#0000ff;stroke:#0000ff;" x="144.721265" xlink:href="#mf9904e52ed" y="39.153527"/>
     <use style="fill:#0000ff;stroke:#0000ff;" x="130.394541" xlink:href="#mf9904e52ed" y="42.445775"/>
     <use style="fill:#0000ff;stroke:#0000ff;" x="454.110216" xlink:href="#mf9904e52ed" y="251.347816"/>
     <use style="fill:#0000ff;stroke:#0000ff;" x="358.159651" xlink:href="#mf9904e52ed" y="160.299154"/>
     <use style="fill:#0000ff;stroke:#0000ff;" x="101.445619" xlink:href="#mf9904e52ed" y="73.415556"/>
     <use style="fill:#0000ff;stroke:#0000ff;" x="382.025437" xlink:href="#mf9904e52ed" y="228.62584"/>
     <use style="fill:#0000ff;stroke:#0000ff;" x="381.379655" xlink:href="#mf9904e52ed" y="226.88075"/>
     <use style="fill:#0000ff;stroke:#0000ff;" x="450.215286" xlink:href="#mf9904e52ed" y="258.11025"/>
     <use style="fill:#0000ff;stroke:#0000ff;" x="364.144563" xlink:href="#mf9904e52ed" y="177.228401"/>
     <use style="fill:#0000ff;stroke:#0000ff;" x="125.159161" xlink:href="#mf9904e52ed" y="46.307443"/>
     <use style="fill:#0000ff;stroke:#0000ff;" x="82.676875" xlink:href="#mf9904e52ed" y="95.244008"/>
     <use style="fill:#0000ff;stroke:#0000ff;" x="85.253242" xlink:href="#mf9904e52ed" y="92.631014"/>
     <use style="fill:#0000ff;stroke:#0000ff;" x="86.106015" xlink:href="#mf9904e52ed" y="91.731023"/>
     <use style="fill:#0000ff;stroke:#0000ff;" x="174.7832" xlink:href="#mf9904e52ed" y="75.592859"/>
     <use style="fill:#0000ff;stroke:#0000ff;" x="424.578561" xlink:href="#mf9904e52ed" y="285.549521"/>
     <use style="fill:#0000ff;stroke:#0000ff;" x="293.866138" xlink:href="#mf9904e52ed" y="133.754935"/>
     <use style="fill:#0000ff;stroke:#0000ff;" x="299.559799" xlink:href="#mf9904e52ed" y="123.324165"/>
     <use style="fill:#0000ff;stroke:#0000ff;" x="417.254583" xlink:href="#mf9904e52ed" y="285.511531"/>
     <use style="fill:#0000ff;stroke:#0000ff;" x="125.119424" xlink:href="#mf9904e52ed" y="46.34113"/>
     <use style="fill:#0000ff;stroke:#0000ff;" x="188.201543" xlink:href="#mf9904e52ed" y="108.30689"/>
     <use style="fill:#0000ff;stroke:#0000ff;" x="312.963769" xlink:href="#mf9904e52ed" y="106.501474"/>
     <use style="fill:#0000ff;stroke:#0000ff;" x="469.167637" xlink:href="#mf9904e52ed" y="222.921652"/>
     <use style="fill:#0000ff;stroke:#0000ff;" x="302.900177" xlink:href="#mf9904e52ed" y="117.986792"/>
     <use style="fill:#0000ff;stroke:#0000ff;" x="82.175164" xlink:href="#mf9904e52ed" y="95.733453"/>
     <use style="fill:#0000ff;stroke:#0000ff;" x="400.407403" xlink:href="#mf9904e52ed" y="269.27153"/>
     <use style="fill:#0000ff;stroke:#0000ff;" x="169.396431" xlink:href="#mf9904e52ed" y="64.782587"/>
     <use style="fill:#0000ff;stroke:#0000ff;" x="403.041424" xlink:href="#mf9904e52ed" y="273.281697"/>
     <use style="fill:#0000ff;stroke:#0000ff;" x="232.428091" xlink:href="#mf9904e52ed" y="206.526548"/>
     <use style="fill:#0000ff;stroke:#0000ff;" x="426.008559" xlink:href="#mf9904e52ed" y="285.082286"/>
     <use style="fill:#0000ff;stroke:#0000ff;" x="378.630865" xlink:href="#mf9904e52ed" y="219.293172"/>
     <use style="fill:#0000ff;stroke:#0000ff;" x="300.950873" xlink:href="#mf9904e52ed" y="121.022218"/>
     <use style="fill:#0000ff;stroke:#0000ff;" x="130.117599" xlink:href="#mf9904e52ed" y="42.619313"/>
     <use style="fill:#0000ff;stroke:#0000ff;" x="98.970327" xlink:href="#mf9904e52ed" y="76.551052"/>
     <use style="fill:#0000ff;stroke:#0000ff;" x="123.9678" xlink:href="#mf9904e52ed" y="47.344486"/>
     <use style="fill:#0000ff;stroke:#0000ff;" x="92.717145" xlink:href="#mf9904e52ed" y="84.244637"/>
     <use style="fill:#0000ff;stroke:#0000ff;" x="118.331759" xlink:href="#mf9904e52ed" y="52.911492"/>
     <use style="fill:#0000ff;stroke:#0000ff;" x="166.439935" xlink:href="#mf9904e52ed" y="59.571205"/>
     <use style="fill:#0000ff;stroke:#0000ff;" x="364.740434" xlink:href="#mf9904e52ed" y="178.956976"/>
     <use style="fill:#0000ff;stroke:#0000ff;" x="302.36575" xlink:href="#mf9904e52ed" y="118.79592"/>
     <use style="fill:#0000ff;stroke:#0000ff;" x="79.69628" xlink:href="#mf9904e52ed" y="98.053212"/>
     <use style="fill:#0000ff;stroke:#0000ff;" x="103.876807" xlink:href="#mf9904e52ed" y="70.319753"/>
     <use style="fill:#0000ff;stroke:#0000ff;" x="468.22374" xlink:href="#mf9904e52ed" y="224.732392"/>
     <use style="fill:#0000ff;stroke:#0000ff;" x="305.777442" xlink:href="#mf9904e52ed" y="113.949326"/>
     <use style="fill:#0000ff;stroke:#0000ff;" x="157.317608" xlink:href="#mf9904e52ed" y="47.066526"/>
     <use style="fill:#0000ff;stroke:#0000ff;" x="177.271594" xlink:href="#mf9904e52ed" y="81.105906"/>
     <use style="fill:#0000ff;stroke:#0000ff;" x="377.28963" xlink:href="#mf9904e52ed" y="215.509441"/>
     <use style="fill:#0000ff;stroke:#0000ff;" x="154.11742" xlink:href="#mf9904e52ed" y="44.022726"/>
     <use style="fill:#0000ff;stroke:#0000ff;" x="311.173031" xlink:href="#mf9904e52ed" y="107.978271"/>
     <use style="fill:#0000ff;stroke:#0000ff;" x="469.340284" xlink:href="#mf9904e52ed" y="222.590932"/>
     <use style="fill:#0000ff;stroke:#0000ff;" x="419.207112" xlink:href="#mf9904e52ed" y="285.92897"/>
     <use style="fill:#0000ff;stroke:#0000ff;" x="172.193625" xlink:href="#mf9904e52ed" y="70.19397"/>
     <use style="fill:#0000ff;stroke:#0000ff;" x="275.528232" xlink:href="#mf9904e52ed" y="172.472755"/>
     <use style="fill:#0000ff;stroke:#0000ff;" x="326.880157" xlink:href="#mf9904e52ed" y="104.645408"/>
     <use style="fill:#0000ff;stroke:#0000ff;" x="411.943833" xlink:href="#mf9904e52ed" y="282.835657"/>
     <use style="fill:#0000ff;stroke:#0000ff;" x="138.393488" xlink:href="#mf9904e52ed" y="39.13991"/>
     <use style="fill:#0000ff;stroke:#0000ff;" x="82.146235" xlink:href="#mf9904e52ed" y="95.761469"/>
     <use style="fill:#0000ff;stroke:#0000ff;" x="103.082377" xlink:href="#mf9904e52ed" y="71.331717"/>
     <use style="fill:#0000ff;stroke:#0000ff;" x="272.506759" xlink:href="#mf9904e52ed" y="178.633672"/>
     <use style="fill:#0000ff;stroke:#0000ff;" x="321.334895" xlink:href="#mf9904e52ed" y="103.271369"/>
     <use style="fill:#0000ff;stroke:#0000ff;" x="306.083055" xlink:href="#mf9904e52ed" y="113.553562"/>
     <use style="fill:#0000ff;stroke:#0000ff;" x="203.738538" xlink:href="#mf9904e52ed" y="150.405822"/>
     <use style="fill:#0000ff;stroke:#0000ff;" x="476.908072" xlink:href="#mf9904e52ed" y="208.383775"/>
     <use style="fill:#0000ff;stroke:#0000ff;" x="310.516325" xlink:href="#mf9904e52ed" y="108.585206"/>
     <use style="fill:#0000ff;stroke:#0000ff;" x="229.286619" xlink:href="#mf9904e52ed" y="203.098642"/>
     <use style="fill:#0000ff;stroke:#0000ff;" x="298.797265" xlink:href="#mf9904e52ed" y="124.630989"/>
     <use style="fill:#0000ff;stroke:#0000ff;" x="377.903551" xlink:href="#mf9904e52ed" y="217.247283"/>
     <use style="fill:#0000ff;stroke:#0000ff;" x="346.933711" xlink:href="#mf9904e52ed" y="132.398556"/>
     <use style="fill:#0000ff;stroke:#0000ff;" x="182.396699" xlink:href="#mf9904e52ed" y="93.33787"/>
     <use style="fill:#0000ff;stroke:#0000ff;" x="101.581811" xlink:href="#mf9904e52ed" y="73.242316"/>
     <use style="fill:#0000ff;stroke:#0000ff;" x="225.193891" xlink:href="#mf9904e52ed" y="197.429876"/>
     <use style="fill:#0000ff;stroke:#0000ff;" x="330.852758" xlink:href="#mf9904e52ed" y="107.384049"/>
     <use style="fill:#0000ff;stroke:#0000ff;" x="160.117768" xlink:href="#mf9904e52ed" y="50.309525"/>
     <use style="fill:#0000ff;stroke:#0000ff;" x="380.923608" xlink:href="#mf9904e52ed" y="225.63917"/>
     <use style="fill:#0000ff;stroke:#0000ff;" x="101.663872" xlink:href="#mf9904e52ed" y="73.13795"/>
     <use style="fill:#0000ff;stroke:#0000ff;" x="180.522895" xlink:href="#mf9904e52ed" y="88.740784"/>
     <use style="fill:#0000ff;stroke:#0000ff;" x="402.084824" xlink:href="#mf9904e52ed" y="271.885725"/>
     <use style="fill:#0000ff;stroke:#0000ff;" x="153.305466" xlink:href="#mf9904e52ed" y="43.363318"/>
     <use style="fill:#0000ff;stroke:#0000ff;" x="334.817865" xlink:href="#mf9904e52ed" y="111.550203"/>
     <use style="fill:#0000ff;stroke:#0000ff;" x="288.103359" xlink:href="#mf9904e52ed" y="145.533972"/>
     <use style="fill:#0000ff;stroke:#0000ff;" x="450.941063" xlink:href="#mf9904e52ed" y="256.882549"/>
     <use style="fill:#0000ff;stroke:#0000ff;" x="181.736299" xlink:href="#mf9904e52ed" y="91.702546"/>
     <use style="fill:#0000ff;stroke:#0000ff;" x="101.429714" xlink:href="#mf9904e52ed" y="73.435752"/>
     <use style="fill:#0000ff;stroke:#0000ff;" x="373.724755" xlink:href="#mf9904e52ed" y="205.257276"/>
     <use style="fill:#0000ff;stroke:#0000ff;" x="388.827667" xlink:href="#mf9904e52ed" y="245.917627"/>
     <use style="fill:#0000ff;stroke:#0000ff;" x="444.026049" xlink:href="#mf9904e52ed" y="267.831559"/>
     <use style="fill:#0000ff;stroke:#0000ff;" x="453.856523" xlink:href="#mf9904e52ed" y="251.800385"/>
     <use style="fill:#0000ff;stroke:#0000ff;" x="80.264222" xlink:href="#mf9904e52ed" y="97.536541"/>
     <use style="fill:#0000ff;stroke:#0000ff;" x="169.961207" xlink:href="#mf9904e52ed" y="65.838495"/>
     <use style="fill:#0000ff;stroke:#0000ff;" x="325.587117" xlink:href="#mf9904e52ed" y="104.069379"/>
     <use style="fill:#0000ff;stroke:#0000ff;" x="460.792753" xlink:href="#mf9904e52ed" y="238.984829"/>
    </g>
   </g>
   <g id="patch_3">
    <path d="M 54.342207 298.283515 
L 54.342207 26.483515 
" style="fill:none;stroke:#000000;stroke-linecap:square;stroke-linejoin:miter;stroke-width:0.8;"/>
   </g>
   <g id="patch_4">
    <path d="M 500.742207 298.283515 
L 500.742207 26.483515 
" style="fill:none;stroke:#000000;stroke-linecap:square;stroke-linejoin:miter;stroke-width:0.8;"/>
   </g>
   <g id="patch_5">
    <path d="M 54.342207 298.283515 
L 500.742207 298.283515 
" style="fill:none;stroke:#000000;stroke-linecap:square;stroke-linejoin:miter;stroke-width:0.8;"/>
   </g>
   <g id="patch_6">
    <path d="M 54.342207 26.483515 
L 500.742207 26.483515 
" style="fill:none;stroke:#000000;stroke-linecap:square;stroke-linejoin:miter;stroke-width:0.8;"/>
   </g>
   <g id="text_13">
    <!-- latent function values -->
    <defs>
     <path d="M 15.296875 68.6875 
L 3.40625 67.59375 
L 3.40625 65 
C 9.296875 65 10.203125 64.40625 10.203125 59.640625 
L 10.203125 6.65625 
C 10.203125 2.875 9.796875 2.390625 3.40625 2.390625 
L 3.40625 -0.203125 
C 5.796875 0 10.203125 0 12.703125 0 
C 15.296875 0 19.703125 0 22.09375 -0.203125 
L 22.09375 2.390625 
C 15.703125 2.390625 15.296875 2.78125 15.296875 6.65625 
z
" id="CMR17-108"/>
     <path d="M 36 25.828125 
C 36 32.375 36 35.84375 31.796875 39.734375 
C 28.09375 43 23.796875 44 20.40625 44 
C 12.5 44 6.796875 37.609375 6.796875 30.796875 
C 6.796875 27 9.796875 27 10.40625 27 
C 11.703125 27 14 27.78125 14 30.53125 
C 14 33 12.09375 34.078125 10.40625 34.078125 
C 10 34.078125 9.5 33.96875 9.203125 33.875 
C 11.296875 40.5 16.703125 42.40625 20.203125 42.40625 
C 25.203125 42.40625 30.703125 37.953125 30.703125 29.453125 
L 30.703125 25 
C 24.796875 25 17.703125 24.203125 12.09375 21.203125 
C 5.796875 17.703125 4 12.703125 4 8.90625 
C 4 1.203125 13 -1 18.296875 -1 
C 23.796875 -1 28.90625 2.171875 31.09375 7.984375 
C 31.296875 3.640625 34.09375 -0.28125 38.5 -0.28125 
C 40.59375 -0.28125 45.90625 1.09375 45.90625 8.859375 
L 45.90625 14.375 
L 44.09375 14.375 
L 44.09375 8.78125 
C 44.09375 2.78125 41.40625 2 40.09375 2 
C 36 2 36 7.15625 36 11.53125 
z
M 30.703125 13.59375 
C 30.703125 4.953125 24.5 0.59375 19 0.59375 
C 14 0.59375 10.09375 4.296875 10.09375 8.90625 
C 10.09375 11.890625 11.40625 17.1875 17.203125 20.390625 
C 22 23.09375 27.5 23.5 30.703125 23.5 
z
" id="CMR17-97"/>
     <path d="M 15.09375 40 
L 29.09375 40 
L 29.09375 42.578125 
L 15.09375 42.578125 
L 15.09375 61 
L 13.296875 61 
C 13.09375 50.703125 9.59375 41.6875 1.09375 41.6875 
L 1.09375 40 
L 9.796875 40 
L 9.796875 12.046875 
C 9.796875 10.15625 9.796875 -1 21.40625 -1 
C 27.296875 -1 30.703125 4.78125 30.703125 12.140625 
L 30.703125 17.8125 
L 28.90625 17.8125 
L 28.90625 12.234375 
C 28.90625 5.375 26.203125 0.796875 22 0.796875 
C 19.09375 0.796875 15.09375 2.78125 15.09375 11.84375 
z
" id="CMR17-116"/>
     <path d="M 38.09375 23 
C 38.5 23.40625 38.5 23.609375 38.5 24.625 
C 38.5 34.96875 33.09375 44 21.703125 44 
C 11.09375 44 2.703125 33.890625 2.703125 21.609375 
C 2.703125 8.609375 12.203125 -1 22.796875 -1 
C 34 -1 38.40625 9.484375 38.40625 11.5625 
C 38.40625 12.25 37.796875 12.25 37.59375 12.25 
C 36.90625 12.25 36.796875 12.046875 36.40625 10.875 
C 34.203125 4.140625 28.703125 0.796875 23.5 0.796875 
C 19.203125 0.796875 14.90625 3.171875 12.203125 7.5 
C 9.09375 12.546875 9.09375 18.375 9.09375 23 
z
M 9.203125 24.5 
C 9.90625 39.140625 17.59375 42.40625 21.59375 42.40625 
C 28.40625 42.40625 33 35.890625 33.09375 24.5 
z
" id="CMR17-101"/>
     <path d="M 41.5 30.203125 
C 41.5 35.296875 40.5 43.59375 28.703125 43.59375 
C 20.796875 43.59375 16.703125 37.5 15.203125 33.5 
L 15.09375 33.5 
L 15.09375 43.59375 
L 3.296875 42.5 
L 3.296875 39.90625 
C 9.203125 39.90625 10.09375 39.296875 10.09375 34.5 
L 10.09375 6.6875 
C 10.09375 2.875 9.703125 2.390625 3.296875 2.390625 
L 3.296875 -0.203125 
C 5.703125 0 10.09375 0 12.703125 0 
C 15.296875 0 19.796875 0 22.203125 -0.203125 
L 22.203125 2.390625 
C 15.796875 2.390625 15.40625 2.78125 15.40625 6.6875 
L 15.40625 25.90625 
C 15.40625 35.109375 21 42 28 42 
C 35.40625 42 36.203125 35.40625 36.203125 30.59375 
L 36.203125 6.6875 
C 36.203125 2.875 35.796875 2.390625 29.40625 2.390625 
L 29.40625 -0.203125 
C 31.796875 0 36.203125 0 38.796875 0 
C 41.40625 0 45.90625 0 48.296875 -0.203125 
L 48.296875 2.390625 
C 41.90625 2.390625 41.5 2.78125 41.5 6.6875 
z
" id="CMR17-110"/>
     <path d="M 15.296875 40 
L 26.703125 40 
L 26.703125 42.578125 
L 15.09375 42.578125 
L 15.09375 54.59375 
C 15.09375 62.84375 19.296875 68 23.59375 68 
C 24.90625 68 26.40625 67.609375 27.40625 66.90625 
C 26.59375 66.703125 24.5 66.015625 24.5 63.546875 
C 24.5 60.953125 26.5 60.15625 27.90625 60.15625 
C 29.296875 60.15625 31.296875 60.953125 31.296875 63.546875 
C 31.296875 67.3125 27.703125 69.59375 23.703125 69.59375 
C 18 69.59375 10.203125 64.9375 10.203125 54.390625 
L 10.203125 42.578125 
L 2.203125 42.578125 
L 2.203125 40 
L 10.203125 40 
L 10.203125 6.671875 
C 10.203125 2.875 9.796875 2.390625 3.40625 2.390625 
L 3.40625 -0.203125 
C 5.796875 0 10.40625 0 13 0 
C 15.90625 0 21 0 23.703125 -0.203125 
L 23.703125 2.390625 
C 16.5 2.390625 15.296875 2.390625 15.296875 6.859375 
z
" id="CMR17-102"/>
     <path d="M 29.40625 42.078125 
L 29.40625 39.5 
C 35.296875 39.5 36.203125 38.890625 36.203125 34.15625 
L 36.203125 16.125 
C 36.203125 7.8125 31.703125 0.59375 24.296875 0.59375 
C 16.09375 0.59375 15.40625 5.4375 15.40625 10.59375 
L 15.40625 43.171875 
L 3.296875 42.078125 
L 3.296875 39.5 
C 7.296875 39.5 10 39.5 10.09375 35.53125 
L 10.09375 16.53125 
C 10.09375 9.890625 10.09375 5.640625 12.703125 2.859375 
C 14 1.578125 16.5 -1 23.703125 -1 
C 32.203125 -1 35.5 5.890625 36.296875 7.90625 
L 36.40625 7.90625 
L 36.40625 -0.984375 
L 48.296875 -0.984375 
L 48.296875 2 
C 42.40625 2 41.5 2.59375 41.5 7.390625 
L 41.5 43.171875 
z
" id="CMR17-117"/>
     <path d="M 34.90625 35 
C 33 35 30.203125 35 30.203125 31.515625 
C 30.203125 28.71875 32.5 27.921875 33.796875 27.921875 
C 34.5 27.921875 37.40625 28.234375 37.40625 31.625 
C 37.40625 38.546875 30.59375 43.796875 22.90625 43.796875 
C 12.296875 43.796875 3.296875 34.03125 3.296875 21.296875 
C 3.296875 8.0625 12.703125 -1 22.90625 -1 
C 35.296875 -1 38.40625 10.578125 38.40625 11.6875 
C 38.40625 12.09375 38.296875 12.390625 37.59375 12.390625 
C 36.90625 12.390625 36.796875 12.296875 36.40625 10.984375 
C 33.796875 2.8125 28.09375 0.796875 23.796875 0.796875 
C 17.40625 0.796875 9.703125 6.671875 9.703125 21.390625 
C 9.703125 36.53125 17.09375 42 23 42 
C 26.90625 42 32.703125 40.203125 34.90625 35 
z
" id="CMR17-99"/>
     <path d="M 15.5 61.078125 
C 15.5 63.265625 13.703125 65.15625 11.40625 65.15625 
C 9.203125 65.15625 7.296875 63.375 7.296875 61.078125 
C 7.296875 58.890625 9.09375 57 11.40625 57 
C 13.59375 57 15.5 58.796875 15.5 61.078125 
z
M 3.796875 42.28125 
L 3.796875 39.703125 
C 9.40625 39.703125 10.203125 39.09375 10.203125 34.328125 
L 10.203125 6.671875 
C 10.203125 2.875 9.796875 2.390625 3.40625 2.390625 
L 3.40625 -0.203125 
C 5.796875 0 10.09375 0 12.59375 0 
C 15 0 19.09375 0 21.40625 -0.203125 
L 21.40625 2.390625 
C 15.5 2.390625 15.296875 2.984375 15.296875 6.5625 
L 15.296875 43.375 
z
" id="CMR17-105"/>
     <path d="M 43.09375 21.1875 
C 43.09375 34 33.796875 44 22.90625 44 
C 12 44 2.703125 34 2.703125 21.1875 
C 2.703125 8.609375 12 -1 22.90625 -1 
C 33.796875 -1 43.09375 8.609375 43.09375 21.1875 
z
M 22.90625 0.796875 
C 18.203125 0.796875 14.203125 3.59375 11.90625 7.5 
C 9.40625 11.984375 9.09375 17.59375 9.09375 22 
C 9.09375 26.203125 9.296875 31.40625 11.90625 35.90625 
C 13.90625 39.203125 17.796875 42.40625 22.90625 42.40625 
C 27.40625 42.40625 31.203125 39.90625 33.59375 36.40625 
C 36.703125 31.703125 36.703125 25.109375 36.703125 22 
C 36.703125 18.09375 36.5 12.109375 33.796875 7.296875 
C 31 2.703125 26.703125 0.796875 22.90625 0.796875 
z
" id="CMR17-111"/>
     <path d="M 39.09375 33.796875 
C 40 36 41.59375 40 47.40625 40 
L 47.40625 42.59375 
C 45.5 42.59375 43 42.59375 41.09375 42.59375 
C 39 42.59375 35.703125 42.59375 33.703125 42.6875 
L 33.703125 40.09375 
C 36.203125 39.890625 37.59375 38.703125 37.59375 36.109375 
C 37.59375 35.203125 37.59375 35 37 33.609375 
L 26 5.890625 
L 14.09375 35.71875 
C 13.5 37.015625 13.5 37.203125 13.5 37.609375 
C 13.5 40 16.796875 40 18.296875 40 
L 18.296875 42.6875 
C 15.90625 42.59375 11.5 42.59375 9 42.59375 
C 6.296875 42.59375 3.203125 42.59375 1 42.6875 
L 1 40 
C 4.796875 40 6.90625 40 8.09375 36.90625 
L 22.59375 0.6875 
C 23.203125 -0.796875 23.296875 -1 24.203125 -1 
C 25.09375 -1 25.203125 -0.796875 25.796875 0.6875 
z
" id="CMR17-118"/>
     <path d="M 30.90625 42.140625 
C 30.90625 43.953125 30.796875 44.046875 30.203125 44.046875 
C 29.796875 44.046875 29.703125 43.953125 28.5 42.453125 
C 28.203125 42.046875 27.296875 41.03125 27 40.640625 
C 23.796875 44.046875 19.296875 44.046875 17.59375 44.046875 
C 6.5 44.046875 2.5 38.234375 2.5 32.4375 
C 2.5 23.40625 12.703125 21.328125 15.59375 20.703125 
C 21.90625 19.421875 24.09375 19.015625 26.203125 17.203125 
C 27.5 16.015625 29.703125 13.8125 29.703125 10.21875 
C 29.703125 6 27.296875 0.59375 18.09375 0.59375 
C 9.40625 0.59375 6.296875 7.1875 4.5 15.953125 
C 4.203125 17.34375 4.203125 17.453125 3.40625 17.453125 
C 2.59375 17.453125 2.5 17.34375 2.5 15.359375 
L 2.5 0.984375 
C 2.5 -0.796875 2.59375 -0.90625 3.203125 -0.90625 
C 3.703125 -0.90625 3.796875 -0.796875 4.296875 0 
C 4.90625 0.890625 6.40625 3.296875 7 4.3125 
C 9 1.609375 12.5 -1 18.09375 -1 
C 28 -1 33.296875 4.421875 33.296875 12.25 
C 33.296875 17.375 30.59375 20.078125 29.296875 21.28125 
C 26.296875 24.390625 22.796875 25.09375 18.59375 25.890625 
C 13.09375 27.109375 6.09375 28.515625 6.09375 34.640625 
C 6.09375 37.234375 7.5 42.765625 17.59375 42.765625 
C 28.296875 42.765625 28.90625 32.71875 29.09375 29.5 
C 29.203125 29 29.703125 28.890625 30 28.890625 
C 30.90625 28.890625 30.90625 29.203125 30.90625 30.90625 
z
" id="CMR17-115"/>
    </defs>
    <g transform="translate(195.234482 20.483515)scale(0.192 -0.192)">
     <use transform="scale(0.996264)" xlink:href="#CMR17-108"/>
     <use transform="translate(24.871058 0)scale(0.996264)" xlink:href="#CMR17-97"/>
     <use transform="translate(70.561536 0)scale(0.996264)" xlink:href="#CMR17-116"/>
     <use transform="translate(105.842303 0)scale(0.996264)" xlink:href="#CMR17-101"/>
     <use transform="translate(146.327964 0)scale(0.996264)" xlink:href="#CMR17-110"/>
     <use transform="translate(194.62088 0)scale(0.996264)" xlink:href="#CMR17-116"/>
     <use transform="translate(259.977614 0)scale(0.996264)" xlink:href="#CMR17-102"/>
     <use transform="translate(287.451126 0)scale(0.996264)" xlink:href="#CMR17-117"/>
     <use transform="translate(338.346496 0)scale(0.996264)" xlink:href="#CMR17-110"/>
     <use transform="translate(389.241866 0)scale(0.996264)" xlink:href="#CMR17-99"/>
     <use transform="translate(429.727526 0)scale(0.996264)" xlink:href="#CMR17-116"/>
     <use transform="translate(465.008294 0)scale(0.996264)" xlink:href="#CMR17-105"/>
     <use transform="translate(489.879353 0)scale(0.996264)" xlink:href="#CMR17-111"/>
     <use transform="translate(535.56983 0)scale(0.996264)" xlink:href="#CMR17-110"/>
     <use transform="translate(616.541166 0)scale(0.996264)" xlink:href="#CMR17-118"/>
     <use transform="translate(659.629265 0)scale(0.996264)" xlink:href="#CMR17-97"/>
     <use transform="translate(705.319742 0)scale(0.996264)" xlink:href="#CMR17-108"/>
     <use transform="translate(730.190801 0)scale(0.996264)" xlink:href="#CMR17-117"/>
     <use transform="translate(781.08617 0)scale(0.996264)" xlink:href="#CMR17-101"/>
     <use transform="translate(821.571831 0)scale(0.996264)" xlink:href="#CMR17-115"/>
    </g>
   </g>
  </g>
 </g>
 <defs>
  <clipPath id="p491ad4ed47">
   <rect height="271.8" width="446.4" x="54.342207" y="26.483515"/>
  </clipPath>
 </defs>
</svg>
