<?xml version="1.0" encoding="utf-8" standalone="no"?>
<!DOCTYPE svg PUBLIC "-//W3C//DTD SVG 1.1//EN"
  "http://www.w3.org/Graphics/SVG/1.1/DTD/svg11.dtd">
<!-- Created with matplotlib (http://matplotlib.org/) -->
<svg height="339pt" version="1.1" viewBox="0 0 555 339" width="555pt" xmlns="http://www.w3.org/2000/svg" xmlns:xlink="http://www.w3.org/1999/xlink">
 <defs>
  <style type="text/css">
*{stroke-linecap:butt;stroke-linejoin:round;}
  </style>
 </defs>
 <g id="figure_1">
  <g id="patch_1">
   <path d="M 0 339.84 
L 555.84 339.84 
L 555.84 0 
L 0 0 
z
" style="fill:none;"/>
  </g>
  <g id="axes_1">
   <g id="patch_2">
    <path d="M 54.342207 293.301871 
L 545.14 293.301871 
L 545.14 10.7 
L 54.342207 10.7 
z
" style="fill:#ffffff;"/>
   </g>
   <g id="PolyCollection_1">
    <defs>
     <path d="M 54.342207 -316.29446 
L 54.342207 -81.048852 
L 56.808528 -81.792089 
L 59.274848 -82.6585 
L 61.741169 -83.661827 
L 64.207489 -84.816265 
L 66.67381 -86.136294 
L 69.140131 -87.636474 
L 71.606451 -89.331221 
L 74.072772 -91.234554 
L 76.539092 -93.35982 
L 79.005413 -95.719406 
L 81.471733 -98.324441 
L 83.938054 -101.184488 
L 86.404375 -104.30724 
L 88.870695 -107.698223 
L 91.337016 -111.360515 
L 93.803336 -115.294477 
L 96.269657 -119.497519 
L 98.735977 -123.963887 
L 101.202298 -128.684491 
L 103.668619 -133.646765 
L 106.134939 -138.834564 
L 108.60126 -144.228106 
L 111.06758 -149.803948 
L 113.533901 -155.534993 
L 116.000221 -161.390538 
L 118.466542 -167.336353 
L 120.932863 -173.334797 
L 123.399183 -179.344971 
L 125.865504 -185.322944 
L 128.331824 -191.222064 
L 130.798145 -196.993442 
L 133.264465 -202.586674 
L 135.730786 -207.950938 
L 138.197106 -213.036598 
L 140.663427 -217.797393 
L 143.129748 -222.193184 
L 145.596068 -226.192967 
L 148.062389 -229.777565 
L 150.528709 -232.941198 
L 152.99503 -235.691259 
L 155.46135 -238.046086 
L 157.927671 -240.031195 
L 160.393992 -241.674924 
L 162.860312 -243.004462 
L 165.326633 -244.042925 
L 167.792953 -244.807671 
L 170.259274 -245.309728 
L 172.725594 -245.554029 
L 175.191915 -245.540153 
L 177.658236 -245.263338 
L 180.124556 -244.715574 
L 182.590877 -243.886691 
L 185.057197 -242.765385 
L 187.523518 -241.340136 
L 189.989838 -239.600044 
L 192.456159 -237.535565 
L 194.92248 -235.139166 
L 197.3888 -232.40592 
L 199.855121 -229.334063 
L 202.321441 -225.925505 
L 204.787762 -222.186346 
L 207.254082 -218.12735 
L 209.720403 -213.764404 
L 212.186723 -209.118913 
L 214.653044 -204.218085 
L 217.119365 -199.095059 
L 219.585685 -193.788821 
L 222.052006 -188.343858 
L 224.518326 -182.809531 
L 226.984647 -177.239193 
L 229.450967 -171.689076 
L 231.917288 -166.21703 
L 234.383609 -160.881192 
L 236.849929 -155.738656 
L 239.31625 -150.844224 
L 241.78257 -146.249292 
L 244.248891 -142.000902 
L 246.715211 -138.140998 
L 249.181532 -134.70588 
L 251.647853 -131.725867 
L 254.114173 -129.225157 
L 256.580494 -127.221847 
L 259.046814 -125.728107 
L 261.513135 -124.75045 
L 263.979455 -124.290067 
L 266.445776 -124.343182 
L 268.912097 -124.901388 
L 271.378417 -125.951935 
L 273.844738 -127.47795 
L 276.311058 -129.458584 
L 278.777379 -131.869087 
L 281.243699 -134.680835 
L 283.71002 -137.861325 
L 286.17634 -141.374172 
L 288.642661 -145.179121 
L 291.108982 -149.232117 
L 293.575302 -153.485438 
L 296.041623 -157.887924 
L 298.507943 -162.38532 
L 300.974264 -166.920744 
L 303.440584 -171.43532 
L 305.906905 -175.868977 
L 308.373226 -180.161444 
L 310.839546 -184.25343 
L 313.305867 -188.087979 
L 315.772187 -191.611926 
L 318.238508 -194.777351 
L 320.704828 -197.542878 
L 323.171149 -199.874665 
L 325.63747 -201.746931 
L 328.10379 -203.141948 
L 330.570111 -204.04951 
L 333.036431 -204.465997 
L 335.502752 -204.39317 
L 337.969072 -203.836889 
L 340.435393 -202.805893 
L 342.901714 -201.310732 
L 345.368034 -199.362911 
L 347.834355 -196.974258 
L 350.300675 -194.156522 
L 352.766996 -190.921197 
L 355.233316 -187.279587 
L 357.699637 -183.24313 
L 360.165957 -178.824009 
L 362.632278 -174.03607 
L 365.098599 -168.896012 
L 367.564919 -163.424768 
L 370.03124 -157.648921 
L 372.49756 -151.601905 
L 374.963881 -145.324771 
L 377.430201 -138.866312 
L 379.896522 -132.282494 
L 382.362843 -125.635255 
L 384.829163 -118.990867 
L 387.295484 -112.418062 
L 389.761804 -105.986148 
L 392.228125 -99.763242 
L 394.694445 -93.814716 
L 397.160766 -88.201862 
L 399.627087 -82.980795 
L 402.093407 -78.201538 
L 404.559728 -73.907282 
L 407.026048 -70.133779 
L 409.492369 -66.908842 
L 411.958689 -64.251935 
L 414.42501 -62.173823 
L 416.891331 -60.676287 
L 419.357651 -59.751868 
L 421.823972 -59.383669 
L 424.290292 -59.545192 
L 426.756613 -60.200284 
L 429.222933 -61.303215 
L 431.689254 -62.79902 
L 434.155574 -64.624243 
L 436.621895 -66.708254 
L 439.088216 -68.975338 
L 441.554536 -71.347604 
L 444.020857 -73.748652 
L 446.487177 -76.107578 
L 448.953498 -78.362737 
L 451.419818 -80.46453 
L 453.886139 -82.376729 
L 456.35246 -84.076217 
L 458.81878 -85.551461 
L 461.285101 -86.800269 
L 463.751421 -87.827407 
L 466.217742 -88.642452 
L 468.684062 -89.258098 
L 471.150383 -89.688918 
L 473.616704 -89.95052 
L 476.083024 -90.059003 
L 478.549345 -90.0306 
L 481.015665 -89.881446 
L 483.481986 -89.627404 
L 485.948306 -89.283932 
L 488.414627 -88.865956 
L 490.880948 -88.387756 
L 493.347268 -87.862852 
L 495.813589 -87.303897 
L 498.279909 -86.722581 
L 500.74623 -86.129551 
L 503.21255 -85.534341 
L 505.678871 -84.945332 
L 508.145191 -84.369728 
L 510.611512 -83.813554 
L 513.077833 -83.281683 
L 515.544153 -82.777875 
L 518.010474 -82.304847 
L 520.476794 -81.86435 
L 522.943115 -81.457263 
L 525.409435 -81.083698 
L 527.875756 -80.743112 
L 530.342077 -80.434414 
L 532.808397 -80.156086 
L 535.274718 -79.90628 
L 537.741038 -79.68293 
L 540.207359 -79.483835 
L 542.673679 -79.306744 
L 545.14 -79.149424 
L 545.14 -315.377837 
L 545.14 -315.377837 
L 542.673679 -314.869669 
L 540.207359 -314.262093 
L 537.741038 -313.541864 
L 535.274718 -312.694918 
L 532.808397 -311.706469 
L 530.342077 -310.56115 
L 527.875756 -309.243167 
L 525.409435 -307.736493 
L 522.943115 -306.025087 
L 520.476794 -304.093134 
L 518.010474 -301.925314 
L 515.544153 -299.507088 
L 513.077833 -296.824996 
L 510.611512 -293.866973 
L 508.145191 -290.622671 
L 505.678871 -287.083777 
L 503.21255 -283.244337 
L 500.74623 -279.101067 
L 498.279909 -274.653655 
L 495.813589 -269.90505 
L 493.347268 -264.861732 
L 490.880948 -259.533953 
L 488.414627 -253.935969 
L 485.948306 -248.086232 
L 483.481986 -242.007566 
L 481.015665 -235.727302 
L 478.549345 -229.277384 
L 476.083024 -222.694429 
L 473.616704 -216.01973 
L 471.150383 -209.29917 
L 468.684062 -202.58302 
L 466.217742 -195.925551 
L 463.751421 -189.384378 
L 461.285101 -183.019447 
L 458.81878 -176.891542 
L 456.35246 -171.060254 
L 453.886139 -165.581426 
L 451.419818 -160.504272 
L 448.953498 -155.868566 
L 446.487177 -151.70247 
L 444.020857 -148.021565 
L 441.554536 -144.829401 
L 439.088216 -142.119468 
L 436.621895 -139.878092 
L 434.155574 -138.08756 
L 431.689254 -136.728881 
L 429.222933 -135.783807 
L 426.756613 -135.236036 
L 424.290292 -135.0717 
L 421.823972 -135.279315 
L 419.357651 -135.849407 
L 416.891331 -136.773963 
L 414.42501 -138.045841 
L 411.958689 -139.658194 
L 409.492369 -141.603976 
L 407.026048 -143.875537 
L 404.559728 -146.464309 
L 402.093407 -149.360593 
L 399.627087 -152.553414 
L 397.160766 -156.030436 
L 394.694445 -159.777909 
L 392.228125 -163.780597 
L 389.761804 -168.021667 
L 387.295484 -172.482478 
L 384.829163 -177.142235 
L 382.362843 -181.977477 
L 379.896522 -186.961419 
L 377.430201 -192.063181 
L 374.963881 -197.247065 
L 372.49756 -202.472037 
L 370.03124 -207.69162 
L 367.564919 -212.85438 
L 365.098599 -217.905041 
L 362.632278 -222.786158 
L 360.165957 -227.440153 
L 357.699637 -231.811458 
L 355.233316 -235.848535 
L 352.766996 -239.505596 
L 350.300675 -242.743952 
L 347.834355 -245.532953 
L 345.368034 -247.850551 
L 342.901714 -249.683508 
L 340.435393 -251.027288 
L 337.969072 -251.885647 
L 335.502752 -252.269927 
L 333.036431 -252.19807 
L 330.570111 -251.693379 
L 328.10379 -250.783072 
L 325.63747 -249.496745 
L 323.171149 -247.86489 
L 320.704828 -245.917627 
L 318.238508 -243.683841 
L 315.772187 -241.190787 
L 313.305867 -238.46422 
L 310.839546 -235.528926 
L 308.373226 -232.409545 
L 305.906905 -229.131489 
L 303.440584 -225.721814 
L 300.974264 -222.209935 
L 298.507943 -218.628109 
L 296.041623 -215.011667 
L 293.575302 -211.398997 
L 291.108982 -207.831286 
L 288.642661 -204.352064 
L 286.17634 -201.006552 
L 283.71002 -197.840877 
L 281.243699 -194.90116 
L 278.777379 -192.232528 
L 276.311058 -189.878085 
L 273.844738 -187.877885 
L 271.378417 -186.267968 
L 268.912097 -185.079476 
L 266.445776 -184.33793 
L 263.979455 -184.062679 
L 261.513135 -184.266551 
L 259.046814 -184.95573 
L 256.580494 -186.129833 
L 254.114173 -187.782185 
L 251.647853 -189.900255 
L 249.181532 -192.466207 
L 246.715211 -195.457537 
L 244.248891 -198.847737 
L 241.78257 -202.606958 
L 239.31625 -206.702634 
L 236.849929 -211.100025 
L 234.383609 -215.76268 
L 231.917288 -220.652774 
L 229.450967 -225.731355 
L 226.984647 -230.958468 
L 224.518326 -236.293232 
L 222.052006 -241.693863 
L 219.585685 -247.11774 
L 217.119365 -252.521536 
L 214.653044 -257.86148 
L 212.186723 -263.093762 
L 209.720403 -268.175089 
L 207.254082 -273.063343 
L 204.787762 -277.718313 
L 202.321441 -282.102415 
L 199.855121 -286.181374 
L 197.3888 -289.924795 
L 194.92248 -293.306629 
L 192.456159 -296.305516 
L 189.989838 -298.905015 
L 187.523518 -301.093767 
L 185.057197 -302.865592 
L 182.590877 -304.219591 
L 180.124556 -305.160256 
L 177.658236 -305.697641 
L 175.191915 -305.847605 
L 172.725594 -305.632145 
L 170.259274 -305.079804 
L 167.792953 -304.226116 
L 165.326633 -303.113981 
L 162.860312 -301.793837 
L 160.393992 -300.323353 
L 157.927671 -298.766383 
L 155.46135 -297.190845 
L 152.99503 -295.665436 
L 150.528709 -294.25534 
L 148.062389 -293.017606 
L 145.596068 -291.997169 
L 143.129748 -291.224445 
L 140.663427 -290.714965 
L 138.197106 -290.470856 
L 135.730786 -290.483445 
L 133.264465 -290.736222 
L 130.798145 -291.207551 
L 128.331824 -291.872836 
L 125.865504 -292.706107 
L 123.399183 -293.681116 
L 120.932863 -294.772051 
L 118.466542 -295.954022 
L 116.000221 -297.203379 
L 113.533901 -298.497938 
L 111.06758 -299.817148 
L 108.60126 -301.142216 
L 106.134939 -302.456208 
L 103.668619 -303.744113 
L 101.202298 -304.992889 
L 98.735977 -306.191472 
L 96.269657 -307.330771 
L 93.803336 -308.403617 
L 91.337016 -309.404695 
L 88.870695 -310.330451 
L 86.404375 -311.178967 
L 83.938054 -311.949824 
L 81.471733 -312.643939 
L 79.005413 -313.2634 
L 76.539092 -313.811285 
L 74.072772 -314.291481 
L 71.606451 -314.708504 
L 69.140131 -315.067321 
L 66.67381 -315.373189 
L 64.207489 -315.631498 
L 61.741169 -315.847636 
L 59.274848 -316.026866 
L 56.808528 -316.17423 
L 54.342207 -316.29446 
z
" id="m9c578376e7" style="stroke:#204a87;stroke-opacity:0.2;stroke-width:0.5;"/>
    </defs>
    <g clip-path="url(#p6103712684)">
     <use style="fill:#729fcf;fill-opacity:0.2;stroke:#204a87;stroke-opacity:0.2;stroke-width:0.5;" x="0" xlink:href="#m9c578376e7" y="339.84"/>
    </g>
   </g>
   <g id="matplotlib.axis_1">
    <g id="xtick_1">
     <g id="line2d_1">
      <defs>
       <path d="M 0 0 
L 0 3.5 
" id="mf74b85acdd" style="stroke:#000000;stroke-width:0.8;"/>
      </defs>
      <g>
       <use style="stroke:#000000;stroke-width:0.8;" x="70.481418" xlink:href="#mf74b85acdd" y="293.301871"/>
      </g>
     </g>
     <g id="text_1">
      <!-- $-0.2$ -->
      <defs>
       <path d="M 65.90625 23 
C 67.59375 23 69.40625 23 69.40625 25 
C 69.40625 27 67.59375 27 65.90625 27 
L 11.796875 27 
C 10.09375 27 8.296875 27 8.296875 25 
C 8.296875 23 10.09375 23 11.796875 23 
z
" id="CMSY10-0"/>
       <path d="M 42 31.640625 
C 42 37.75 41.90625 48.125 37.703125 56.109375 
C 34 63.109375 28.09375 65.59375 22.90625 65.59375 
C 18.09375 65.59375 12 63.40625 8.203125 56.203125 
C 4.203125 48.71875 3.796875 39.4375 3.796875 31.640625 
C 3.796875 25.953125 3.90625 17.28125 7 9.671875 
C 11.296875 -0.609375 19 -2 22.90625 -2 
C 27.5 -2 34.5 -0.109375 38.59375 9.375 
C 41.59375 16.28125 42 24.359375 42 31.640625 
z
M 22.90625 -0.40625 
C 16.5 -0.40625 12.703125 5.078125 11.296875 12.6875 
C 10.203125 18.5625 10.203125 27.15625 10.203125 32.75 
C 10.203125 40.4375 10.203125 46.828125 11.5 52.921875 
C 13.40625 61.390625 19 64 22.90625 64 
C 27 64 32.296875 61.296875 34.203125 53.125 
C 35.5 47.4375 35.59375 40.734375 35.59375 32.75 
C 35.59375 26.25 35.59375 18.265625 34.40625 12.375 
C 32.296875 1.484375 26.40625 -0.40625 22.90625 -0.40625 
z
" id="CMR17-48"/>
       <path d="M 18.40625 4.796875 
C 18.40625 7.6875 16 9.671875 13.59375 9.671875 
C 10.703125 9.671875 8.703125 7.28125 8.703125 4.890625 
C 8.703125 2 11.09375 0 13.5 0 
C 16.40625 0 18.40625 2.390625 18.40625 4.796875 
z
" id="CMMI12-58"/>
       <path d="M 41.703125 15.453125 
L 39.90625 15.453125 
C 38.90625 8.375 38.09375 7.171875 37.703125 6.5625 
C 37.203125 5.765625 30 5.765625 28.59375 5.765625 
L 9.40625 5.765625 
C 13 9.671875 20 16.75 28.5 24.953125 
C 34.59375 30.734375 41.703125 37.53125 41.703125 47.421875 
C 41.703125 59.21875 32.296875 66 21.796875 66 
C 10.796875 66 4.09375 56.3125 4.09375 47.34375 
C 4.09375 43.4375 7 42.9375 8.203125 42.9375 
C 9.203125 42.9375 12.203125 43.546875 12.203125 47.03125 
C 12.203125 50.109375 9.59375 51 8.203125 51 
C 7.59375 51 7 50.90625 6.59375 50.703125 
C 8.5 59.21875 14.296875 63.40625 20.40625 63.40625 
C 29.09375 63.40625 34.796875 56.515625 34.796875 47.421875 
C 34.796875 38.734375 29.703125 31.25 24 24.75 
L 4.09375 2.28125 
L 4.09375 0 
L 39.296875 0 
z
" id="CMR17-50"/>
      </defs>
      <g transform="translate(54.310659 311.371459)scale(0.16 -0.16)">
       <use transform="scale(0.996264)" xlink:href="#CMSY10-0"/>
       <use transform="translate(77.487468 0)scale(0.996264)" xlink:href="#CMR17-48"/>
       <use transform="translate(123.177945 0)scale(0.996264)" xlink:href="#CMMI12-58"/>
       <use transform="translate(150.275122 0)scale(0.996264)" xlink:href="#CMR17-50"/>
      </g>
     </g>
    </g>
    <g id="xtick_2">
     <g id="line2d_2">
      <g>
       <use style="stroke:#000000;stroke-width:0.8;" x="136.104311" xlink:href="#mf74b85acdd" y="293.301871"/>
      </g>
     </g>
     <g id="text_2">
      <!-- $0.0$ -->
      <g transform="translate(126.13255 311.371459)scale(0.16 -0.16)">
       <use transform="scale(0.996264)" xlink:href="#CMR17-48"/>
       <use transform="translate(45.690477 0)scale(0.996264)" xlink:href="#CMMI12-58"/>
       <use transform="translate(72.787654 0)scale(0.996264)" xlink:href="#CMR17-48"/>
      </g>
     </g>
    </g>
    <g id="xtick_3">
     <g id="line2d_3">
      <g>
       <use style="stroke:#000000;stroke-width:0.8;" x="201.727205" xlink:href="#mf74b85acdd" y="293.301871"/>
      </g>
     </g>
     <g id="text_3">
      <!-- $0.2$ -->
      <g transform="translate(191.755444 311.371459)scale(0.16 -0.16)">
       <use transform="scale(0.996264)" xlink:href="#CMR17-48"/>
       <use transform="translate(45.690477 0)scale(0.996264)" xlink:href="#CMMI12-58"/>
       <use transform="translate(72.787654 0)scale(0.996264)" xlink:href="#CMR17-50"/>
      </g>
     </g>
    </g>
    <g id="xtick_4">
     <g id="line2d_4">
      <g>
       <use style="stroke:#000000;stroke-width:0.8;" x="267.350099" xlink:href="#mf74b85acdd" y="293.301871"/>
      </g>
     </g>
     <g id="text_4">
      <!-- $0.4$ -->
      <defs>
       <path d="M 33.59375 64.40625 
C 33.59375 66.5 33.5 66.5 31.703125 66.5 
L 2 19.59375 
L 2 17 
L 27.796875 17 
L 27.796875 7.140625 
C 27.796875 3.5 27.59375 2.5 20.59375 2.5 
L 18.703125 2.5 
L 18.703125 0 
C 21.90625 0 27.296875 0 30.703125 0 
C 34.09375 0 39.5 0 42.703125 0 
L 42.703125 2.5 
L 40.796875 2.5 
C 33.796875 2.5 33.59375 3.5 33.59375 7.140625 
L 33.59375 17 
L 43.796875 17 
L 43.796875 19.59375 
L 33.59375 19.59375 
z
M 28.09375 57.859375 
L 28.09375 19.59375 
L 4 19.59375 
z
" id="CMR17-52"/>
      </defs>
      <g transform="translate(257.378337 311.371459)scale(0.16 -0.16)">
       <use transform="scale(0.996264)" xlink:href="#CMR17-48"/>
       <use transform="translate(45.690477 0)scale(0.996264)" xlink:href="#CMMI12-58"/>
       <use transform="translate(72.787654 0)scale(0.996264)" xlink:href="#CMR17-52"/>
      </g>
     </g>
    </g>
    <g id="xtick_5">
     <g id="line2d_5">
      <g>
       <use style="stroke:#000000;stroke-width:0.8;" x="332.972992" xlink:href="#mf74b85acdd" y="293.301871"/>
      </g>
     </g>
     <g id="text_5">
      <!-- $0.6$ -->
      <defs>
       <path d="M 10.59375 34 
C 10.59375 57.65625 21.796875 63 28.296875 63 
C 30.40625 63 35.5 62.640625 37.5 59 
C 35.90625 59 32.90625 59 32.90625 55.515625 
C 32.90625 52.828125 35.09375 51.921875 36.5 51.921875 
C 37.40625 51.921875 40.09375 52.3125 40.09375 55.625 
C 40.09375 61.78125 35.09375 65.296875 28.203125 65.296875 
C 16.296875 65.296875 3.796875 52.96875 3.796875 31 
C 3.796875 3.953125 15.09375 -2 23.09375 -2 
C 32.796875 -2 42 6.671875 42 20.046875 
C 42 32.515625 33.90625 41.59375 23.703125 41.59375 
C 17.59375 41.59375 13.09375 37.609375 10.59375 30.625 
z
M 23.09375 0.390625 
C 10.796875 0.390625 10.796875 18.75 10.796875 22.4375 
C 10.796875 29.625 14.203125 40 23.5 40 
C 25.203125 40 30.09375 40 33.40625 33.125 
C 35.203125 29.21875 35.203125 25.140625 35.203125 20.140625 
C 35.203125 14.75 35.203125 10.78125 33.09375 6.78125 
C 30.90625 2.671875 27.703125 0.390625 23.09375 0.390625 
z
" id="CMR17-54"/>
      </defs>
      <g transform="translate(323.001231 311.371459)scale(0.16 -0.16)">
       <use transform="scale(0.996264)" xlink:href="#CMR17-48"/>
       <use transform="translate(45.690477 0)scale(0.996264)" xlink:href="#CMMI12-58"/>
       <use transform="translate(72.787654 0)scale(0.996264)" xlink:href="#CMR17-54"/>
      </g>
     </g>
    </g>
    <g id="xtick_6">
     <g id="line2d_6">
      <g>
       <use style="stroke:#000000;stroke-width:0.8;" x="398.595886" xlink:href="#mf74b85acdd" y="293.301871"/>
      </g>
     </g>
     <g id="text_6">
      <!-- $0.8$ -->
      <defs>
       <path d="M 27.203125 35.375 
C 33.5 38.546875 39.90625 43.328125 39.90625 50.984375 
C 39.90625 60.015625 31.09375 65.296875 23 65.296875 
C 13.90625 65.296875 5.90625 58.734375 5.90625 49.6875 
C 5.90625 47.203125 6.5 42.921875 10.40625 39.140625 
C 11.40625 38.15625 15.59375 35.171875 18.296875 33.28125 
C 13.796875 30.984375 3.296875 25.53125 3.296875 14.59375 
C 3.296875 4.359375 13.09375 -2 22.796875 -2 
C 33.5 -2 42.5 5.65625 42.5 15.78125 
C 42.5 24.84375 36.40625 29.015625 32.40625 31.703125 
z
M 14.09375 44.09375 
C 13.296875 44.59375 9.296875 47.671875 9.296875 52.359375 
C 9.296875 58.421875 15.59375 63 22.796875 63 
C 30.703125 63 36.5 57.4375 36.5 50.96875 
C 36.5 41.703125 26.09375 36.421875 25.59375 36.421875 
C 25.5 36.421875 25.40625 36.421875 24.59375 37.03125 
z
M 32.5 23.734375 
C 34 22.640625 38.796875 19.375 38.796875 13.296875 
C 38.796875 5.953125 31.40625 0.390625 23 0.390625 
C 13.90625 0.390625 7 6.84375 7 14.6875 
C 7 22.546875 13.09375 29.09375 20 32.1875 
z
" id="CMR17-56"/>
      </defs>
      <g transform="translate(388.624125 311.371459)scale(0.16 -0.16)">
       <use transform="scale(0.996264)" xlink:href="#CMR17-48"/>
       <use transform="translate(45.690477 0)scale(0.996264)" xlink:href="#CMMI12-58"/>
       <use transform="translate(72.787654 0)scale(0.996264)" xlink:href="#CMR17-56"/>
      </g>
     </g>
    </g>
    <g id="xtick_7">
     <g id="line2d_7">
      <g>
       <use style="stroke:#000000;stroke-width:0.8;" x="464.218779" xlink:href="#mf74b85acdd" y="293.301871"/>
      </g>
     </g>
     <g id="text_7">
      <!-- $1.0$ -->
      <defs>
       <path d="M 26.59375 63.40625 
C 26.59375 65.5 26.5 65.5 25.09375 65.5 
C 21.203125 61.1875 15.296875 59.796875 9.703125 59.796875 
C 9.40625 59.796875 8.90625 59.796875 8.796875 59.5 
C 8.703125 59.296875 8.703125 59.09375 8.703125 57 
C 11.796875 57 17 57.59375 21 59.984375 
L 21 7.203125 
C 21 3.6875 20.796875 2.5 12.203125 2.5 
L 9.203125 2.5 
L 9.203125 0 
C 14 0 19 0 23.796875 0 
C 28.59375 0 33.59375 0 38.40625 0 
L 38.40625 2.5 
L 35.40625 2.5 
C 26.796875 2.5 26.59375 3.59375 26.59375 7.15625 
z
" id="CMR17-49"/>
      </defs>
      <g transform="translate(454.247018 311.371459)scale(0.16 -0.16)">
       <use transform="scale(0.996264)" xlink:href="#CMR17-49"/>
       <use transform="translate(45.690477 0)scale(0.996264)" xlink:href="#CMMI12-58"/>
       <use transform="translate(72.787654 0)scale(0.996264)" xlink:href="#CMR17-48"/>
      </g>
     </g>
    </g>
    <g id="xtick_8">
     <g id="line2d_8">
      <g>
       <use style="stroke:#000000;stroke-width:0.8;" x="529.841673" xlink:href="#mf74b85acdd" y="293.301871"/>
      </g>
     </g>
     <g id="text_8">
      <!-- $1.2$ -->
      <g transform="translate(519.869912 311.371459)scale(0.16 -0.16)">
       <use transform="scale(0.996264)" xlink:href="#CMR17-49"/>
       <use transform="translate(45.690477 0)scale(0.996264)" xlink:href="#CMMI12-58"/>
       <use transform="translate(72.787654 0)scale(0.996264)" xlink:href="#CMR17-50"/>
      </g>
     </g>
    </g>
    <g id="text_9">
     <!-- $x$ -->
     <defs>
      <path d="M 47.40625 40.71875 
C 44.203125 40.109375 43 37.71875 43 35.828125 
C 43 33.421875 44.90625 32.625 46.296875 32.625 
C 49.296875 32.625 51.40625 35.21875 51.40625 37.921875 
C 51.40625 42.109375 46.59375 44 42.40625 44 
C 36.296875 44 32.90625 38.015625 32 36.125 
C 29.703125 44 23.5 44 21.703125 44 
C 11.5 44 6.09375 30.9375 6.09375 28.734375 
C 6.09375 28.34375 6.5 27.84375 7.203125 27.84375 
C 8 27.84375 8.203125 28.4375 8.40625 28.84375 
C 11.796875 39.921875 18.5 42.015625 21.40625 42.015625 
C 25.90625 42.015625 26.796875 37.8125 26.796875 35.421875 
C 26.796875 33.234375 26.203125 30.9375 25 26.140625 
L 21.59375 12.46875 
C 20.09375 6.484375 17.203125 1 11.90625 1 
C 11.40625 1 8.90625 1 6.796875 2.296875 
C 10.40625 3 11.203125 5.984375 11.203125 7.1875 
C 11.203125 9.1875 9.703125 10.375 7.796875 10.375 
C 5.40625 10.375 2.796875 8.28125 2.796875 5.09375 
C 2.796875 0.890625 7.5 -1 11.796875 -1 
C 16.59375 -1 20 2.796875 22.09375 6.890625 
C 23.703125 1 28.703125 -1 32.40625 -1 
C 42.59375 -1 48 12.078125 48 14.265625 
C 48 14.765625 47.59375 15.171875 47 15.171875 
C 46.09375 15.171875 46 14.671875 45.703125 13.875 
C 43 5.09375 37.203125 1 32.703125 1 
C 29.203125 1 27.296875 3.59375 27.296875 7.6875 
C 27.296875 9.875 27.703125 11.46875 29.296875 18.0625 
L 32.796875 31.625 
C 34.296875 37.625 37.703125 42.015625 42.296875 42.015625 
C 42.5 42.015625 45.296875 42.015625 47.40625 40.71875 
z
" id="CMMI12-120"/>
     </defs>
     <g transform="translate(295.306379 329.540524)scale(0.16 -0.16)">
      <use transform="scale(0.996264)" xlink:href="#CMMI12-120"/>
     </g>
    </g>
   </g>
   <g id="matplotlib.axis_2">
    <g id="ytick_1">
     <g id="line2d_9">
      <defs>
       <path d="M 0 0 
L -3.5 0 
" id="me42db0047a" style="stroke:#000000;stroke-width:0.8;"/>
      </defs>
      <g>
       <use style="stroke:#000000;stroke-width:0.8;" x="54.342207" xlink:href="#me42db0047a" y="251.927505"/>
      </g>
     </g>
     <g id="text_10">
      <!-- $-2$ -->
      <g transform="translate(27.140224 257.462299)scale(0.16 -0.16)">
       <use transform="scale(0.996264)" xlink:href="#CMSY10-0"/>
       <use transform="translate(77.487468 0)scale(0.996264)" xlink:href="#CMR17-50"/>
      </g>
     </g>
    </g>
    <g id="ytick_2">
     <g id="line2d_10">
      <g>
       <use style="stroke:#000000;stroke-width:0.8;" x="54.342207" xlink:href="#me42db0047a" y="197.172367"/>
      </g>
     </g>
     <g id="text_11">
      <!-- $-1$ -->
      <g transform="translate(27.140224 202.707161)scale(0.16 -0.16)">
       <use transform="scale(0.996264)" xlink:href="#CMSY10-0"/>
       <use transform="translate(77.487468 0)scale(0.996264)" xlink:href="#CMR17-49"/>
      </g>
     </g>
    </g>
    <g id="ytick_3">
     <g id="line2d_11">
      <g>
       <use style="stroke:#000000;stroke-width:0.8;" x="54.342207" xlink:href="#me42db0047a" y="142.417229"/>
      </g>
     </g>
     <g id="text_12">
      <!-- $0$ -->
      <g transform="translate(39.53822 147.952023)scale(0.16 -0.16)">
       <use transform="scale(0.996264)" xlink:href="#CMR17-48"/>
      </g>
     </g>
    </g>
    <g id="ytick_4">
     <g id="line2d_12">
      <g>
       <use style="stroke:#000000;stroke-width:0.8;" x="54.342207" xlink:href="#me42db0047a" y="87.662091"/>
      </g>
     </g>
     <g id="text_13">
      <!-- $1$ -->
      <g transform="translate(39.53822 93.196885)scale(0.16 -0.16)">
       <use transform="scale(0.996264)" xlink:href="#CMR17-49"/>
      </g>
     </g>
    </g>
    <g id="ytick_5">
     <g id="line2d_13">
      <g>
       <use style="stroke:#000000;stroke-width:0.8;" x="54.342207" xlink:href="#me42db0047a" y="32.906953"/>
      </g>
     </g>
     <g id="text_14">
      <!-- $2$ -->
      <g transform="translate(39.53822 38.441747)scale(0.16 -0.16)">
       <use transform="scale(0.996264)" xlink:href="#CMR17-50"/>
      </g>
     </g>
    </g>
    <g id="text_15">
     <!-- $f(x)$ -->
     <defs>
      <path d="M 44.59375 40.09375 
C 46.59375 40.09375 47.40625 40.09375 47.40625 42 
C 47.40625 43 46.59375 43 44.796875 43 
L 36.703125 43 
C 38.59375 53.578125 40 60.890625 40.796875 64.171875 
C 41.40625 66.640625 43.5 69 46.09375 69 
C 48.203125 69 50.296875 68.09375 51.296875 67.15625 
C 47.40625 66.75 46.203125 63.78125 46.203125 62.015625 
C 46.203125 59.953125 47.703125 58.734375 49.59375 58.734375 
C 51.59375 58.734375 54.59375 60.46875 54.59375 64.359375 
C 54.59375 68.640625 50.40625 71 46 71 
C 41.703125 71 37.5 67.71875 35.5 63.71875 
C 33.703125 60.125 32.703125 56.421875 30.40625 43 
L 23.703125 43 
C 21.796875 43 20.796875 43 20.796875 41.203125 
C 20.796875 40.09375 21.40625 40.09375 23.40625 40.09375 
L 29.796875 40.09375 
C 28 30.875 23.90625 8.46875 21.59375 -2.140625 
C 19.90625 -10.765625 18.40625 -18 13.40625 -18 
C 13.09375 -18 10.203125 -18 8.40625 -16.109375 
C 13.5 -15.703125 13.5 -11.34375 13.5 -11.25 
C 13.5 -9.265625 12 -8.078125 10.09375 -8.078125 
C 8.09375 -8.078125 5.09375 -9.765625 5.09375 -13.546875 
C 5.09375 -17.8125 9.5 -20 13.40625 -20 
C 23.59375 -20 27.796875 -1.84375 28.90625 3.109375 
C 30.703125 10.75 35.59375 37.125 36.09375 40.09375 
z
" id="CMMI12-102"/>
      <path d="M 30.59375 -24.390625 
C 30.59375 -24.296875 30.59375 -24.09375 30.296875 -23.796875 
C 25.703125 -19.125 13.40625 -6.359375 13.40625 24.703125 
C 13.40625 55.765625 25.5 68.421875 30.40625 73.390625 
C 30.40625 73.5 30.59375 73.703125 30.59375 74 
C 30.59375 74.296875 30.296875 74.5 29.90625 74.5 
C 28.796875 74.5 20.296875 67.125 15.40625 56.15625 
C 10.40625 45.109375 9 34.359375 9 24.8125 
C 9 17.625 9.703125 5.484375 15.703125 -7.359375 
C 20.5 -17.734375 28.703125 -25 29.90625 -25 
C 30.40625 -25 30.59375 -24.796875 30.59375 -24.390625 
z
" id="CMR17-40"/>
      <path d="M 26.296875 24.703125 
C 26.296875 31.875 25.59375 44.015625 19.59375 56.859375 
C 14.796875 67.234375 6.59375 74.5 5.40625 74.5 
C 5.09375 74.5 4.703125 74.390625 4.703125 73.890625 
C 4.703125 73.703125 4.796875 73.59375 4.90625 73.390625 
C 9.703125 68.40625 21.90625 55.75 21.90625 24.75 
C 21.90625 -6.359375 9.796875 -19.015625 4.90625 -24.015625 
C 4.796875 -24.203125 4.703125 -24.3125 4.703125 -24.5 
C 4.703125 -25 5.09375 -25 5.40625 -25 
C 6.5 -25 15 -17.625 19.90625 -6.65625 
C 24.90625 4.390625 26.296875 15.140625 26.296875 24.703125 
z
" id="CMR17-41"/>
     </defs>
     <g transform="translate(19.155168 167.203052)rotate(-90)scale(0.16 -0.16)">
      <use transform="scale(0.996264)" xlink:href="#CMMI12-102"/>
      <use transform="translate(58.720305 0)scale(0.996264)" xlink:href="#CMR17-40"/>
      <use transform="translate(94.001073 0)scale(0.996264)" xlink:href="#CMMI12-120"/>
      <use transform="translate(149.435132 0)scale(0.996264)" xlink:href="#CMR17-41"/>
     </g>
    </g>
   </g>
   <g id="line2d_14">
    <path clip-path="url(#p6103712684)" d="M 54.342207 141.168344 
L 59.274848 140.497317 
L 64.207489 139.616118 
L 69.140131 138.488103 
L 74.072772 137.076982 
L 79.005413 135.348597 
L 83.938054 133.272844 
L 88.870695 130.825663 
L 93.803336 127.990953 
L 98.735977 124.76232 
L 103.668619 121.144561 
L 108.60126 117.154839 
L 113.533901 112.823534 
L 118.466542 108.194812 
L 125.865504 100.825474 
L 143.129748 83.131186 
L 148.062389 78.442414 
L 152.99503 74.161652 
L 155.46135 72.221534 
L 157.927671 70.441211 
L 160.393992 68.840861 
L 162.860312 67.440851 
L 165.326633 66.261547 
L 167.792953 65.323107 
L 170.259274 64.645234 
L 172.725594 64.246913 
L 175.191915 64.146121 
L 177.658236 64.35951 
L 180.124556 64.902085 
L 182.590877 65.786859 
L 185.057197 67.024512 
L 187.523518 68.623049 
L 189.989838 70.58747 
L 192.456159 72.919459 
L 194.92248 75.617103 
L 197.3888 78.674643 
L 199.855121 82.082282 
L 202.321441 85.82604 
L 204.787762 89.887671 
L 207.254082 94.244653 
L 209.720403 98.870253 
L 214.653044 108.800218 
L 219.585685 119.386719 
L 231.917288 146.405098 
L 236.849929 156.420659 
L 239.31625 161.066571 
L 241.78257 165.411875 
L 244.248891 169.415681 
L 246.715211 173.040732 
L 249.181532 176.253957 
L 251.647853 179.026939 
L 254.114173 181.336329 
L 256.580494 183.16416 
L 259.046814 184.498082 
L 261.513135 185.331499 
L 263.979455 185.663627 
L 266.445776 185.499444 
L 268.912097 184.849568 
L 271.378417 183.730049 
L 273.844738 182.162082 
L 276.311058 180.171666 
L 278.777379 177.789192 
L 281.243699 175.049002 
L 283.71002 171.988899 
L 286.17634 168.649638 
L 291.108982 161.308298 
L 296.041623 153.390204 
L 305.906905 137.339767 
L 310.839546 129.948822 
L 313.305867 126.563901 
L 315.772187 123.438643 
L 318.238508 120.609404 
L 320.704828 118.109748 
L 323.171149 115.970223 
L 325.63747 114.218162 
L 328.10379 112.87749 
L 330.570111 111.968555 
L 333.036431 111.507966 
L 335.502752 111.508452 
L 337.969072 111.978732 
L 340.435393 112.923409 
L 342.901714 114.34288 
L 345.368034 116.233269 
L 347.834355 118.586394 
L 350.300675 121.389763 
L 352.766996 124.626603 
L 355.233316 128.275939 
L 357.699637 132.312706 
L 360.165957 136.707919 
L 362.632278 141.428886 
L 367.564919 151.700426 
L 372.49756 162.803029 
L 389.761804 202.836093 
L 394.694445 213.043688 
L 397.160766 217.723851 
L 399.627087 222.072896 
L 402.093407 226.058934 
L 404.559728 229.654204 
L 407.026048 232.835342 
L 409.492369 235.583591 
L 411.958689 237.884936 
L 414.42501 239.730168 
L 416.891331 241.114875 
L 419.357651 242.039362 
L 421.823972 242.508508 
L 424.290292 242.531554 
L 426.756613 242.12184 
L 429.222933 241.296489 
L 431.689254 240.076049 
L 434.155574 238.484099 
L 436.621895 236.546827 
L 439.088216 234.292597 
L 441.554536 231.751497 
L 444.020857 228.954892 
L 446.487177 225.934976 
L 451.419818 219.355599 
L 456.35246 212.271764 
L 473.616704 186.854875 
L 478.549345 180.186008 
L 483.481986 174.022515 
L 488.414627 168.439038 
L 493.347268 163.477708 
L 495.813589 161.235527 
L 498.279909 159.151882 
L 500.74623 157.224691 
L 503.21255 155.450661 
L 505.678871 153.825445 
L 508.145191 152.3438 
L 510.611512 150.999736 
L 513.077833 149.786661 
L 518.010474 147.724919 
L 522.943115 146.098825 
L 527.875756 144.846861 
L 532.808397 143.908722 
L 537.741038 143.227603 
L 542.673679 142.751793 
L 545.14 142.57637 
L 545.14 142.57637 
" style="fill:none;stroke:#3465a4;stroke-linecap:square;stroke-width:2;"/>
   </g>
   <g id="line2d_15">
    <defs>
     <path d="M 0 3 
C 0.795609 3 1.55874 2.683901 2.12132 2.12132 
C 2.683901 1.55874 3 0.795609 3 0 
C 3 -0.795609 2.683901 -1.55874 2.12132 -2.12132 
C 1.55874 -2.683901 0.795609 -3 0 -3 
C -0.795609 -3 -1.55874 -2.683901 -2.12132 -2.12132 
C -2.683901 -1.55874 -3 -0.795609 -3 0 
C -3 0.795609 -2.683901 1.55874 -2.12132 2.12132 
C -1.55874 2.683901 -0.795609 3 0 3 
z
" id="mdb4d86f89f" style="stroke:#0000ff;"/>
    </defs>
    <g clip-path="url(#p6103712684)">
     <use style="fill:#0000ff;stroke:#0000ff;" x="272.935265" xlink:href="#mdb4d86f89f" y="203.093583"/>
     <use style="fill:#0000ff;stroke:#0000ff;" x="372.453199" xlink:href="#mdb4d86f89f" y="182.244584"/>
     <use style="fill:#0000ff;stroke:#0000ff;" x="136.141839" xlink:href="#mdb4d86f89f" y="108.162847"/>
     <use style="fill:#0000ff;stroke:#0000ff;" x="235.304003" xlink:href="#mdb4d86f89f" y="135.599352"/>
     <use style="fill:#0000ff;stroke:#0000ff;" x="184.257042" xlink:href="#mdb4d86f89f" y="54.531009"/>
     <use style="fill:#0000ff;stroke:#0000ff;" x="166.40194" xlink:href="#mdb4d86f89f" y="71.501692"/>
     <use style="fill:#0000ff;stroke:#0000ff;" x="197.218981" xlink:href="#mdb4d86f89f" y="55.371693"/>
     <use style="fill:#0000ff;stroke:#0000ff;" x="249.487785" xlink:href="#mdb4d86f89f" y="174.345342"/>
     <use style="fill:#0000ff;stroke:#0000ff;" x="266.28946" xlink:href="#mdb4d86f89f" y="201.108859"/>
     <use style="fill:#0000ff;stroke:#0000ff;" x="312.897877" xlink:href="#mdb4d86f89f" y="135.493637"/>
     <use style="fill:#0000ff;stroke:#0000ff;" x="273.648096" xlink:href="#mdb4d86f89f" y="202.995073"/>
     <use style="fill:#0000ff;stroke:#0000ff;" x="360.934743" xlink:href="#mdb4d86f89f" y="147.659057"/>
     <use style="fill:#0000ff;stroke:#0000ff;" x="203.188052" xlink:href="#mdb4d86f89f" y="60.753388"/>
     <use style="fill:#0000ff;stroke:#0000ff;" x="424.227347" xlink:href="#mdb4d86f89f" y="263.686547"/>
     <use style="fill:#0000ff;stroke:#0000ff;" x="145.090577" xlink:href="#mdb4d86f89f" y="99.386956"/>
     <use style="fill:#0000ff;stroke:#0000ff;" x="356.094402" xlink:href="#mdb4d86f89f" y="135.260315"/>
     <use style="fill:#0000ff;stroke:#0000ff;" x="273.028055" xlink:href="#mdb4d86f89f" y="203.084169"/>
     <use style="fill:#0000ff;stroke:#0000ff;" x="319.418527" xlink:href="#mdb4d86f89f" y="123.071603"/>
     <use style="fill:#0000ff;stroke:#0000ff;" x="182.167297" xlink:href="#mdb4d86f89f" y="55.63092"/>
     <use style="fill:#0000ff;stroke:#0000ff;" x="201.104276" xlink:href="#mdb4d86f89f" y="58.500833"/>
     <use style="fill:#0000ff;stroke:#0000ff;" x="398.84019" xlink:href="#mdb4d86f89f" y="253.059996"/>
     <use style="fill:#0000ff;stroke:#0000ff;" x="453.804943" xlink:href="#mdb4d86f89f" y="213.706863"/>
     <use style="fill:#0000ff;stroke:#0000ff;" x="238.943319" xlink:href="#mdb4d86f89f" y="146.217799"/>
     <use style="fill:#0000ff;stroke:#0000ff;" x="363.265378" xlink:href="#mdb4d86f89f" y="154.203939"/>
     <use style="fill:#0000ff;stroke:#0000ff;" x="423.660272" xlink:href="#mdb4d86f89f" y="264.152832"/>
     <use style="fill:#0000ff;stroke:#0000ff;" x="429.637701" xlink:href="#mdb4d86f89f" y="257.908362"/>
     <use style="fill:#0000ff;stroke:#0000ff;" x="164.008547" xlink:href="#mdb4d86f89f" y="74.654685"/>
     <use style="fill:#0000ff;stroke:#0000ff;" x="148.918751" xlink:href="#mdb4d86f89f" y="94.827366"/>
     <use style="fill:#0000ff;stroke:#0000ff;" x="191.828129" xlink:href="#mdb4d86f89f" y="53.300682"/>
     <use style="fill:#0000ff;stroke:#0000ff;" x="424.235572" xlink:href="#mdb4d86f89f" y="263.679531"/>
     <use style="fill:#0000ff;stroke:#0000ff;" x="168.37333" xlink:href="#mdb4d86f89f" y="68.992724"/>
     <use style="fill:#0000ff;stroke:#0000ff;" x="274.275816" xlink:href="#mdb4d86f89f" y="202.85886"/>
     <use style="fill:#0000ff;stroke:#0000ff;" x="450.401725" xlink:href="#mdb4d86f89f" y="220.74554"/>
     <use style="fill:#0000ff;stroke:#0000ff;" x="311.043555" xlink:href="#mdb4d86f89f" y="139.471694"/>
     <use style="fill:#0000ff;stroke:#0000ff;" x="363.119203" xlink:href="#mdb4d86f89f" y="153.78421"/>
     <use style="fill:#0000ff;stroke:#0000ff;" x="239.629555" xlink:href="#mdb4d86f89f" y="148.190922"/>
     <use style="fill:#0000ff;stroke:#0000ff;" x="361.355198" xlink:href="#mdb4d86f89f" y="148.815383"/>
     <use style="fill:#0000ff;stroke:#0000ff;" x="409.95707" xlink:href="#mdb4d86f89f" y="266.00302"/>
     <use style="fill:#0000ff;stroke:#0000ff;" x="142.10496" xlink:href="#mdb4d86f89f" y="102.636182"/>
     <use style="fill:#0000ff;stroke:#0000ff;" x="382.237514" xlink:href="#mdb4d86f89f" y="212.628064"/>
     <use style="fill:#0000ff;stroke:#0000ff;" x="460.563941" xlink:href="#mdb4d86f89f" y="200.040042"/>
     <use style="fill:#0000ff;stroke:#0000ff;" x="381.588287" xlink:href="#mdb4d86f89f" y="210.688064"/>
     <use style="fill:#0000ff;stroke:#0000ff;" x="228.122043" xlink:href="#mdb4d86f89f" y="114.59988"/>
     <use style="fill:#0000ff;stroke:#0000ff;" x="395.078278" xlink:href="#mdb4d86f89f" y="245.836241"/>
     <use style="fill:#0000ff;stroke:#0000ff;" x="169.974258" xlink:href="#mdb4d86f89f" y="67.030893"/>
     <use style="fill:#0000ff;stroke:#0000ff;" x="283.064657" xlink:href="#mdb4d86f89f" y="196.292794"/>
     <use style="fill:#0000ff;stroke:#0000ff;" x="434.227641" xlink:href="#mdb4d86f89f" y="251.347032"/>
     <use style="fill:#0000ff;stroke:#0000ff;" x="232.443361" xlink:href="#mdb4d86f89f" y="127.178426"/>
     <use style="fill:#0000ff;stroke:#0000ff;" x="230.527563" xlink:href="#mdb4d86f89f" y="121.563677"/>
     <use style="fill:#0000ff;stroke:#0000ff;" x="178.768567" xlink:href="#mdb4d86f89f" y="58.02822"/>
     <use style="fill:#0000ff;stroke:#0000ff;" x="142.45889" xlink:href="#mdb4d86f89f" y="102.266591"/>
     <use style="fill:#0000ff;stroke:#0000ff;" x="358.840071" xlink:href="#mdb4d86f89f" y="142.076475"/>
     <use style="fill:#0000ff;stroke:#0000ff;" x="205.542558" xlink:href="#mdb4d86f89f" y="63.778344"/>
     <use style="fill:#0000ff;stroke:#0000ff;" x="223.234012" xlink:href="#mdb4d86f89f" y="100.987964"/>
     <use style="fill:#0000ff;stroke:#0000ff;" x="297.396577" xlink:href="#mdb4d86f89f" y="170.661318"/>
     <use style="fill:#0000ff;stroke:#0000ff;" x="153.613334" xlink:href="#mdb4d86f89f" y="88.77065"/>
     <use style="fill:#0000ff;stroke:#0000ff;" x="324.480604" xlink:href="#mdb4d86f89f" y="115.723346"/>
     <use style="fill:#0000ff;stroke:#0000ff;" x="184.24808" xlink:href="#mdb4d86f89f" y="54.535105"/>
     <use style="fill:#0000ff;stroke:#0000ff;" x="329.463984" xlink:href="#mdb4d86f89f" y="110.987858"/>
     <use style="fill:#0000ff;stroke:#0000ff;" x="365.705153" xlink:href="#mdb4d86f89f" y="161.367812"/>
     <use style="fill:#0000ff;stroke:#0000ff;" x="169.681718" xlink:href="#mdb4d86f89f" y="67.383727"/>
     <use style="fill:#0000ff;stroke:#0000ff;" x="271.962071" xlink:href="#mdb4d86f89f" y="203.131108"/>
     <use style="fill:#0000ff;stroke:#0000ff;" x="363.94705" xlink:href="#mdb4d86f89f" y="156.17634"/>
     <use style="fill:#0000ff;stroke:#0000ff;" x="272.002522" xlink:href="#mdb4d86f89f" y="203.131807"/>
     <use style="fill:#0000ff;stroke:#0000ff;" x="152.494764" xlink:href="#mdb4d86f89f" y="90.250252"/>
     <use style="fill:#0000ff;stroke:#0000ff;" x="311.939675" xlink:href="#mdb4d86f89f" y="137.530057"/>
     <use style="fill:#0000ff;stroke:#0000ff;" x="353.904938" xlink:href="#mdb4d86f89f" y="130.285603"/>
     <use style="fill:#0000ff;stroke:#0000ff;" x="305.046878" xlink:href="#mdb4d86f89f" y="153.09554"/>
     <use style="fill:#0000ff;stroke:#0000ff;" x="446.039517" xlink:href="#mdb4d86f89f" y="229.679366"/>
     <use style="fill:#0000ff;stroke:#0000ff;" x="328.561506" xlink:href="#mdb4d86f89f" y="111.644095"/>
     <use style="fill:#0000ff;stroke:#0000ff;" x="432.52355" xlink:href="#mdb4d86f89f" y="253.940502"/>
     <use style="fill:#0000ff;stroke:#0000ff;" x="181.211751" xlink:href="#mdb4d86f89f" y="56.231768"/>
     <use style="fill:#0000ff;stroke:#0000ff;" x="181.802896" xlink:href="#mdb4d86f89f" y="55.853008"/>
     <use style="fill:#0000ff;stroke:#0000ff;" x="401.021075" xlink:href="#mdb4d86f89f" y="256.616615"/>
     <use style="fill:#0000ff;stroke:#0000ff;" x="266.587835" xlink:href="#mdb4d86f89f" y="201.310324"/>
     <use style="fill:#0000ff;stroke:#0000ff;" x="190.359416" xlink:href="#mdb4d86f89f" y="53.17716"/>
     <use style="fill:#0000ff;stroke:#0000ff;" x="440.433296" xlink:href="#mdb4d86f89f" y="240.615264"/>
     <use style="fill:#0000ff;stroke:#0000ff;" x="250.211321" xlink:href="#mdb4d86f89f" y="176.037883"/>
     <use style="fill:#0000ff;stroke:#0000ff;" x="382.456625" xlink:href="#mdb4d86f89f" y="213.278777"/>
     <use style="fill:#0000ff;stroke:#0000ff;" x="374.314754" xlink:href="#mdb4d86f89f" y="188.124805"/>
     <use style="fill:#0000ff;stroke:#0000ff;" x="425.92982" xlink:href="#mdb4d86f89f" y="262.121524"/>
     <use style="fill:#0000ff;stroke:#0000ff;" x="340.740186" xlink:href="#mdb4d86f89f" y="110.996717"/>
     <use style="fill:#0000ff;stroke:#0000ff;" x="382.499389" xlink:href="#mdb4d86f89f" y="213.405579"/>
     <use style="fill:#0000ff;stroke:#0000ff;" x="250.582905" xlink:href="#mdb4d86f89f" y="176.891828"/>
     <use style="fill:#0000ff;stroke:#0000ff;" x="224.671558" xlink:href="#mdb4d86f89f" y="104.895654"/>
     <use style="fill:#0000ff;stroke:#0000ff;" x="430.057541" xlink:href="#mdb4d86f89f" y="257.36651"/>
     <use style="fill:#0000ff;stroke:#0000ff;" x="276.567224" xlink:href="#mdb4d86f89f" y="201.972877"/>
     <use style="fill:#0000ff;stroke:#0000ff;" x="452.68229" xlink:href="#mdb4d86f89f" y="216.026718"/>
     <use style="fill:#0000ff;stroke:#0000ff;" x="353.789065" xlink:href="#mdb4d86f89f" y="130.034621"/>
     <use style="fill:#0000ff;stroke:#0000ff;" x="340.091672" xlink:href="#mdb4d86f89f" y="110.572248"/>
     <use style="fill:#0000ff;stroke:#0000ff;" x="173.754125" xlink:href="#mdb4d86f89f" y="62.742973"/>
     <use style="fill:#0000ff;stroke:#0000ff;" x="447.645474" xlink:href="#mdb4d86f89f" y="226.416202"/>
     <use style="fill:#0000ff;stroke:#0000ff;" x="283.726992" xlink:href="#mdb4d86f89f" y="195.467758"/>
     <use style="fill:#0000ff;stroke:#0000ff;" x="325.882312" xlink:href="#mdb4d86f89f" y="114.123114"/>
     <use style="fill:#0000ff;stroke:#0000ff;" x="270.019901" xlink:href="#mdb4d86f89f" y="202.869706"/>
     <use style="fill:#0000ff;stroke:#0000ff;" x="213.876293" xlink:href="#mdb4d86f89f" y="78.394175"/>
     <use style="fill:#0000ff;stroke:#0000ff;" x="432.516202" xlink:href="#mdb4d86f89f" y="253.951325"/>
     <use style="fill:#0000ff;stroke:#0000ff;" x="324.336851" xlink:href="#mdb4d86f89f" y="115.898761"/>
     <use style="fill:#0000ff;stroke:#0000ff;" x="137.046107" xlink:href="#mdb4d86f89f" y="107.414066"/>
     <use style="fill:#0000ff;stroke:#0000ff;" x="338.598486" xlink:href="#mdb4d86f89f" y="109.79283"/>
     <use style="fill:#0000ff;stroke:#0000ff;" x="243.281229" xlink:href="#mdb4d86f89f" y="158.433591"/>
     <use style="fill:#0000ff;stroke:#0000ff;" x="309.0397" xlink:href="#mdb4d86f89f" y="143.923322"/>
     <use style="fill:#0000ff;stroke:#0000ff;" x="426.794732" xlink:href="#mdb4d86f89f" y="261.234542"/>
     <use style="fill:#0000ff;stroke:#0000ff;" x="253.329689" xlink:href="#mdb4d86f89f" y="182.861238"/>
     <use style="fill:#0000ff;stroke:#0000ff;" x="434.207839" xlink:href="#mdb4d86f89f" y="251.378197"/>
     <use style="fill:#0000ff;stroke:#0000ff;" x="340.637784" xlink:href="#mdb4d86f89f" y="110.926264"/>
     <use style="fill:#0000ff;stroke:#0000ff;" x="141.29549" xlink:href="#mdb4d86f89f" y="103.464848"/>
     <use style="fill:#0000ff;stroke:#0000ff;" x="441.066115" xlink:href="#mdb4d86f89f" y="239.427747"/>
     <use style="fill:#0000ff;stroke:#0000ff;" x="362.797586" xlink:href="#mdb4d86f89f" y="152.864851"/>
     <use style="fill:#0000ff;stroke:#0000ff;" x="463.340368" xlink:href="#mdb4d86f89f" y="194.698467"/>
     <use style="fill:#0000ff;stroke:#0000ff;" x="192.651726" xlink:href="#mdb4d86f89f" y="53.450715"/>
     <use style="fill:#0000ff;stroke:#0000ff;" x="181.100535" xlink:href="#mdb4d86f89f" y="56.305567"/>
     <use style="fill:#0000ff;stroke:#0000ff;" x="442.102376" xlink:href="#mdb4d86f89f" y="237.453639"/>
     <use style="fill:#0000ff;stroke:#0000ff;" x="364.740432" xlink:href="#mdb4d86f89f" y="158.501372"/>
     <use style="fill:#0000ff;stroke:#0000ff;" x="157.759923" xlink:href="#mdb4d86f89f" y="83.160815"/>
     <use style="fill:#0000ff;stroke:#0000ff;" x="383.982669" xlink:href="#mdb4d86f89f" y="217.750422"/>
     <use style="fill:#0000ff;stroke:#0000ff;" x="383.461996" xlink:href="#mdb4d86f89f" y="216.237179"/>
     <use style="fill:#0000ff;stroke:#0000ff;" x="438.962016" xlink:href="#mdb4d86f89f" y="243.31764"/>
     <use style="fill:#0000ff;stroke:#0000ff;" x="369.565879" xlink:href="#mdb4d86f89f" y="173.181461"/>
     <use style="fill:#0000ff;stroke:#0000ff;" x="176.879412" xlink:href="#mdb4d86f89f" y="59.654188"/>
     <use style="fill:#0000ff;stroke:#0000ff;" x="142.627271" xlink:href="#mdb4d86f89f" y="102.089217"/>
     <use style="fill:#0000ff;stroke:#0000ff;" x="144.704515" xlink:href="#mdb4d86f89f" y="99.823376"/>
     <use style="fill:#0000ff;stroke:#0000ff;" x="145.39208" xlink:href="#mdb4d86f89f" y="99.042955"/>
     <use style="fill:#0000ff;stroke:#0000ff;" x="216.889725" xlink:href="#mdb4d86f89f" y="85.04885"/>
     <use style="fill:#0000ff;stroke:#0000ff;" x="418.291924" xlink:href="#mdb4d86f89f" y="267.111429"/>
     <use style="fill:#0000ff;stroke:#0000ff;" x="312.902579" xlink:href="#mdb4d86f89f" y="135.483722"/>
     <use style="fill:#0000ff;stroke:#0000ff;" x="317.493201" xlink:href="#mdb4d86f89f" y="126.438747"/>
     <use style="fill:#0000ff;stroke:#0000ff;" x="412.38683" xlink:href="#mdb4d86f89f" y="267.078485"/>
     <use style="fill:#0000ff;stroke:#0000ff;" x="176.847373" xlink:href="#mdb4d86f89f" y="59.6834"/>
     <use style="fill:#0000ff;stroke:#0000ff;" x="227.708516" xlink:href="#mdb4d86f89f" y="113.416613"/>
     <use style="fill:#0000ff;stroke:#0000ff;" x="328.300403" xlink:href="#mdb4d86f89f" y="111.851058"/>
     <use style="fill:#0000ff;stroke:#0000ff;" x="454.242704" xlink:href="#mdb4d86f89f" y="212.804072"/>
     <use style="fill:#0000ff;stroke:#0000ff;" x="320.186443" xlink:href="#mdb4d86f89f" y="121.810478"/>
     <use style="fill:#0000ff;stroke:#0000ff;" x="142.222757" xlink:href="#mdb4d86f89f" y="102.513637"/>
     <use style="fill:#0000ff;stroke:#0000ff;" x="398.803475" xlink:href="#mdb4d86f89f" y="252.996073"/>
     <use style="fill:#0000ff;stroke:#0000ff;" x="212.546541" xlink:href="#mdb4d86f89f" y="75.674791"/>
     <use style="fill:#0000ff;stroke:#0000ff;" x="400.927203" xlink:href="#mdb4d86f89f" y="256.473463"/>
     <use style="fill:#0000ff;stroke:#0000ff;" x="263.367" xlink:href="#mdb4d86f89f" y="198.587162"/>
     <use style="fill:#0000ff;stroke:#0000ff;" x="419.444888" xlink:href="#mdb4d86f89f" y="266.706269"/>
     <use style="fill:#0000ff;stroke:#0000ff;" x="381.245732" xlink:href="#mdb4d86f89f" y="209.657658"/>
     <use style="fill:#0000ff;stroke:#0000ff;" x="318.61478" xlink:href="#mdb4d86f89f" y="124.442628"/>
     <use style="fill:#0000ff;stroke:#0000ff;" x="180.877245" xlink:href="#mdb4d86f89f" y="56.456049"/>
     <use style="fill:#0000ff;stroke:#0000ff;" x="155.764172" xlink:href="#mdb4d86f89f" y="85.87974"/>
     <use style="fill:#0000ff;stroke:#0000ff;" x="175.918855" xlink:href="#mdb4d86f89f" y="60.553453"/>
     <use style="fill:#0000ff;stroke:#0000ff;" x="150.722427" xlink:href="#mdb4d86f89f" y="92.551183"/>
     <use style="fill:#0000ff;stroke:#0000ff;" x="171.37469" xlink:href="#mdb4d86f89f" y="65.380847"/>
     <use style="fill:#0000ff;stroke:#0000ff;" x="210.162811" xlink:href="#mdb4d86f89f" y="71.155774"/>
     <use style="fill:#0000ff;stroke:#0000ff;" x="370.046311" xlink:href="#mdb4d86f89f" y="174.680384"/>
     <use style="fill:#0000ff;stroke:#0000ff;" x="319.755551" xlink:href="#mdb4d86f89f" y="122.512107"/>
     <use style="fill:#0000ff;stroke:#0000ff;" x="140.22411" xlink:href="#mdb4d86f89f" y="104.525201"/>
     <use style="fill:#0000ff;stroke:#0000ff;" x="159.720114" xlink:href="#mdb4d86f89f" y="80.476309"/>
     <use style="fill:#0000ff;stroke:#0000ff;" x="453.48167" xlink:href="#mdb4d86f89f" y="214.374243"/>
     <use style="fill:#0000ff;stroke:#0000ff;" x="322.506292" xlink:href="#mdb4d86f89f" y="118.309415"/>
     <use style="fill:#0000ff;stroke:#0000ff;" x="202.807763" xlink:href="#mdb4d86f89f" y="60.312422"/>
     <use style="fill:#0000ff;stroke:#0000ff;" x="218.896039" xlink:href="#mdb4d86f89f" y="89.829452"/>
     <use style="fill:#0000ff;stroke:#0000ff;" x="380.164336" xlink:href="#mdb4d86f89f" y="206.37662"/>
     <use style="fill:#0000ff;stroke:#0000ff;" x="200.227552" xlink:href="#mdb4d86f89f" y="57.67301"/>
     <use style="fill:#0000ff;stroke:#0000ff;" x="326.856586" xlink:href="#mdb4d86f89f" y="113.131653"/>
     <use style="fill:#0000ff;stroke:#0000ff;" x="454.381904" xlink:href="#mdb4d86f89f" y="212.51729"/>
     <use style="fill:#0000ff;stroke:#0000ff;" x="413.961093" xlink:href="#mdb4d86f89f" y="267.440465"/>
     <use style="fill:#0000ff;stroke:#0000ff;" x="214.801831" xlink:href="#mdb4d86f89f" y="80.367238"/>
     <use style="fill:#0000ff;stroke:#0000ff;" x="298.117298" xlink:href="#mdb4d86f89f" y="169.057632"/>
     <use style="fill:#0000ff;stroke:#0000ff;" x="339.520752" xlink:href="#mdb4d86f89f" y="110.241581"/>
     <use style="fill:#0000ff;stroke:#0000ff;" x="408.104938" xlink:href="#mdb4d86f89f" y="264.758119"/>
     <use style="fill:#0000ff;stroke:#0000ff;" x="187.549836" xlink:href="#mdb4d86f89f" y="53.438907"/>
     <use style="fill:#0000ff;stroke:#0000ff;" x="142.199432" xlink:href="#mdb4d86f89f" y="102.53793"/>
     <use style="fill:#0000ff;stroke:#0000ff;" x="159.07959" xlink:href="#mdb4d86f89f" y="81.353827"/>
     <use style="fill:#0000ff;stroke:#0000ff;" x="295.681179" xlink:href="#mdb4d86f89f" y="174.400033"/>
     <use style="fill:#0000ff;stroke:#0000ff;" x="335.04978" xlink:href="#mdb4d86f89f" y="109.050093"/>
     <use style="fill:#0000ff;stroke:#0000ff;" x="322.752698" xlink:href="#mdb4d86f89f" y="117.96623"/>
     <use style="fill:#0000ff;stroke:#0000ff;" x="240.235509" xlink:href="#mdb4d86f89f" y="149.922433"/>
     <use style="fill:#0000ff;stroke:#0000ff;" x="460.483575" xlink:href="#mdb4d86f89f" y="200.197644"/>
     <use style="fill:#0000ff;stroke:#0000ff;" x="326.327106" xlink:href="#mdb4d86f89f" y="113.657953"/>
     <use style="fill:#0000ff;stroke:#0000ff;" x="260.83413" xlink:href="#mdb4d86f89f" y="195.614676"/>
     <use style="fill:#0000ff;stroke:#0000ff;" x="316.878393" xlink:href="#mdb4d86f89f" y="127.57195"/>
     <use style="fill:#0000ff;stroke:#0000ff;" x="380.659322" xlink:href="#mdb4d86f89f" y="207.883579"/>
     <use style="fill:#0000ff;stroke:#0000ff;" x="355.689306" xlink:href="#mdb4d86f89f" y="134.307547"/>
     <use style="fill:#0000ff;stroke:#0000ff;" x="223.028251" xlink:href="#mdb4d86f89f" y="100.436322"/>
     <use style="fill:#0000ff;stroke:#0000ff;" x="157.86973" xlink:href="#mdb4d86f89f" y="83.010591"/>
     <use style="fill:#0000ff;stroke:#0000ff;" x="257.534291" xlink:href="#mdb4d86f89f" y="190.699041"/>
     <use style="fill:#0000ff;stroke:#0000ff;" x="342.723736" xlink:href="#mdb4d86f89f" y="112.616377"/>
     <use style="fill:#0000ff;stroke:#0000ff;" x="205.065445" xlink:href="#mdb4d86f89f" y="63.124568"/>
     <use style="fill:#0000ff;stroke:#0000ff;" x="383.094299" xlink:href="#mdb4d86f89f" y="215.16055"/>
     <use style="fill:#0000ff;stroke:#0000ff;" x="157.935893" xlink:href="#mdb4d86f89f" y="82.920091"/>
     <use style="fill:#0000ff;stroke:#0000ff;" x="221.517461" xlink:href="#mdb4d86f89f" y="96.449989"/>
     <use style="fill:#0000ff;stroke:#0000ff;" x="400.155927" xlink:href="#mdb4d86f89f" y="255.262955"/>
     <use style="fill:#0000ff;stroke:#0000ff;" x="199.572898" xlink:href="#mdb4d86f89f" y="57.101208"/>
     <use style="fill:#0000ff;stroke:#0000ff;" x="345.920678" xlink:href="#mdb4d86f89f" y="116.229031"/>
     <use style="fill:#0000ff;stroke:#0000ff;" x="308.256231" xlink:href="#mdb4d86f89f" y="145.697839"/>
     <use style="fill:#0000ff;stroke:#0000ff;" x="439.547187" xlink:href="#mdb4d86f89f" y="242.253047"/>
     <use style="fill:#0000ff;stroke:#0000ff;" x="222.495791" xlink:href="#mdb4d86f89f" y="99.018261"/>
     <use style="fill:#0000ff;stroke:#0000ff;" x="157.747099" xlink:href="#mdb4d86f89f" y="83.178328"/>
     <use style="fill:#0000ff;stroke:#0000ff;" x="377.290089" xlink:href="#mdb4d86f89f" y="197.486521"/>
     <use style="fill:#0000ff;stroke:#0000ff;" x="389.467095" xlink:href="#mdb4d86f89f" y="232.744885"/>
     <use style="fill:#0000ff;stroke:#0000ff;" x="433.971827" xlink:href="#mdb4d86f89f" y="251.747411"/>
     <use style="fill:#0000ff;stroke:#0000ff;" x="441.897831" xlink:href="#mdb4d86f89f" y="237.84608"/>
     <use style="fill:#0000ff;stroke:#0000ff;" x="140.682024" xlink:href="#mdb4d86f89f" y="104.077173"/>
     <use style="fill:#0000ff;stroke:#0000ff;" x="213.001903" xlink:href="#mdb4d86f89f" y="76.590414"/>
     <use style="fill:#0000ff;stroke:#0000ff;" x="338.478214" xlink:href="#mdb4d86f89f" y="109.742082"/>
     <use style="fill:#0000ff;stroke:#0000ff;" x="447.490297" xlink:href="#mdb4d86f89f" y="226.733153"/>
    </g>
   </g>
   <g id="patch_3">
    <path d="M 54.342207 293.301871 
L 54.342207 10.7 
" style="fill:none;stroke:#000000;stroke-linecap:square;stroke-linejoin:miter;stroke-width:0.8;"/>
   </g>
   <g id="patch_4">
    <path d="M 545.14 293.301871 
L 545.14 10.7 
" style="fill:none;stroke:#000000;stroke-linecap:square;stroke-linejoin:miter;stroke-width:0.8;"/>
   </g>
   <g id="patch_5">
    <path d="M 54.342207 293.301871 
L 545.14 293.301871 
" style="fill:none;stroke:#000000;stroke-linecap:square;stroke-linejoin:miter;stroke-width:0.8;"/>
   </g>
   <g id="patch_6">
    <path d="M 54.342207 10.7 
L 545.14 10.7 
" style="fill:none;stroke:#000000;stroke-linecap:square;stroke-linejoin:miter;stroke-width:0.8;"/>
   </g>
   <g id="legend_1">
    <g id="patch_7">
     <path d="M 408.168569 90.398429 
L 533.94 90.398429 
Q 537.14 90.398429 537.14 87.198429 
L 537.14 21.9 
Q 537.14 18.7 533.94 18.7 
L 408.168569 18.7 
Q 404.968569 18.7 404.968569 21.9 
L 404.968569 87.198429 
Q 404.968569 90.398429 408.168569 90.398429 
z
" style="fill:#ffffff;opacity:0.8;stroke:#cccccc;stroke-linejoin:miter;"/>
    </g>
    <g id="line2d_16">
     <path d="M 411.368569 30.7 
L 443.368569 30.7 
" style="fill:none;stroke:#3465a4;stroke-linecap:square;stroke-width:2;"/>
    </g>
    <g id="line2d_17"/>
    <g id="text_16">
     <!-- Mean -->
     <defs>
      <path d="M 20.90625 66 
C 20.296875 67.5 20.203125 67.5 18.09375 67.5 
L 5.296875 67.5 
L 5.296875 65 
C 12.203125 65 13.296875 65 13.296875 60.546875 
L 13.296875 9.53125 
C 13.296875 7.046875 13.296875 2.390625 5.296875 2.390625 
L 5.296875 -0.203125 
C 7.59375 0 11.796875 0 14.296875 0 
C 16.796875 0 21 0 23.296875 -0.203125 
L 23.296875 2.390625 
C 15.296875 2.390625 15.296875 7.046875 15.296875 9.53125 
L 15.296875 64.609375 
L 15.40625 64.609375 
L 38.90625 1.390625 
C 39.296875 0.390625 39.5 -0.203125 40.296875 -0.203125 
C 41.09375 -0.203125 41.296875 0.390625 41.703125 1.390625 
L 65.40625 65.09375 
L 65.5 65.09375 
L 65.5 6.84375 
C 65.5 2.390625 64.40625 2.390625 57.5 2.390625 
L 57.5 -0.203125 
C 60.203125 0 65.59375 0 68.5 0 
C 71.40625 0 76.90625 0 79.59375 -0.203125 
L 79.59375 2.390625 
C 72.703125 2.390625 71.59375 2.390625 71.59375 6.84375 
L 71.59375 60.546875 
C 71.59375 65 72.703125 65 79.59375 65 
L 79.59375 67.5 
L 66.90625 67.5 
C 64.796875 67.5 64.703125 67.40625 64.09375 65.90625 
L 42.5 7.84375 
z
" id="CMR17-77"/>
      <path d="M 38.09375 23 
C 38.5 23.40625 38.5 23.609375 38.5 24.625 
C 38.5 34.96875 33.09375 44 21.703125 44 
C 11.09375 44 2.703125 33.890625 2.703125 21.609375 
C 2.703125 8.609375 12.203125 -1 22.796875 -1 
C 34 -1 38.40625 9.484375 38.40625 11.5625 
C 38.40625 12.25 37.796875 12.25 37.59375 12.25 
C 36.90625 12.25 36.796875 12.046875 36.40625 10.875 
C 34.203125 4.140625 28.703125 0.796875 23.5 0.796875 
C 19.203125 0.796875 14.90625 3.171875 12.203125 7.5 
C 9.09375 12.546875 9.09375 18.375 9.09375 23 
z
M 9.203125 24.5 
C 9.90625 39.140625 17.59375 42.40625 21.59375 42.40625 
C 28.40625 42.40625 33 35.890625 33.09375 24.5 
z
" id="CMR17-101"/>
      <path d="M 36 25.828125 
C 36 32.375 36 35.84375 31.796875 39.734375 
C 28.09375 43 23.796875 44 20.40625 44 
C 12.5 44 6.796875 37.609375 6.796875 30.796875 
C 6.796875 27 9.796875 27 10.40625 27 
C 11.703125 27 14 27.78125 14 30.53125 
C 14 33 12.09375 34.078125 10.40625 34.078125 
C 10 34.078125 9.5 33.96875 9.203125 33.875 
C 11.296875 40.5 16.703125 42.40625 20.203125 42.40625 
C 25.203125 42.40625 30.703125 37.953125 30.703125 29.453125 
L 30.703125 25 
C 24.796875 25 17.703125 24.203125 12.09375 21.203125 
C 5.796875 17.703125 4 12.703125 4 8.90625 
C 4 1.203125 13 -1 18.296875 -1 
C 23.796875 -1 28.90625 2.171875 31.09375 7.984375 
C 31.296875 3.640625 34.09375 -0.28125 38.5 -0.28125 
C 40.59375 -0.28125 45.90625 1.09375 45.90625 8.859375 
L 45.90625 14.375 
L 44.09375 14.375 
L 44.09375 8.78125 
C 44.09375 2.78125 41.40625 2 40.09375 2 
C 36 2 36 7.15625 36 11.53125 
z
M 30.703125 13.59375 
C 30.703125 4.953125 24.5 0.59375 19 0.59375 
C 14 0.59375 10.09375 4.296875 10.09375 8.90625 
C 10.09375 11.890625 11.40625 17.1875 17.203125 20.390625 
C 22 23.09375 27.5 23.5 30.703125 23.5 
z
" id="CMR17-97"/>
      <path d="M 41.5 30.203125 
C 41.5 35.296875 40.5 43.59375 28.703125 43.59375 
C 20.796875 43.59375 16.703125 37.5 15.203125 33.5 
L 15.09375 33.5 
L 15.09375 43.59375 
L 3.296875 42.5 
L 3.296875 39.90625 
C 9.203125 39.90625 10.09375 39.296875 10.09375 34.5 
L 10.09375 6.6875 
C 10.09375 2.875 9.703125 2.390625 3.296875 2.390625 
L 3.296875 -0.203125 
C 5.703125 0 10.09375 0 12.703125 0 
C 15.296875 0 19.796875 0 22.203125 -0.203125 
L 22.203125 2.390625 
C 15.796875 2.390625 15.40625 2.78125 15.40625 6.6875 
L 15.40625 25.90625 
C 15.40625 35.109375 21 42 28 42 
C 35.40625 42 36.203125 35.40625 36.203125 30.59375 
L 36.203125 6.6875 
C 36.203125 2.875 35.796875 2.390625 29.40625 2.390625 
L 29.40625 -0.203125 
C 31.796875 0 36.203125 0 38.796875 0 
C 41.40625 0 45.90625 0 48.296875 -0.203125 
L 48.296875 2.390625 
C 41.90625 2.390625 41.5 2.78125 41.5 6.6875 
z
" id="CMR17-110"/>
     </defs>
     <g transform="translate(456.168569 36.3)scale(0.16 -0.16)">
      <use transform="scale(0.996264)" xlink:href="#CMR17-77"/>
      <use transform="translate(84.686941 0)scale(0.996264)" xlink:href="#CMR17-101"/>
      <use transform="translate(125.172601 0)scale(0.996264)" xlink:href="#CMR17-97"/>
      <use transform="translate(170.863078 0)scale(0.996264)" xlink:href="#CMR17-110"/>
     </g>
    </g>
    <g id="line2d_18"/>
    <g id="line2d_19">
     <g>
      <use style="fill:#0000ff;stroke:#0000ff;" x="427.368569" xlink:href="#mdb4d86f89f" y="52.999476"/>
     </g>
    </g>
    <g id="text_17">
     <!-- Truth -->
     <defs>
      <path d="M 62.203125 67.59375 
L 4.5 67.59375 
L 2.796875 45.59375 
L 4.59375 45.59375 
C 5.90625 62.125 7.296875 65 22.703125 65 
C 24.5 65 27.40625 65 28.203125 64.90625 
C 30.09375 64.609375 30.09375 63.40625 30.09375 61.125 
L 30.09375 7.171875 
C 30.09375 3.59375 29.796875 2.5 21.5 2.5 
L 18.703125 2.5 
L 18.703125 0 
C 23.5 0 28.5 0 33.40625 0 
C 38.296875 0 43.296875 0 48.09375 0 
L 48.09375 2.5 
L 45.296875 2.5 
C 37 2.5 36.703125 3.59375 36.703125 7.171875 
L 36.703125 61.125 
C 36.703125 63.3125 36.703125 64.515625 38.5 64.90625 
C 39.296875 65 42.203125 65 44 65 
C 59.296875 65 60.796875 62.125 62.09375 45.59375 
L 63.90625 45.59375 
z
" id="CMR17-84"/>
      <path d="M 15 23.390625 
C 15 33 19.09375 42 26.59375 42 
C 27.296875 42 28 41.90625 28.703125 41.59375 
C 28.703125 41.59375 26.5 40.890625 26.5 38.3125 
C 26.5 35.90625 28.40625 34.90625 29.90625 34.90625 
C 31.09375 34.90625 33.296875 35.609375 33.296875 38.40625 
C 33.296875 41.609375 30.09375 43.59375 26.703125 43.59375 
C 19.09375 43.59375 15.796875 36.203125 14.796875 32.703125 
L 14.703125 32.703125 
L 14.703125 43.59375 
L 3.09375 42.5 
L 3.09375 39.90625 
C 9 39.90625 9.90625 39.296875 9.90625 34.5 
L 9.90625 6.6875 
C 9.90625 2.875 9.5 2.390625 3.09375 2.390625 
L 3.09375 -0.203125 
C 5.5 0 10.09375 0 12.703125 0 
C 15.59375 0 20.703125 0 23.40625 -0.203125 
L 23.40625 2.390625 
C 16.203125 2.390625 15 2.390625 15 6.875 
z
" id="CMR17-114"/>
      <path d="M 29.40625 42.078125 
L 29.40625 39.5 
C 35.296875 39.5 36.203125 38.890625 36.203125 34.15625 
L 36.203125 16.125 
C 36.203125 7.8125 31.703125 0.59375 24.296875 0.59375 
C 16.09375 0.59375 15.40625 5.4375 15.40625 10.59375 
L 15.40625 43.171875 
L 3.296875 42.078125 
L 3.296875 39.5 
C 7.296875 39.5 10 39.5 10.09375 35.53125 
L 10.09375 16.53125 
C 10.09375 9.890625 10.09375 5.640625 12.703125 2.859375 
C 14 1.578125 16.5 -1 23.703125 -1 
C 32.203125 -1 35.5 5.890625 36.296875 7.90625 
L 36.40625 7.90625 
L 36.40625 -0.984375 
L 48.296875 -0.984375 
L 48.296875 2 
C 42.40625 2 41.5 2.59375 41.5 7.390625 
L 41.5 43.171875 
z
" id="CMR17-117"/>
      <path d="M 15.09375 40 
L 29.09375 40 
L 29.09375 42.578125 
L 15.09375 42.578125 
L 15.09375 61 
L 13.296875 61 
C 13.09375 50.703125 9.59375 41.6875 1.09375 41.6875 
L 1.09375 40 
L 9.796875 40 
L 9.796875 12.046875 
C 9.796875 10.15625 9.796875 -1 21.40625 -1 
C 27.296875 -1 30.703125 4.78125 30.703125 12.140625 
L 30.703125 17.8125 
L 28.90625 17.8125 
L 28.90625 12.234375 
C 28.90625 5.375 26.203125 0.796875 22 0.796875 
C 19.09375 0.796875 15.09375 2.78125 15.09375 11.84375 
z
" id="CMR17-116"/>
      <path d="M 41.5 30.203125 
C 41.5 35.296875 40.5 43.59375 28.703125 43.59375 
C 20.5 43.59375 16.5 37 15.296875 33.703125 
L 15.203125 33.703125 
L 15.203125 68.6875 
L 3.296875 67.59375 
L 3.296875 65 
C 9.203125 65 10.09375 64.40625 10.09375 59.640625 
L 10.09375 6.65625 
C 10.09375 2.875 9.703125 2.390625 3.296875 2.390625 
L 3.296875 -0.203125 
C 5.703125 0 10.09375 0 12.703125 0 
C 15.296875 0 19.796875 0 22.203125 -0.203125 
L 22.203125 2.390625 
C 15.796875 2.390625 15.40625 2.78125 15.40625 6.6875 
L 15.40625 25.90625 
C 15.40625 35.109375 21 42 28 42 
C 35.40625 42 36.203125 35.40625 36.203125 30.59375 
L 36.203125 6.6875 
C 36.203125 2.875 35.796875 2.390625 29.40625 2.390625 
L 29.40625 -0.203125 
C 31.796875 0 36.203125 0 38.796875 0 
C 41.40625 0 45.90625 0 48.296875 -0.203125 
L 48.296875 2.390625 
C 41.90625 2.390625 41.5 2.78125 41.5 6.6875 
z
" id="CMR17-104"/>
     </defs>
     <g transform="translate(456.168569 58.599476)scale(0.16 -0.16)">
      <use transform="scale(0.996264)" xlink:href="#CMR17-84"/>
      <use transform="translate(58.702625 0)scale(0.996264)" xlink:href="#CMR17-114"/>
      <use transform="translate(93.983393 0)scale(0.996264)" xlink:href="#CMR17-117"/>
      <use transform="translate(144.878763 0)scale(0.996264)" xlink:href="#CMR17-116"/>
      <use transform="translate(180.159531 0)scale(0.996264)" xlink:href="#CMR17-104"/>
     </g>
    </g>
    <g id="patch_8">
     <path d="M 411.368569 80.898952 
L 443.368569 80.898952 
L 443.368569 69.698952 
L 411.368569 69.698952 
z
" style="fill:#729fcf;opacity:0.2;stroke:#204a87;stroke-linejoin:miter;stroke-width:0.5;"/>
    </g>
    <g id="text_18">
     <!-- Confidence -->
     <defs>
      <path d="M 62.09375 67.015625 
C 62.09375 68.796875 62 68.90625 61.40625 68.90625 
C 61 68.90625 60.90625 68.796875 60.203125 67.609375 
L 55.796875 59.25 
C 50.90625 65.421875 44.90625 69 37.203125 69 
C 20.09375 69 4.59375 54 4.59375 33.5625 
C 4.59375 12.90625 20.09375 -2 37.296875 -2 
C 52.59375 -2 62.09375 11.40625 62.09375 22.828125 
C 62.09375 23.8125 62.09375 24.21875 61.203125 24.21875 
C 60.40625 24.21875 60.40625 23.921875 60.296875 23.03125 
C 59.5 9.140625 49.5 0.59375 38.703125 0.59375 
C 28.5 0.59375 12.203125 7.734375 12.203125 33.546875 
C 12.203125 59.453125 28.796875 66.40625 38.5 66.40625 
C 49.796875 66.40625 58 56.6875 59.90625 42.890625 
C 60.09375 41.6875 60.09375 41.484375 61 41.484375 
C 62.09375 41.484375 62.09375 41.6875 62.09375 43.484375 
z
" id="CMR17-67"/>
      <path d="M 43.09375 21.1875 
C 43.09375 34 33.796875 44 22.90625 44 
C 12 44 2.703125 34 2.703125 21.1875 
C 2.703125 8.609375 12 -1 22.90625 -1 
C 33.796875 -1 43.09375 8.609375 43.09375 21.1875 
z
M 22.90625 0.796875 
C 18.203125 0.796875 14.203125 3.59375 11.90625 7.5 
C 9.40625 11.984375 9.09375 17.59375 9.09375 22 
C 9.09375 26.203125 9.296875 31.40625 11.90625 35.90625 
C 13.90625 39.203125 17.796875 42.40625 22.90625 42.40625 
C 27.40625 42.40625 31.203125 39.90625 33.59375 36.40625 
C 36.703125 31.703125 36.703125 25.109375 36.703125 22 
C 36.703125 18.09375 36.5 12.109375 33.796875 7.296875 
C 31 2.703125 26.703125 0.796875 22.90625 0.796875 
z
" id="CMR17-111"/>
      <path d="M 39.90625 43.1875 
C 37.5 43.1875 30.09375 43.1875 28.203125 42.796875 
C 27.59375 42.578125 27.40625 42.578125 26.203125 42.578125 
L 14.796875 42.578125 
L 14.796875 54.203125 
C 14.796875 63.640625 22.40625 68 28.40625 68 
C 30.296875 68 34.59375 67.5 36.796875 64.078125 
C 35.796875 64.078125 32.59375 64.078125 32.59375 60.59375 
C 32.59375 58.203125 34.203125 57 36.203125 57 
C 38 57 39.796875 58 39.796875 60.703125 
C 39.796875 65.703125 35 69.59375 28.796875 69.59375 
C 20.90625 69.59375 9.90625 65.125 9.90625 54.203125 
L 9.90625 42.578125 
L 1.90625 42.578125 
L 1.90625 40 
L 9.90625 40 
L 9.90625 6.671875 
C 9.90625 2.875 9.5 2.390625 3.09375 2.390625 
L 3.09375 -0.203125 
C 5.5 0 9.90625 0 12.40625 0 
C 15 0 19.40625 0 21.796875 -0.203125 
L 21.796875 2.390625 
C 15.40625 2.390625 15 2.78125 15 6.671875 
L 15 40 
L 29.703125 40 
C 34 40 34.796875 39.09375 34.796875 34.71875 
L 34.796875 6.671875 
C 34.796875 2.875 34.40625 2.390625 28 2.390625 
L 28 -0.203125 
C 30.40625 0 34.796875 0 37.296875 0 
C 39.90625 0 44.296875 0 46.703125 -0.203125 
L 46.703125 2.390625 
C 40.296875 2.390625 39.90625 2.78125 39.90625 6.671875 
z
" id="CMR17-12"/>
      <path d="M 29.203125 67.59375 
L 29.203125 65 
C 35.09375 65 36 64.40625 36 59.6875 
L 36 36.640625 
C 35.59375 37.140625 31.5 43.59375 23.40625 43.59375 
C 13.203125 43.59375 3.296875 34.5 3.296875 21.3125 
C 3.296875 8.203125 12.59375 -1 22.40625 -1 
C 30.90625 -1 35.296875 5.265625 35.796875 5.9375 
L 35.796875 -0.984375 
L 47.90625 -0.984375 
L 47.90625 2 
C 42 2 41.09375 2.59375 41.09375 7.390625 
L 41.09375 68.6875 
z
M 35.796875 11.796875 
C 35.796875 8.796875 34 6.09375 31.703125 4.09375 
C 28.296875 1.09375 24.90625 0.59375 23 0.59375 
C 20.09375 0.59375 9.703125 2.09375 9.703125 21.1875 
C 9.703125 40.8125 21.296875 42 23.90625 42 
C 28.5 42 32.203125 39.40625 34.5 35.796875 
C 35.796875 33.703125 35.796875 33.40625 35.796875 31.609375 
z
" id="CMR17-100"/>
      <path d="M 34.90625 35 
C 33 35 30.203125 35 30.203125 31.515625 
C 30.203125 28.71875 32.5 27.921875 33.796875 27.921875 
C 34.5 27.921875 37.40625 28.234375 37.40625 31.625 
C 37.40625 38.546875 30.59375 43.796875 22.90625 43.796875 
C 12.296875 43.796875 3.296875 34.03125 3.296875 21.296875 
C 3.296875 8.0625 12.703125 -1 22.90625 -1 
C 35.296875 -1 38.40625 10.578125 38.40625 11.6875 
C 38.40625 12.09375 38.296875 12.390625 37.59375 12.390625 
C 36.90625 12.390625 36.796875 12.296875 36.40625 10.984375 
C 33.796875 2.8125 28.09375 0.796875 23.796875 0.796875 
C 17.40625 0.796875 9.703125 6.671875 9.703125 21.390625 
C 9.703125 36.53125 17.09375 42 23 42 
C 26.90625 42 32.703125 40.203125 34.90625 35 
z
" id="CMR17-99"/>
     </defs>
     <g transform="translate(456.168569 80.898952)scale(0.16 -0.16)">
      <use transform="scale(0.996264)" xlink:href="#CMR17-67"/>
      <use transform="translate(66.509881 0)scale(0.996264)" xlink:href="#CMR17-111"/>
      <use transform="translate(112.200358 0)scale(0.996264)" xlink:href="#CMR17-110"/>
      <use transform="translate(163.095727 0)scale(0.996264)" xlink:href="#CMR17-12"/>
      <use transform="translate(212.837951 0)scale(0.996264)" xlink:href="#CMR17-100"/>
      <use transform="translate(263.733321 0)scale(0.996264)" xlink:href="#CMR17-101"/>
      <use transform="translate(304.218981 0)scale(0.996264)" xlink:href="#CMR17-110"/>
      <use transform="translate(355.114351 0)scale(0.996264)" xlink:href="#CMR17-99"/>
      <use transform="translate(395.600011 0)scale(0.996264)" xlink:href="#CMR17-101"/>
     </g>
    </g>
   </g>
  </g>
 </g>
 <defs>
  <clipPath id="p6103712684">
   <rect height="282.601871" width="490.797793" x="54.342207" y="10.7"/>
  </clipPath>
 </defs>
</svg>
