<?xml version="1.0" encoding="utf-8" standalone="no"?>
<!DOCTYPE svg PUBLIC "-//W3C//DTD SVG 1.1//EN"
  "http://www.w3.org/Graphics/SVG/1.1/DTD/svg11.dtd">
<!-- Created with matplotlib (http://matplotlib.org/) -->
<svg height="339pt" version="1.1" viewBox="0 0 555 339" width="555pt" xmlns="http://www.w3.org/2000/svg" xmlns:xlink="http://www.w3.org/1999/xlink">
 <defs>
  <style type="text/css">
*{stroke-linecap:butt;stroke-linejoin:round;}
  </style>
 </defs>
 <g id="figure_1">
  <g id="patch_1">
   <path d="M 0 339.84 
L 555.84 339.84 
L 555.84 0 
L 0 0 
z
" style="fill:none;"/>
  </g>
  <g id="axes_1">
   <g id="patch_2">
    <path d="M 54.342207 293.301871 
L 545.14 293.301871 
L 545.14 10.7 
L 54.342207 10.7 
z
" style="fill:#ffffff;"/>
   </g>
   <g id="PolyCollection_1">
    <defs>
     <path d="M 54.342207 -316.29446 
L 54.342207 -240.437509 
L 56.808528 -240.56373 
L 59.274848 -240.676302 
L 61.741169 -240.775126 
L 64.207489 -240.860104 
L 66.67381 -240.931139 
L 69.140131 -240.988139 
L 71.606451 -241.03101 
L 74.072772 -241.059662 
L 76.539092 -241.074009 
L 79.005413 -241.073963 
L 81.471733 -241.059442 
L 83.938054 -241.030363 
L 86.404375 -240.986648 
L 88.870695 -240.92822 
L 91.337016 -240.855004 
L 93.803336 -240.766927 
L 96.269657 -240.663921 
L 98.735977 -240.545918 
L 101.202298 -240.412853 
L 103.668619 -240.264666 
L 106.134939 -240.101296 
L 108.60126 -239.922688 
L 111.06758 -239.728788 
L 113.533901 -239.519547 
L 116.000221 -239.294917 
L 118.466542 -239.054856 
L 120.932863 -238.799322 
L 123.399183 -238.528279 
L 125.865504 -238.241694 
L 128.331824 -237.939538 
L 130.798145 -237.621787 
L 133.264465 -237.288418 
L 135.730786 -236.939416 
L 138.197106 -236.574768 
L 140.663427 -236.194467 
L 143.129748 -235.798511 
L 145.596068 -235.386902 
L 148.062389 -234.959649 
L 150.528709 -234.516766 
L 152.99503 -234.058271 
L 155.46135 -233.584191 
L 157.927671 -233.094557 
L 160.393992 -232.589409 
L 162.860312 -232.068792 
L 165.326633 -231.532758 
L 167.792953 -230.981367 
L 170.259274 -230.414687 
L 172.725594 -229.832793 
L 175.191915 -229.235769 
L 177.658236 -228.623707 
L 180.124556 -227.996706 
L 182.590877 -227.354876 
L 185.057197 -226.698334 
L 187.523518 -226.027208 
L 189.989838 -225.341634 
L 192.456159 -224.641755 
L 194.92248 -223.927728 
L 197.3888 -223.199715 
L 199.855121 -222.457889 
L 202.321441 -221.702432 
L 204.787762 -220.933534 
L 207.254082 -220.151396 
L 209.720403 -219.356224 
L 212.186723 -218.548237 
L 214.653044 -217.727657 
L 217.119365 -216.894717 
L 219.585685 -216.049655 
L 222.052006 -215.192718 
L 224.518326 -214.324157 
L 226.984647 -213.444229 
L 229.450967 -212.553197 
L 231.917288 -211.651328 
L 234.383609 -210.738891 
L 236.849929 -209.816162 
L 239.31625 -208.883414 
L 241.78257 -207.940927 
L 244.248891 -206.988978 
L 246.715211 -206.027846 
L 249.181532 -205.05781 
L 251.647853 -204.079145 
L 254.114173 -203.092127 
L 256.580494 -202.097029 
L 259.046814 -201.094118 
L 261.513135 -200.083661 
L 263.979455 -199.065916 
L 266.445776 -198.041141 
L 268.912097 -197.009583 
L 271.378417 -195.971487 
L 273.844738 -194.927088 
L 276.311058 -193.876615 
L 278.777379 -192.820291 
L 281.243699 -191.758328 
L 283.71002 -190.690932 
L 286.17634 -189.618299 
L 288.642661 -188.540617 
L 291.108982 -187.458065 
L 293.575302 -186.370812 
L 296.041623 -185.279018 
L 298.507943 -184.182834 
L 300.974264 -183.082401 
L 303.440584 -181.977852 
L 305.906905 -180.869308 
L 308.373226 -179.756885 
L 310.839546 -178.640687 
L 313.305867 -177.52081 
L 315.772187 -176.397341 
L 318.238508 -175.270361 
L 320.704828 -174.139941 
L 323.171149 -173.006145 
L 325.63747 -171.869033 
L 328.10379 -170.728655 
L 330.570111 -169.585056 
L 333.036431 -168.438277 
L 335.502752 -167.288355 
L 337.969072 -166.13532 
L 340.435393 -164.979201 
L 342.901714 -163.820024 
L 345.368034 -162.657813 
L 347.834355 -161.49259 
L 350.300675 -160.324377 
L 352.766996 -159.153196 
L 355.233316 -157.97907 
L 357.699637 -156.802025 
L 360.165957 -155.622086 
L 362.632278 -154.439282 
L 365.098599 -153.253648 
L 367.564919 -152.065221 
L 370.03124 -150.87404 
L 372.49756 -149.680155 
L 374.963881 -148.483615 
L 377.430201 -147.28448 
L 379.896522 -146.082814 
L 382.362843 -144.878687 
L 384.829163 -143.672176 
L 387.295484 -142.463366 
L 389.761804 -141.252347 
L 392.228125 -140.039218 
L 394.694445 -138.824084 
L 397.160766 -137.607056 
L 399.627087 -136.388254 
L 402.093407 -135.167802 
L 404.559728 -133.945834 
L 407.026048 -132.722487 
L 409.492369 -131.497905 
L 411.958689 -130.27224 
L 414.42501 -129.045646 
L 416.891331 -127.818284 
L 419.357651 -126.59032 
L 421.823972 -125.361925 
L 424.290292 -124.133273 
L 426.756613 -122.904541 
L 429.222933 -121.675913 
L 431.689254 -120.447573 
L 434.155574 -119.219708 
L 436.621895 -117.992509 
L 439.088216 -116.766168 
L 441.554536 -115.54088 
L 444.020857 -114.31684 
L 446.487177 -113.094246 
L 448.953498 -111.873295 
L 451.419818 -110.654186 
L 453.886139 -109.437118 
L 456.35246 -108.22229 
L 458.81878 -107.009902 
L 461.285101 -105.800153 
L 463.751421 -104.593242 
L 466.217742 -103.389366 
L 468.684062 -102.188722 
L 471.150383 -100.991508 
L 473.616704 -99.797917 
L 476.083024 -98.608144 
L 478.549345 -97.422381 
L 481.015665 -96.240819 
L 483.481986 -95.063648 
L 485.948306 -93.891053 
L 488.414627 -92.723223 
L 490.880948 -91.560339 
L 493.347268 -90.402584 
L 495.813589 -89.250137 
L 498.279909 -88.103176 
L 500.74623 -86.961875 
L 503.21255 -85.826409 
L 505.678871 -84.696947 
L 508.145191 -83.573657 
L 510.611512 -82.456705 
L 513.077833 -81.346255 
L 515.544153 -80.242466 
L 518.010474 -79.145499 
L 520.476794 -78.055506 
L 522.943115 -76.972643 
L 525.409435 -75.897059 
L 527.875756 -74.828902 
L 530.342077 -73.768316 
L 532.808397 -72.715445 
L 535.274718 -71.670427 
L 537.741038 -70.633399 
L 540.207359 -69.604496 
L 542.673679 -68.583848 
L 545.14 -67.571585 
L 545.14 -148.27286 
L 545.14 -148.27286 
L 542.673679 -148.235233 
L 540.207359 -148.210947 
L 537.741038 -148.200069 
L 535.274718 -148.202665 
L 532.808397 -148.218799 
L 530.342077 -148.248534 
L 527.875756 -148.291931 
L 525.409435 -148.349047 
L 522.943115 -148.419939 
L 520.476794 -148.504662 
L 518.010474 -148.603268 
L 515.544153 -148.71581 
L 513.077833 -148.842334 
L 510.611512 -148.982889 
L 508.145191 -149.137518 
L 505.678871 -149.306265 
L 503.21255 -149.48917 
L 500.74623 -149.686272 
L 498.279909 -149.897607 
L 495.813589 -150.12321 
L 493.347268 -150.363113 
L 490.880948 -150.617346 
L 488.414627 -150.885936 
L 485.948306 -151.168909 
L 483.481986 -151.466288 
L 481.015665 -151.778094 
L 478.549345 -152.104344 
L 476.083024 -152.445055 
L 473.616704 -152.800239 
L 471.150383 -153.169906 
L 468.684062 -153.554065 
L 466.217742 -153.95272 
L 463.751421 -154.365873 
L 461.285101 -154.793521 
L 458.81878 -155.235661 
L 456.35246 -155.692285 
L 453.886139 -156.163381 
L 451.419818 -156.648934 
L 448.953498 -157.148925 
L 446.487177 -157.66333 
L 444.020857 -158.192124 
L 441.554536 -158.735273 
L 439.088216 -159.292742 
L 436.621895 -159.86449 
L 434.155574 -160.45047 
L 431.689254 -161.050631 
L 429.222933 -161.664916 
L 426.756613 -162.293261 
L 424.290292 -162.935598 
L 421.823972 -163.59185 
L 419.357651 -164.261935 
L 416.891331 -164.945764 
L 414.42501 -165.64324 
L 411.958689 -166.354259 
L 409.492369 -167.078708 
L 407.026048 -167.816468 
L 404.559728 -168.567409 
L 402.093407 -169.331395 
L 399.627087 -170.108279 
L 397.160766 -170.897908 
L 394.694445 -171.700115 
L 392.228125 -172.514729 
L 389.761804 -173.341567 
L 387.295484 -174.180437 
L 384.829163 -175.031138 
L 382.362843 -175.89346 
L 379.896522 -176.767182 
L 377.430201 -177.652077 
L 374.963881 -178.547908 
L 372.49756 -179.45443 
L 370.03124 -180.371388 
L 367.564919 -181.298522 
L 365.098599 -182.235563 
L 362.632278 -183.182237 
L 360.165957 -184.138262 
L 357.699637 -185.103353 
L 355.233316 -186.077217 
L 352.766996 -187.059559 
L 350.300675 -188.05008 
L 347.834355 -189.048479 
L 345.368034 -190.054451 
L 342.901714 -191.067693 
L 340.435393 -192.087899 
L 337.969072 -193.114765 
L 335.502752 -194.147987 
L 333.036431 -195.187264 
L 330.570111 -196.232297 
L 328.10379 -197.282792 
L 325.63747 -198.338456 
L 323.171149 -199.399005 
L 320.704828 -200.464158 
L 318.238508 -201.53364 
L 315.772187 -202.607185 
L 313.305867 -203.684531 
L 310.839546 -204.765427 
L 308.373226 -205.849628 
L 305.906905 -206.936899 
L 303.440584 -208.027014 
L 300.974264 -209.119755 
L 298.507943 -210.214916 
L 296.041623 -211.312297 
L 293.575302 -212.411711 
L 291.108982 -213.512982 
L 288.642661 -214.61594 
L 286.17634 -215.72043 
L 283.71002 -216.826304 
L 281.243699 -217.933425 
L 278.777379 -219.041666 
L 276.311058 -220.15091 
L 273.844738 -221.26105 
L 271.378417 -222.371987 
L 268.912097 -223.483633 
L 266.445776 -224.595907 
L 263.979455 -225.708737 
L 261.513135 -226.82206 
L 259.046814 -227.935819 
L 256.580494 -229.049964 
L 254.114173 -230.164454 
L 251.647853 -231.27925 
L 249.181532 -232.394322 
L 246.715211 -233.509643 
L 244.248891 -234.62519 
L 241.78257 -235.740944 
L 239.31625 -236.856889 
L 236.849929 -237.973011 
L 234.383609 -239.089297 
L 231.917288 -240.205736 
L 229.450967 -241.322317 
L 226.984647 -242.439028 
L 224.518326 -243.555856 
L 222.052006 -244.672787 
L 219.585685 -245.789806 
L 217.119365 -246.906892 
L 214.653044 -248.024023 
L 212.186723 -249.141174 
L 209.720403 -250.258316 
L 207.254082 -251.375413 
L 204.787762 -252.492427 
L 202.321441 -253.609313 
L 199.855121 -254.726024 
L 197.3888 -255.842503 
L 194.92248 -256.958692 
L 192.456159 -258.074523 
L 189.989838 -259.189927 
L 187.523518 -260.304826 
L 185.057197 -261.419137 
L 182.590877 -262.532773 
L 180.124556 -263.645639 
L 177.658236 -264.757638 
L 175.191915 -265.868665 
L 172.725594 -266.978611 
L 170.259274 -268.087365 
L 167.792953 -269.194807 
L 165.326633 -270.300817 
L 162.860312 -271.405268 
L 160.393992 -272.508032 
L 157.927671 -273.608976 
L 155.46135 -274.707964 
L 152.99503 -275.804858 
L 150.528709 -276.899518 
L 148.062389 -277.991801 
L 145.596068 -279.081561 
L 143.129748 -280.168653 
L 140.663427 -281.252929 
L 138.197106 -282.334241 
L 135.730786 -283.412437 
L 133.264465 -284.48737 
L 130.798145 -285.558886 
L 128.331824 -286.626837 
L 125.865504 -287.69107 
L 123.399183 -288.751435 
L 120.932863 -289.807783 
L 118.466542 -290.859963 
L 116.000221 -291.907827 
L 113.533901 -292.951226 
L 111.06758 -293.990014 
L 108.60126 -295.024044 
L 106.134939 -296.053172 
L 103.668619 -297.077255 
L 101.202298 -298.09615 
L 98.735977 -299.109719 
L 96.269657 -300.117821 
L 93.803336 -301.120321 
L 91.337016 -302.117083 
L 88.870695 -303.107974 
L 86.404375 -304.092864 
L 83.938054 -305.071623 
L 81.471733 -306.044124 
L 79.005413 -307.010242 
L 76.539092 -307.969854 
L 74.072772 -308.92284 
L 71.606451 -309.869082 
L 69.140131 -310.808462 
L 66.67381 -311.740869 
L 64.207489 -312.666189 
L 61.741169 -313.584314 
L 59.274848 -314.495136 
L 56.808528 -315.398553 
L 54.342207 -316.29446 
z
" id="m2e4882350c" style="stroke:#204a87;stroke-opacity:0.2;stroke-width:0.5;"/>
    </defs>
    <g clip-path="url(#p700a8a6b9b)">
     <use style="fill:#729fcf;fill-opacity:0.2;stroke:#204a87;stroke-opacity:0.2;stroke-width:0.5;" x="0" xlink:href="#m2e4882350c" y="339.84"/>
    </g>
   </g>
   <g id="matplotlib.axis_1">
    <g id="xtick_1">
     <g id="line2d_1">
      <defs>
       <path d="M 0 0 
L 0 3.5 
" id="m4aca8f3390" style="stroke:#000000;stroke-width:0.8;"/>
      </defs>
      <g>
       <use style="stroke:#000000;stroke-width:0.8;" x="70.481418" xlink:href="#m4aca8f3390" y="293.301871"/>
      </g>
     </g>
     <g id="text_1">
      <!-- $-0.2$ -->
      <defs>
       <path d="M 65.90625 23 
C 67.59375 23 69.40625 23 69.40625 25 
C 69.40625 27 67.59375 27 65.90625 27 
L 11.796875 27 
C 10.09375 27 8.296875 27 8.296875 25 
C 8.296875 23 10.09375 23 11.796875 23 
z
" id="CMSY10-0"/>
       <path d="M 42 31.640625 
C 42 37.75 41.90625 48.125 37.703125 56.109375 
C 34 63.109375 28.09375 65.59375 22.90625 65.59375 
C 18.09375 65.59375 12 63.40625 8.203125 56.203125 
C 4.203125 48.71875 3.796875 39.4375 3.796875 31.640625 
C 3.796875 25.953125 3.90625 17.28125 7 9.671875 
C 11.296875 -0.609375 19 -2 22.90625 -2 
C 27.5 -2 34.5 -0.109375 38.59375 9.375 
C 41.59375 16.28125 42 24.359375 42 31.640625 
z
M 22.90625 -0.40625 
C 16.5 -0.40625 12.703125 5.078125 11.296875 12.6875 
C 10.203125 18.5625 10.203125 27.15625 10.203125 32.75 
C 10.203125 40.4375 10.203125 46.828125 11.5 52.921875 
C 13.40625 61.390625 19 64 22.90625 64 
C 27 64 32.296875 61.296875 34.203125 53.125 
C 35.5 47.4375 35.59375 40.734375 35.59375 32.75 
C 35.59375 26.25 35.59375 18.265625 34.40625 12.375 
C 32.296875 1.484375 26.40625 -0.40625 22.90625 -0.40625 
z
" id="CMR17-48"/>
       <path d="M 18.40625 4.796875 
C 18.40625 7.6875 16 9.671875 13.59375 9.671875 
C 10.703125 9.671875 8.703125 7.28125 8.703125 4.890625 
C 8.703125 2 11.09375 0 13.5 0 
C 16.40625 0 18.40625 2.390625 18.40625 4.796875 
z
" id="CMMI12-58"/>
       <path d="M 41.703125 15.453125 
L 39.90625 15.453125 
C 38.90625 8.375 38.09375 7.171875 37.703125 6.5625 
C 37.203125 5.765625 30 5.765625 28.59375 5.765625 
L 9.40625 5.765625 
C 13 9.671875 20 16.75 28.5 24.953125 
C 34.59375 30.734375 41.703125 37.53125 41.703125 47.421875 
C 41.703125 59.21875 32.296875 66 21.796875 66 
C 10.796875 66 4.09375 56.3125 4.09375 47.34375 
C 4.09375 43.4375 7 42.9375 8.203125 42.9375 
C 9.203125 42.9375 12.203125 43.546875 12.203125 47.03125 
C 12.203125 50.109375 9.59375 51 8.203125 51 
C 7.59375 51 7 50.90625 6.59375 50.703125 
C 8.5 59.21875 14.296875 63.40625 20.40625 63.40625 
C 29.09375 63.40625 34.796875 56.515625 34.796875 47.421875 
C 34.796875 38.734375 29.703125 31.25 24 24.75 
L 4.09375 2.28125 
L 4.09375 0 
L 39.296875 0 
z
" id="CMR17-50"/>
      </defs>
      <g transform="translate(54.310659 311.371459)scale(0.16 -0.16)">
       <use transform="scale(0.996264)" xlink:href="#CMSY10-0"/>
       <use transform="translate(77.487468 0)scale(0.996264)" xlink:href="#CMR17-48"/>
       <use transform="translate(123.177945 0)scale(0.996264)" xlink:href="#CMMI12-58"/>
       <use transform="translate(150.275122 0)scale(0.996264)" xlink:href="#CMR17-50"/>
      </g>
     </g>
    </g>
    <g id="xtick_2">
     <g id="line2d_2">
      <g>
       <use style="stroke:#000000;stroke-width:0.8;" x="136.104311" xlink:href="#m4aca8f3390" y="293.301871"/>
      </g>
     </g>
     <g id="text_2">
      <!-- $0.0$ -->
      <g transform="translate(126.13255 311.371459)scale(0.16 -0.16)">
       <use transform="scale(0.996264)" xlink:href="#CMR17-48"/>
       <use transform="translate(45.690477 0)scale(0.996264)" xlink:href="#CMMI12-58"/>
       <use transform="translate(72.787654 0)scale(0.996264)" xlink:href="#CMR17-48"/>
      </g>
     </g>
    </g>
    <g id="xtick_3">
     <g id="line2d_3">
      <g>
       <use style="stroke:#000000;stroke-width:0.8;" x="201.727205" xlink:href="#m4aca8f3390" y="293.301871"/>
      </g>
     </g>
     <g id="text_3">
      <!-- $0.2$ -->
      <g transform="translate(191.755444 311.371459)scale(0.16 -0.16)">
       <use transform="scale(0.996264)" xlink:href="#CMR17-48"/>
       <use transform="translate(45.690477 0)scale(0.996264)" xlink:href="#CMMI12-58"/>
       <use transform="translate(72.787654 0)scale(0.996264)" xlink:href="#CMR17-50"/>
      </g>
     </g>
    </g>
    <g id="xtick_4">
     <g id="line2d_4">
      <g>
       <use style="stroke:#000000;stroke-width:0.8;" x="267.350099" xlink:href="#m4aca8f3390" y="293.301871"/>
      </g>
     </g>
     <g id="text_4">
      <!-- $0.4$ -->
      <defs>
       <path d="M 33.59375 64.40625 
C 33.59375 66.5 33.5 66.5 31.703125 66.5 
L 2 19.59375 
L 2 17 
L 27.796875 17 
L 27.796875 7.140625 
C 27.796875 3.5 27.59375 2.5 20.59375 2.5 
L 18.703125 2.5 
L 18.703125 0 
C 21.90625 0 27.296875 0 30.703125 0 
C 34.09375 0 39.5 0 42.703125 0 
L 42.703125 2.5 
L 40.796875 2.5 
C 33.796875 2.5 33.59375 3.5 33.59375 7.140625 
L 33.59375 17 
L 43.796875 17 
L 43.796875 19.59375 
L 33.59375 19.59375 
z
M 28.09375 57.859375 
L 28.09375 19.59375 
L 4 19.59375 
z
" id="CMR17-52"/>
      </defs>
      <g transform="translate(257.378337 311.371459)scale(0.16 -0.16)">
       <use transform="scale(0.996264)" xlink:href="#CMR17-48"/>
       <use transform="translate(45.690477 0)scale(0.996264)" xlink:href="#CMMI12-58"/>
       <use transform="translate(72.787654 0)scale(0.996264)" xlink:href="#CMR17-52"/>
      </g>
     </g>
    </g>
    <g id="xtick_5">
     <g id="line2d_5">
      <g>
       <use style="stroke:#000000;stroke-width:0.8;" x="332.972992" xlink:href="#m4aca8f3390" y="293.301871"/>
      </g>
     </g>
     <g id="text_5">
      <!-- $0.6$ -->
      <defs>
       <path d="M 10.59375 34 
C 10.59375 57.65625 21.796875 63 28.296875 63 
C 30.40625 63 35.5 62.640625 37.5 59 
C 35.90625 59 32.90625 59 32.90625 55.515625 
C 32.90625 52.828125 35.09375 51.921875 36.5 51.921875 
C 37.40625 51.921875 40.09375 52.3125 40.09375 55.625 
C 40.09375 61.78125 35.09375 65.296875 28.203125 65.296875 
C 16.296875 65.296875 3.796875 52.96875 3.796875 31 
C 3.796875 3.953125 15.09375 -2 23.09375 -2 
C 32.796875 -2 42 6.671875 42 20.046875 
C 42 32.515625 33.90625 41.59375 23.703125 41.59375 
C 17.59375 41.59375 13.09375 37.609375 10.59375 30.625 
z
M 23.09375 0.390625 
C 10.796875 0.390625 10.796875 18.75 10.796875 22.4375 
C 10.796875 29.625 14.203125 40 23.5 40 
C 25.203125 40 30.09375 40 33.40625 33.125 
C 35.203125 29.21875 35.203125 25.140625 35.203125 20.140625 
C 35.203125 14.75 35.203125 10.78125 33.09375 6.78125 
C 30.90625 2.671875 27.703125 0.390625 23.09375 0.390625 
z
" id="CMR17-54"/>
      </defs>
      <g transform="translate(323.001231 311.371459)scale(0.16 -0.16)">
       <use transform="scale(0.996264)" xlink:href="#CMR17-48"/>
       <use transform="translate(45.690477 0)scale(0.996264)" xlink:href="#CMMI12-58"/>
       <use transform="translate(72.787654 0)scale(0.996264)" xlink:href="#CMR17-54"/>
      </g>
     </g>
    </g>
    <g id="xtick_6">
     <g id="line2d_6">
      <g>
       <use style="stroke:#000000;stroke-width:0.8;" x="398.595886" xlink:href="#m4aca8f3390" y="293.301871"/>
      </g>
     </g>
     <g id="text_6">
      <!-- $0.8$ -->
      <defs>
       <path d="M 27.203125 35.375 
C 33.5 38.546875 39.90625 43.328125 39.90625 50.984375 
C 39.90625 60.015625 31.09375 65.296875 23 65.296875 
C 13.90625 65.296875 5.90625 58.734375 5.90625 49.6875 
C 5.90625 47.203125 6.5 42.921875 10.40625 39.140625 
C 11.40625 38.15625 15.59375 35.171875 18.296875 33.28125 
C 13.796875 30.984375 3.296875 25.53125 3.296875 14.59375 
C 3.296875 4.359375 13.09375 -2 22.796875 -2 
C 33.5 -2 42.5 5.65625 42.5 15.78125 
C 42.5 24.84375 36.40625 29.015625 32.40625 31.703125 
z
M 14.09375 44.09375 
C 13.296875 44.59375 9.296875 47.671875 9.296875 52.359375 
C 9.296875 58.421875 15.59375 63 22.796875 63 
C 30.703125 63 36.5 57.4375 36.5 50.96875 
C 36.5 41.703125 26.09375 36.421875 25.59375 36.421875 
C 25.5 36.421875 25.40625 36.421875 24.59375 37.03125 
z
M 32.5 23.734375 
C 34 22.640625 38.796875 19.375 38.796875 13.296875 
C 38.796875 5.953125 31.40625 0.390625 23 0.390625 
C 13.90625 0.390625 7 6.84375 7 14.6875 
C 7 22.546875 13.09375 29.09375 20 32.1875 
z
" id="CMR17-56"/>
      </defs>
      <g transform="translate(388.624125 311.371459)scale(0.16 -0.16)">
       <use transform="scale(0.996264)" xlink:href="#CMR17-48"/>
       <use transform="translate(45.690477 0)scale(0.996264)" xlink:href="#CMMI12-58"/>
       <use transform="translate(72.787654 0)scale(0.996264)" xlink:href="#CMR17-56"/>
      </g>
     </g>
    </g>
    <g id="xtick_7">
     <g id="line2d_7">
      <g>
       <use style="stroke:#000000;stroke-width:0.8;" x="464.218779" xlink:href="#m4aca8f3390" y="293.301871"/>
      </g>
     </g>
     <g id="text_7">
      <!-- $1.0$ -->
      <defs>
       <path d="M 26.59375 63.40625 
C 26.59375 65.5 26.5 65.5 25.09375 65.5 
C 21.203125 61.1875 15.296875 59.796875 9.703125 59.796875 
C 9.40625 59.796875 8.90625 59.796875 8.796875 59.5 
C 8.703125 59.296875 8.703125 59.09375 8.703125 57 
C 11.796875 57 17 57.59375 21 59.984375 
L 21 7.203125 
C 21 3.6875 20.796875 2.5 12.203125 2.5 
L 9.203125 2.5 
L 9.203125 0 
C 14 0 19 0 23.796875 0 
C 28.59375 0 33.59375 0 38.40625 0 
L 38.40625 2.5 
L 35.40625 2.5 
C 26.796875 2.5 26.59375 3.59375 26.59375 7.15625 
z
" id="CMR17-49"/>
      </defs>
      <g transform="translate(454.247018 311.371459)scale(0.16 -0.16)">
       <use transform="scale(0.996264)" xlink:href="#CMR17-49"/>
       <use transform="translate(45.690477 0)scale(0.996264)" xlink:href="#CMMI12-58"/>
       <use transform="translate(72.787654 0)scale(0.996264)" xlink:href="#CMR17-48"/>
      </g>
     </g>
    </g>
    <g id="xtick_8">
     <g id="line2d_8">
      <g>
       <use style="stroke:#000000;stroke-width:0.8;" x="529.841673" xlink:href="#m4aca8f3390" y="293.301871"/>
      </g>
     </g>
     <g id="text_8">
      <!-- $1.2$ -->
      <g transform="translate(519.869912 311.371459)scale(0.16 -0.16)">
       <use transform="scale(0.996264)" xlink:href="#CMR17-49"/>
       <use transform="translate(45.690477 0)scale(0.996264)" xlink:href="#CMMI12-58"/>
       <use transform="translate(72.787654 0)scale(0.996264)" xlink:href="#CMR17-50"/>
      </g>
     </g>
    </g>
    <g id="text_9">
     <!-- $x$ -->
     <defs>
      <path d="M 47.40625 40.71875 
C 44.203125 40.109375 43 37.71875 43 35.828125 
C 43 33.421875 44.90625 32.625 46.296875 32.625 
C 49.296875 32.625 51.40625 35.21875 51.40625 37.921875 
C 51.40625 42.109375 46.59375 44 42.40625 44 
C 36.296875 44 32.90625 38.015625 32 36.125 
C 29.703125 44 23.5 44 21.703125 44 
C 11.5 44 6.09375 30.9375 6.09375 28.734375 
C 6.09375 28.34375 6.5 27.84375 7.203125 27.84375 
C 8 27.84375 8.203125 28.4375 8.40625 28.84375 
C 11.796875 39.921875 18.5 42.015625 21.40625 42.015625 
C 25.90625 42.015625 26.796875 37.8125 26.796875 35.421875 
C 26.796875 33.234375 26.203125 30.9375 25 26.140625 
L 21.59375 12.46875 
C 20.09375 6.484375 17.203125 1 11.90625 1 
C 11.40625 1 8.90625 1 6.796875 2.296875 
C 10.40625 3 11.203125 5.984375 11.203125 7.1875 
C 11.203125 9.1875 9.703125 10.375 7.796875 10.375 
C 5.40625 10.375 2.796875 8.28125 2.796875 5.09375 
C 2.796875 0.890625 7.5 -1 11.796875 -1 
C 16.59375 -1 20 2.796875 22.09375 6.890625 
C 23.703125 1 28.703125 -1 32.40625 -1 
C 42.59375 -1 48 12.078125 48 14.265625 
C 48 14.765625 47.59375 15.171875 47 15.171875 
C 46.09375 15.171875 46 14.671875 45.703125 13.875 
C 43 5.09375 37.203125 1 32.703125 1 
C 29.203125 1 27.296875 3.59375 27.296875 7.6875 
C 27.296875 9.875 27.703125 11.46875 29.296875 18.0625 
L 32.796875 31.625 
C 34.296875 37.625 37.703125 42.015625 42.296875 42.015625 
C 42.5 42.015625 45.296875 42.015625 47.40625 40.71875 
z
" id="CMMI12-120"/>
     </defs>
     <g transform="translate(295.306379 329.540524)scale(0.16 -0.16)">
      <use transform="scale(0.996264)" xlink:href="#CMMI12-120"/>
     </g>
    </g>
   </g>
   <g id="matplotlib.axis_2">
    <g id="ytick_1">
     <g id="line2d_9">
      <defs>
       <path d="M 0 0 
L -3.5 0 
" id="maabd63ccea" style="stroke:#000000;stroke-width:0.8;"/>
      </defs>
      <g>
       <use style="stroke:#000000;stroke-width:0.8;" x="54.342207" xlink:href="#maabd63ccea" y="263.401279"/>
      </g>
     </g>
     <g id="text_10">
      <!-- $-2$ -->
      <g transform="translate(27.140224 268.936073)scale(0.16 -0.16)">
       <use transform="scale(0.996264)" xlink:href="#CMSY10-0"/>
       <use transform="translate(77.487468 0)scale(0.996264)" xlink:href="#CMR17-50"/>
      </g>
     </g>
    </g>
    <g id="ytick_2">
     <g id="line2d_10">
      <g>
       <use style="stroke:#000000;stroke-width:0.8;" x="54.342207" xlink:href="#maabd63ccea" y="203.203115"/>
      </g>
     </g>
     <g id="text_11">
      <!-- $-1$ -->
      <g transform="translate(27.140224 208.737909)scale(0.16 -0.16)">
       <use transform="scale(0.996264)" xlink:href="#CMSY10-0"/>
       <use transform="translate(77.487468 0)scale(0.996264)" xlink:href="#CMR17-49"/>
      </g>
     </g>
    </g>
    <g id="ytick_3">
     <g id="line2d_11">
      <g>
       <use style="stroke:#000000;stroke-width:0.8;" x="54.342207" xlink:href="#maabd63ccea" y="143.004951"/>
      </g>
     </g>
     <g id="text_12">
      <!-- $0$ -->
      <g transform="translate(39.53822 148.539745)scale(0.16 -0.16)">
       <use transform="scale(0.996264)" xlink:href="#CMR17-48"/>
      </g>
     </g>
    </g>
    <g id="ytick_4">
     <g id="line2d_12">
      <g>
       <use style="stroke:#000000;stroke-width:0.8;" x="54.342207" xlink:href="#maabd63ccea" y="82.806787"/>
      </g>
     </g>
     <g id="text_13">
      <!-- $1$ -->
      <g transform="translate(39.53822 88.341581)scale(0.16 -0.16)">
       <use transform="scale(0.996264)" xlink:href="#CMR17-49"/>
      </g>
     </g>
    </g>
    <g id="ytick_5">
     <g id="line2d_13">
      <g>
       <use style="stroke:#000000;stroke-width:0.8;" x="54.342207" xlink:href="#maabd63ccea" y="22.608623"/>
      </g>
     </g>
     <g id="text_14">
      <!-- $2$ -->
      <g transform="translate(39.53822 28.143417)scale(0.16 -0.16)">
       <use transform="scale(0.996264)" xlink:href="#CMR17-50"/>
      </g>
     </g>
    </g>
    <g id="text_15">
     <!-- $f(x)$ -->
     <defs>
      <path d="M 44.59375 40.09375 
C 46.59375 40.09375 47.40625 40.09375 47.40625 42 
C 47.40625 43 46.59375 43 44.796875 43 
L 36.703125 43 
C 38.59375 53.578125 40 60.890625 40.796875 64.171875 
C 41.40625 66.640625 43.5 69 46.09375 69 
C 48.203125 69 50.296875 68.09375 51.296875 67.15625 
C 47.40625 66.75 46.203125 63.78125 46.203125 62.015625 
C 46.203125 59.953125 47.703125 58.734375 49.59375 58.734375 
C 51.59375 58.734375 54.59375 60.46875 54.59375 64.359375 
C 54.59375 68.640625 50.40625 71 46 71 
C 41.703125 71 37.5 67.71875 35.5 63.71875 
C 33.703125 60.125 32.703125 56.421875 30.40625 43 
L 23.703125 43 
C 21.796875 43 20.796875 43 20.796875 41.203125 
C 20.796875 40.09375 21.40625 40.09375 23.40625 40.09375 
L 29.796875 40.09375 
C 28 30.875 23.90625 8.46875 21.59375 -2.140625 
C 19.90625 -10.765625 18.40625 -18 13.40625 -18 
C 13.09375 -18 10.203125 -18 8.40625 -16.109375 
C 13.5 -15.703125 13.5 -11.34375 13.5 -11.25 
C 13.5 -9.265625 12 -8.078125 10.09375 -8.078125 
C 8.09375 -8.078125 5.09375 -9.765625 5.09375 -13.546875 
C 5.09375 -17.8125 9.5 -20 13.40625 -20 
C 23.59375 -20 27.796875 -1.84375 28.90625 3.109375 
C 30.703125 10.75 35.59375 37.125 36.09375 40.09375 
z
" id="CMMI12-102"/>
      <path d="M 30.59375 -24.390625 
C 30.59375 -24.296875 30.59375 -24.09375 30.296875 -23.796875 
C 25.703125 -19.125 13.40625 -6.359375 13.40625 24.703125 
C 13.40625 55.765625 25.5 68.421875 30.40625 73.390625 
C 30.40625 73.5 30.59375 73.703125 30.59375 74 
C 30.59375 74.296875 30.296875 74.5 29.90625 74.5 
C 28.796875 74.5 20.296875 67.125 15.40625 56.15625 
C 10.40625 45.109375 9 34.359375 9 24.8125 
C 9 17.625 9.703125 5.484375 15.703125 -7.359375 
C 20.5 -17.734375 28.703125 -25 29.90625 -25 
C 30.40625 -25 30.59375 -24.796875 30.59375 -24.390625 
z
" id="CMR17-40"/>
      <path d="M 26.296875 24.703125 
C 26.296875 31.875 25.59375 44.015625 19.59375 56.859375 
C 14.796875 67.234375 6.59375 74.5 5.40625 74.5 
C 5.09375 74.5 4.703125 74.390625 4.703125 73.890625 
C 4.703125 73.703125 4.796875 73.59375 4.90625 73.390625 
C 9.703125 68.40625 21.90625 55.75 21.90625 24.75 
C 21.90625 -6.359375 9.796875 -19.015625 4.90625 -24.015625 
C 4.796875 -24.203125 4.703125 -24.3125 4.703125 -24.5 
C 4.703125 -25 5.09375 -25 5.40625 -25 
C 6.5 -25 15 -17.625 19.90625 -6.65625 
C 24.90625 4.390625 26.296875 15.140625 26.296875 24.703125 
z
" id="CMR17-41"/>
     </defs>
     <g transform="translate(19.155168 167.203052)rotate(-90)scale(0.16 -0.16)">
      <use transform="scale(0.996264)" xlink:href="#CMMI12-102"/>
      <use transform="translate(58.720305 0)scale(0.996264)" xlink:href="#CMR17-40"/>
      <use transform="translate(94.001073 0)scale(0.996264)" xlink:href="#CMMI12-120"/>
      <use transform="translate(149.435132 0)scale(0.996264)" xlink:href="#CMR17-41"/>
     </g>
    </g>
   </g>
   <g id="line2d_14">
    <path clip-path="url(#p700a8a6b9b)" d="M 54.342207 61.474016 
L 66.67381 63.503996 
L 79.005413 65.797897 
L 91.337016 68.353957 
L 103.668619 71.16904 
L 116.000221 74.238628 
L 128.331824 77.556813 
L 140.663427 81.116302 
L 152.99503 84.908436 
L 165.326633 88.923213 
L 177.658236 93.149328 
L 192.456159 98.481861 
L 207.254082 104.076596 
L 222.052006 109.907247 
L 239.31625 116.969848 
L 256.580494 124.266503 
L 278.777379 133.909021 
L 308.373226 147.036743 
L 352.766996 166.733623 
L 374.963881 176.324238 
L 392.228125 183.563026 
L 409.492369 190.551693 
L 424.290292 196.305565 
L 439.088216 201.810545 
L 451.419818 206.18844 
L 463.751421 210.360443 
L 476.083024 214.313401 
L 488.414627 218.035421 
L 500.74623 221.515926 
L 513.077833 224.745706 
L 525.409435 227.716947 
L 537.741038 230.423266 
L 545.14 231.917778 
L 545.14 231.917778 
" style="fill:none;stroke:#3465a4;stroke-linecap:square;stroke-width:2;"/>
   </g>
   <g id="line2d_15">
    <defs>
     <path d="M 0 3 
C 0.795609 3 1.55874 2.683901 2.12132 2.12132 
C 2.683901 1.55874 3 0.795609 3 0 
C 3 -0.795609 2.683901 -1.55874 2.12132 -2.12132 
C 1.55874 -2.683901 0.795609 -3 0 -3 
C -0.795609 -3 -1.55874 -2.683901 -2.12132 -2.12132 
C -2.683901 -1.55874 -3 -0.795609 -3 0 
C -3 0.795609 -2.683901 1.55874 -2.12132 2.12132 
C -1.55874 2.683901 -0.795609 3 0 3 
z
" id="m36da0382c5" style="stroke:#0000ff;"/>
    </defs>
    <g clip-path="url(#p700a8a6b9b)">
     <use style="fill:#0000ff;stroke:#0000ff;" x="272.935265" xlink:href="#m36da0382c5" y="209.712939"/>
     <use style="fill:#0000ff;stroke:#0000ff;" x="372.453199" xlink:href="#m36da0382c5" y="186.791411"/>
     <use style="fill:#0000ff;stroke:#0000ff;" x="136.141839" xlink:href="#m36da0382c5" y="105.345455"/>
     <use style="fill:#0000ff;stroke:#0000ff;" x="235.304003" xlink:href="#m36da0382c5" y="135.509332"/>
     <use style="fill:#0000ff;stroke:#0000ff;" x="184.257042" xlink:href="#m36da0382c5" y="46.382255"/>
     <use style="fill:#0000ff;stroke:#0000ff;" x="166.40194" xlink:href="#m36da0382c5" y="65.039937"/>
     <use style="fill:#0000ff;stroke:#0000ff;" x="197.218981" xlink:href="#m36da0382c5" y="47.306508"/>
     <use style="fill:#0000ff;stroke:#0000ff;" x="249.487785" xlink:href="#m36da0382c5" y="178.106931"/>
     <use style="fill:#0000ff;stroke:#0000ff;" x="266.28946" xlink:href="#m36da0382c5" y="207.530921"/>
     <use style="fill:#0000ff;stroke:#0000ff;" x="312.897877" xlink:href="#m36da0382c5" y="135.393108"/>
     <use style="fill:#0000ff;stroke:#0000ff;" x="273.648096" xlink:href="#m36da0382c5" y="209.604637"/>
     <use style="fill:#0000ff;stroke:#0000ff;" x="360.934743" xlink:href="#m36da0382c5" y="148.767852"/>
     <use style="fill:#0000ff;stroke:#0000ff;" x="203.188052" xlink:href="#m36da0382c5" y="53.22318"/>
     <use style="fill:#0000ff;stroke:#0000ff;" x="424.227347" xlink:href="#m36da0382c5" y="276.329249"/>
     <use style="fill:#0000ff;stroke:#0000ff;" x="145.090577" xlink:href="#m36da0382c5" y="95.697182"/>
     <use style="fill:#0000ff;stroke:#0000ff;" x="356.094402" xlink:href="#m36da0382c5" y="135.136592"/>
     <use style="fill:#0000ff;stroke:#0000ff;" x="273.028055" xlink:href="#m36da0382c5" y="209.70259"/>
     <use style="fill:#0000ff;stroke:#0000ff;" x="319.418527" xlink:href="#m36da0382c5" y="121.73624"/>
     <use style="fill:#0000ff;stroke:#0000ff;" x="182.167297" xlink:href="#m36da0382c5" y="47.591504"/>
     <use style="fill:#0000ff;stroke:#0000ff;" x="201.104276" xlink:href="#m36da0382c5" y="50.746705"/>
     <use style="fill:#0000ff;stroke:#0000ff;" x="398.84019" xlink:href="#m36da0382c5" y="264.646348"/>
     <use style="fill:#0000ff;stroke:#0000ff;" x="453.804943" xlink:href="#m36da0382c5" y="221.381251"/>
     <use style="fill:#0000ff;stroke:#0000ff;" x="238.943319" xlink:href="#m36da0382c5" y="147.183323"/>
     <use style="fill:#0000ff;stroke:#0000ff;" x="363.265378" xlink:href="#m36da0382c5" y="155.963338"/>
     <use style="fill:#0000ff;stroke:#0000ff;" x="423.660272" xlink:href="#m36da0382c5" y="276.841886"/>
     <use style="fill:#0000ff;stroke:#0000ff;" x="429.637701" xlink:href="#m36da0382c5" y="269.976674"/>
     <use style="fill:#0000ff;stroke:#0000ff;" x="164.008547" xlink:href="#m36da0382c5" y="68.506358"/>
     <use style="fill:#0000ff;stroke:#0000ff;" x="148.918751" xlink:href="#m36da0382c5" y="90.684338"/>
     <use style="fill:#0000ff;stroke:#0000ff;" x="191.828129" xlink:href="#m36da0382c5" y="45.029625"/>
     <use style="fill:#0000ff;stroke:#0000ff;" x="424.235572" xlink:href="#m36da0382c5" y="276.321536"/>
     <use style="fill:#0000ff;stroke:#0000ff;" x="168.37333" xlink:href="#m36da0382c5" y="62.28156"/>
     <use style="fill:#0000ff;stroke:#0000ff;" x="274.275816" xlink:href="#m36da0382c5" y="209.454883"/>
     <use style="fill:#0000ff;stroke:#0000ff;" x="450.401725" xlink:href="#m36da0382c5" y="229.119619"/>
     <use style="fill:#0000ff;stroke:#0000ff;" x="311.043555" xlink:href="#m36da0382c5" y="139.76661"/>
     <use style="fill:#0000ff;stroke:#0000ff;" x="363.119203" xlink:href="#m36da0382c5" y="155.501886"/>
     <use style="fill:#0000ff;stroke:#0000ff;" x="239.629555" xlink:href="#m36da0382c5" y="149.352588"/>
     <use style="fill:#0000ff;stroke:#0000ff;" x="361.355198" xlink:href="#m36da0382c5" y="150.039124"/>
     <use style="fill:#0000ff;stroke:#0000ff;" x="409.95707" xlink:href="#m36da0382c5" y="278.875994"/>
     <use style="fill:#0000ff;stroke:#0000ff;" x="142.10496" xlink:href="#m36da0382c5" y="99.269402"/>
     <use style="fill:#0000ff;stroke:#0000ff;" x="382.237514" xlink:href="#m36da0382c5" y="220.195212"/>
     <use style="fill:#0000ff;stroke:#0000ff;" x="460.563941" xlink:href="#m36da0382c5" y="206.355856"/>
     <use style="fill:#0000ff;stroke:#0000ff;" x="381.588287" xlink:href="#m36da0382c5" y="218.062363"/>
     <use style="fill:#0000ff;stroke:#0000ff;" x="228.122043" xlink:href="#m36da0382c5" y="112.422372"/>
     <use style="fill:#0000ff;stroke:#0000ff;" x="395.078278" xlink:href="#m36da0382c5" y="256.704503"/>
     <use style="fill:#0000ff;stroke:#0000ff;" x="169.974258" xlink:href="#m36da0382c5" y="60.12471"/>
     <use style="fill:#0000ff;stroke:#0000ff;" x="283.064657" xlink:href="#m36da0382c5" y="202.236107"/>
     <use style="fill:#0000ff;stroke:#0000ff;" x="434.227641" xlink:href="#m36da0382c5" y="262.763103"/>
     <use style="fill:#0000ff;stroke:#0000ff;" x="232.443361" xlink:href="#m36da0382c5" y="126.251309"/>
     <use style="fill:#0000ff;stroke:#0000ff;" x="230.527563" xlink:href="#m36da0382c5" y="120.078417"/>
     <use style="fill:#0000ff;stroke:#0000ff;" x="178.768567" xlink:href="#m36da0382c5" y="50.227112"/>
     <use style="fill:#0000ff;stroke:#0000ff;" x="142.45889" xlink:href="#m36da0382c5" y="98.863071"/>
     <use style="fill:#0000ff;stroke:#0000ff;" x="358.840071" xlink:href="#m36da0382c5" y="142.630324"/>
     <use style="fill:#0000ff;stroke:#0000ff;" x="205.542558" xlink:href="#m36da0382c5" y="56.548836"/>
     <use style="fill:#0000ff;stroke:#0000ff;" x="223.234012" xlink:href="#m36da0382c5" y="97.457341"/>
     <use style="fill:#0000ff;stroke:#0000ff;" x="297.396577" xlink:href="#m36da0382c5" y="174.056691"/>
     <use style="fill:#0000ff;stroke:#0000ff;" x="153.613334" xlink:href="#m36da0382c5" y="84.025544"/>
     <use style="fill:#0000ff;stroke:#0000ff;" x="324.480604" xlink:href="#m36da0382c5" y="113.657518"/>
     <use style="fill:#0000ff;stroke:#0000ff;" x="184.24808" xlink:href="#m36da0382c5" y="46.386758"/>
     <use style="fill:#0000ff;stroke:#0000ff;" x="329.463984" xlink:href="#m36da0382c5" y="108.451291"/>
     <use style="fill:#0000ff;stroke:#0000ff;" x="365.705153" xlink:href="#m36da0382c5" y="163.839349"/>
     <use style="fill:#0000ff;stroke:#0000ff;" x="169.681718" xlink:href="#m36da0382c5" y="60.512618"/>
     <use style="fill:#0000ff;stroke:#0000ff;" x="271.962071" xlink:href="#m36da0382c5" y="209.754195"/>
     <use style="fill:#0000ff;stroke:#0000ff;" x="363.94705" xlink:href="#m36da0382c5" y="158.13181"/>
     <use style="fill:#0000ff;stroke:#0000ff;" x="272.002522" xlink:href="#m36da0382c5" y="209.754963"/>
     <use style="fill:#0000ff;stroke:#0000ff;" x="152.494764" xlink:href="#m36da0382c5" y="85.652228"/>
     <use style="fill:#0000ff;stroke:#0000ff;" x="311.939675" xlink:href="#m36da0382c5" y="137.631962"/>
     <use style="fill:#0000ff;stroke:#0000ff;" x="353.904938" xlink:href="#m36da0382c5" y="129.667361"/>
     <use style="fill:#0000ff;stroke:#0000ff;" x="305.046878" xlink:href="#m36da0382c5" y="154.744758"/>
     <use style="fill:#0000ff;stroke:#0000ff;" x="446.039517" xlink:href="#m36da0382c5" y="238.941527"/>
     <use style="fill:#0000ff;stroke:#0000ff;" x="328.561506" xlink:href="#m36da0382c5" y="109.172763"/>
     <use style="fill:#0000ff;stroke:#0000ff;" x="432.52355" xlink:href="#m36da0382c5" y="265.614381"/>
     <use style="fill:#0000ff;stroke:#0000ff;" x="181.211751" xlink:href="#m36da0382c5" y="48.252081"/>
     <use style="fill:#0000ff;stroke:#0000ff;" x="181.802896" xlink:href="#m36da0382c5" y="47.835669"/>
     <use style="fill:#0000ff;stroke:#0000ff;" x="401.021075" xlink:href="#m36da0382c5" y="268.556518"/>
     <use style="fill:#0000ff;stroke:#0000ff;" x="266.587835" xlink:href="#m36da0382c5" y="207.752413"/>
     <use style="fill:#0000ff;stroke:#0000ff;" x="190.359416" xlink:href="#m36da0382c5" y="44.893824"/>
     <use style="fill:#0000ff;stroke:#0000ff;" x="440.433296" xlink:href="#m36da0382c5" y="250.964527"/>
     <use style="fill:#0000ff;stroke:#0000ff;" x="250.211321" xlink:href="#m36da0382c5" y="179.967722"/>
     <use style="fill:#0000ff;stroke:#0000ff;" x="382.456625" xlink:href="#m36da0382c5" y="220.910609"/>
     <use style="fill:#0000ff;stroke:#0000ff;" x="374.314754" xlink:href="#m36da0382c5" y="193.256166"/>
     <use style="fill:#0000ff;stroke:#0000ff;" x="425.92982" xlink:href="#m36da0382c5" y="274.608652"/>
     <use style="fill:#0000ff;stroke:#0000ff;" x="340.740186" xlink:href="#m36da0382c5" y="108.46103"/>
     <use style="fill:#0000ff;stroke:#0000ff;" x="382.499389" xlink:href="#m36da0382c5" y="221.050017"/>
     <use style="fill:#0000ff;stroke:#0000ff;" x="250.582905" xlink:href="#m36da0382c5" y="180.906555"/>
     <use style="fill:#0000ff;stroke:#0000ff;" x="224.671558" xlink:href="#m36da0382c5" y="101.753481"/>
     <use style="fill:#0000ff;stroke:#0000ff;" x="430.057541" xlink:href="#m36da0382c5" y="269.380958"/>
     <use style="fill:#0000ff;stroke:#0000ff;" x="276.567224" xlink:href="#m36da0382c5" y="208.480828"/>
     <use style="fill:#0000ff;stroke:#0000ff;" x="452.68229" xlink:href="#m36da0382c5" y="223.931715"/>
     <use style="fill:#0000ff;stroke:#0000ff;" x="353.789065" xlink:href="#m36da0382c5" y="129.391429"/>
     <use style="fill:#0000ff;stroke:#0000ff;" x="340.091672" xlink:href="#m36da0382c5" y="107.994366"/>
     <use style="fill:#0000ff;stroke:#0000ff;" x="173.754125" xlink:href="#m36da0382c5" y="55.410543"/>
     <use style="fill:#0000ff;stroke:#0000ff;" x="447.645474" xlink:href="#m36da0382c5" y="235.353982"/>
     <use style="fill:#0000ff;stroke:#0000ff;" x="283.726992" xlink:href="#m36da0382c5" y="201.329056"/>
     <use style="fill:#0000ff;stroke:#0000ff;" x="325.882312" xlink:href="#m36da0382c5" y="111.898212"/>
     <use style="fill:#0000ff;stroke:#0000ff;" x="270.019901" xlink:href="#m36da0382c5" y="209.466807"/>
     <use style="fill:#0000ff;stroke:#0000ff;" x="213.876293" xlink:href="#m36da0382c5" y="72.617579"/>
     <use style="fill:#0000ff;stroke:#0000ff;" x="432.516202" xlink:href="#m36da0382c5" y="265.626281"/>
     <use style="fill:#0000ff;stroke:#0000ff;" x="324.336851" xlink:href="#m36da0382c5" y="113.85037"/>
     <use style="fill:#0000ff;stroke:#0000ff;" x="137.046107" xlink:href="#m36da0382c5" y="104.52224"/>
     <use style="fill:#0000ff;stroke:#0000ff;" x="338.598486" xlink:href="#m36da0382c5" y="107.137469"/>
     <use style="fill:#0000ff;stroke:#0000ff;" x="243.281229" xlink:href="#m36da0382c5" y="160.613447"/>
     <use style="fill:#0000ff;stroke:#0000ff;" x="309.0397" xlink:href="#m36da0382c5" y="144.66076"/>
     <use style="fill:#0000ff;stroke:#0000ff;" x="426.794732" xlink:href="#m36da0382c5" y="273.633498"/>
     <use style="fill:#0000ff;stroke:#0000ff;" x="253.329689" xlink:href="#m36da0382c5" y="187.469365"/>
     <use style="fill:#0000ff;stroke:#0000ff;" x="434.207839" xlink:href="#m36da0382c5" y="262.797366"/>
     <use style="fill:#0000ff;stroke:#0000ff;" x="340.637784" xlink:href="#m36da0382c5" y="108.383575"/>
     <use style="fill:#0000ff;stroke:#0000ff;" x="141.29549" xlink:href="#m36da0382c5" y="100.180444"/>
     <use style="fill:#0000ff;stroke:#0000ff;" x="441.066115" xlink:href="#m36da0382c5" y="249.658962"/>
     <use style="fill:#0000ff;stroke:#0000ff;" x="362.797586" xlink:href="#m36da0382c5" y="154.491136"/>
     <use style="fill:#0000ff;stroke:#0000ff;" x="463.340368" xlink:href="#m36da0382c5" y="200.483293"/>
     <use style="fill:#0000ff;stroke:#0000ff;" x="192.651726" xlink:href="#m36da0382c5" y="45.194572"/>
     <use style="fill:#0000ff;stroke:#0000ff;" x="181.100535" xlink:href="#m36da0382c5" y="48.333215"/>
     <use style="fill:#0000ff;stroke:#0000ff;" x="442.102376" xlink:href="#m36da0382c5" y="247.488614"/>
     <use style="fill:#0000ff;stroke:#0000ff;" x="364.740432" xlink:href="#m36da0382c5" y="160.687966"/>
     <use style="fill:#0000ff;stroke:#0000ff;" x="157.759923" xlink:href="#m36da0382c5" y="77.858054"/>
     <use style="fill:#0000ff;stroke:#0000ff;" x="383.982669" xlink:href="#m36da0382c5" y="225.826766"/>
     <use style="fill:#0000ff;stroke:#0000ff;" x="383.461996" xlink:href="#m36da0382c5" y="224.163097"/>
     <use style="fill:#0000ff;stroke:#0000ff;" x="438.962016" xlink:href="#m36da0382c5" y="253.935536"/>
     <use style="fill:#0000ff;stroke:#0000ff;" x="369.565879" xlink:href="#m36da0382c5" y="176.827353"/>
     <use style="fill:#0000ff;stroke:#0000ff;" x="176.879412" xlink:href="#m36da0382c5" y="52.014712"/>
     <use style="fill:#0000ff;stroke:#0000ff;" x="142.627271" xlink:href="#m36da0382c5" y="98.668066"/>
     <use style="fill:#0000ff;stroke:#0000ff;" x="144.704515" xlink:href="#m36da0382c5" y="96.176985"/>
     <use style="fill:#0000ff;stroke:#0000ff;" x="145.39208" xlink:href="#m36da0382c5" y="95.318985"/>
     <use style="fill:#0000ff;stroke:#0000ff;" x="216.889725" xlink:href="#m36da0382c5" y="79.933772"/>
     <use style="fill:#0000ff;stroke:#0000ff;" x="418.291924" xlink:href="#m36da0382c5" y="280.094587"/>
     <use style="fill:#0000ff;stroke:#0000ff;" x="312.902579" xlink:href="#m36da0382c5" y="135.382208"/>
     <use style="fill:#0000ff;stroke:#0000ff;" x="317.493201" xlink:href="#m36da0382c5" y="125.438101"/>
     <use style="fill:#0000ff;stroke:#0000ff;" x="412.38683" xlink:href="#m36da0382c5" y="280.058369"/>
     <use style="fill:#0000ff;stroke:#0000ff;" x="176.847373" xlink:href="#m36da0382c5" y="52.046827"/>
     <use style="fill:#0000ff;stroke:#0000ff;" x="227.708516" xlink:href="#m36da0382c5" y="111.12148"/>
     <use style="fill:#0000ff;stroke:#0000ff;" x="328.300403" xlink:href="#m36da0382c5" y="109.400298"/>
     <use style="fill:#0000ff;stroke:#0000ff;" x="454.242704" xlink:href="#m36da0382c5" y="220.388716"/>
     <use style="fill:#0000ff;stroke:#0000ff;" x="320.186443" xlink:href="#m36da0382c5" y="120.349751"/>
     <use style="fill:#0000ff;stroke:#0000ff;" x="142.222757" xlink:href="#m36da0382c5" y="99.134676"/>
     <use style="fill:#0000ff;stroke:#0000ff;" x="398.803475" xlink:href="#m36da0382c5" y="264.57607"/>
     <use style="fill:#0000ff;stroke:#0000ff;" x="212.546541" xlink:href="#m36da0382c5" y="69.627869"/>
     <use style="fill:#0000ff;stroke:#0000ff;" x="400.927203" xlink:href="#m36da0382c5" y="268.399136"/>
     <use style="fill:#0000ff;stroke:#0000ff;" x="263.367" xlink:href="#m36da0382c5" y="204.75855"/>
     <use style="fill:#0000ff;stroke:#0000ff;" x="419.444888" xlink:href="#m36da0382c5" y="279.649151"/>
     <use style="fill:#0000ff;stroke:#0000ff;" x="381.245732" xlink:href="#m36da0382c5" y="216.929528"/>
     <use style="fill:#0000ff;stroke:#0000ff;" x="318.61478" xlink:href="#m36da0382c5" y="123.243555"/>
     <use style="fill:#0000ff;stroke:#0000ff;" x="180.877245" xlink:href="#m36da0382c5" y="48.498657"/>
     <use style="fill:#0000ff;stroke:#0000ff;" x="155.764172" xlink:href="#m36da0382c5" y="80.847259"/>
     <use style="fill:#0000ff;stroke:#0000ff;" x="175.918855" xlink:href="#m36da0382c5" y="53.00337"/>
     <use style="fill:#0000ff;stroke:#0000ff;" x="150.722427" xlink:href="#m36da0382c5" y="88.181888"/>
     <use style="fill:#0000ff;stroke:#0000ff;" x="171.37469" xlink:href="#m36da0382c5" y="58.310639"/>
     <use style="fill:#0000ff;stroke:#0000ff;" x="210.162811" xlink:href="#m36da0382c5" y="64.659632"/>
     <use style="fill:#0000ff;stroke:#0000ff;" x="370.046311" xlink:href="#m36da0382c5" y="178.475279"/>
     <use style="fill:#0000ff;stroke:#0000ff;" x="319.755551" xlink:href="#m36da0382c5" y="121.121128"/>
     <use style="fill:#0000ff;stroke:#0000ff;" x="140.22411" xlink:href="#m36da0382c5" y="101.346202"/>
     <use style="fill:#0000ff;stroke:#0000ff;" x="159.720114" xlink:href="#m36da0382c5" y="74.90669"/>
     <use style="fill:#0000ff;stroke:#0000ff;" x="453.48167" xlink:href="#m36da0382c5" y="222.114973"/>
     <use style="fill:#0000ff;stroke:#0000ff;" x="322.506292" xlink:href="#m36da0382c5" y="116.500659"/>
     <use style="fill:#0000ff;stroke:#0000ff;" x="202.807763" xlink:href="#m36da0382c5" y="52.738378"/>
     <use style="fill:#0000ff;stroke:#0000ff;" x="218.896039" xlink:href="#m36da0382c5" y="85.189598"/>
     <use style="fill:#0000ff;stroke:#0000ff;" x="380.164336" xlink:href="#m36da0382c5" y="213.322333"/>
     <use style="fill:#0000ff;stroke:#0000ff;" x="200.227552" xlink:href="#m36da0382c5" y="49.836591"/>
     <use style="fill:#0000ff;stroke:#0000ff;" x="326.856586" xlink:href="#m36da0382c5" y="110.808193"/>
     <use style="fill:#0000ff;stroke:#0000ff;" x="454.381904" xlink:href="#m36da0382c5" y="220.073426"/>
     <use style="fill:#0000ff;stroke:#0000ff;" x="413.961093" xlink:href="#m36da0382c5" y="280.456331"/>
     <use style="fill:#0000ff;stroke:#0000ff;" x="214.801831" xlink:href="#m36da0382c5" y="74.786776"/>
     <use style="fill:#0000ff;stroke:#0000ff;" x="298.117298" xlink:href="#m36da0382c5" y="172.293588"/>
     <use style="fill:#0000ff;stroke:#0000ff;" x="339.520752" xlink:href="#m36da0382c5" y="107.63083"/>
     <use style="fill:#0000ff;stroke:#0000ff;" x="408.104938" xlink:href="#m36da0382c5" y="277.507342"/>
     <use style="fill:#0000ff;stroke:#0000ff;" x="187.549836" xlink:href="#m36da0382c5" y="45.181591"/>
     <use style="fill:#0000ff;stroke:#0000ff;" x="142.199432" xlink:href="#m36da0382c5" y="99.161384"/>
     <use style="fill:#0000ff;stroke:#0000ff;" x="159.07959" xlink:href="#m36da0382c5" y="75.87144"/>
     <use style="fill:#0000ff;stroke:#0000ff;" x="295.681179" xlink:href="#m36da0382c5" y="178.167059"/>
     <use style="fill:#0000ff;stroke:#0000ff;" x="335.04978" xlink:href="#m36da0382c5" y="106.320899"/>
     <use style="fill:#0000ff;stroke:#0000ff;" x="322.752698" xlink:href="#m36da0382c5" y="116.12336"/>
     <use style="fill:#0000ff;stroke:#0000ff;" x="240.235509" xlink:href="#m36da0382c5" y="151.256222"/>
     <use style="fill:#0000ff;stroke:#0000ff;" x="460.483575" xlink:href="#m36da0382c5" y="206.529125"/>
     <use style="fill:#0000ff;stroke:#0000ff;" x="326.327106" xlink:href="#m36da0382c5" y="111.386811"/>
     <use style="fill:#0000ff;stroke:#0000ff;" x="260.83413" xlink:href="#m36da0382c5" y="201.490579"/>
     <use style="fill:#0000ff;stroke:#0000ff;" x="316.878393" xlink:href="#m36da0382c5" y="126.683953"/>
     <use style="fill:#0000ff;stroke:#0000ff;" x="380.659322" xlink:href="#m36da0382c5" y="214.979093"/>
     <use style="fill:#0000ff;stroke:#0000ff;" x="355.689306" xlink:href="#m36da0382c5" y="134.089113"/>
     <use style="fill:#0000ff;stroke:#0000ff;" x="223.028251" xlink:href="#m36da0382c5" y="96.850862"/>
     <use style="fill:#0000ff;stroke:#0000ff;" x="157.86973" xlink:href="#m36da0382c5" y="77.692897"/>
     <use style="fill:#0000ff;stroke:#0000ff;" x="257.534291" xlink:href="#m36da0382c5" y="196.086297"/>
     <use style="fill:#0000ff;stroke:#0000ff;" x="342.723736" xlink:href="#m36da0382c5" y="110.241695"/>
     <use style="fill:#0000ff;stroke:#0000ff;" x="205.065445" xlink:href="#m36da0382c5" y="55.83007"/>
     <use style="fill:#0000ff;stroke:#0000ff;" x="383.094299" xlink:href="#m36da0382c5" y="222.979444"/>
     <use style="fill:#0000ff;stroke:#0000ff;" x="157.935893" xlink:href="#m36da0382c5" y="77.5934"/>
     <use style="fill:#0000ff;stroke:#0000ff;" x="221.517461" xlink:href="#m36da0382c5" y="92.46826"/>
     <use style="fill:#0000ff;stroke:#0000ff;" x="400.155927" xlink:href="#m36da0382c5" y="267.068296"/>
     <use style="fill:#0000ff;stroke:#0000ff;" x="199.572898" xlink:href="#m36da0382c5" y="49.207948"/>
     <use style="fill:#0000ff;stroke:#0000ff;" x="345.920678" xlink:href="#m36da0382c5" y="114.213471"/>
     <use style="fill:#0000ff;stroke:#0000ff;" x="308.256231" xlink:href="#m36da0382c5" y="146.611675"/>
     <use style="fill:#0000ff;stroke:#0000ff;" x="439.547187" xlink:href="#m36da0382c5" y="252.765116"/>
     <use style="fill:#0000ff;stroke:#0000ff;" x="222.495791" xlink:href="#m36da0382c5" y="95.291836"/>
     <use style="fill:#0000ff;stroke:#0000ff;" x="157.747099" xlink:href="#m36da0382c5" y="77.877308"/>
     <use style="fill:#0000ff;stroke:#0000ff;" x="377.290089" xlink:href="#m36da0382c5" y="203.548499"/>
     <use style="fill:#0000ff;stroke:#0000ff;" x="389.467095" xlink:href="#m36da0382c5" y="242.311779"/>
     <use style="fill:#0000ff;stroke:#0000ff;" x="433.971827" xlink:href="#m36da0382c5" y="263.203283"/>
     <use style="fill:#0000ff;stroke:#0000ff;" x="441.897831" xlink:href="#m36da0382c5" y="247.920067"/>
     <use style="fill:#0000ff;stroke:#0000ff;" x="140.682024" xlink:href="#m36da0382c5" y="100.853638"/>
     <use style="fill:#0000ff;stroke:#0000ff;" x="213.001903" xlink:href="#m36da0382c5" y="70.634512"/>
     <use style="fill:#0000ff;stroke:#0000ff;" x="338.478214" xlink:href="#m36da0382c5" y="107.081676"/>
     <use style="fill:#0000ff;stroke:#0000ff;" x="447.490297" xlink:href="#m36da0382c5" y="235.702441"/>
    </g>
   </g>
   <g id="patch_3">
    <path d="M 54.342207 293.301871 
L 54.342207 10.7 
" style="fill:none;stroke:#000000;stroke-linecap:square;stroke-linejoin:miter;stroke-width:0.8;"/>
   </g>
   <g id="patch_4">
    <path d="M 545.14 293.301871 
L 545.14 10.7 
" style="fill:none;stroke:#000000;stroke-linecap:square;stroke-linejoin:miter;stroke-width:0.8;"/>
   </g>
   <g id="patch_5">
    <path d="M 54.342207 293.301871 
L 545.14 293.301871 
" style="fill:none;stroke:#000000;stroke-linecap:square;stroke-linejoin:miter;stroke-width:0.8;"/>
   </g>
   <g id="patch_6">
    <path d="M 54.342207 10.7 
L 545.14 10.7 
" style="fill:none;stroke:#000000;stroke-linecap:square;stroke-linejoin:miter;stroke-width:0.8;"/>
   </g>
   <g id="legend_1">
    <g id="patch_7">
     <path d="M 408.168569 68.098952 
L 533.94 68.098952 
Q 537.14 68.098952 537.14 64.898952 
L 537.14 21.9 
Q 537.14 18.7 533.94 18.7 
L 408.168569 18.7 
Q 404.968569 18.7 404.968569 21.9 
L 404.968569 64.898952 
Q 404.968569 68.098952 408.168569 68.098952 
z
" style="fill:#ffffff;opacity:0.8;stroke:#cccccc;stroke-linejoin:miter;"/>
    </g>
    <g id="line2d_16">
     <path d="M 411.368569 30.7 
L 443.368569 30.7 
" style="fill:none;stroke:#3465a4;stroke-linecap:square;stroke-width:2;"/>
    </g>
    <g id="line2d_17"/>
    <g id="text_16">
     <!-- Mean -->
     <defs>
      <path d="M 20.90625 66 
C 20.296875 67.5 20.203125 67.5 18.09375 67.5 
L 5.296875 67.5 
L 5.296875 65 
C 12.203125 65 13.296875 65 13.296875 60.546875 
L 13.296875 9.53125 
C 13.296875 7.046875 13.296875 2.390625 5.296875 2.390625 
L 5.296875 -0.203125 
C 7.59375 0 11.796875 0 14.296875 0 
C 16.796875 0 21 0 23.296875 -0.203125 
L 23.296875 2.390625 
C 15.296875 2.390625 15.296875 7.046875 15.296875 9.53125 
L 15.296875 64.609375 
L 15.40625 64.609375 
L 38.90625 1.390625 
C 39.296875 0.390625 39.5 -0.203125 40.296875 -0.203125 
C 41.09375 -0.203125 41.296875 0.390625 41.703125 1.390625 
L 65.40625 65.09375 
L 65.5 65.09375 
L 65.5 6.84375 
C 65.5 2.390625 64.40625 2.390625 57.5 2.390625 
L 57.5 -0.203125 
C 60.203125 0 65.59375 0 68.5 0 
C 71.40625 0 76.90625 0 79.59375 -0.203125 
L 79.59375 2.390625 
C 72.703125 2.390625 71.59375 2.390625 71.59375 6.84375 
L 71.59375 60.546875 
C 71.59375 65 72.703125 65 79.59375 65 
L 79.59375 67.5 
L 66.90625 67.5 
C 64.796875 67.5 64.703125 67.40625 64.09375 65.90625 
L 42.5 7.84375 
z
" id="CMR17-77"/>
      <path d="M 38.09375 23 
C 38.5 23.40625 38.5 23.609375 38.5 24.625 
C 38.5 34.96875 33.09375 44 21.703125 44 
C 11.09375 44 2.703125 33.890625 2.703125 21.609375 
C 2.703125 8.609375 12.203125 -1 22.796875 -1 
C 34 -1 38.40625 9.484375 38.40625 11.5625 
C 38.40625 12.25 37.796875 12.25 37.59375 12.25 
C 36.90625 12.25 36.796875 12.046875 36.40625 10.875 
C 34.203125 4.140625 28.703125 0.796875 23.5 0.796875 
C 19.203125 0.796875 14.90625 3.171875 12.203125 7.5 
C 9.09375 12.546875 9.09375 18.375 9.09375 23 
z
M 9.203125 24.5 
C 9.90625 39.140625 17.59375 42.40625 21.59375 42.40625 
C 28.40625 42.40625 33 35.890625 33.09375 24.5 
z
" id="CMR17-101"/>
      <path d="M 36 25.828125 
C 36 32.375 36 35.84375 31.796875 39.734375 
C 28.09375 43 23.796875 44 20.40625 44 
C 12.5 44 6.796875 37.609375 6.796875 30.796875 
C 6.796875 27 9.796875 27 10.40625 27 
C 11.703125 27 14 27.78125 14 30.53125 
C 14 33 12.09375 34.078125 10.40625 34.078125 
C 10 34.078125 9.5 33.96875 9.203125 33.875 
C 11.296875 40.5 16.703125 42.40625 20.203125 42.40625 
C 25.203125 42.40625 30.703125 37.953125 30.703125 29.453125 
L 30.703125 25 
C 24.796875 25 17.703125 24.203125 12.09375 21.203125 
C 5.796875 17.703125 4 12.703125 4 8.90625 
C 4 1.203125 13 -1 18.296875 -1 
C 23.796875 -1 28.90625 2.171875 31.09375 7.984375 
C 31.296875 3.640625 34.09375 -0.28125 38.5 -0.28125 
C 40.59375 -0.28125 45.90625 1.09375 45.90625 8.859375 
L 45.90625 14.375 
L 44.09375 14.375 
L 44.09375 8.78125 
C 44.09375 2.78125 41.40625 2 40.09375 2 
C 36 2 36 7.15625 36 11.53125 
z
M 30.703125 13.59375 
C 30.703125 4.953125 24.5 0.59375 19 0.59375 
C 14 0.59375 10.09375 4.296875 10.09375 8.90625 
C 10.09375 11.890625 11.40625 17.1875 17.203125 20.390625 
C 22 23.09375 27.5 23.5 30.703125 23.5 
z
" id="CMR17-97"/>
      <path d="M 41.5 30.203125 
C 41.5 35.296875 40.5 43.59375 28.703125 43.59375 
C 20.796875 43.59375 16.703125 37.5 15.203125 33.5 
L 15.09375 33.5 
L 15.09375 43.59375 
L 3.296875 42.5 
L 3.296875 39.90625 
C 9.203125 39.90625 10.09375 39.296875 10.09375 34.5 
L 10.09375 6.6875 
C 10.09375 2.875 9.703125 2.390625 3.296875 2.390625 
L 3.296875 -0.203125 
C 5.703125 0 10.09375 0 12.703125 0 
C 15.296875 0 19.796875 0 22.203125 -0.203125 
L 22.203125 2.390625 
C 15.796875 2.390625 15.40625 2.78125 15.40625 6.6875 
L 15.40625 25.90625 
C 15.40625 35.109375 21 42 28 42 
C 35.40625 42 36.203125 35.40625 36.203125 30.59375 
L 36.203125 6.6875 
C 36.203125 2.875 35.796875 2.390625 29.40625 2.390625 
L 29.40625 -0.203125 
C 31.796875 0 36.203125 0 38.796875 0 
C 41.40625 0 45.90625 0 48.296875 -0.203125 
L 48.296875 2.390625 
C 41.90625 2.390625 41.5 2.78125 41.5 6.6875 
z
" id="CMR17-110"/>
     </defs>
     <g transform="translate(456.168569 36.3)scale(0.16 -0.16)">
      <use transform="scale(0.996264)" xlink:href="#CMR17-77"/>
      <use transform="translate(84.686941 0)scale(0.996264)" xlink:href="#CMR17-101"/>
      <use transform="translate(125.172601 0)scale(0.996264)" xlink:href="#CMR17-97"/>
      <use transform="translate(170.863078 0)scale(0.996264)" xlink:href="#CMR17-110"/>
     </g>
    </g>
    <g id="patch_8">
     <path d="M 411.368569 58.599476 
L 443.368569 58.599476 
L 443.368569 47.399476 
L 411.368569 47.399476 
z
" style="fill:#729fcf;opacity:0.2;stroke:#204a87;stroke-linejoin:miter;stroke-width:0.5;"/>
    </g>
    <g id="text_17">
     <!-- Confidence -->
     <defs>
      <path d="M 62.09375 67.015625 
C 62.09375 68.796875 62 68.90625 61.40625 68.90625 
C 61 68.90625 60.90625 68.796875 60.203125 67.609375 
L 55.796875 59.25 
C 50.90625 65.421875 44.90625 69 37.203125 69 
C 20.09375 69 4.59375 54 4.59375 33.5625 
C 4.59375 12.90625 20.09375 -2 37.296875 -2 
C 52.59375 -2 62.09375 11.40625 62.09375 22.828125 
C 62.09375 23.8125 62.09375 24.21875 61.203125 24.21875 
C 60.40625 24.21875 60.40625 23.921875 60.296875 23.03125 
C 59.5 9.140625 49.5 0.59375 38.703125 0.59375 
C 28.5 0.59375 12.203125 7.734375 12.203125 33.546875 
C 12.203125 59.453125 28.796875 66.40625 38.5 66.40625 
C 49.796875 66.40625 58 56.6875 59.90625 42.890625 
C 60.09375 41.6875 60.09375 41.484375 61 41.484375 
C 62.09375 41.484375 62.09375 41.6875 62.09375 43.484375 
z
" id="CMR17-67"/>
      <path d="M 43.09375 21.1875 
C 43.09375 34 33.796875 44 22.90625 44 
C 12 44 2.703125 34 2.703125 21.1875 
C 2.703125 8.609375 12 -1 22.90625 -1 
C 33.796875 -1 43.09375 8.609375 43.09375 21.1875 
z
M 22.90625 0.796875 
C 18.203125 0.796875 14.203125 3.59375 11.90625 7.5 
C 9.40625 11.984375 9.09375 17.59375 9.09375 22 
C 9.09375 26.203125 9.296875 31.40625 11.90625 35.90625 
C 13.90625 39.203125 17.796875 42.40625 22.90625 42.40625 
C 27.40625 42.40625 31.203125 39.90625 33.59375 36.40625 
C 36.703125 31.703125 36.703125 25.109375 36.703125 22 
C 36.703125 18.09375 36.5 12.109375 33.796875 7.296875 
C 31 2.703125 26.703125 0.796875 22.90625 0.796875 
z
" id="CMR17-111"/>
      <path d="M 39.90625 43.1875 
C 37.5 43.1875 30.09375 43.1875 28.203125 42.796875 
C 27.59375 42.578125 27.40625 42.578125 26.203125 42.578125 
L 14.796875 42.578125 
L 14.796875 54.203125 
C 14.796875 63.640625 22.40625 68 28.40625 68 
C 30.296875 68 34.59375 67.5 36.796875 64.078125 
C 35.796875 64.078125 32.59375 64.078125 32.59375 60.59375 
C 32.59375 58.203125 34.203125 57 36.203125 57 
C 38 57 39.796875 58 39.796875 60.703125 
C 39.796875 65.703125 35 69.59375 28.796875 69.59375 
C 20.90625 69.59375 9.90625 65.125 9.90625 54.203125 
L 9.90625 42.578125 
L 1.90625 42.578125 
L 1.90625 40 
L 9.90625 40 
L 9.90625 6.671875 
C 9.90625 2.875 9.5 2.390625 3.09375 2.390625 
L 3.09375 -0.203125 
C 5.5 0 9.90625 0 12.40625 0 
C 15 0 19.40625 0 21.796875 -0.203125 
L 21.796875 2.390625 
C 15.40625 2.390625 15 2.78125 15 6.671875 
L 15 40 
L 29.703125 40 
C 34 40 34.796875 39.09375 34.796875 34.71875 
L 34.796875 6.671875 
C 34.796875 2.875 34.40625 2.390625 28 2.390625 
L 28 -0.203125 
C 30.40625 0 34.796875 0 37.296875 0 
C 39.90625 0 44.296875 0 46.703125 -0.203125 
L 46.703125 2.390625 
C 40.296875 2.390625 39.90625 2.78125 39.90625 6.671875 
z
" id="CMR17-12"/>
      <path d="M 29.203125 67.59375 
L 29.203125 65 
C 35.09375 65 36 64.40625 36 59.6875 
L 36 36.640625 
C 35.59375 37.140625 31.5 43.59375 23.40625 43.59375 
C 13.203125 43.59375 3.296875 34.5 3.296875 21.3125 
C 3.296875 8.203125 12.59375 -1 22.40625 -1 
C 30.90625 -1 35.296875 5.265625 35.796875 5.9375 
L 35.796875 -0.984375 
L 47.90625 -0.984375 
L 47.90625 2 
C 42 2 41.09375 2.59375 41.09375 7.390625 
L 41.09375 68.6875 
z
M 35.796875 11.796875 
C 35.796875 8.796875 34 6.09375 31.703125 4.09375 
C 28.296875 1.09375 24.90625 0.59375 23 0.59375 
C 20.09375 0.59375 9.703125 2.09375 9.703125 21.1875 
C 9.703125 40.8125 21.296875 42 23.90625 42 
C 28.5 42 32.203125 39.40625 34.5 35.796875 
C 35.796875 33.703125 35.796875 33.40625 35.796875 31.609375 
z
" id="CMR17-100"/>
      <path d="M 34.90625 35 
C 33 35 30.203125 35 30.203125 31.515625 
C 30.203125 28.71875 32.5 27.921875 33.796875 27.921875 
C 34.5 27.921875 37.40625 28.234375 37.40625 31.625 
C 37.40625 38.546875 30.59375 43.796875 22.90625 43.796875 
C 12.296875 43.796875 3.296875 34.03125 3.296875 21.296875 
C 3.296875 8.0625 12.703125 -1 22.90625 -1 
C 35.296875 -1 38.40625 10.578125 38.40625 11.6875 
C 38.40625 12.09375 38.296875 12.390625 37.59375 12.390625 
C 36.90625 12.390625 36.796875 12.296875 36.40625 10.984375 
C 33.796875 2.8125 28.09375 0.796875 23.796875 0.796875 
C 17.40625 0.796875 9.703125 6.671875 9.703125 21.390625 
C 9.703125 36.53125 17.09375 42 23 42 
C 26.90625 42 32.703125 40.203125 34.90625 35 
z
" id="CMR17-99"/>
     </defs>
     <g transform="translate(456.168569 58.599476)scale(0.16 -0.16)">
      <use transform="scale(0.996264)" xlink:href="#CMR17-67"/>
      <use transform="translate(66.509881 0)scale(0.996264)" xlink:href="#CMR17-111"/>
      <use transform="translate(112.200358 0)scale(0.996264)" xlink:href="#CMR17-110"/>
      <use transform="translate(163.095727 0)scale(0.996264)" xlink:href="#CMR17-12"/>
      <use transform="translate(212.837951 0)scale(0.996264)" xlink:href="#CMR17-100"/>
      <use transform="translate(263.733321 0)scale(0.996264)" xlink:href="#CMR17-101"/>
      <use transform="translate(304.218981 0)scale(0.996264)" xlink:href="#CMR17-110"/>
      <use transform="translate(355.114351 0)scale(0.996264)" xlink:href="#CMR17-99"/>
      <use transform="translate(395.600011 0)scale(0.996264)" xlink:href="#CMR17-101"/>
     </g>
    </g>
   </g>
  </g>
 </g>
 <defs>
  <clipPath id="p700a8a6b9b">
   <rect height="282.601871" width="490.797793" x="54.342207" y="10.7"/>
  </clipPath>
 </defs>
</svg>
