<?xml version="1.0" encoding="utf-8" standalone="no"?>
<!DOCTYPE svg PUBLIC "-//W3C//DTD SVG 1.1//EN"
  "http://www.w3.org/Graphics/SVG/1.1/DTD/svg11.dtd">
<!-- Created with matplotlib (http://matplotlib.org/) -->
<svg height="351pt" version="1.1" viewBox="0 0 528 351" width="528pt" xmlns="http://www.w3.org/2000/svg" xmlns:xlink="http://www.w3.org/1999/xlink">
 <defs>
  <style type="text/css">
*{stroke-linecap:butt;stroke-linejoin:round;}
  </style>
 </defs>
 <g id="figure_1">
  <g id="patch_1">
   <path d="
M0 351.305
L528.054 351.305
L528.054 0
L0 0
L0 351.305" style="fill:none;"/>
  </g>
  <g id="axes_1">
   <g id="patch_2">
    <path d="
M64.4817 305.393
L510.882 305.393
L510.882 26.393
L64.4817 26.393
z
" style="fill:#ffffff;"/>
   </g>
   <g id="line2d_1">
    <defs>
     <path d="
M0 3
C0.795609 3 1.55874 2.6839 2.12132 2.12132
C2.6839 1.55874 3 0.795609 3 0
C3 -0.795609 2.6839 -1.55874 2.12132 -2.12132
C1.55874 -2.6839 0.795609 -3 0 -3
C-0.795609 -3 -1.55874 -2.6839 -2.12132 -2.12132
C-2.6839 -1.55874 -3 -0.795609 -3 0
C-3 0.795609 -2.6839 1.55874 -2.12132 2.12132
C-1.55874 2.6839 -0.795609 3 0 3
z
" id="mf1e9a9e4ae" style="stroke:#000000;stroke-width:0.5;"/>
    </defs>
    <g clip-path="url(#p6680e7f12f)">
     <use style="fill:#0000ff;stroke:#000000;stroke-width:0.5;" x="250.640365437" xlink:href="#mf1e9a9e4ae" y="219.098939823"/>
     <use style="fill:#0000ff;stroke:#000000;stroke-width:0.5;" x="386.03459641" xlink:href="#mf1e9a9e4ae" y="195.487840296"/>
     <use style="fill:#0000ff;stroke:#000000;stroke-width:0.5;" x="64.5327994562" xlink:href="#mf1e9a9e4ae" y="111.599438157"/>
     <use style="fill:#0000ff;stroke:#000000;stroke-width:0.5;" x="199.443002961" xlink:href="#mf1e9a9e4ae" y="142.674553119"/>
     <use style="fill:#0000ff;stroke:#000000;stroke-width:0.5;" x="129.993572199" xlink:href="#mf1e9a9e4ae" y="50.8793041409"/>
     <use style="fill:#0000ff;stroke:#000000;stroke-width:0.5;" x="105.701691243" xlink:href="#mf1e9a9e4ae" y="70.0945277718"/>
     <use style="fill:#0000ff;stroke:#000000;stroke-width:0.5;" x="147.628300897" xlink:href="#mf1e9a9e4ae" y="51.827310005"/>
     <use style="fill:#0000ff;stroke:#000000;stroke-width:0.5;" x="218.74005109" xlink:href="#mf1e9a9e4ae" y="186.542638205"/>
     <use style="fill:#0000ff;stroke:#000000;stroke-width:0.5;" x="241.598743034" xlink:href="#mf1e9a9e4ae" y="216.84902964"/>
     <use style="fill:#0000ff;stroke:#000000;stroke-width:0.5;" x="305.009532597" xlink:href="#mf1e9a9e4ae" y="142.551355505"/>
     <use style="fill:#0000ff;stroke:#000000;stroke-width:0.5;" x="251.610173767" xlink:href="#mf1e9a9e4ae" y="218.987684365"/>
     <use style="fill:#0000ff;stroke:#000000;stroke-width:0.5;" x="370.363727515" xlink:href="#mf1e9a9e4ae" y="156.327336733"/>
     <use style="fill:#0000ff;stroke:#000000;stroke-width:0.5;" x="155.749226818" xlink:href="#mf1e9a9e4ae" y="57.9210375463"/>
     <use style="fill:#0000ff;stroke:#000000;stroke-width:0.5;" x="456.473366143" xlink:href="#mf1e9a9e4ae" y="287.704939063"/>
     <use style="fill:#0000ff;stroke:#000000;stroke-width:0.5;" x="76.7075641413" xlink:href="#mf1e9a9e4ae" y="101.671002282"/>
     <use style="fill:#0000ff;stroke:#000000;stroke-width:0.5;" x="363.778439081" xlink:href="#mf1e9a9e4ae" y="142.289463151"/>
     <use style="fill:#0000ff;stroke:#000000;stroke-width:0.5;" x="250.766606314" xlink:href="#mf1e9a9e4ae" y="219.088296566"/>
     <use style="fill:#0000ff;stroke:#000000;stroke-width:0.5;" x="313.880881956" xlink:href="#mf1e9a9e4ae" y="128.485929439"/>
     <use style="fill:#0000ff;stroke:#000000;stroke-width:0.5;" x="127.150471927" xlink:href="#mf1e9a9e4ae" y="52.1253331021"/>
     <use style="fill:#0000ff;stroke:#000000;stroke-width:0.5;" x="152.914247265" xlink:href="#mf1e9a9e4ae" y="55.370248149"/>
     <use style="fill:#0000ff;stroke:#000000;stroke-width:0.5;" x="421.934117995" xlink:href="#mf1e9a9e4ae" y="275.678514586"/>
     <use style="fill:#0000ff;stroke:#000000;stroke-width:0.5;" x="496.713709939" xlink:href="#mf1e9a9e4ae" y="231.111997623"/>
     <use style="fill:#0000ff;stroke:#000000;stroke-width:0.5;" x="204.394295668" xlink:href="#mf1e9a9e4ae" y="154.696756472"/>
     <use style="fill:#0000ff;stroke:#000000;stroke-width:0.5;" x="373.534558173" xlink:href="#mf1e9a9e4ae" y="163.737632043"/>
     <use style="fill:#0000ff;stroke:#000000;stroke-width:0.5;" x="455.701860123" xlink:href="#mf1e9a9e4ae" y="288.23283071"/>
     <use style="fill:#0000ff;stroke:#000000;stroke-width:0.5;" x="463.834157126" xlink:href="#mf1e9a9e4ae" y="281.164056248"/>
     <use style="fill:#0000ff;stroke:#000000;stroke-width:0.5;" x="102.445478493" xlink:href="#mf1e9a9e4ae" y="73.6636894734"/>
     <use style="fill:#0000ff;stroke:#000000;stroke-width:0.5;" x="81.9157977729" xlink:href="#mf1e9a9e4ae" y="96.5057941334"/>
     <use style="fill:#0000ff;stroke:#000000;stroke-width:0.5;" x="140.294041831" xlink:href="#mf1e9a9e4ae" y="49.4834854524"/>
     <use style="fill:#0000ff;stroke:#000000;stroke-width:0.5;" x="456.484556069" xlink:href="#mf1e9a9e4ae" y="287.697021028"/>
     <use style="fill:#0000ff;stroke:#000000;stroke-width:0.5;" x="108.383769161" xlink:href="#mf1e9a9e4ae" y="67.2544158963"/>
     <use style="fill:#0000ff;stroke:#000000;stroke-width:0.5;" x="252.46418634" xlink:href="#mf1e9a9e4ae" y="218.833677204"/>
     <use style="fill:#0000ff;stroke:#000000;stroke-width:0.5;" x="492.083628797" xlink:href="#mf1e9a9e4ae" y="239.084713241"/>
     <use style="fill:#0000ff;stroke:#000000;stroke-width:0.5;" x="302.48672575" xlink:href="#mf1e9a9e4ae" y="147.05596048"/>
     <use style="fill:#0000ff;stroke:#000000;stroke-width:0.5;" x="373.335686205" xlink:href="#mf1e9a9e4ae" y="163.262380498"/>
     <use style="fill:#0000ff;stroke:#000000;stroke-width:0.5;" x="205.327920219" xlink:href="#mf1e9a9e4ae" y="156.930746746"/>
     <use style="fill:#0000ff;stroke:#000000;stroke-width:0.5;" x="370.935756655" xlink:href="#mf1e9a9e4ae" y="157.636563455"/>
     <use style="fill:#0000ff;stroke:#000000;stroke-width:0.5;" x="437.058642473" xlink:href="#mf1e9a9e4ae" y="290.330550558"/>
     <use style="fill:#0000ff;stroke:#000000;stroke-width:0.5;" x="72.6456295442" xlink:href="#mf1e9a9e4ae" y="105.350913197"/>
     <use style="fill:#0000ff;stroke:#000000;stroke-width:0.5;" x="399.346164729" xlink:href="#mf1e9a9e4ae" y="229.893865836"/>
     <use style="fill:#0000ff;stroke:#000000;stroke-width:0.5;" x="505.909332626" xlink:href="#mf1e9a9e4ae" y="215.638537161"/>
     <use style="fill:#0000ff;stroke:#000000;stroke-width:0.5;" x="398.462890653" xlink:href="#mf1e9a9e4ae" y="227.696990365"/>
     <use style="fill:#0000ff;stroke:#000000;stroke-width:0.5;" x="189.671940595" xlink:href="#mf1e9a9e4ae" y="118.897845795"/>
     <use style="fill:#0000ff;stroke:#000000;stroke-width:0.5;" x="416.816034758" xlink:href="#mf1e9a9e4ae" y="267.499111535"/>
     <use style="fill:#0000ff;stroke:#000000;stroke-width:0.5;" x="110.561831874" xlink:href="#mf1e9a9e4ae" y="65.0335523749"/>
     <use style="fill:#0000ff;stroke:#000000;stroke-width:0.5;" x="264.421412623" xlink:href="#mf1e9a9e4ae" y="211.401123798"/>
     <use style="fill:#0000ff;stroke:#000000;stroke-width:0.5;" x="470.078775119" xlink:href="#mf1e9a9e4ae" y="273.736832186"/>
     <use style="fill:#0000ff;stroke:#000000;stroke-width:0.5;" x="195.551098372" xlink:href="#mf1e9a9e4ae" y="133.140143342"/>
     <use style="fill:#0000ff;stroke:#000000;stroke-width:0.5;" x="192.944653683" xlink:href="#mf1e9a9e4ae" y="126.782791897"/>
     <use style="fill:#0000ff;stroke:#000000;stroke-width:0.5;" x="122.526497131" xlink:href="#mf1e9a9e4ae" y="54.8405361464"/>
     <use style="fill:#0000ff;stroke:#000000;stroke-width:0.5;" x="73.127152531" xlink:href="#mf1e9a9e4ae" y="104.932450579"/>
     <use style="fill:#0000ff;stroke:#000000;stroke-width:0.5;" x="367.513924442" xlink:href="#mf1e9a9e4ae" y="150.006683248"/>
     <use style="fill:#0000ff;stroke:#000000;stroke-width:0.5;" x="158.95253352" xlink:href="#mf1e9a9e4ae" y="61.3465825493"/>
     <use style="fill:#0000ff;stroke:#000000;stroke-width:0.5;" x="183.021771282" xlink:href="#mf1e9a9e4ae" y="103.484634993"/>
     <use style="fill:#0000ff;stroke:#000000;stroke-width:0.5;" x="283.92000084" xlink:href="#mf1e9a9e4ae" y="182.376336899"/>
     <use style="fill:#0000ff;stroke:#000000;stroke-width:0.5;" x="88.302782678" xlink:href="#mf1e9a9e4ae" y="89.6456182054"/>
     <use style="fill:#0000ff;stroke:#000000;stroke-width:0.5;" x="320.767841629" xlink:href="#mf1e9a9e4ae" y="120.166442075"/>
     <use style="fill:#0000ff;stroke:#000000;stroke-width:0.5;" x="129.981378376" xlink:href="#mf1e9a9e4ae" y="50.8838848675"/>
     <use style="fill:#0000ff;stroke:#000000;stroke-width:0.5;" x="327.547734211" xlink:href="#mf1e9a9e4ae" y="114.805734624"/>
     <use style="fill:#0000ff;stroke:#000000;stroke-width:0.5;" x="376.853874451" xlink:href="#mf1e9a9e4ae" y="171.848963138"/>
     <use style="fill:#0000ff;stroke:#000000;stroke-width:0.5;" x="110.163831566" xlink:href="#mf1e9a9e4ae" y="65.4329137009"/>
     <use style="fill:#0000ff;stroke:#000000;stroke-width:0.5;" x="249.3163355" xlink:href="#mf1e9a9e4ae" y="219.141070255"/>
     <use style="fill:#0000ff;stroke:#000000;stroke-width:0.5;" x="374.461972947" xlink:href="#mf1e9a9e4ae" y="165.970845652"/>
     <use style="fill:#0000ff;stroke:#000000;stroke-width:0.5;" x="249.371368455" xlink:href="#mf1e9a9e4ae" y="219.141833747"/>
     <use style="fill:#0000ff;stroke:#000000;stroke-width:0.5;" x="86.7809666113" xlink:href="#mf1e9a9e4ae" y="91.3213022079"/>
     <use style="fill:#0000ff;stroke:#000000;stroke-width:0.5;" x="303.705898138" xlink:href="#mf1e9a9e4ae" y="144.857347452"/>
     <use style="fill:#0000ff;stroke:#000000;stroke-width:0.5;" x="360.799672164" xlink:href="#mf1e9a9e4ae" y="136.657228454"/>
     <use style="fill:#0000ff;stroke:#000000;stroke-width:0.5;" x="294.328242161" xlink:href="#mf1e9a9e4ae" y="162.483813458"/>
     <use style="fill:#0000ff;stroke:#000000;stroke-width:0.5;" x="486.148841612" xlink:href="#mf1e9a9e4ae" y="249.203467063"/>
     <use style="fill:#0000ff;stroke:#000000;stroke-width:0.5;" x="326.319912618" xlink:href="#mf1e9a9e4ae" y="115.548584323"/>
     <use style="fill:#0000ff;stroke:#000000;stroke-width:0.5;" x="467.760357522" xlink:href="#mf1e9a9e4ae" y="276.672569718"/>
     <use style="fill:#0000ff;stroke:#000000;stroke-width:0.5;" x="125.850450469" xlink:href="#mf1e9a9e4ae" y="52.8059942806"/>
     <use style="fill:#0000ff;stroke:#000000;stroke-width:0.5;" x="126.65470395" xlink:href="#mf1e9a9e4ae" y="52.3769390474"/>
     <use style="fill:#0000ff;stroke:#000000;stroke-width:0.5;" x="424.901213818" xlink:href="#mf1e9a9e4ae" y="279.705343196"/>
     <use style="fill:#0000ff;stroke:#000000;stroke-width:0.5;" x="242.004682568" xlink:href="#mf1e9a9e4ae" y="217.077244788"/>
     <use style="fill:#0000ff;stroke:#000000;stroke-width:0.5;" x="138.295856131" xlink:href="#mf1e9a9e4ae" y="49.3441256193"/>
     <use style="fill:#0000ff;stroke:#000000;stroke-width:0.5;" x="478.521572827" xlink:href="#mf1e9a9e4ae" y="261.587199953"/>
     <use style="fill:#0000ff;stroke:#000000;stroke-width:0.5;" x="219.724422328" xlink:href="#mf1e9a9e4ae" y="188.458973829"/>
     <use style="fill:#0000ff;stroke:#000000;stroke-width:0.5;" x="399.644265378" xlink:href="#mf1e9a9e4ae" y="230.630799974"/>
     <use style="fill:#0000ff;stroke:#000000;stroke-width:0.5;" x="388.567243198" xlink:href="#mf1e9a9e4ae" y="202.14638248"/>
     <use style="fill:#0000ff;stroke:#000000;stroke-width:0.5;" x="458.789581652" xlink:href="#mf1e9a9e4ae" y="285.933262017"/>
     <use style="fill:#0000ff;stroke:#000000;stroke-width:0.5;" x="342.889015767" xlink:href="#mf1e9a9e4ae" y="114.818135242"/>
     <use style="fill:#0000ff;stroke:#000000;stroke-width:0.5;" x="399.702445088" xlink:href="#mf1e9a9e4ae" y="230.774340656"/>
     <use style="fill:#0000ff;stroke:#000000;stroke-width:0.5;" x="220.229962397" xlink:href="#mf1e9a9e4ae" y="189.425832342"/>
     <use style="fill:#0000ff;stroke:#000000;stroke-width:0.5;" x="184.977553422" xlink:href="#mf1e9a9e4ae" y="107.909516633"/>
     <use style="fill:#0000ff;stroke:#000000;stroke-width:0.5;" x="464.40535034" xlink:href="#mf1e9a9e4ae" y="280.550648221"/>
     <use style="fill:#0000ff;stroke:#000000;stroke-width:0.5;" x="255.581649696" xlink:href="#mf1e9a9e4ae" y="217.831267333"/>
     <use style="fill:#0000ff;stroke:#000000;stroke-width:0.5;" x="495.186339585" xlink:href="#mf1e9a9e4ae" y="233.739668128"/>
     <use style="fill:#0000ff;stroke:#000000;stroke-width:0.5;" x="360.642027164" xlink:href="#mf1e9a9e4ae" y="136.373058457"/>
     <use style="fill:#0000ff;stroke:#000000;stroke-width:0.5;" x="342.006712039" xlink:href="#mf1e9a9e4ae" y="114.337379096"/>
     <use style="fill:#0000ff;stroke:#000000;stroke-width:0.5;" x="115.704344864" xlink:href="#mf1e9a9e4ae" y="60.1790970901"/>
     <use style="fill:#0000ff;stroke:#000000;stroke-width:0.5;" x="488.333747625" xlink:href="#mf1e9a9e4ae" y="245.507657075"/>
     <use style="fill:#0000ff;stroke:#000000;stroke-width:0.5;" x="265.322518923" xlink:href="#mf1e9a9e4ae" y="210.467001219"/>
     <use style="fill:#0000ff;stroke:#000000;stroke-width:0.5;" x="322.6748664" xlink:href="#mf1e9a9e4ae" y="118.354846625"/>
     <use style="fill:#0000ff;stroke:#000000;stroke-width:0.5;" x="246.67401129" xlink:href="#mf1e9a9e4ae" y="218.844284922"/>
     <use style="fill:#0000ff;stroke:#000000;stroke-width:0.5;" x="170.290586518" xlink:href="#mf1e9a9e4ae" y="77.8988196971"/>
     <use style="fill:#0000ff;stroke:#000000;stroke-width:0.5;" x="467.750360517" xlink:href="#mf1e9a9e4ae" y="276.684796742"/>
     <use style="fill:#0000ff;stroke:#000000;stroke-width:0.5;" x="320.572265388" xlink:href="#mf1e9a9e4ae" y="120.365047647"/>
     <use style="fill:#0000ff;stroke:#000000;stroke-width:0.5;" x="65.7630565245" xlink:href="#mf1e9a9e4ae" y="110.754610822"/>
     <use style="fill:#0000ff;stroke:#000000;stroke-width:0.5;" x="339.975231978" xlink:href="#mf1e9a9e4ae" y="113.45471966"/>
     <use style="fill:#0000ff;stroke:#000000;stroke-width:0.5;" x="210.296026689" xlink:href="#mf1e9a9e4ae" y="168.5273506"/>
     <use style="fill:#0000ff;stroke:#000000;stroke-width:0.5;" x="299.760479386" xlink:href="#mf1e9a9e4ae" y="152.096953214"/>
     <use style="fill:#0000ff;stroke:#000000;stroke-width:0.5;" x="459.96629567" xlink:href="#mf1e9a9e4ae" y="284.929180424"/>
     <use style="fill:#0000ff;stroke:#000000;stroke-width:0.5;" x="223.966963403" xlink:href="#mf1e9a9e4ae" y="196.18476876"/>
     <use style="fill:#0000ff;stroke:#000000;stroke-width:0.5;" x="470.051833908" xlink:href="#mf1e9a9e4ae" y="273.772071408"/>
     <use style="fill:#0000ff;stroke:#000000;stroke-width:0.5;" x="342.749698227" xlink:href="#mf1e9a9e4ae" y="114.738283793"/>
     <use style="fill:#0000ff;stroke:#000000;stroke-width:0.5;" x="71.5443453445" xlink:href="#mf1e9a9e4ae" y="106.289064956"/>
     <use style="fill:#0000ff;stroke:#000000;stroke-width:0.5;" x="479.382523681" xlink:href="#mf1e9a9e4ae" y="260.242668558"/>
     <use style="fill:#0000ff;stroke:#000000;stroke-width:0.5;" x="372.898126517" xlink:href="#mf1e9a9e4ae" y="162.221428669"/>
     <use style="fill:#0000ff;stroke:#000000;stroke-width:0.5;" x="509.686662979" xlink:href="#mf1e9a9e4ae" y="209.598520073"/>
     <use style="fill:#0000ff;stroke:#000000;stroke-width:0.5;" x="141.414545463" xlink:href="#mf1e9a9e4ae" y="49.6531516577"/>
     <use style="fill:#0000ff;stroke:#000000;stroke-width:0.5;" x="125.699141172" xlink:href="#mf1e9a9e4ae" y="52.8895195725"/>
     <use style="fill:#0000ff;stroke:#000000;stroke-width:0.5;" x="480.792357238" xlink:href="#mf1e9a9e4ae" y="258.007339171"/>
     <use style="fill:#0000ff;stroke:#000000;stroke-width:0.5;" x="375.541369827" xlink:href="#mf1e9a9e4ae" y="168.60337431"/>
     <use style="fill:#0000ff;stroke:#000000;stroke-width:0.5;" x="93.9442196409" xlink:href="#mf1e9a9e4ae" y="83.2933128216"/>
     <use style="fill:#0000ff;stroke:#000000;stroke-width:0.5;" x="401.720449219" xlink:href="#mf1e9a9e4ae" y="235.694603008"/>
     <use style="fill:#0000ff;stroke:#000000;stroke-width:0.5;" x="401.012073067" xlink:href="#mf1e9a9e4ae" y="233.98092172"/>
     <use style="fill:#0000ff;stroke:#000000;stroke-width:0.5;" x="476.519895206" xlink:href="#mf1e9a9e4ae" y="264.646879195"/>
     <use style="fill:#0000ff;stroke:#000000;stroke-width:0.5;" x="382.106394789" xlink:href="#mf1e9a9e4ae" y="185.225425683"/>
     <use style="fill:#0000ff;stroke:#000000;stroke-width:0.5;" x="119.956299962" xlink:href="#mf1e9a9e4ae" y="56.6818092018"/>
     <use style="fill:#0000ff;stroke:#000000;stroke-width:0.5;" x="73.3562342838" xlink:href="#mf1e9a9e4ae" y="104.731631054"/>
     <use style="fill:#0000ff;stroke:#000000;stroke-width:0.5;" x="76.18232708" xlink:href="#mf1e9a9e4ae" y="102.165318234"/>
     <use style="fill:#0000ff;stroke:#000000;stroke-width:0.5;" x="77.1177587902" xlink:href="#mf1e9a9e4ae" y="101.281300583"/>
     <use style="fill:#0000ff;stroke:#000000;stroke-width:0.5;" x="174.390363116" xlink:href="#mf1e9a9e4ae" y="85.4350036755"/>
     <use style="fill:#0000ff;stroke:#000000;stroke-width:0.5;" x="448.39821883" xlink:href="#mf1e9a9e4ae" y="291.582921146"/>
     <use style="fill:#0000ff;stroke:#000000;stroke-width:0.5;" x="305.01592966" xlink:href="#mf1e9a9e4ae" y="142.540166091"/>
     <use style="fill:#0000ff;stroke:#000000;stroke-width:0.5;" x="311.261473823" xlink:href="#mf1e9a9e4ae" y="132.298415363"/>
     <use style="fill:#0000ff;stroke:#000000;stroke-width:0.5;" x="440.364332887" xlink:href="#mf1e9a9e4ae" y="291.54730697"/>
     <use style="fill:#0000ff;stroke:#000000;stroke-width:0.5;" x="119.912710407" xlink:href="#mf1e9a9e4ae" y="56.7149062795"/>
     <use style="fill:#0000ff;stroke:#000000;stroke-width:0.5;" x="189.109336848" xlink:href="#mf1e9a9e4ae" y="117.558017664"/>
     <use style="fill:#0000ff;stroke:#000000;stroke-width:0.5;" x="325.964681317" xlink:href="#mf1e9a9e4ae" y="115.782859279"/>
     <use style="fill:#0000ff;stroke:#000000;stroke-width:0.5;" x="497.309284588" xlink:href="#mf1e9a9e4ae" y="230.08950077"/>
     <use style="fill:#0000ff;stroke:#000000;stroke-width:0.5;" x="314.925632413" xlink:href="#mf1e9a9e4ae" y="127.058063212"/>
     <use style="fill:#0000ff;stroke:#000000;stroke-width:0.5;" x="72.8058925138" xlink:href="#mf1e9a9e4ae" y="105.212180078"/>
     <use style="fill:#0000ff;stroke:#000000;stroke-width:0.5;" x="421.884167622" xlink:href="#mf1e9a9e4ae" y="275.606136319"/>
     <use style="fill:#0000ff;stroke:#000000;stroke-width:0.5;" x="168.48145838" xlink:href="#mf1e9a9e4ae" y="74.8191792687"/>
     <use style="fill:#0000ff;stroke:#000000;stroke-width:0.5;" x="424.773501862" xlink:href="#mf1e9a9e4ae" y="279.543233081"/>
     <use style="fill:#0000ff;stroke:#000000;stroke-width:0.5;" x="237.622734048" xlink:href="#mf1e9a9e4ae" y="213.992652289"/>
     <use style="fill:#0000ff;stroke:#000000;stroke-width:0.5;" x="449.966826413" xlink:href="#mf1e9a9e4ae" y="291.123977198"/>
     <use style="fill:#0000ff;stroke:#000000;stroke-width:0.5;" x="397.996843856" xlink:href="#mf1e9a9e4ae" y="226.530149935"/>
     <use style="fill:#0000ff;stroke:#000000;stroke-width:0.5;" x="312.787382991" xlink:href="#mf1e9a9e4ae" y="130.038250381"/>
     <use style="fill:#0000ff;stroke:#000000;stroke-width:0.5;" x="125.395355273" xlink:href="#mf1e9a9e4ae" y="53.0599668791"/>
     <use style="fill:#0000ff;stroke:#000000;stroke-width:0.5;" x="91.228999136" xlink:href="#mf1e9a9e4ae" y="86.3719189786"/>
     <use style="fill:#0000ff;stroke:#000000;stroke-width:0.5;" x="118.64946118" xlink:href="#mf1e9a9e4ae" y="57.700044984"/>
     <use style="fill:#0000ff;stroke:#000000;stroke-width:0.5;" x="84.3697011201" xlink:href="#mf1e9a9e4ae" y="93.9274458582"/>
     <use style="fill:#0000ff;stroke:#000000;stroke-width:0.5;" x="112.467121771" xlink:href="#mf1e9a9e4ae" y="63.1655537063"/>
     <use style="fill:#0000ff;stroke:#000000;stroke-width:0.5;" x="165.238391292" xlink:href="#mf1e9a9e4ae" y="69.7014237828"/>
     <use style="fill:#0000ff;stroke:#000000;stroke-width:0.5;" x="382.760023381" xlink:href="#mf1e9a9e4ae" y="186.922652381"/>
     <use style="fill:#0000ff;stroke:#000000;stroke-width:0.5;" x="314.339403327" xlink:href="#mf1e9a9e4ae" y="127.852466639"/>
     <use style="fill:#0000ff;stroke:#000000;stroke-width:0.5;" x="70.0867320808" xlink:href="#mf1e9a9e4ae" y="107.489163319"/>
     <use style="fill:#0000ff;stroke:#000000;stroke-width:0.5;" x="96.6110609911" xlink:href="#mf1e9a9e4ae" y="80.2540340759"/>
     <use style="fill:#0000ff;stroke:#000000;stroke-width:0.5;" x="496.27389625" xlink:href="#mf1e9a9e4ae" y="231.867956144"/>
     <use style="fill:#0000ff;stroke:#000000;stroke-width:0.5;" x="318.081788739" xlink:href="#mf1e9a9e4ae" y="123.094222731"/>
     <use style="fill:#0000ff;stroke:#000000;stroke-width:0.5;" x="155.23184249" xlink:href="#mf1e9a9e4ae" y="57.4216700813"/>
     <use style="fill:#0000ff;stroke:#000000;stroke-width:0.5;" x="177.119954914" xlink:href="#mf1e9a9e4ae" y="90.8487719832"/>
     <use style="fill:#0000ff;stroke:#000000;stroke-width:0.5;" x="396.525603797" xlink:href="#mf1e9a9e4ae" y="222.814629157"/>
     <use style="fill:#0000ff;stroke:#000000;stroke-width:0.5;" x="151.721462905" xlink:href="#mf1e9a9e4ae" y="54.4328997297"/>
     <use style="fill:#0000ff;stroke:#000000;stroke-width:0.5;" x="324.000367673" xlink:href="#mf1e9a9e4ae" y="117.232476451"/>
     <use style="fill:#0000ff;stroke:#000000;stroke-width:0.5;" x="497.498665667" xlink:href="#mf1e9a9e4ae" y="229.764685249"/>
     <use style="fill:#0000ff;stroke:#000000;stroke-width:0.5;" x="442.506119523" xlink:href="#mf1e9a9e4ae" y="291.956619572"/>
     <use style="fill:#0000ff;stroke:#000000;stroke-width:0.5;" x="171.549782221" xlink:href="#mf1e9a9e4ae" y="80.1332853211"/>
     <use style="fill:#0000ff;stroke:#000000;stroke-width:0.5;" x="284.900542987" xlink:href="#mf1e9a9e4ae" y="180.560191778"/>
     <use style="fill:#0000ff;stroke:#000000;stroke-width:0.5;" x="341.229975223" xlink:href="#mf1e9a9e4ae" y="113.962942827"/>
     <use style="fill:#0000ff;stroke:#000000;stroke-width:0.5;" x="434.538816097" xlink:href="#mf1e9a9e4ae" y="288.921703127"/>
     <use style="fill:#0000ff;stroke:#000000;stroke-width:0.5;" x="134.473421108" xlink:href="#mf1e9a9e4ae" y="49.6415045009"/>
     <use style="fill:#0000ff;stroke:#000000;stroke-width:0.5;" x="72.7741591897" xlink:href="#mf1e9a9e4ae" y="105.239718917"/>
     <use style="fill:#0000ff;stroke:#000000;stroke-width:0.5;" x="95.739627494" xlink:href="#mf1e9a9e4ae" y="81.2474768223"/>
     <use style="fill:#0000ff;stroke:#000000;stroke-width:0.5;" x="281.58620006" xlink:href="#mf1e9a9e4ae" y="186.610261466"/>
     <use style="fill:#0000ff;stroke:#000000;stroke-width:0.5;" x="335.14721422" xlink:href="#mf1e9a9e4ae" y="112.613079823"/>
     <use style="fill:#0000ff;stroke:#000000;stroke-width:0.5;" x="318.417024053" xlink:href="#mf1e9a9e4ae" y="122.705652306"/>
     <use style="fill:#0000ff;stroke:#000000;stroke-width:0.5;" x="206.152322059" xlink:href="#mf1e9a9e4ae" y="158.891142117"/>
     <use style="fill:#0000ff;stroke:#000000;stroke-width:0.5;" x="505.799993867" xlink:href="#mf1e9a9e4ae" y="215.816853546"/>
     <use style="fill:#0000ff;stroke:#000000;stroke-width:0.5;" x="323.280008409" xlink:href="#mf1e9a9e4ae" y="117.828278872"/>
     <use style="fill:#0000ff;stroke:#000000;stroke-width:0.5;" x="234.176761997" xlink:href="#mf1e9a9e4ae" y="210.626204956"/>
     <use style="fill:#0000ff;stroke:#000000;stroke-width:0.5;" x="310.425027552" xlink:href="#mf1e9a9e4ae" y="133.581495761"/>
     <use style="fill:#0000ff;stroke:#000000;stroke-width:0.5;" x="397.199032494" xlink:href="#mf1e9a9e4ae" y="224.521111801"/>
     <use style="fill:#0000ff;stroke:#000000;stroke-width:0.5;" x="363.227306175" xlink:href="#mf1e9a9e4ae" y="141.21077931"/>
     <use style="fill:#0000ff;stroke:#000000;stroke-width:0.5;" x="182.741833078" xlink:href="#mf1e9a9e4ae" y="102.859981841"/>
     <use style="fill:#0000ff;stroke:#000000;stroke-width:0.5;" x="94.0936126266" xlink:href="#mf1e9a9e4ae" y="83.1232518821"/>
     <use style="fill:#0000ff;stroke:#000000;stroke-width:0.5;" x="229.687328487" xlink:href="#mf1e9a9e4ae" y="205.059658972"/>
     <use style="fill:#0000ff;stroke:#000000;stroke-width:0.5;" x="345.587637672" xlink:href="#mf1e9a9e4ae" y="116.652107404"/>
     <use style="fill:#0000ff;stroke:#000000;stroke-width:0.5;" x="158.303420564" xlink:href="#mf1e9a9e4ae" y="60.6062496768"/>
     <use style="fill:#0000ff;stroke:#000000;stroke-width:0.5;" x="400.511821727" xlink:href="#mf1e9a9e4ae" y="232.761777701"/>
     <use style="fill:#0000ff;stroke:#000000;stroke-width:0.5;" x="94.1836278142" xlink:href="#mf1e9a9e4ae" y="83.0207594652"/>
     <use style="fill:#0000ff;stroke:#000000;stroke-width:0.5;" x="180.686402543" xlink:href="#mf1e9a9e4ae" y="98.3459060916"/>
     <use style="fill:#0000ff;stroke:#000000;stroke-width:0.5;" x="423.724179793" xlink:href="#mf1e9a9e4ae" y="278.172792833"/>
     <use style="fill:#0000ff;stroke:#000000;stroke-width:0.5;" x="150.830806301" xlink:href="#mf1e9a9e4ae" y="53.7854396096"/>
     <use style="fill:#0000ff;stroke:#000000;stroke-width:0.5;" x="349.937079763" xlink:href="#mf1e9a9e4ae" y="120.742508213"/>
     <use style="fill:#0000ff;stroke:#000000;stroke-width:0.5;" x="298.694568531" xlink:href="#mf1e9a9e4ae" y="154.106448045"/>
     <use style="fill:#0000ff;stroke:#000000;stroke-width:0.5;" x="477.316020524" xlink:href="#mf1e9a9e4ae" y="263.441555651"/>
     <use style="fill:#0000ff;stroke:#000000;stroke-width:0.5;" x="182.017420883" xlink:href="#mf1e9a9e4ae" y="101.254189559"/>
     <use style="fill:#0000ff;stroke:#000000;stroke-width:0.5;" x="93.9267734191" xlink:href="#mf1e9a9e4ae" y="83.3131755385"/>
     <use style="fill:#0000ff;stroke:#000000;stroke-width:0.5;" x="392.61518855" xlink:href="#mf1e9a9e4ae" y="212.747405115"/>
     <use style="fill:#0000ff;stroke:#000000;stroke-width:0.5;" x="409.182014926" xlink:href="#mf1e9a9e4ae" y="252.674723743"/>
     <use style="fill:#0000ff;stroke:#000000;stroke-width:0.5;" x="469.730739095" xlink:href="#mf1e9a9e4ae" y="274.190009268"/>
     <use style="fill:#0000ff;stroke:#000000;stroke-width:0.5;" x="480.514074227" xlink:href="#mf1e9a9e4ae" y="258.451722334"/>
     <use style="fill:#0000ff;stroke:#000000;stroke-width:0.5;" x="70.7097247141" xlink:href="#mf1e9a9e4ae" y="106.982156013"/>
     <use style="fill:#0000ff;stroke:#000000;stroke-width:0.5;" x="169.100977782" xlink:href="#mf1e9a9e4ae" y="75.8561214502"/>
     <use style="fill:#0000ff;stroke:#000000;stroke-width:0.5;" x="339.811601103" xlink:href="#mf1e9a9e4ae" y="113.397269985"/>
     <use style="fill:#0000ff;stroke:#000000;stroke-width:0.5;" x="488.122628093" xlink:href="#mf1e9a9e4ae" y="245.866636883"/>
    </g>
   </g>
   <g id="patch_3">
    <path d="
M64.4817 26.393
L510.882 26.393" style="fill:none;stroke:#000000;stroke-linecap:square;stroke-linejoin:miter;"/>
   </g>
   <g id="patch_4">
    <path d="
M510.882 305.393
L510.882 26.393" style="fill:none;stroke:#000000;stroke-linecap:square;stroke-linejoin:miter;"/>
   </g>
   <g id="patch_5">
    <path d="
M64.4817 305.393
L510.882 305.393" style="fill:none;stroke:#000000;stroke-linecap:square;stroke-linejoin:miter;"/>
   </g>
   <g id="patch_6">
    <path d="
M64.4817 305.393
L64.4817 26.393" style="fill:none;stroke:#000000;stroke-linecap:square;stroke-linejoin:miter;"/>
   </g>
   <g id="matplotlib.axis_1">
    <g id="xtick_1">
     <g id="line2d_2">
      <defs>
       <path d="
M0 0
L0 -4" id="m93b0483c22" style="stroke:#000000;stroke-width:0.5;"/>
      </defs>
      <g>
       <use style="stroke:#000000;stroke-width:0.5;" x="64.4817425377" xlink:href="#m93b0483c22" y="305.393037705"/>
      </g>
     </g>
     <g id="line2d_3">
      <defs>
       <path d="
M0 0
L0 4" id="m741efc42ff" style="stroke:#000000;stroke-width:0.5;"/>
      </defs>
      <g>
       <use style="stroke:#000000;stroke-width:0.5;" x="64.4817425377" xlink:href="#m741efc42ff" y="26.3930377053"/>
      </g>
     </g>
     <g id="text_1">
      <!-- $0.0$ -->
      <defs>
       <path d="
M42 31.6406
C42 37.75 41.9062 48.125 37.7031 56.1094
C34 63.1094 28.0938 65.5938 22.9062 65.5938
C18.0938 65.5938 12 63.4062 8.20312 56.2031
C4.20312 48.7188 3.79688 39.4375 3.79688 31.6406
C3.79688 25.9531 3.90625 17.2812 7 9.67188
C11.2969 -0.609375 19 -2 22.9062 -2
C27.5 -2 34.5 -0.109375 38.5938 9.375
C41.5938 16.2812 42 24.3594 42 31.6406
M22.9062 -0.40625
C16.5 -0.40625 12.7031 5.07812 11.2969 12.6875
C10.2031 18.5625 10.2031 27.1562 10.2031 32.75
C10.2031 40.4375 10.2031 46.8281 11.5 52.9219
C13.4062 61.3906 19 64 22.9062 64
C27 64 32.2969 61.2969 34.2031 53.125
C35.5 47.4375 35.5938 40.7344 35.5938 32.75
C35.5938 26.25 35.5938 18.2656 34.4062 12.375
C32.2969 1.48438 26.4062 -0.40625 22.9062 -0.40625" id="CMR17-48"/>
       <path d="
M18.4062 4.79688
C18.4062 7.6875 16 9.67188 13.5938 9.67188
C10.7031 9.67188 8.70312 7.28125 8.70312 4.89062
C8.70312 2 11.0938 0 13.5 0
C16.4062 0 18.4062 2.39062 18.4062 4.79688" id="CMMI12-58"/>
      </defs>
      <g transform="translate(54.5099813687 321.22057166)scale(0.16 -0.16)">
       <use transform="scale(0.996264009963)" xlink:href="#CMR17-48"/>
       <use transform="translate(45.6904771171 0.0)scale(0.996264009963)" xlink:href="#CMMI12-58"/>
       <use transform="translate(72.7876542069 0.0)scale(0.996264009963)" xlink:href="#CMR17-48"/>
      </g>
     </g>
    </g>
    <g id="xtick_2">
     <g id="line2d_4">
      <g>
       <use style="stroke:#000000;stroke-width:0.5;" x="153.761742538" xlink:href="#m93b0483c22" y="305.393037705"/>
      </g>
     </g>
     <g id="line2d_5">
      <g>
       <use style="stroke:#000000;stroke-width:0.5;" x="153.761742538" xlink:href="#m741efc42ff" y="26.3930377053"/>
      </g>
     </g>
     <g id="text_2">
      <!-- $0.2$ -->
      <defs>
       <path d="
M41.7031 15.4531
L39.9062 15.4531
C38.9062 8.375 38.0938 7.17188 37.7031 6.5625
C37.2031 5.76562 30 5.76562 28.5938 5.76562
L9.40625 5.76562
C13 9.67188 20 16.75 28.5 24.9531
C34.5938 30.7344 41.7031 37.5312 41.7031 47.4219
C41.7031 59.2188 32.2969 66 21.7969 66
C10.7969 66 4.09375 56.3125 4.09375 47.3438
C4.09375 43.4375 7 42.9375 8.20312 42.9375
C9.20312 42.9375 12.2031 43.5469 12.2031 47.0312
C12.2031 50.1094 9.59375 51 8.20312 51
C7.59375 51 7 50.9062 6.59375 50.7031
C8.5 59.2188 14.2969 63.4062 20.4062 63.4062
C29.0938 63.4062 34.7969 56.5156 34.7969 47.4219
C34.7969 38.7344 29.7031 31.25 24 24.75
L4.09375 2.28125
L4.09375 0
L39.2969 0
z
" id="CMR17-50"/>
      </defs>
      <g transform="translate(143.789981369 321.22057166)scale(0.16 -0.16)">
       <use transform="scale(0.996264009963)" xlink:href="#CMR17-48"/>
       <use transform="translate(45.6904771171 0.0)scale(0.996264009963)" xlink:href="#CMMI12-58"/>
       <use transform="translate(72.7876542069 0.0)scale(0.996264009963)" xlink:href="#CMR17-50"/>
      </g>
     </g>
    </g>
    <g id="xtick_3">
     <g id="line2d_6">
      <g>
       <use style="stroke:#000000;stroke-width:0.5;" x="243.041742538" xlink:href="#m93b0483c22" y="305.393037705"/>
      </g>
     </g>
     <g id="line2d_7">
      <g>
       <use style="stroke:#000000;stroke-width:0.5;" x="243.041742538" xlink:href="#m741efc42ff" y="26.3930377053"/>
      </g>
     </g>
     <g id="text_3">
      <!-- $0.4$ -->
      <defs>
       <path d="
M33.5938 64.3281
C33.5938 66.4062 33.5 66.5 31.7031 66.5
L2 19.5938
L2 17
L27.7969 17
L27.7969 7.14062
C27.7969 3.5 27.5938 2.5 20.5938 2.5
L18.7031 2.5
L18.7031 0
C21.9062 0 27.2969 0 30.7031 0
C34.0938 0 39.5 0 42.7031 0
L42.7031 2.5
L40.7969 2.5
C33.7969 2.5 33.5938 3.5 33.5938 7.14062
L33.5938 17
L43.7969 17
L43.7969 19.5938
L33.5938 19.5938
z

M28.0938 57.7656
L28.0938 19.5938
L4 19.5938
z
" id="CMR17-52"/>
      </defs>
      <g transform="translate(233.069981369 321.22057166)scale(0.16 -0.16)">
       <use transform="scale(0.996264009963)" xlink:href="#CMR17-48"/>
       <use transform="translate(45.6904771171 0.0)scale(0.996264009963)" xlink:href="#CMMI12-58"/>
       <use transform="translate(72.7876542069 0.0)scale(0.996264009963)" xlink:href="#CMR17-52"/>
      </g>
     </g>
    </g>
    <g id="xtick_4">
     <g id="line2d_8">
      <g>
       <use style="stroke:#000000;stroke-width:0.5;" x="332.321742538" xlink:href="#m93b0483c22" y="305.393037705"/>
      </g>
     </g>
     <g id="line2d_9">
      <g>
       <use style="stroke:#000000;stroke-width:0.5;" x="332.321742538" xlink:href="#m741efc42ff" y="26.3930377053"/>
      </g>
     </g>
     <g id="text_4">
      <!-- $0.6$ -->
      <defs>
       <path d="
M10.5938 34
C10.5938 57.6562 21.7969 63 28.2969 63
C30.4062 63 35.5 62.6406 37.5 59
C35.9062 59 32.9062 59 32.9062 55.5156
C32.9062 52.8281 35.0938 51.9219 36.5 51.9219
C37.4062 51.9219 40.0938 52.3125 40.0938 55.625
C40.0938 61.7812 35.0938 65.2969 28.2031 65.2969
C16.2969 65.2969 3.79688 52.9688 3.79688 31
C3.79688 3.95312 15.0938 -2 23.0938 -2
C32.7969 -2 42 6.67188 42 20.0469
C42 32.5156 33.9062 41.5938 23.7031 41.5938
C17.5938 41.5938 13.0938 37.6094 10.5938 30.625
z

M23.0938 0.390625
C10.7969 0.390625 10.7969 18.75 10.7969 22.4375
C10.7969 29.625 14.2031 40 23.5 40
C25.2031 40 30.0938 40 33.4062 33.125
C35.2031 29.2188 35.2031 25.1406 35.2031 20.1406
C35.2031 14.75 35.2031 10.7812 33.0938 6.78125
C30.9062 2.67188 27.7031 0.390625 23.0938 0.390625" id="CMR17-54"/>
      </defs>
      <g transform="translate(322.349981369 321.22057166)scale(0.16 -0.16)">
       <use transform="scale(0.996264009963)" xlink:href="#CMR17-48"/>
       <use transform="translate(45.6904771171 0.0)scale(0.996264009963)" xlink:href="#CMMI12-58"/>
       <use transform="translate(72.7876542069 0.0)scale(0.996264009963)" xlink:href="#CMR17-54"/>
      </g>
     </g>
    </g>
    <g id="xtick_5">
     <g id="line2d_10">
      <g>
       <use style="stroke:#000000;stroke-width:0.5;" x="421.601742538" xlink:href="#m93b0483c22" y="305.393037705"/>
      </g>
     </g>
     <g id="line2d_11">
      <g>
       <use style="stroke:#000000;stroke-width:0.5;" x="421.601742538" xlink:href="#m741efc42ff" y="26.3930377053"/>
      </g>
     </g>
     <g id="text_5">
      <!-- $0.8$ -->
      <defs>
       <path d="
M27.2031 35.375
C33.5 38.5625 39.9062 43.3281 39.9062 50.9844
C39.9062 60.0312 31.0938 65.2969 23 65.2969
C13.9062 65.2969 5.90625 58.7344 5.90625 49.6875
C5.90625 47.2031 6.5 42.9219 10.4062 39.1406
C11.4062 38.1562 15.5938 35.1719 18.2969 33.2812
C13.7969 30.9844 3.29688 25.5312 3.29688 14.5938
C3.29688 4.35938 13.0938 -2 22.7969 -2
C33.5 -2 42.5 5.65625 42.5 15.7969
C42.5 24.8438 36.4062 29.0312 32.4062 31.7031
z

M14.0938 44.125
C13.2969 44.625 9.29688 47.7031 9.29688 52.375
C9.29688 58.4375 15.5938 63 22.7969 63
C30.7031 63 36.5 57.4531 36.5 50.9844
C36.5 41.7344 26.0938 36.4688 25.5938 36.4688
C25.5 36.4688 25.4062 36.4688 24.5938 37.0781
z

M32.5 23.7344
C34 22.6406 38.7969 19.375 38.7969 13.2969
C38.7969 5.95312 31.4062 0.390625 23 0.390625
C13.9062 0.390625 7 6.84375 7 14.6875
C7 22.5469 13.0938 29.0938 20 32.1875
z
" id="CMR17-56"/>
      </defs>
      <g transform="translate(411.629981369 321.22057166)scale(0.16 -0.16)">
       <use transform="scale(0.996264009963)" xlink:href="#CMR17-48"/>
       <use transform="translate(45.6904771171 0.0)scale(0.996264009963)" xlink:href="#CMMI12-58"/>
       <use transform="translate(72.7876542069 0.0)scale(0.996264009963)" xlink:href="#CMR17-56"/>
      </g>
     </g>
    </g>
    <g id="xtick_6">
     <g id="line2d_12">
      <g>
       <use style="stroke:#000000;stroke-width:0.5;" x="510.881742538" xlink:href="#m93b0483c22" y="305.393037705"/>
      </g>
     </g>
     <g id="line2d_13">
      <g>
       <use style="stroke:#000000;stroke-width:0.5;" x="510.881742538" xlink:href="#m741efc42ff" y="26.3930377053"/>
      </g>
     </g>
     <g id="text_6">
      <!-- $1.0$ -->
      <defs>
       <path d="
M26.5938 63.3125
C26.5938 65.4062 26.5 65.5 25.0938 65.5
C21.2031 61.1875 15.2969 59.7969 9.70312 59.7969
C9.40625 59.7969 8.90625 59.7969 8.79688 59.6094
C8.70312 59.3906 8.70312 59.1719 8.70312 57
C11.7969 57 17 57.5938 21 59.9844
L21 7.20312
C21 3.6875 20.7969 2.5 12.2031 2.5
L9.20312 2.5
L9.20312 0
C14 0 19 0 23.7969 0
C28.5938 0 33.5938 0 38.4062 0
L38.4062 2.5
L35.4062 2.5
C26.7969 2.5 26.5938 3.59375 26.5938 7.15625
z
" id="CMR17-49"/>
      </defs>
      <g transform="translate(500.909981369 321.22057166)scale(0.16 -0.16)">
       <use transform="scale(0.996264009963)" xlink:href="#CMR17-49"/>
       <use transform="translate(45.6904771171 0.0)scale(0.996264009963)" xlink:href="#CMMI12-58"/>
       <use transform="translate(72.7876542069 0.0)scale(0.996264009963)" xlink:href="#CMR17-48"/>
      </g>
     </g>
    </g>
    <g id="text_7">
     <!-- $x$ -->
     <defs>
      <path d="
M47.4062 40.7188
C44.2031 40.1094 43 37.7188 43 35.8281
C43 33.4219 44.9062 32.625 46.2969 32.625
C49.2969 32.625 51.4062 35.2188 51.4062 37.9219
C51.4062 42.1094 46.5938 44 42.4062 44
C36.2969 44 32.9062 38.0156 32 36.125
C29.7031 44 23.5 44 21.7031 44
C11.5 44 6.09375 30.9375 6.09375 28.7344
C6.09375 28.3438 6.5 27.8438 7.20312 27.8438
C8 27.8438 8.20312 28.4375 8.40625 28.8438
C11.7969 39.9219 18.5 42.0156 21.4062 42.0156
C25.9062 42.0156 26.7969 37.8125 26.7969 35.4219
C26.7969 33.2344 26.2031 30.9375 25 26.1406
L21.5938 12.4688
C20.0938 6.48438 17.2031 1 11.9062 1
C11.4062 1 8.90625 1 6.79688 2.29688
C10.4062 3 11.2031 5.98438 11.2031 7.1875
C11.2031 9.1875 9.70312 10.375 7.79688 10.375
C5.40625 10.375 2.79688 8.28125 2.79688 5.09375
C2.79688 0.890625 7.5 -1 11.7969 -1
C16.5938 -1 20 2.79688 22.0938 6.89062
C23.7031 1 28.7031 -1 32.4062 -1
C42.5938 -1 48 12.0781 48 14.2656
C48 14.7656 47.5938 15.1719 47 15.1719
C46.0938 15.1719 46 14.6719 45.7031 13.875
C43 5.09375 37.2031 1 32.7031 1
C29.2031 1 27.2969 3.59375 27.2969 7.6875
C27.2969 9.875 27.7031 11.4688 29.2969 18.0625
L32.7969 31.625
C34.2969 37.625 37.7031 42.0156 42.2969 42.0156
C42.5 42.0156 45.2969 42.0156 47.4062 40.7188" id="CMMI12-120"/>
     </defs>
     <g transform="translate(283.247017775 341.076695911)scale(0.16 -0.16)">
      <use transform="scale(0.996264009963)" xlink:href="#CMMI12-120"/>
     </g>
    </g>
   </g>
   <g id="matplotlib.axis_2">
    <g id="ytick_1">
     <g id="line2d_14">
      <defs>
       <path d="
M0 0
L4 0" id="m728421d6d4" style="stroke:#000000;stroke-width:0.5;"/>
      </defs>
      <g>
       <use style="stroke:#000000;stroke-width:0.5;" x="64.4817425377" xlink:href="#m728421d6d4" y="305.393037705"/>
      </g>
     </g>
     <g id="line2d_15">
      <defs>
       <path d="
M0 0
L-4 0" id="mcb0005524f" style="stroke:#000000;stroke-width:0.5;"/>
      </defs>
      <g>
       <use style="stroke:#000000;stroke-width:0.5;" x="510.881742538" xlink:href="#mcb0005524f" y="305.393037705"/>
      </g>
     </g>
     <g id="text_8">
      <!-- $-2.5$ -->
      <defs>
       <path d="
M65.9062 23
C67.5938 23 69.4062 23 69.4062 25
C69.4062 27 67.5938 27 65.9062 27
L11.7969 27
C10.0938 27 8.29688 27 8.29688 25
C8.29688 23 10.0938 23 11.7969 23
z
" id="CMSY10-0"/>
       <path d="
M11.4062 57.6875
C12.4062 57.2812 16.5 56 20.7031 56
C30 56 35.0938 61.0156 38 63.9219
C38 64.7344 38 65.25 37.4062 65.25
C37.2969 65.25 37.0938 65.25 36.2969 64.8281
C32.7969 63.3125 28.7031 62.0781 23.7031 62.0781
C20.7031 62.0781 16.2031 62.5 11.2969 64.7344
C10.2031 65.25 10 65.25 9.90625 65.25
C9.40625 65.25 9.29688 65.1406 9.29688 63.1562
L9.29688 34.2812
C9.29688 32.5 9.29688 32 10.2969 32
C10.7969 32 11 32.2031 11.5 32.9062
C14.7031 37.4844 19.0938 39.4062 24.0938 39.4062
C27.5938 39.4062 35.0938 37.2188 35.0938 20.1406
C35.0938 16.9531 35.0938 11.1719 32.0938 6.57812
C29.5938 2.48438 25.7031 0.390625 21.4062 0.390625
C14.7969 0.390625 8.09375 5 6.29688 12.7188
C6.70312 12.6094 7.5 12.4219 7.90625 12.4219
C9.20312 12.4219 11.7031 13.125 11.7031 16.2188
C11.7031 18.9062 9.79688 20 7.90625 20
C5.59375 20 4.09375 18.5938 4.09375 15.7969
C4.09375 7.09375 11 -2 21.5938 -2
C31.9062 -2 41.7031 6.875 41.7031 19.75
C41.7031 31.7188 33.9062 41 24.2031 41
C19.0938 41 14.7969 39.0938 11.4062 35.4531
z
" id="CMR17-53"/>
      </defs>
      <g transform="translate(28.1402241594 309.792509535)scale(0.16 -0.16)">
       <use transform="scale(0.996264009963)" xlink:href="#CMSY10-0"/>
       <use transform="translate(77.4874676506 0.0)scale(0.996264009963)" xlink:href="#CMR17-50"/>
       <use transform="translate(123.177944768 0.0)scale(0.996264009963)" xlink:href="#CMMI12-58"/>
       <use transform="translate(150.275121857 0.0)scale(0.996264009963)" xlink:href="#CMR17-53"/>
      </g>
     </g>
    </g>
    <g id="ytick_2">
     <g id="line2d_16">
      <g>
       <use style="stroke:#000000;stroke-width:0.5;" x="64.4817425377" xlink:href="#m728421d6d4" y="274.393037705"/>
      </g>
     </g>
     <g id="line2d_17">
      <g>
       <use style="stroke:#000000;stroke-width:0.5;" x="510.881742538" xlink:href="#mcb0005524f" y="274.393037705"/>
      </g>
     </g>
     <g id="text_9">
      <!-- $-2.0$ -->
      <g transform="translate(28.1402241594 278.792509535)scale(0.16 -0.16)">
       <use transform="scale(0.996264009963)" xlink:href="#CMSY10-0"/>
       <use transform="translate(77.4874676506 0.0)scale(0.996264009963)" xlink:href="#CMR17-50"/>
       <use transform="translate(123.177944768 0.0)scale(0.996264009963)" xlink:href="#CMMI12-58"/>
       <use transform="translate(150.275121857 0.0)scale(0.996264009963)" xlink:href="#CMR17-48"/>
      </g>
     </g>
    </g>
    <g id="ytick_3">
     <g id="line2d_18">
      <g>
       <use style="stroke:#000000;stroke-width:0.5;" x="64.4817425377" xlink:href="#m728421d6d4" y="243.393037705"/>
      </g>
     </g>
     <g id="line2d_19">
      <g>
       <use style="stroke:#000000;stroke-width:0.5;" x="510.881742538" xlink:href="#mcb0005524f" y="243.393037705"/>
      </g>
     </g>
     <g id="text_10">
      <!-- $-1.5$ -->
      <g transform="translate(28.1402241594 247.792509535)scale(0.16 -0.16)">
       <use transform="scale(0.996264009963)" xlink:href="#CMSY10-0"/>
       <use transform="translate(77.4874676506 0.0)scale(0.996264009963)" xlink:href="#CMR17-49"/>
       <use transform="translate(123.177944768 0.0)scale(0.996264009963)" xlink:href="#CMMI12-58"/>
       <use transform="translate(150.275121857 0.0)scale(0.996264009963)" xlink:href="#CMR17-53"/>
      </g>
     </g>
    </g>
    <g id="ytick_4">
     <g id="line2d_20">
      <g>
       <use style="stroke:#000000;stroke-width:0.5;" x="64.4817425377" xlink:href="#m728421d6d4" y="212.393037705"/>
      </g>
     </g>
     <g id="line2d_21">
      <g>
       <use style="stroke:#000000;stroke-width:0.5;" x="510.881742538" xlink:href="#mcb0005524f" y="212.393037705"/>
      </g>
     </g>
     <g id="text_11">
      <!-- $-1.0$ -->
      <g transform="translate(28.1402241594 216.792509535)scale(0.16 -0.16)">
       <use transform="scale(0.996264009963)" xlink:href="#CMSY10-0"/>
       <use transform="translate(77.4874676506 0.0)scale(0.996264009963)" xlink:href="#CMR17-49"/>
       <use transform="translate(123.177944768 0.0)scale(0.996264009963)" xlink:href="#CMMI12-58"/>
       <use transform="translate(150.275121857 0.0)scale(0.996264009963)" xlink:href="#CMR17-48"/>
      </g>
     </g>
    </g>
    <g id="ytick_5">
     <g id="line2d_22">
      <g>
       <use style="stroke:#000000;stroke-width:0.5;" x="64.4817425377" xlink:href="#m728421d6d4" y="181.393037705"/>
      </g>
     </g>
     <g id="line2d_23">
      <g>
       <use style="stroke:#000000;stroke-width:0.5;" x="510.881742538" xlink:href="#mcb0005524f" y="181.393037705"/>
      </g>
     </g>
     <g id="text_12">
      <!-- $-0.5$ -->
      <g transform="translate(28.1402241594 185.792509535)scale(0.16 -0.16)">
       <use transform="scale(0.996264009963)" xlink:href="#CMSY10-0"/>
       <use transform="translate(77.4874676506 0.0)scale(0.996264009963)" xlink:href="#CMR17-48"/>
       <use transform="translate(123.177944768 0.0)scale(0.996264009963)" xlink:href="#CMMI12-58"/>
       <use transform="translate(150.275121857 0.0)scale(0.996264009963)" xlink:href="#CMR17-53"/>
      </g>
     </g>
    </g>
    <g id="ytick_6">
     <g id="line2d_24">
      <g>
       <use style="stroke:#000000;stroke-width:0.5;" x="64.4817425377" xlink:href="#m728421d6d4" y="150.393037705"/>
      </g>
     </g>
     <g id="line2d_25">
      <g>
       <use style="stroke:#000000;stroke-width:0.5;" x="510.881742538" xlink:href="#mcb0005524f" y="150.393037705"/>
      </g>
     </g>
     <g id="text_13">
      <!-- $0.0$ -->
      <g transform="translate(40.5382201996 154.792509535)scale(0.16 -0.16)">
       <use transform="scale(0.996264009963)" xlink:href="#CMR17-48"/>
       <use transform="translate(45.6904771171 0.0)scale(0.996264009963)" xlink:href="#CMMI12-58"/>
       <use transform="translate(72.7876542069 0.0)scale(0.996264009963)" xlink:href="#CMR17-48"/>
      </g>
     </g>
    </g>
    <g id="ytick_7">
     <g id="line2d_26">
      <g>
       <use style="stroke:#000000;stroke-width:0.5;" x="64.4817425377" xlink:href="#m728421d6d4" y="119.393037705"/>
      </g>
     </g>
     <g id="line2d_27">
      <g>
       <use style="stroke:#000000;stroke-width:0.5;" x="510.881742538" xlink:href="#mcb0005524f" y="119.393037705"/>
      </g>
     </g>
     <g id="text_14">
      <!-- $0.5$ -->
      <g transform="translate(40.5382201996 123.792509535)scale(0.16 -0.16)">
       <use transform="scale(0.996264009963)" xlink:href="#CMR17-48"/>
       <use transform="translate(45.6904771171 0.0)scale(0.996264009963)" xlink:href="#CMMI12-58"/>
       <use transform="translate(72.7876542069 0.0)scale(0.996264009963)" xlink:href="#CMR17-53"/>
      </g>
     </g>
    </g>
    <g id="ytick_8">
     <g id="line2d_28">
      <g>
       <use style="stroke:#000000;stroke-width:0.5;" x="64.4817425377" xlink:href="#m728421d6d4" y="88.3930377053"/>
      </g>
     </g>
     <g id="line2d_29">
      <g>
       <use style="stroke:#000000;stroke-width:0.5;" x="510.881742538" xlink:href="#mcb0005524f" y="88.3930377053"/>
      </g>
     </g>
     <g id="text_15">
      <!-- $1.0$ -->
      <g transform="translate(40.5382201996 92.7925095346)scale(0.16 -0.16)">
       <use transform="scale(0.996264009963)" xlink:href="#CMR17-49"/>
       <use transform="translate(45.6904771171 0.0)scale(0.996264009963)" xlink:href="#CMMI12-58"/>
       <use transform="translate(72.7876542069 0.0)scale(0.996264009963)" xlink:href="#CMR17-48"/>
      </g>
     </g>
    </g>
    <g id="ytick_9">
     <g id="line2d_30">
      <g>
       <use style="stroke:#000000;stroke-width:0.5;" x="64.4817425377" xlink:href="#m728421d6d4" y="57.3930377053"/>
      </g>
     </g>
     <g id="line2d_31">
      <g>
       <use style="stroke:#000000;stroke-width:0.5;" x="510.881742538" xlink:href="#mcb0005524f" y="57.3930377053"/>
      </g>
     </g>
     <g id="text_16">
      <!-- $1.5$ -->
      <g transform="translate(40.5382201996 61.7925095346)scale(0.16 -0.16)">
       <use transform="scale(0.996264009963)" xlink:href="#CMR17-49"/>
       <use transform="translate(45.6904771171 0.0)scale(0.996264009963)" xlink:href="#CMMI12-58"/>
       <use transform="translate(72.7876542069 0.0)scale(0.996264009963)" xlink:href="#CMR17-53"/>
      </g>
     </g>
    </g>
    <g id="ytick_10">
     <g id="line2d_32">
      <g>
       <use style="stroke:#000000;stroke-width:0.5;" x="64.4817425377" xlink:href="#m728421d6d4" y="26.3930377053"/>
      </g>
     </g>
     <g id="line2d_33">
      <g>
       <use style="stroke:#000000;stroke-width:0.5;" x="510.881742538" xlink:href="#mcb0005524f" y="26.3930377053"/>
      </g>
     </g>
     <g id="text_17">
      <!-- $2.0$ -->
      <g transform="translate(40.5382201996 30.7925095346)scale(0.16 -0.16)">
       <use transform="scale(0.996264009963)" xlink:href="#CMR17-50"/>
       <use transform="translate(45.6904771171 0.0)scale(0.996264009963)" xlink:href="#CMMI12-58"/>
       <use transform="translate(72.7876542069 0.0)scale(0.996264009963)" xlink:href="#CMR17-48"/>
      </g>
     </g>
    </g>
    <g id="text_18">
     <!-- $f(x)$ -->
     <defs>
      <path d="
M44.5938 40.0938
C46.5938 40.0938 47.4062 40.0938 47.4062 42
C47.4062 43 46.5938 43 44.7969 43
L36.7031 43
C38.5938 53.5781 40 60.8906 40.7969 64.1719
C41.4062 66.6406 43.5 69 46.0938 69
C48.2031 69 50.2969 68.0938 51.2969 67.1562
C47.4062 66.75 46.2031 63.7812 46.2031 62.0156
C46.2031 59.9531 47.7031 58.7344 49.5938 58.7344
C51.5938 58.7344 54.5938 60.4688 54.5938 64.3594
C54.5938 68.6406 50.4062 71 46 71
C41.7031 71 37.5 67.7188 35.5 63.7188
C33.7031 60.125 32.7031 56.4375 30.4062 43
L23.7031 43
C21.7969 43 20.7969 43 20.7969 41.2031
C20.7969 40.0938 21.4062 40.0938 23.4062 40.0938
L29.7969 40.0938
C28 30.875 23.9062 8.46875 21.5938 -2.14062
C19.9062 -10.7656 18.4062 -18 13.4062 -18
C13.0938 -18 10.2031 -18 8.40625 -16.1094
C13.5 -15.7031 13.5 -11.3438 13.5 -11.25
C13.5 -9.26562 12 -8.07812 10.0938 -8.07812
C8.09375 -8.07812 5.09375 -9.76562 5.09375 -13.5469
C5.09375 -17.8125 9.5 -20 13.4062 -20
C23.5938 -20 27.7969 -1.84375 28.9062 3.10938
C30.7031 10.75 35.5938 37.125 36.0938 40.0938
z
" id="CMMI12-102"/>
      <path d="
M26.2969 24.6719
C26.2969 31.8438 25.5938 43.9844 19.5938 56.8281
C14.7969 67.1875 6.59375 74.4531 5.40625 74.4531
C5.09375 74.4531 4.70312 74.3438 4.70312 73.8594
C4.70312 73.6719 4.79688 73.5625 4.90625 73.3594
C9.70312 68.3906 21.9062 55.75 21.9062 24.7969
C21.9062 -6.28125 9.79688 -18.9219 4.90625 -23.9062
C4.79688 -24.0938 4.70312 -24.2031 4.70312 -24.3906
C4.70312 -24.8906 5.09375 -25 5.40625 -25
C6.5 -25 15 -17.625 19.9062 -6.67188
C24.9062 4.375 26.2969 15.125 26.2969 24.6719" id="CMR17-41"/>
      <path d="
M30.5938 -24.4062
C30.5938 -24.3125 30.5938 -24.1094 30.2969 -23.8125
C25.7031 -19.1406 13.4062 -6.39062 13.4062 24.6719
C13.4062 55.75 25.5 68.3906 30.4062 73.3594
C30.4062 73.4688 30.5938 73.6719 30.5938 73.9531
C30.5938 74.25 30.2969 74.4531 29.9062 74.4531
C28.7969 74.4531 20.2969 67.0781 15.4062 56.125
C10.4062 45.0781 9 34.3281 9 24.7812
C9 17.6094 9.70312 5.46875 15.7031 -7.375
C20.5 -17.7344 28.7031 -25 29.9062 -25
C30.4062 -25 30.5938 -24.7969 30.5938 -24.4062" id="CMR17-40"/>
     </defs>
     <g transform="translate(19.1551681196 181.095154523)rotate(-90.0)scale(0.16 -0.16)">
      <use transform="scale(0.996264009963)" xlink:href="#CMMI12-102"/>
      <use transform="translate(58.7203048383 0.0)scale(0.996264009963)" xlink:href="#CMR17-40"/>
      <use transform="translate(94.0010726378 0.0)scale(0.996264009963)" xlink:href="#CMMI12-120"/>
      <use transform="translate(149.43513217 0.0)scale(0.996264009963)" xlink:href="#CMR17-41"/>
     </g>
    </g>
   </g>
   <g id="text_19">
    <!-- latent function values -->
    <defs>
     <path d="
M19.4062 47
L19.4062 67
L15.2969 67
C14.2969 53.875 9.90625 47.1875 1.79688 46.5938
L1.79688 42.7031
L10 42.7031
L10 17.2656
C10 10.2812 10.2031 7.78125 11.2031 5.48438
C12.7969 1.29688 16.7969 -1 22.5938 -1
C26.5 -1 29.9062 0.203125 32.2031 2.39062
C35.5 5.59375 37.4062 10.875 37.4062 16.375
C37.4062 16.9688 37.4062 17.6719 37.2969 18.6719
L33.0938 18.6719
C32.7969 9.6875 30.2031 5.09375 25.2969 5.09375
C23 5.09375 21 6.28125 20.2969 7.98438
C19.7031 9.375 19.4062 11.875 19.4062 15.4688
L19.4062 42.7031
L34.0938 42.7031
L34.0938 47
z
" id="Century_Schoolbook_L_Roman-116"/>
     <path d="
M46.5 23
C46.5938 37.8125 38.0938 48.2812 25.9062 48.2812
C13.0938 48.2812 3.5 37.25 3.5 22.3438
C3.5 8.4375 12.5938 -1 26.0938 -1
C35.5938 -1 42.4062 3.6875 46.5 13.1875
L43 15.0938
C38.9062 7.39062 34.7031 4.39062 28 4.39062
C22.9062 4.39062 19.2031 6.59375 16.5938 11
C14.7969 14 14 17.5 14.0938 23
z

M14.2031 27.2969
C14.2031 30.3438 14.5938 32.5 15.5938 35.25
C17.7031 41.1406 20.9062 44 25.7031 44
C31.7969 44 35.7969 38.7812 35.7969 30.9219
C35.7969 28.0781 34.9062 27.2969 31.7031 27.2969
z
" id="Century_Schoolbook_L_Roman-101"/>
     <path d="
M20.0938 46.2969
L20.0938 52.1406
C20.0938 57.2656 20.4062 60.6562 21.2031 62.7188
C22.7969 67.2344 26.2969 70 30.2969 70
C32.4062 70 33.7031 69.3906 33.7031 68.2656
C33.7031 67.9375 33.5938 67.75 33.0938 66.9219
C32.5 65.9062 32.2031 64.7656 32.2031 63.6406
C32.2031 60.5469 34.5938 58.2031 37.7031 58.2031
C41 58.2031 43.2969 60.7344 43.2969 64.4062
C43.2969 70.3281 38.2969 74 30.2031 74
C23.2969 74 18.2969 71.5312 14.7031 66.4375
C11.7031 62.1406 10.7031 57.7344 10.7031 49.4688
L10.7031 46.2969
L1.90625 46.2969
L1.90625 42
L10.7031 42
L10.7031 12.2344
L10.7031 8.25
C10.7031 4.29688 9.59375 3.59375 3.20312 3.59375
L2.79688 3.59375
L2.79688 0
L29.5 0
L29.5 3.59375
L27.7031 3.59375
C21.2031 3.59375 20.0938 4.29688 20.0938 8.25
L20.0938 12.2344
L20.0938 42
L31.0938 42
L31.0938 46.2969
z
" id="Century_Schoolbook_L_Roman-102"/>
     <path d="
M20.5938 46
L1.79688 46
L1.79688 41.2188
L6.90625 41.2188
C10.5938 41.2188 11.2031 40.5156 11.2031 36.2031
L11.2031 12.2969
L11.2031 8.29688
C11.2031 4.29688 10.0938 3.59375 3.70312 3.59375
L3 3.59375
L3 0
L28.9062 0
L28.9062 3.59375
L28.2031 3.59375
C21.7031 3.59375 20.5938 4.28125 20.5938 8.21875
L20.5938 12.1719
z

M15.9062 71.5781
C12.7031 71.5781 10.0938 68.9844 10.0938 65.7969
C10.0938 62.7031 12.7031 60 15.7969 60
C19.0938 60 21.7031 62.5938 21.7031 65.7969
C21.7031 68.9844 19.0938 71.5781 15.9062 71.5781" id="Century_Schoolbook_L_Roman-105"/>
     <path d="
M38.7031 15.1094
C35.5 7.96875 32.0938 5.09375 26.9062 5.09375
C18.9062 5.09375 13.9062 12.3281 13.9062 23.9375
C13.9062 35.9531 18.7969 44 26.2031 44
C29.2031 44 31.7969 42.5938 31.7969 41.0156
C31.7969 40.7188 31.5938 40.4219 31.2031 39.8125
C29.5938 37.9375 29.2031 36.9375 29.2031 35.2656
C29.2031 31.9844 31.7031 29.7031 35.2031 29.7031
C38.7031 29.7031 41.2969 32.4844 41.2969 36.4531
C41.2969 43.1094 34.5938 48.2812 25.7031 48.2812
C12.7031 48.2812 3.40625 37.6562 3.40625 22.8438
C3.40625 8.73438 11.9062 -1 24.2969 -1
C33.2031 -1 38.2969 3.07812 42.5938 13.625
z
" id="Century_Schoolbook_L_Roman-99"/>
     <path d="
M20 46
L2.70312 46
L2.70312 41.2188
L6.29688 41.2188
C10 41.2188 10.5938 40.5156 10.5938 36.2031
L10.5938 12.2969
L10.5938 8.29688
C10.5938 4.29688 9.5 3.59375 3.09375 3.59375
L2.70312 3.59375
L2.70312 0
L28 0
L28 3.59375
L27.5938 3.59375
C21.0938 3.59375 20 4.29688 20 8.28125
L20 12.2812
L20 22.6562
C20 27.5469 20.7031 32.0312 21.7969 34.3281
C23.9062 38.8281 28.4062 41.9219 32.7031 41.9219
C35.2969 41.9219 38.2969 40.4219 39.7969 38.4219
C41.2969 36.3281 42 33.2344 42 28.4375
L42 12.2812
L42 8.28125
C42 4.29688 40.9062 3.59375 34.4062 3.59375
L34 3.59375
L34 0
L59.2969 0
L59.2969 3.59375
L58.9062 3.59375
C52.5 3.59375 51.4062 4.29688 51.4062 8.28125
L51.4062 12.2812
L51.4062 27.9531
C51.4062 35.125 51.0938 36.9219 49.2969 40.3281
C46.7969 45.1094 41.7031 48 35.7969 48
C29.4062 48 24.4062 45.0469 20 38.5156
z
" id="Century_Schoolbook_L_Roman-110"/>
     <path d="
M41.2031 0
L59.4062 0
L59.4062 4.70312
L56.9062 4.70312
C51.4062 4.70312 50.5938 5.59375 50.5938 11.9531
L50.5938 46.7812
L31.7969 46.7812
L31.7969 42
L36.9062 42
C40.5938 42 41.2031 41.2969 41.2031 36.9531
L41.2031 24.5625
C41.2031 18.8125 40.5938 15.4844 39.0938 12.1562
C37 7.71875 33 5.09375 28.0938 5.09375
C25 5.09375 22.4062 6.1875 21.0938 8.17188
C19.7969 10.0469 19.5938 11.0469 19.5938 16.5
L19.5938 46.7812
L2.09375 46.7812
L2.09375 42
L5.90625 42
C9.59375 42 10.2031 41.2969 10.2031 36.9531
L10.2031 15.2188
C10.2031 10.0781 10.5938 7.76562 12.0938 5.45312
C14.7969 1.3125 19.5938 -1 25.5938 -1
C32.2031 -1 36.7969 1.71875 41.2031 8.125
z
" id="Century_Schoolbook_L_Roman-117"/>
     <path d="
M20.4062 73
L1.90625 73
L1.90625 68.2188
L6.79688 68.2188
C10.4062 68.2188 11 67.5156 11 63.2188
L11 12.2812
L11 8.28125
C11 4.29688 9.90625 3.59375 3.5 3.59375
L2.79688 3.59375
L2.79688 0
L28.7031 0
L28.7031 3.59375
L28 3.59375
C21.5 3.59375 20.4062 4.29688 20.4062 8.25
L20.4062 12.2188
z
" id="Century_Schoolbook_L_Roman-108"/>
     <path d="
M45.2031 32.5781
C45.2031 38.7969 44.0938 41.9688 41.2031 44.3438
C37.9062 46.9062 33 48.2812 26.5938 48.2812
C15.4062 48.2812 7.09375 43.0469 7.09375 35.9219
C7.09375 32.1562 9.40625 29.7812 12.9062 29.7812
C16 29.7812 18.2969 31.8594 18.2969 34.8125
C18.2969 36.1094 17.7969 37.4844 16.7969 38.875
C16.2031 39.5469 16.0938 39.8438 16.0938 40.1562
C16.0938 42.2188 20.2031 44 25 44
C28.0938 44 31.5938 43.0156 33.2031 41.5312
C35.0938 39.9531 35.7969 37.5781 35.7969 33.125
L35.7969 29.2812
C25.2969 27.4844 22.0938 26.6875 17.2031 24.8125
C8.59375 21.6094 4.40625 16.9375 4.40625 10.6562
C4.40625 3.57812 10.0938 -1 18.9062 -1
C25.7969 -1 32 1.85938 36.2969 7.0625
C37.9062 1.98438 40.4062 0 45.0938 0
C49.5938 0 54.2969 2.90625 54.2969 5.78125
C54.2969 6.46875 53.7969 6.96875 53.2969 6.96875
C52.9062 6.96875 52.5 6.875 51.7969 6.57812
C50.2031 6 49.7969 5.89062 49 5.89062
C46.2031 5.89062 45.2031 7.78125 45.2031 12.7188
z

M35.7969 20.4688
C35.7969 14.4688 35.5 13.0781 33.7969 10.4844
C31.2969 6.78125 26.7031 4.29688 22.4062 4.29688
C17.9062 4.29688 14.5 7.59375 14.5 12.0781
C14.5 16.2656 16.5938 19.2656 21 21.3594
C24.0938 22.75 28 23.75 35.7969 25.0469
z
" id="Century_Schoolbook_L_Roman-97"/>
     <path d="
M25.2031 48.2812
C13 48.2812 3.40625 37.4531 3.40625 23.5469
C3.40625 9.9375 13 -1 25 -1
C37 -1 46.5938 9.9375 46.5938 23.6406
C46.5938 37.25 37 48.2812 25.2031 48.2812
M25.2031 44
C32.2031 44 36.0938 36.7344 36.0938 23.6406
C36.0938 10.4531 32.2031 3.29688 25 3.29688
C17.7969 3.29688 13.9062 10.4531 13.9062 23.5469
C13.9062 37.0469 17.7031 44 25.2031 44" id="Century_Schoolbook_L_Roman-111"/>
     <path d="
M29.5 12.0938
L18.0938 38.5938
C17.7969 39.2031 17.5938 40.0938 17.5938 40.7031
C17.5938 42.3906 18.9062 43 23 43
L24.4062 43
L24.4062 46.5938
L0.796875 46.5938
L0.796875 43
L1.59375 43
C5.40625 43 6.79688 42.0938 8.20312 38.7031
L25.4062 -1.5
L28.9062 -1.5
L43.0938 33.5938
C45.7969 40.2031 48.5938 43 52.4062 43
L52.7969 43
L52.7969 46.5938
L32.7969 46.5938
L32.7969 43
L34.2031 43
C37.7031 43 39.5938 41.7969 39.5938 39.5
C39.5938 38.3906 39.2031 36.7969 38.7031 35.2969
z
" id="Century_Schoolbook_L_Roman-118"/>
     <path d="
M39 48
L35.5 48
L32.5938 44.4062
C29 47.2031 25.4062 48.3906 20.4062 48.3906
C11.5938 48.3906 5.79688 42.625 5.79688 33.9531
C5.79688 30.0781 7.09375 26.7812 9.29688 24.8125
C11.5938 22.7031 13.9062 21.7188 19.9062 20.3125
L25.2031 19.125
C33.0938 17.2344 35.9062 15.2344 35.9062 11.2656
C35.9062 6.57812 31.7969 3.29688 25.9062 3.29688
C17.5 3.29688 11.5 8.76562 9.09375 18.875
L5.09375 18.875
L5.09375 0
L8.59375 0
L12.0938 3.90625
C16.2031 0.59375 20.7969 -1 25.7969 -1
C35.5938 -1 42.0938 5.07812 42.0938 14.3438
C42.0938 18.7188 40.7031 22.0938 37.9062 24.3906
C35.5 26.4844 33.5 27.2812 27.4062 28.5625
L22.4062 29.6719
C16.9062 30.8594 16.9062 30.8594 15.0938 31.8594
C12.9062 32.8594 11.5938 34.9375 11.5938 37.1406
C11.5938 41.1094 15.4062 44 20.9062 44
C24.7031 44 27.7969 42.7031 30.5938 40.0156
C32.7969 37.8125 33.9062 35.8281 35.5 31.2344
L39 31.2344
z
" id="Century_Schoolbook_L_Roman-115"/>
    </defs>
    <g transform="translate(190.970412528 21.3930377053)scale(0.192 -0.192)">
     <use transform="scale(0.996264009963)" xlink:href="#Century_Schoolbook_L_Roman-108"/>
     <use transform="translate(31.3813129962 0.0)scale(0.996264009963)" xlink:href="#Century_Schoolbook_L_Roman-97"/>
     <use transform="translate(86.7729899595 0.0)scale(0.996264009963)" xlink:href="#Century_Schoolbook_L_Roman-116"/>
     <use transform="translate(125.526696154 0.0)scale(0.996264009963)" xlink:href="#Century_Schoolbook_L_Roman-101"/>
     <use transform="translate(175.339896652 0.0)scale(0.996264009963)" xlink:href="#Century_Schoolbook_L_Roman-110"/>
     <use transform="translate(236.211527329 0.0)scale(0.996264009963)" xlink:href="#Century_Schoolbook_L_Roman-116"/>
     <use transform="translate(302.660403127 0.0)scale(0.996264009963)" xlink:href="#Century_Schoolbook_L_Roman-102"/>
     <use transform="translate(335.835632856 0.0)scale(0.996264009963)" xlink:href="#Century_Schoolbook_L_Roman-117"/>
     <use transform="translate(396.707263533 0.0)scale(0.996264009963)" xlink:href="#Century_Schoolbook_L_Roman-110"/>
     <use transform="translate(457.57889421 0.0)scale(0.996264009963)" xlink:href="#Century_Schoolbook_L_Roman-99"/>
     <use transform="translate(501.812462908 0.0)scale(0.996264009963)" xlink:href="#Century_Schoolbook_L_Roman-116"/>
     <use transform="translate(540.566169102 0.0)scale(0.996264009963)" xlink:href="#Century_Schoolbook_L_Roman-105"/>
     <use transform="translate(571.947482098 0.0)scale(0.996264009963)" xlink:href="#Century_Schoolbook_L_Roman-111"/>
     <use transform="translate(621.760682597 0.0)scale(0.996264009963)" xlink:href="#Century_Schoolbook_L_Roman-110"/>
     <use transform="translate(710.327482877 0.0)scale(0.996264009963)" xlink:href="#Century_Schoolbook_L_Roman-118"/>
     <use transform="translate(763.826826768 0.0)scale(0.996264009963)" xlink:href="#Century_Schoolbook_L_Roman-97"/>
     <use transform="translate(819.218503731 0.0)scale(0.996264009963)" xlink:href="#Century_Schoolbook_L_Roman-108"/>
     <use transform="translate(850.599816727 0.0)scale(0.996264009963)" xlink:href="#Century_Schoolbook_L_Roman-117"/>
     <use transform="translate(911.471447404 0.0)scale(0.996264009963)" xlink:href="#Century_Schoolbook_L_Roman-101"/>
     <use transform="translate(961.284647902 0.0)scale(0.996264009963)" xlink:href="#Century_Schoolbook_L_Roman-115"/>
    </g>
   </g>
  </g>
 </g>
 <defs>
  <clipPath id="p6680e7f12f">
   <rect height="279.0" width="446.4" x="64.4817425377" y="26.3930377053"/>
  </clipPath>
 </defs>
</svg>
