<?xml version="1.0" encoding="utf-8" standalone="no"?>
<!DOCTYPE svg PUBLIC "-//W3C//DTD SVG 1.1//EN"
  "http://www.w3.org/Graphics/SVG/1.1/DTD/svg11.dtd">
<!-- Created with matplotlib (http://matplotlib.org/) -->
<svg height="339pt" version="1.1" viewBox="0 0 555 339" width="555pt" xmlns="http://www.w3.org/2000/svg" xmlns:xlink="http://www.w3.org/1999/xlink">
 <defs>
  <style type="text/css">
*{stroke-linecap:butt;stroke-linejoin:round;}
  </style>
 </defs>
 <g id="figure_1">
  <g id="patch_1">
   <path d="M 0 339.84 
L 555.84 339.84 
L 555.84 0 
L 0 0 
z
" style="fill:none;"/>
  </g>
  <g id="axes_1">
   <g id="patch_2">
    <path d="M 54.342207 293.301871 
L 545.14 293.301871 
L 545.14 10.7 
L 54.342207 10.7 
z
" style="fill:#ffffff;"/>
   </g>
   <g id="PolyCollection_1">
    <defs>
     <path d="M 54.342207 -316.29446 
L 54.342207 -81.049033 
L 56.808528 -81.792267 
L 59.274848 -82.658676 
L 61.741169 -83.661999 
L 64.207489 -84.816433 
L 66.67381 -86.136458 
L 69.140131 -87.636634 
L 71.606451 -89.331377 
L 74.072772 -91.234705 
L 76.539092 -93.359966 
L 79.005413 -95.719548 
L 81.471733 -98.324579 
L 83.938054 -101.184621 
L 86.404375 -104.307368 
L 88.870695 -107.698347 
L 91.337016 -111.360634 
L 93.803336 -115.294593 
L 96.269657 -119.497631 
L 98.735977 -123.963996 
L 101.202298 -128.684597 
L 103.668619 -133.646867 
L 106.134939 -138.834664 
L 108.60126 -144.228205 
L 111.06758 -149.804046 
L 113.533901 -155.53509 
L 116.000221 -161.390634 
L 118.466542 -167.336449 
L 120.932863 -173.334893 
L 123.399183 -179.345068 
L 125.865504 -185.323042 
L 128.331824 -191.222163 
L 130.798145 -196.993542 
L 133.264465 -202.586775 
L 135.730786 -207.951041 
L 138.197106 -213.036702 
L 140.663427 -217.797497 
L 143.129748 -222.193289 
L 145.596068 -226.193074 
L 148.062389 -229.777672 
L 150.528709 -232.941305 
L 152.99503 -235.691367 
L 155.46135 -238.046194 
L 157.927671 -240.031304 
L 160.393992 -241.675034 
L 162.860312 -243.004572 
L 165.326633 -244.043035 
L 167.792953 -244.807782 
L 170.259274 -245.30984 
L 172.725594 -245.554141 
L 175.191915 -245.540266 
L 177.658236 -245.263451 
L 180.124556 -244.715686 
L 182.590877 -243.886804 
L 185.057197 -242.765498 
L 187.523518 -241.340249 
L 189.989838 -239.600158 
L 192.456159 -237.535678 
L 194.92248 -235.139278 
L 197.3888 -232.406032 
L 199.855121 -229.334173 
L 202.321441 -225.925614 
L 204.787762 -222.186453 
L 207.254082 -218.127454 
L 209.720403 -213.764506 
L 212.186723 -209.119012 
L 214.653044 -204.21818 
L 217.119365 -199.09515 
L 219.585685 -193.788908 
L 222.052006 -188.34394 
L 224.518326 -182.809609 
L 226.984647 -177.239266 
L 229.450967 -171.689143 
L 231.917288 -166.217092 
L 234.383609 -160.881249 
L 236.849929 -155.738708 
L 239.31625 -150.844271 
L 241.78257 -146.249335 
L 244.248891 -142.000941 
L 246.715211 -138.141034 
L 249.181532 -134.705913 
L 251.647853 -131.725898 
L 254.114173 -129.225186 
L 256.580494 -127.221875 
L 259.046814 -125.728135 
L 261.513135 -124.750478 
L 263.979455 -124.290096 
L 266.445776 -124.343212 
L 268.912097 -124.90142 
L 271.378417 -125.951968 
L 273.844738 -127.477986 
L 276.311058 -129.458622 
L 278.777379 -131.869128 
L 281.243699 -134.680878 
L 283.71002 -137.861371 
L 286.17634 -141.374221 
L 288.642661 -145.179173 
L 291.108982 -149.232172 
L 293.575302 -153.485496 
L 296.041623 -157.887985 
L 298.507943 -162.385383 
L 300.974264 -166.920811 
L 303.440584 -171.43539 
L 305.906905 -175.86905 
L 308.373226 -180.161519 
L 310.839546 -184.253507 
L 313.305867 -188.088059 
L 315.772187 -191.612008 
L 318.238508 -194.777434 
L 320.704828 -197.542962 
L 323.171149 -199.87475 
L 325.63747 -201.747017 
L 328.10379 -203.142033 
L 330.570111 -204.049596 
L 333.036431 -204.466082 
L 335.502752 -204.393254 
L 337.969072 -203.836973 
L 340.435393 -202.805976 
L 342.901714 -201.310814 
L 345.368034 -199.362992 
L 347.834355 -196.974338 
L 350.300675 -194.156601 
L 352.766996 -190.921275 
L 355.233316 -187.279663 
L 357.699637 -183.243203 
L 360.165957 -178.824081 
L 362.632278 -174.03614 
L 365.098599 -168.896079 
L 367.564919 -163.424832 
L 370.03124 -157.648981 
L 372.49756 -151.601961 
L 374.963881 -145.324823 
L 377.430201 -138.86636 
L 379.896522 -132.282536 
L 382.362843 -125.635292 
L 384.829163 -118.990899 
L 387.295484 -112.418089 
L 389.761804 -105.98617 
L 392.228125 -99.763259 
L 394.694445 -93.814728 
L 397.160766 -88.201871 
L 399.627087 -82.9808 
L 402.093407 -78.20154 
L 404.559728 -73.907282 
L 407.026048 -70.133777 
L 409.492369 -66.908839 
L 411.958689 -64.251931 
L 414.42501 -62.173819 
L 416.891331 -60.676284 
L 419.357651 -59.751867 
L 421.823972 -59.383669 
L 424.290292 -59.545194 
L 426.756613 -60.200288 
L 429.222933 -61.303222 
L 431.689254 -62.799031 
L 434.155574 -64.624257 
L 436.621895 -66.708272 
L 439.088216 -68.975358 
L 441.554536 -71.347628 
L 444.020857 -73.748679 
L 446.487177 -76.107608 
L 448.953498 -78.36277 
L 451.419818 -80.464566 
L 453.886139 -82.376768 
L 456.35246 -84.076258 
L 458.81878 -85.551504 
L 461.285101 -86.800314 
L 463.751421 -87.827454 
L 466.217742 -88.642502 
L 468.684062 -89.258151 
L 471.150383 -89.688973 
L 473.616704 -89.950577 
L 476.083024 -90.059063 
L 478.549345 -90.030663 
L 481.015665 -89.881511 
L 483.481986 -89.627473 
L 485.948306 -89.284004 
L 488.414627 -88.866031 
L 490.880948 -88.387835 
L 493.347268 -87.862935 
L 495.813589 -87.303984 
L 498.279909 -86.722673 
L 500.74623 -86.129647 
L 503.21255 -85.534442 
L 505.678871 -84.945438 
L 508.145191 -84.369839 
L 510.611512 -83.81367 
L 513.077833 -83.281803 
L 515.544153 -82.778001 
L 518.010474 -82.304978 
L 520.476794 -81.864485 
L 522.943115 -81.457403 
L 525.409435 -81.083843 
L 527.875756 -80.743261 
L 530.342077 -80.434568 
L 532.808397 -80.156243 
L 535.274718 -79.906441 
L 537.741038 -79.683095 
L 540.207359 -79.484003 
L 542.673679 -79.306915 
L 545.14 -79.149597 
L 545.14 -315.377821 
L 545.14 -315.377821 
L 542.673679 -314.869655 
L 540.207359 -314.262081 
L 537.741038 -313.541854 
L 535.274718 -312.69491 
L 532.808397 -311.706465 
L 530.342077 -310.561149 
L 527.875756 -309.243169 
L 525.409435 -307.736499 
L 522.943115 -306.025097 
L 520.476794 -304.093148 
L 518.010474 -301.925333 
L 515.544153 -299.507111 
L 513.077833 -296.825024 
L 510.611512 -293.867006 
L 508.145191 -290.622709 
L 505.678871 -287.08382 
L 503.21255 -283.244384 
L 500.74623 -279.101118 
L 498.279909 -274.653711 
L 495.813589 -269.905111 
L 493.347268 -264.861796 
L 490.880948 -259.534021 
L 488.414627 -253.93604 
L 485.948306 -248.086307 
L 483.481986 -242.007644 
L 481.015665 -235.727382 
L 478.549345 -229.277465 
L 476.083024 -222.694512 
L 473.616704 -216.019813 
L 471.150383 -209.299254 
L 468.684062 -202.583104 
L 466.217742 -195.925634 
L 463.751421 -189.38446 
L 461.285101 -183.019528 
L 458.81878 -176.891622 
L 456.35246 -171.060333 
L 453.886139 -165.581503 
L 451.419818 -160.504347 
L 448.953498 -155.868639 
L 446.487177 -151.702541 
L 444.020857 -148.021634 
L 441.554536 -144.829467 
L 439.088216 -142.119533 
L 436.621895 -139.878155 
L 434.155574 -138.087622 
L 431.689254 -136.728941 
L 429.222933 -135.783866 
L 426.756613 -135.236095 
L 424.290292 -135.071758 
L 421.823972 -135.279372 
L 419.357651 -135.849464 
L 416.891331 -136.774021 
L 414.42501 -138.045899 
L 411.958689 -139.658252 
L 409.492369 -141.604036 
L 407.026048 -143.875598 
L 404.559728 -146.464372 
L 402.093407 -149.360658 
L 399.627087 -152.55348 
L 397.160766 -156.030505 
L 394.694445 -159.77798 
L 392.228125 -163.780671 
L 389.761804 -168.021744 
L 387.295484 -172.482558 
L 384.829163 -177.142317 
L 382.362843 -181.977563 
L 379.896522 -186.961508 
L 377.430201 -192.063273 
L 374.963881 -197.247162 
L 372.49756 -202.472137 
L 370.03124 -207.691723 
L 367.564919 -212.854487 
L 365.098599 -217.905152 
L 362.632278 -222.786272 
L 360.165957 -227.44027 
L 357.699637 -231.811578 
L 355.233316 -235.848657 
L 352.766996 -239.50572 
L 350.300675 -242.744078 
L 347.834355 -245.533081 
L 345.368034 -247.85068 
L 342.901714 -249.683638 
L 340.435393 -251.027418 
L 337.969072 -251.885777 
L 335.502752 -252.270057 
L 333.036431 -252.1982 
L 330.570111 -251.693508 
L 328.10379 -250.7832 
L 325.63747 -249.496873 
L 323.171149 -247.865017 
L 320.704828 -245.917754 
L 318.238508 -243.683967 
L 315.772187 -241.190914 
L 313.305867 -238.464346 
L 310.839546 -235.529052 
L 308.373226 -232.40967 
L 305.906905 -229.131613 
L 303.440584 -225.721938 
L 300.974264 -222.210057 
L 298.507943 -218.628229 
L 296.041623 -215.011786 
L 293.575302 -211.399113 
L 291.108982 -207.8314 
L 288.642661 -204.352174 
L 286.17634 -201.006659 
L 283.71002 -197.840982 
L 281.243699 -194.901262 
L 278.777379 -192.232626 
L 276.311058 -189.878179 
L 273.844738 -187.877977 
L 271.378417 -186.268057 
L 268.912097 -185.079563 
L 266.445776 -184.338015 
L 263.979455 -184.062763 
L 261.513135 -184.266635 
L 259.046814 -184.955814 
L 256.580494 -186.129917 
L 254.114173 -187.78227 
L 251.647853 -189.900341 
L 249.181532 -192.466296 
L 246.715211 -195.457628 
L 244.248891 -198.847831 
L 241.78257 -202.607055 
L 239.31625 -206.702735 
L 236.849929 -211.10013 
L 234.383609 -215.762788 
L 231.917288 -220.652887 
L 229.450967 -225.731472 
L 226.984647 -230.95859 
L 224.518326 -236.293358 
L 222.052006 -241.693994 
L 219.585685 -247.117875 
L 217.119365 -252.521675 
L 214.653044 -257.861623 
L 212.186723 -263.09391 
L 209.720403 -268.17524 
L 207.254082 -273.063498 
L 204.787762 -277.718469 
L 202.321441 -282.102574 
L 199.855121 -286.181535 
L 197.3888 -289.924957 
L 194.92248 -293.306793 
L 192.456159 -296.30568 
L 189.989838 -298.90518 
L 187.523518 -301.093931 
L 185.057197 -302.865757 
L 182.590877 -304.219755 
L 180.124556 -305.16042 
L 177.658236 -305.697804 
L 175.191915 -305.847766 
L 172.725594 -305.632305 
L 170.259274 -305.079964 
L 167.792953 -304.226274 
L 165.326633 -303.114139 
L 162.860312 -301.793993 
L 160.393992 -300.323509 
L 157.927671 -298.766537 
L 155.46135 -297.190998 
L 152.99503 -295.665588 
L 150.528709 -294.25549 
L 148.062389 -293.017755 
L 145.596068 -291.997318 
L 143.129748 -291.224592 
L 140.663427 -290.715112 
L 138.197106 -290.471001 
L 135.730786 -290.483588 
L 133.264465 -290.736364 
L 130.798145 -291.207692 
L 128.331824 -291.872974 
L 125.865504 -292.706244 
L 123.399183 -293.68125 
L 120.932863 -294.772182 
L 118.466542 -295.954151 
L 116.000221 -297.203504 
L 113.533901 -298.498059 
L 111.06758 -299.817264 
L 108.60126 -301.142328 
L 106.134939 -302.456315 
L 103.668619 -303.744215 
L 101.202298 -304.992984 
L 98.735977 -306.191563 
L 96.269657 -307.330855 
L 93.803336 -308.403695 
L 91.337016 -309.404767 
L 88.870695 -310.330517 
L 86.404375 -311.179027 
L 83.938054 -311.949877 
L 81.471733 -312.643987 
L 79.005413 -313.263442 
L 76.539092 -313.811321 
L 74.072772 -314.291512 
L 71.606451 -314.70853 
L 69.140131 -315.067342 
L 66.67381 -315.373206 
L 64.207489 -315.631511 
L 61.741169 -315.847645 
L 59.274848 -316.026872 
L 56.808528 -316.174232 
L 54.342207 -316.29446 
z
" id="m7d5ee9e4e8" style="stroke:#204a87;stroke-opacity:0.2;stroke-width:0.5;"/>
    </defs>
    <g clip-path="url(#pa8e48c5569)">
     <use style="fill:#729fcf;fill-opacity:0.2;stroke:#204a87;stroke-opacity:0.2;stroke-width:0.5;" x="0" xlink:href="#m7d5ee9e4e8" y="339.84"/>
    </g>
   </g>
   <g id="matplotlib.axis_1">
    <g id="xtick_1">
     <g id="line2d_1">
      <defs>
       <path d="M 0 0 
L 0 3.5 
" id="m9df0b7d03d" style="stroke:#000000;stroke-width:0.8;"/>
      </defs>
      <g>
       <use style="stroke:#000000;stroke-width:0.8;" x="70.481418" xlink:href="#m9df0b7d03d" y="293.301871"/>
      </g>
     </g>
     <g id="text_1">
      <!-- $-0.2$ -->
      <defs>
       <path d="M 65.90625 23 
C 67.59375 23 69.40625 23 69.40625 25 
C 69.40625 27 67.59375 27 65.90625 27 
L 11.796875 27 
C 10.09375 27 8.296875 27 8.296875 25 
C 8.296875 23 10.09375 23 11.796875 23 
z
" id="CMSY10-0"/>
       <path d="M 42 31.640625 
C 42 37.75 41.90625 48.125 37.703125 56.109375 
C 34 63.109375 28.09375 65.59375 22.90625 65.59375 
C 18.09375 65.59375 12 63.40625 8.203125 56.203125 
C 4.203125 48.71875 3.796875 39.4375 3.796875 31.640625 
C 3.796875 25.953125 3.90625 17.28125 7 9.671875 
C 11.296875 -0.609375 19 -2 22.90625 -2 
C 27.5 -2 34.5 -0.109375 38.59375 9.375 
C 41.59375 16.28125 42 24.359375 42 31.640625 
z
M 22.90625 -0.40625 
C 16.5 -0.40625 12.703125 5.078125 11.296875 12.6875 
C 10.203125 18.5625 10.203125 27.15625 10.203125 32.75 
C 10.203125 40.4375 10.203125 46.828125 11.5 52.921875 
C 13.40625 61.390625 19 64 22.90625 64 
C 27 64 32.296875 61.296875 34.203125 53.125 
C 35.5 47.4375 35.59375 40.734375 35.59375 32.75 
C 35.59375 26.25 35.59375 18.265625 34.40625 12.375 
C 32.296875 1.484375 26.40625 -0.40625 22.90625 -0.40625 
z
" id="CMR17-48"/>
       <path d="M 18.40625 4.796875 
C 18.40625 7.6875 16 9.671875 13.59375 9.671875 
C 10.703125 9.671875 8.703125 7.28125 8.703125 4.890625 
C 8.703125 2 11.09375 0 13.5 0 
C 16.40625 0 18.40625 2.390625 18.40625 4.796875 
z
" id="CMMI12-58"/>
       <path d="M 41.703125 15.453125 
L 39.90625 15.453125 
C 38.90625 8.375 38.09375 7.171875 37.703125 6.5625 
C 37.203125 5.765625 30 5.765625 28.59375 5.765625 
L 9.40625 5.765625 
C 13 9.671875 20 16.75 28.5 24.953125 
C 34.59375 30.734375 41.703125 37.53125 41.703125 47.421875 
C 41.703125 59.21875 32.296875 66 21.796875 66 
C 10.796875 66 4.09375 56.3125 4.09375 47.34375 
C 4.09375 43.4375 7 42.9375 8.203125 42.9375 
C 9.203125 42.9375 12.203125 43.546875 12.203125 47.03125 
C 12.203125 50.109375 9.59375 51 8.203125 51 
C 7.59375 51 7 50.90625 6.59375 50.703125 
C 8.5 59.21875 14.296875 63.40625 20.40625 63.40625 
C 29.09375 63.40625 34.796875 56.515625 34.796875 47.421875 
C 34.796875 38.734375 29.703125 31.25 24 24.75 
L 4.09375 2.28125 
L 4.09375 0 
L 39.296875 0 
z
" id="CMR17-50"/>
      </defs>
      <g transform="translate(54.310659 311.371459)scale(0.16 -0.16)">
       <use transform="scale(0.996264)" xlink:href="#CMSY10-0"/>
       <use transform="translate(77.487468 0)scale(0.996264)" xlink:href="#CMR17-48"/>
       <use transform="translate(123.177945 0)scale(0.996264)" xlink:href="#CMMI12-58"/>
       <use transform="translate(150.275122 0)scale(0.996264)" xlink:href="#CMR17-50"/>
      </g>
     </g>
    </g>
    <g id="xtick_2">
     <g id="line2d_2">
      <g>
       <use style="stroke:#000000;stroke-width:0.8;" x="136.104311" xlink:href="#m9df0b7d03d" y="293.301871"/>
      </g>
     </g>
     <g id="text_2">
      <!-- $0.0$ -->
      <g transform="translate(126.13255 311.371459)scale(0.16 -0.16)">
       <use transform="scale(0.996264)" xlink:href="#CMR17-48"/>
       <use transform="translate(45.690477 0)scale(0.996264)" xlink:href="#CMMI12-58"/>
       <use transform="translate(72.787654 0)scale(0.996264)" xlink:href="#CMR17-48"/>
      </g>
     </g>
    </g>
    <g id="xtick_3">
     <g id="line2d_3">
      <g>
       <use style="stroke:#000000;stroke-width:0.8;" x="201.727205" xlink:href="#m9df0b7d03d" y="293.301871"/>
      </g>
     </g>
     <g id="text_3">
      <!-- $0.2$ -->
      <g transform="translate(191.755444 311.371459)scale(0.16 -0.16)">
       <use transform="scale(0.996264)" xlink:href="#CMR17-48"/>
       <use transform="translate(45.690477 0)scale(0.996264)" xlink:href="#CMMI12-58"/>
       <use transform="translate(72.787654 0)scale(0.996264)" xlink:href="#CMR17-50"/>
      </g>
     </g>
    </g>
    <g id="xtick_4">
     <g id="line2d_4">
      <g>
       <use style="stroke:#000000;stroke-width:0.8;" x="267.350099" xlink:href="#m9df0b7d03d" y="293.301871"/>
      </g>
     </g>
     <g id="text_4">
      <!-- $0.4$ -->
      <defs>
       <path d="M 33.59375 64.40625 
C 33.59375 66.5 33.5 66.5 31.703125 66.5 
L 2 19.59375 
L 2 17 
L 27.796875 17 
L 27.796875 7.140625 
C 27.796875 3.5 27.59375 2.5 20.59375 2.5 
L 18.703125 2.5 
L 18.703125 0 
C 21.90625 0 27.296875 0 30.703125 0 
C 34.09375 0 39.5 0 42.703125 0 
L 42.703125 2.5 
L 40.796875 2.5 
C 33.796875 2.5 33.59375 3.5 33.59375 7.140625 
L 33.59375 17 
L 43.796875 17 
L 43.796875 19.59375 
L 33.59375 19.59375 
z
M 28.09375 57.859375 
L 28.09375 19.59375 
L 4 19.59375 
z
" id="CMR17-52"/>
      </defs>
      <g transform="translate(257.378337 311.371459)scale(0.16 -0.16)">
       <use transform="scale(0.996264)" xlink:href="#CMR17-48"/>
       <use transform="translate(45.690477 0)scale(0.996264)" xlink:href="#CMMI12-58"/>
       <use transform="translate(72.787654 0)scale(0.996264)" xlink:href="#CMR17-52"/>
      </g>
     </g>
    </g>
    <g id="xtick_5">
     <g id="line2d_5">
      <g>
       <use style="stroke:#000000;stroke-width:0.8;" x="332.972992" xlink:href="#m9df0b7d03d" y="293.301871"/>
      </g>
     </g>
     <g id="text_5">
      <!-- $0.6$ -->
      <defs>
       <path d="M 10.59375 34 
C 10.59375 57.65625 21.796875 63 28.296875 63 
C 30.40625 63 35.5 62.640625 37.5 59 
C 35.90625 59 32.90625 59 32.90625 55.515625 
C 32.90625 52.828125 35.09375 51.921875 36.5 51.921875 
C 37.40625 51.921875 40.09375 52.3125 40.09375 55.625 
C 40.09375 61.78125 35.09375 65.296875 28.203125 65.296875 
C 16.296875 65.296875 3.796875 52.96875 3.796875 31 
C 3.796875 3.953125 15.09375 -2 23.09375 -2 
C 32.796875 -2 42 6.671875 42 20.046875 
C 42 32.515625 33.90625 41.59375 23.703125 41.59375 
C 17.59375 41.59375 13.09375 37.609375 10.59375 30.625 
z
M 23.09375 0.390625 
C 10.796875 0.390625 10.796875 18.75 10.796875 22.4375 
C 10.796875 29.625 14.203125 40 23.5 40 
C 25.203125 40 30.09375 40 33.40625 33.125 
C 35.203125 29.21875 35.203125 25.140625 35.203125 20.140625 
C 35.203125 14.75 35.203125 10.78125 33.09375 6.78125 
C 30.90625 2.671875 27.703125 0.390625 23.09375 0.390625 
z
" id="CMR17-54"/>
      </defs>
      <g transform="translate(323.001231 311.371459)scale(0.16 -0.16)">
       <use transform="scale(0.996264)" xlink:href="#CMR17-48"/>
       <use transform="translate(45.690477 0)scale(0.996264)" xlink:href="#CMMI12-58"/>
       <use transform="translate(72.787654 0)scale(0.996264)" xlink:href="#CMR17-54"/>
      </g>
     </g>
    </g>
    <g id="xtick_6">
     <g id="line2d_6">
      <g>
       <use style="stroke:#000000;stroke-width:0.8;" x="398.595886" xlink:href="#m9df0b7d03d" y="293.301871"/>
      </g>
     </g>
     <g id="text_6">
      <!-- $0.8$ -->
      <defs>
       <path d="M 27.203125 35.375 
C 33.5 38.546875 39.90625 43.328125 39.90625 50.984375 
C 39.90625 60.015625 31.09375 65.296875 23 65.296875 
C 13.90625 65.296875 5.90625 58.734375 5.90625 49.6875 
C 5.90625 47.203125 6.5 42.921875 10.40625 39.140625 
C 11.40625 38.15625 15.59375 35.171875 18.296875 33.28125 
C 13.796875 30.984375 3.296875 25.53125 3.296875 14.59375 
C 3.296875 4.359375 13.09375 -2 22.796875 -2 
C 33.5 -2 42.5 5.65625 42.5 15.78125 
C 42.5 24.84375 36.40625 29.015625 32.40625 31.703125 
z
M 14.09375 44.09375 
C 13.296875 44.59375 9.296875 47.671875 9.296875 52.359375 
C 9.296875 58.421875 15.59375 63 22.796875 63 
C 30.703125 63 36.5 57.4375 36.5 50.96875 
C 36.5 41.703125 26.09375 36.421875 25.59375 36.421875 
C 25.5 36.421875 25.40625 36.421875 24.59375 37.03125 
z
M 32.5 23.734375 
C 34 22.640625 38.796875 19.375 38.796875 13.296875 
C 38.796875 5.953125 31.40625 0.390625 23 0.390625 
C 13.90625 0.390625 7 6.84375 7 14.6875 
C 7 22.546875 13.09375 29.09375 20 32.1875 
z
" id="CMR17-56"/>
      </defs>
      <g transform="translate(388.624125 311.371459)scale(0.16 -0.16)">
       <use transform="scale(0.996264)" xlink:href="#CMR17-48"/>
       <use transform="translate(45.690477 0)scale(0.996264)" xlink:href="#CMMI12-58"/>
       <use transform="translate(72.787654 0)scale(0.996264)" xlink:href="#CMR17-56"/>
      </g>
     </g>
    </g>
    <g id="xtick_7">
     <g id="line2d_7">
      <g>
       <use style="stroke:#000000;stroke-width:0.8;" x="464.218779" xlink:href="#m9df0b7d03d" y="293.301871"/>
      </g>
     </g>
     <g id="text_7">
      <!-- $1.0$ -->
      <defs>
       <path d="M 26.59375 63.40625 
C 26.59375 65.5 26.5 65.5 25.09375 65.5 
C 21.203125 61.1875 15.296875 59.796875 9.703125 59.796875 
C 9.40625 59.796875 8.90625 59.796875 8.796875 59.5 
C 8.703125 59.296875 8.703125 59.09375 8.703125 57 
C 11.796875 57 17 57.59375 21 59.984375 
L 21 7.203125 
C 21 3.6875 20.796875 2.5 12.203125 2.5 
L 9.203125 2.5 
L 9.203125 0 
C 14 0 19 0 23.796875 0 
C 28.59375 0 33.59375 0 38.40625 0 
L 38.40625 2.5 
L 35.40625 2.5 
C 26.796875 2.5 26.59375 3.59375 26.59375 7.15625 
z
" id="CMR17-49"/>
      </defs>
      <g transform="translate(454.247018 311.371459)scale(0.16 -0.16)">
       <use transform="scale(0.996264)" xlink:href="#CMR17-49"/>
       <use transform="translate(45.690477 0)scale(0.996264)" xlink:href="#CMMI12-58"/>
       <use transform="translate(72.787654 0)scale(0.996264)" xlink:href="#CMR17-48"/>
      </g>
     </g>
    </g>
    <g id="xtick_8">
     <g id="line2d_8">
      <g>
       <use style="stroke:#000000;stroke-width:0.8;" x="529.841673" xlink:href="#m9df0b7d03d" y="293.301871"/>
      </g>
     </g>
     <g id="text_8">
      <!-- $1.2$ -->
      <g transform="translate(519.869912 311.371459)scale(0.16 -0.16)">
       <use transform="scale(0.996264)" xlink:href="#CMR17-49"/>
       <use transform="translate(45.690477 0)scale(0.996264)" xlink:href="#CMMI12-58"/>
       <use transform="translate(72.787654 0)scale(0.996264)" xlink:href="#CMR17-50"/>
      </g>
     </g>
    </g>
    <g id="text_9">
     <!-- $x$ -->
     <defs>
      <path d="M 47.40625 40.71875 
C 44.203125 40.109375 43 37.71875 43 35.828125 
C 43 33.421875 44.90625 32.625 46.296875 32.625 
C 49.296875 32.625 51.40625 35.21875 51.40625 37.921875 
C 51.40625 42.109375 46.59375 44 42.40625 44 
C 36.296875 44 32.90625 38.015625 32 36.125 
C 29.703125 44 23.5 44 21.703125 44 
C 11.5 44 6.09375 30.9375 6.09375 28.734375 
C 6.09375 28.34375 6.5 27.84375 7.203125 27.84375 
C 8 27.84375 8.203125 28.4375 8.40625 28.84375 
C 11.796875 39.921875 18.5 42.015625 21.40625 42.015625 
C 25.90625 42.015625 26.796875 37.8125 26.796875 35.421875 
C 26.796875 33.234375 26.203125 30.9375 25 26.140625 
L 21.59375 12.46875 
C 20.09375 6.484375 17.203125 1 11.90625 1 
C 11.40625 1 8.90625 1 6.796875 2.296875 
C 10.40625 3 11.203125 5.984375 11.203125 7.1875 
C 11.203125 9.1875 9.703125 10.375 7.796875 10.375 
C 5.40625 10.375 2.796875 8.28125 2.796875 5.09375 
C 2.796875 0.890625 7.5 -1 11.796875 -1 
C 16.59375 -1 20 2.796875 22.09375 6.890625 
C 23.703125 1 28.703125 -1 32.40625 -1 
C 42.59375 -1 48 12.078125 48 14.265625 
C 48 14.765625 47.59375 15.171875 47 15.171875 
C 46.09375 15.171875 46 14.671875 45.703125 13.875 
C 43 5.09375 37.203125 1 32.703125 1 
C 29.203125 1 27.296875 3.59375 27.296875 7.6875 
C 27.296875 9.875 27.703125 11.46875 29.296875 18.0625 
L 32.796875 31.625 
C 34.296875 37.625 37.703125 42.015625 42.296875 42.015625 
C 42.5 42.015625 45.296875 42.015625 47.40625 40.71875 
z
" id="CMMI12-120"/>
     </defs>
     <g transform="translate(295.306379 329.540524)scale(0.16 -0.16)">
      <use transform="scale(0.996264)" xlink:href="#CMMI12-120"/>
     </g>
    </g>
   </g>
   <g id="matplotlib.axis_2">
    <g id="ytick_1">
     <g id="line2d_9">
      <defs>
       <path d="M 0 0 
L -3.5 0 
" id="mb2e9e19258" style="stroke:#000000;stroke-width:0.8;"/>
      </defs>
      <g>
       <use style="stroke:#000000;stroke-width:0.8;" x="54.342207" xlink:href="#mb2e9e19258" y="251.927504"/>
      </g>
     </g>
     <g id="text_10">
      <!-- $-2$ -->
      <g transform="translate(27.140224 257.462298)scale(0.16 -0.16)">
       <use transform="scale(0.996264)" xlink:href="#CMSY10-0"/>
       <use transform="translate(77.487468 0)scale(0.996264)" xlink:href="#CMR17-50"/>
      </g>
     </g>
    </g>
    <g id="ytick_2">
     <g id="line2d_10">
      <g>
       <use style="stroke:#000000;stroke-width:0.8;" x="54.342207" xlink:href="#mb2e9e19258" y="197.172322"/>
      </g>
     </g>
     <g id="text_11">
      <!-- $-1$ -->
      <g transform="translate(27.140224 202.707116)scale(0.16 -0.16)">
       <use transform="scale(0.996264)" xlink:href="#CMSY10-0"/>
       <use transform="translate(77.487468 0)scale(0.996264)" xlink:href="#CMR17-49"/>
      </g>
     </g>
    </g>
    <g id="ytick_3">
     <g id="line2d_11">
      <g>
       <use style="stroke:#000000;stroke-width:0.8;" x="54.342207" xlink:href="#mb2e9e19258" y="142.417139"/>
      </g>
     </g>
     <g id="text_12">
      <!-- $0$ -->
      <g transform="translate(39.53822 147.951933)scale(0.16 -0.16)">
       <use transform="scale(0.996264)" xlink:href="#CMR17-48"/>
      </g>
     </g>
    </g>
    <g id="ytick_4">
     <g id="line2d_12">
      <g>
       <use style="stroke:#000000;stroke-width:0.8;" x="54.342207" xlink:href="#mb2e9e19258" y="87.661957"/>
      </g>
     </g>
     <g id="text_13">
      <!-- $1$ -->
      <g transform="translate(39.53822 93.196751)scale(0.16 -0.16)">
       <use transform="scale(0.996264)" xlink:href="#CMR17-49"/>
      </g>
     </g>
    </g>
    <g id="ytick_5">
     <g id="line2d_13">
      <g>
       <use style="stroke:#000000;stroke-width:0.8;" x="54.342207" xlink:href="#mb2e9e19258" y="32.906774"/>
      </g>
     </g>
     <g id="text_14">
      <!-- $2$ -->
      <g transform="translate(39.53822 38.441569)scale(0.16 -0.16)">
       <use transform="scale(0.996264)" xlink:href="#CMR17-50"/>
      </g>
     </g>
    </g>
    <g id="text_15">
     <!-- $f(x)$ -->
     <defs>
      <path d="M 44.59375 40.09375 
C 46.59375 40.09375 47.40625 40.09375 47.40625 42 
C 47.40625 43 46.59375 43 44.796875 43 
L 36.703125 43 
C 38.59375 53.578125 40 60.890625 40.796875 64.171875 
C 41.40625 66.640625 43.5 69 46.09375 69 
C 48.203125 69 50.296875 68.09375 51.296875 67.15625 
C 47.40625 66.75 46.203125 63.78125 46.203125 62.015625 
C 46.203125 59.953125 47.703125 58.734375 49.59375 58.734375 
C 51.59375 58.734375 54.59375 60.46875 54.59375 64.359375 
C 54.59375 68.640625 50.40625 71 46 71 
C 41.703125 71 37.5 67.71875 35.5 63.71875 
C 33.703125 60.125 32.703125 56.421875 30.40625 43 
L 23.703125 43 
C 21.796875 43 20.796875 43 20.796875 41.203125 
C 20.796875 40.09375 21.40625 40.09375 23.40625 40.09375 
L 29.796875 40.09375 
C 28 30.875 23.90625 8.46875 21.59375 -2.140625 
C 19.90625 -10.765625 18.40625 -18 13.40625 -18 
C 13.09375 -18 10.203125 -18 8.40625 -16.109375 
C 13.5 -15.703125 13.5 -11.34375 13.5 -11.25 
C 13.5 -9.265625 12 -8.078125 10.09375 -8.078125 
C 8.09375 -8.078125 5.09375 -9.765625 5.09375 -13.546875 
C 5.09375 -17.8125 9.5 -20 13.40625 -20 
C 23.59375 -20 27.796875 -1.84375 28.90625 3.109375 
C 30.703125 10.75 35.59375 37.125 36.09375 40.09375 
z
" id="CMMI12-102"/>
      <path d="M 30.59375 -24.390625 
C 30.59375 -24.296875 30.59375 -24.09375 30.296875 -23.796875 
C 25.703125 -19.125 13.40625 -6.359375 13.40625 24.703125 
C 13.40625 55.765625 25.5 68.421875 30.40625 73.390625 
C 30.40625 73.5 30.59375 73.703125 30.59375 74 
C 30.59375 74.296875 30.296875 74.5 29.90625 74.5 
C 28.796875 74.5 20.296875 67.125 15.40625 56.15625 
C 10.40625 45.109375 9 34.359375 9 24.8125 
C 9 17.625 9.703125 5.484375 15.703125 -7.359375 
C 20.5 -17.734375 28.703125 -25 29.90625 -25 
C 30.40625 -25 30.59375 -24.796875 30.59375 -24.390625 
z
" id="CMR17-40"/>
      <path d="M 26.296875 24.703125 
C 26.296875 31.875 25.59375 44.015625 19.59375 56.859375 
C 14.796875 67.234375 6.59375 74.5 5.40625 74.5 
C 5.09375 74.5 4.703125 74.390625 4.703125 73.890625 
C 4.703125 73.703125 4.796875 73.59375 4.90625 73.390625 
C 9.703125 68.40625 21.90625 55.75 21.90625 24.75 
C 21.90625 -6.359375 9.796875 -19.015625 4.90625 -24.015625 
C 4.796875 -24.203125 4.703125 -24.3125 4.703125 -24.5 
C 4.703125 -25 5.09375 -25 5.40625 -25 
C 6.5 -25 15 -17.625 19.90625 -6.65625 
C 24.90625 4.390625 26.296875 15.140625 26.296875 24.703125 
z
" id="CMR17-41"/>
     </defs>
     <g transform="translate(19.155168 167.203052)rotate(-90)scale(0.16 -0.16)">
      <use transform="scale(0.996264)" xlink:href="#CMMI12-102"/>
      <use transform="translate(58.720305 0)scale(0.996264)" xlink:href="#CMR17-40"/>
      <use transform="translate(94.001073 0)scale(0.996264)" xlink:href="#CMMI12-120"/>
      <use transform="translate(149.435132 0)scale(0.996264)" xlink:href="#CMR17-41"/>
     </g>
    </g>
   </g>
   <g id="line2d_14">
    <path clip-path="url(#pa8e48c5569)" d="M 54.342207 141.168253 
L 59.274848 140.497226 
L 64.207489 139.616028 
L 69.140131 138.488012 
L 74.072772 137.076891 
L 79.005413 135.348505 
L 83.938054 133.272751 
L 88.870695 130.825568 
L 93.803336 127.990856 
L 98.735977 124.762221 
L 103.668619 121.144459 
L 108.60126 117.154733 
L 113.533901 112.823426 
L 118.466542 108.1947 
L 125.865504 100.825357 
L 143.129748 83.13106 
L 148.062389 78.442286 
L 152.99503 74.161523 
L 155.46135 72.221404 
L 157.927671 70.44108 
L 160.393992 68.840729 
L 162.860312 67.440718 
L 165.326633 66.261413 
L 167.792953 65.322972 
L 170.259274 64.645098 
L 172.725594 64.246777 
L 175.191915 64.145984 
L 177.658236 64.359373 
L 180.124556 64.901947 
L 182.590877 65.78672 
L 185.057197 67.024373 
L 187.523518 68.62291 
L 189.989838 70.587331 
L 192.456159 72.919321 
L 194.92248 75.616965 
L 197.3888 78.674506 
L 199.855121 82.082146 
L 202.321441 85.825906 
L 204.787762 89.887539 
L 207.254082 94.244524 
L 209.720403 98.870127 
L 214.653044 108.800098 
L 219.585685 119.386608 
L 231.917288 146.40501 
L 236.849929 156.420581 
L 239.31625 161.066497 
L 241.78257 165.411805 
L 244.248891 169.415614 
L 246.715211 173.040669 
L 249.181532 176.253896 
L 251.647853 179.02688 
L 254.114173 181.336272 
L 256.580494 183.164104 
L 259.046814 184.498026 
L 261.513135 185.331443 
L 263.979455 185.66357 
L 266.445776 185.499386 
L 268.912097 184.849509 
L 271.378417 183.729987 
L 273.844738 182.162018 
L 276.311058 180.171599 
L 278.777379 177.789123 
L 281.243699 175.04893 
L 283.71002 171.988824 
L 286.17634 168.64956 
L 291.108982 161.308214 
L 296.041623 153.390115 
L 305.906905 137.339668 
L 310.839546 129.94872 
L 313.305867 126.563798 
L 315.772187 123.438539 
L 318.238508 120.6093 
L 320.704828 118.109642 
L 323.171149 115.970116 
L 325.63747 114.218055 
L 328.10379 112.877383 
L 330.570111 111.968448 
L 333.036431 111.507859 
L 335.502752 111.508344 
L 337.969072 111.978625 
L 340.435393 112.923303 
L 342.901714 114.342774 
L 345.368034 116.233164 
L 347.834355 118.58629 
L 350.300675 121.38966 
L 352.766996 124.626502 
L 355.233316 128.27584 
L 357.699637 132.312609 
L 360.165957 136.707825 
L 362.632278 141.428794 
L 367.564919 151.70034 
L 372.49756 162.802951 
L 389.761804 202.836043 
L 394.694445 213.043646 
L 397.160766 217.723812 
L 399.627087 222.07286 
L 402.093407 226.058901 
L 404.559728 229.654173 
L 407.026048 232.835312 
L 409.492369 235.583562 
L 411.958689 237.884908 
L 414.42501 239.730141 
L 416.891331 241.114848 
L 419.357651 242.039335 
L 421.823972 242.50848 
L 424.290292 242.531524 
L 426.756613 242.121808 
L 429.222933 241.296456 
L 431.689254 240.076014 
L 434.155574 238.484061 
L 436.621895 236.546787 
L 439.088216 234.292555 
L 441.554536 231.751452 
L 444.020857 228.954844 
L 446.487177 225.934926 
L 451.419818 219.355543 
L 456.35246 212.271705 
L 473.616704 186.854805 
L 478.549345 180.185936 
L 483.481986 174.022442 
L 488.414627 168.438964 
L 493.347268 163.477634 
L 495.813589 161.235453 
L 498.279909 159.151808 
L 500.74623 157.224617 
L 503.21255 155.450587 
L 505.678871 153.825371 
L 508.145191 152.343726 
L 510.611512 150.999662 
L 513.077833 149.786586 
L 518.010474 147.724845 
L 522.943115 146.09875 
L 527.875756 144.846785 
L 532.808397 143.908646 
L 537.741038 143.227525 
L 542.673679 142.751715 
L 545.14 142.576291 
L 545.14 142.576291 
" style="fill:none;stroke:#3465a4;stroke-linecap:square;stroke-width:2;"/>
   </g>
   <g id="line2d_15">
    <defs>
     <path d="M 0 3 
C 0.795609 3 1.55874 2.683901 2.12132 2.12132 
C 2.683901 1.55874 3 0.795609 3 0 
C 3 -0.795609 2.683901 -1.55874 2.12132 -2.12132 
C 1.55874 -2.683901 0.795609 -3 0 -3 
C -0.795609 -3 -1.55874 -2.683901 -2.12132 -2.12132 
C -2.683901 -1.55874 -3 -0.795609 -3 0 
C -3 0.795609 -2.683901 1.55874 -2.12132 2.12132 
C -1.55874 2.683901 -0.795609 3 0 3 
z
" id="md2e0c2b3ef" style="stroke:#0000ff;"/>
    </defs>
    <g clip-path="url(#pa8e48c5569)">
     <use style="fill:#0000ff;stroke:#0000ff;" x="272.935265" xlink:href="#md2e0c2b3ef" y="203.093542"/>
     <use style="fill:#0000ff;stroke:#0000ff;" x="372.453199" xlink:href="#md2e0c2b3ef" y="182.244526"/>
     <use style="fill:#0000ff;stroke:#0000ff;" x="136.141839" xlink:href="#md2e0c2b3ef" y="108.16273"/>
     <use style="fill:#0000ff;stroke:#0000ff;" x="235.304003" xlink:href="#md2e0c2b3ef" y="135.599257"/>
     <use style="fill:#0000ff;stroke:#0000ff;" x="184.257042" xlink:href="#md2e0c2b3ef" y="54.530849"/>
     <use style="fill:#0000ff;stroke:#0000ff;" x="166.40194" xlink:href="#md2e0c2b3ef" y="71.501545"/>
     <use style="fill:#0000ff;stroke:#0000ff;" x="197.218981" xlink:href="#md2e0c2b3ef" y="55.371533"/>
     <use style="fill:#0000ff;stroke:#0000ff;" x="249.487785" xlink:href="#md2e0c2b3ef" y="174.345278"/>
     <use style="fill:#0000ff;stroke:#0000ff;" x="266.28946" xlink:href="#md2e0c2b3ef" y="201.108817"/>
     <use style="fill:#0000ff;stroke:#0000ff;" x="312.897877" xlink:href="#md2e0c2b3ef" y="135.493542"/>
     <use style="fill:#0000ff;stroke:#0000ff;" x="273.648096" xlink:href="#md2e0c2b3ef" y="202.995033"/>
     <use style="fill:#0000ff;stroke:#0000ff;" x="360.934743" xlink:href="#md2e0c2b3ef" y="147.658972"/>
     <use style="fill:#0000ff;stroke:#0000ff;" x="203.188052" xlink:href="#md2e0c2b3ef" y="60.753232"/>
     <use style="fill:#0000ff;stroke:#0000ff;" x="424.227347" xlink:href="#md2e0c2b3ef" y="263.686556"/>
     <use style="fill:#0000ff;stroke:#0000ff;" x="145.090577" xlink:href="#md2e0c2b3ef" y="99.386832"/>
     <use style="fill:#0000ff;stroke:#0000ff;" x="356.094402" xlink:href="#md2e0c2b3ef" y="135.26022"/>
     <use style="fill:#0000ff;stroke:#0000ff;" x="273.028055" xlink:href="#md2e0c2b3ef" y="203.084128"/>
     <use style="fill:#0000ff;stroke:#0000ff;" x="319.418527" xlink:href="#md2e0c2b3ef" y="123.071497"/>
     <use style="fill:#0000ff;stroke:#0000ff;" x="182.167297" xlink:href="#md2e0c2b3ef" y="55.63076"/>
     <use style="fill:#0000ff;stroke:#0000ff;" x="201.104276" xlink:href="#md2e0c2b3ef" y="58.500675"/>
     <use style="fill:#0000ff;stroke:#0000ff;" x="398.84019" xlink:href="#md2e0c2b3ef" y="253.059997"/>
     <use style="fill:#0000ff;stroke:#0000ff;" x="453.804943" xlink:href="#md2e0c2b3ef" y="213.706831"/>
     <use style="fill:#0000ff;stroke:#0000ff;" x="238.943319" xlink:href="#md2e0c2b3ef" y="146.217712"/>
     <use style="fill:#0000ff;stroke:#0000ff;" x="363.265378" xlink:href="#md2e0c2b3ef" y="154.203858"/>
     <use style="fill:#0000ff;stroke:#0000ff;" x="423.660272" xlink:href="#md2e0c2b3ef" y="264.152841"/>
     <use style="fill:#0000ff;stroke:#0000ff;" x="429.637701" xlink:href="#md2e0c2b3ef" y="257.908367"/>
     <use style="fill:#0000ff;stroke:#0000ff;" x="164.008547" xlink:href="#md2e0c2b3ef" y="74.654541"/>
     <use style="fill:#0000ff;stroke:#0000ff;" x="148.918751" xlink:href="#md2e0c2b3ef" y="94.827238"/>
     <use style="fill:#0000ff;stroke:#0000ff;" x="191.828129" xlink:href="#md2e0c2b3ef" y="53.30052"/>
     <use style="fill:#0000ff;stroke:#0000ff;" x="424.235572" xlink:href="#md2e0c2b3ef" y="263.67954"/>
     <use style="fill:#0000ff;stroke:#0000ff;" x="168.37333" xlink:href="#md2e0c2b3ef" y="68.992575"/>
     <use style="fill:#0000ff;stroke:#0000ff;" x="274.275816" xlink:href="#md2e0c2b3ef" y="202.858819"/>
     <use style="fill:#0000ff;stroke:#0000ff;" x="450.401725" xlink:href="#md2e0c2b3ef" y="220.745514"/>
     <use style="fill:#0000ff;stroke:#0000ff;" x="311.043555" xlink:href="#md2e0c2b3ef" y="139.471602"/>
     <use style="fill:#0000ff;stroke:#0000ff;" x="363.119203" xlink:href="#md2e0c2b3ef" y="153.78413"/>
     <use style="fill:#0000ff;stroke:#0000ff;" x="239.629555" xlink:href="#md2e0c2b3ef" y="148.190837"/>
     <use style="fill:#0000ff;stroke:#0000ff;" x="361.355198" xlink:href="#md2e0c2b3ef" y="148.815298"/>
     <use style="fill:#0000ff;stroke:#0000ff;" x="409.95707" xlink:href="#md2e0c2b3ef" y="266.00303"/>
     <use style="fill:#0000ff;stroke:#0000ff;" x="142.10496" xlink:href="#md2e0c2b3ef" y="102.63606"/>
     <use style="fill:#0000ff;stroke:#0000ff;" x="382.237514" xlink:href="#md2e0c2b3ef" y="212.628032"/>
     <use style="fill:#0000ff;stroke:#0000ff;" x="460.563941" xlink:href="#md2e0c2b3ef" y="200.039999"/>
     <use style="fill:#0000ff;stroke:#0000ff;" x="381.588287" xlink:href="#md2e0c2b3ef" y="210.68803"/>
     <use style="fill:#0000ff;stroke:#0000ff;" x="228.122043" xlink:href="#md2e0c2b3ef" y="114.599768"/>
     <use style="fill:#0000ff;stroke:#0000ff;" x="395.078278" xlink:href="#md2e0c2b3ef" y="245.836235"/>
     <use style="fill:#0000ff;stroke:#0000ff;" x="169.974258" xlink:href="#md2e0c2b3ef" y="67.030742"/>
     <use style="fill:#0000ff;stroke:#0000ff;" x="283.064657" xlink:href="#md2e0c2b3ef" y="196.292748"/>
     <use style="fill:#0000ff;stroke:#0000ff;" x="434.227641" xlink:href="#md2e0c2b3ef" y="251.34703"/>
     <use style="fill:#0000ff;stroke:#0000ff;" x="232.443361" xlink:href="#md2e0c2b3ef" y="127.178324"/>
     <use style="fill:#0000ff;stroke:#0000ff;" x="230.527563" xlink:href="#md2e0c2b3ef" y="121.56357"/>
     <use style="fill:#0000ff;stroke:#0000ff;" x="178.768567" xlink:href="#md2e0c2b3ef" y="58.028062"/>
     <use style="fill:#0000ff;stroke:#0000ff;" x="142.45889" xlink:href="#md2e0c2b3ef" y="102.266468"/>
     <use style="fill:#0000ff;stroke:#0000ff;" x="358.840071" xlink:href="#md2e0c2b3ef" y="142.076385"/>
     <use style="fill:#0000ff;stroke:#0000ff;" x="205.542558" xlink:href="#md2e0c2b3ef" y="63.778191"/>
     <use style="fill:#0000ff;stroke:#0000ff;" x="223.234012" xlink:href="#md2e0c2b3ef" y="100.987841"/>
     <use style="fill:#0000ff;stroke:#0000ff;" x="297.396577" xlink:href="#md2e0c2b3ef" y="170.661251"/>
     <use style="fill:#0000ff;stroke:#0000ff;" x="153.613334" xlink:href="#md2e0c2b3ef" y="88.770517"/>
     <use style="fill:#0000ff;stroke:#0000ff;" x="324.480604" xlink:href="#md2e0c2b3ef" y="115.723235"/>
     <use style="fill:#0000ff;stroke:#0000ff;" x="184.24808" xlink:href="#md2e0c2b3ef" y="54.534945"/>
     <use style="fill:#0000ff;stroke:#0000ff;" x="329.463984" xlink:href="#md2e0c2b3ef" y="110.987743"/>
     <use style="fill:#0000ff;stroke:#0000ff;" x="365.705153" xlink:href="#md2e0c2b3ef" y="161.367738"/>
     <use style="fill:#0000ff;stroke:#0000ff;" x="169.681718" xlink:href="#md2e0c2b3ef" y="67.383576"/>
     <use style="fill:#0000ff;stroke:#0000ff;" x="271.962071" xlink:href="#md2e0c2b3ef" y="203.131068"/>
     <use style="fill:#0000ff;stroke:#0000ff;" x="363.94705" xlink:href="#md2e0c2b3ef" y="156.176262"/>
     <use style="fill:#0000ff;stroke:#0000ff;" x="272.002522" xlink:href="#md2e0c2b3ef" y="203.131766"/>
     <use style="fill:#0000ff;stroke:#0000ff;" x="152.494764" xlink:href="#md2e0c2b3ef" y="90.25012"/>
     <use style="fill:#0000ff;stroke:#0000ff;" x="311.939675" xlink:href="#md2e0c2b3ef" y="137.529964"/>
     <use style="fill:#0000ff;stroke:#0000ff;" x="353.904938" xlink:href="#md2e0c2b3ef" y="130.285504"/>
     <use style="fill:#0000ff;stroke:#0000ff;" x="305.046878" xlink:href="#md2e0c2b3ef" y="153.095459"/>
     <use style="fill:#0000ff;stroke:#0000ff;" x="446.039517" xlink:href="#md2e0c2b3ef" y="229.679347"/>
     <use style="fill:#0000ff;stroke:#0000ff;" x="328.561506" xlink:href="#md2e0c2b3ef" y="111.643981"/>
     <use style="fill:#0000ff;stroke:#0000ff;" x="432.52355" xlink:href="#md2e0c2b3ef" y="253.940503"/>
     <use style="fill:#0000ff;stroke:#0000ff;" x="181.211751" xlink:href="#md2e0c2b3ef" y="56.231609"/>
     <use style="fill:#0000ff;stroke:#0000ff;" x="181.802896" xlink:href="#md2e0c2b3ef" y="55.852848"/>
     <use style="fill:#0000ff;stroke:#0000ff;" x="401.021075" xlink:href="#md2e0c2b3ef" y="256.616618"/>
     <use style="fill:#0000ff;stroke:#0000ff;" x="266.587835" xlink:href="#md2e0c2b3ef" y="201.310282"/>
     <use style="fill:#0000ff;stroke:#0000ff;" x="190.359416" xlink:href="#md2e0c2b3ef" y="53.176998"/>
     <use style="fill:#0000ff;stroke:#0000ff;" x="440.433296" xlink:href="#md2e0c2b3ef" y="240.615254"/>
     <use style="fill:#0000ff;stroke:#0000ff;" x="250.211321" xlink:href="#md2e0c2b3ef" y="176.037821"/>
     <use style="fill:#0000ff;stroke:#0000ff;" x="382.456625" xlink:href="#md2e0c2b3ef" y="213.278744"/>
     <use style="fill:#0000ff;stroke:#0000ff;" x="374.314754" xlink:href="#md2e0c2b3ef" y="188.124753"/>
     <use style="fill:#0000ff;stroke:#0000ff;" x="425.92982" xlink:href="#md2e0c2b3ef" y="262.121532"/>
     <use style="fill:#0000ff;stroke:#0000ff;" x="340.740186" xlink:href="#md2e0c2b3ef" y="110.996602"/>
     <use style="fill:#0000ff;stroke:#0000ff;" x="382.499389" xlink:href="#md2e0c2b3ef" y="213.405547"/>
     <use style="fill:#0000ff;stroke:#0000ff;" x="250.582905" xlink:href="#md2e0c2b3ef" y="176.891766"/>
     <use style="fill:#0000ff;stroke:#0000ff;" x="224.671558" xlink:href="#md2e0c2b3ef" y="104.895534"/>
     <use style="fill:#0000ff;stroke:#0000ff;" x="430.057541" xlink:href="#md2e0c2b3ef" y="257.366514"/>
     <use style="fill:#0000ff;stroke:#0000ff;" x="276.567224" xlink:href="#md2e0c2b3ef" y="201.972836"/>
     <use style="fill:#0000ff;stroke:#0000ff;" x="452.68229" xlink:href="#md2e0c2b3ef" y="216.026688"/>
     <use style="fill:#0000ff;stroke:#0000ff;" x="353.789065" xlink:href="#md2e0c2b3ef" y="130.034521"/>
     <use style="fill:#0000ff;stroke:#0000ff;" x="340.091672" xlink:href="#md2e0c2b3ef" y="110.572132"/>
     <use style="fill:#0000ff;stroke:#0000ff;" x="173.754125" xlink:href="#md2e0c2b3ef" y="62.742819"/>
     <use style="fill:#0000ff;stroke:#0000ff;" x="447.645474" xlink:href="#md2e0c2b3ef" y="226.41618"/>
     <use style="fill:#0000ff;stroke:#0000ff;" x="283.726992" xlink:href="#md2e0c2b3ef" y="195.467711"/>
     <use style="fill:#0000ff;stroke:#0000ff;" x="325.882312" xlink:href="#md2e0c2b3ef" y="114.123001"/>
     <use style="fill:#0000ff;stroke:#0000ff;" x="270.019901" xlink:href="#md2e0c2b3ef" y="202.869665"/>
     <use style="fill:#0000ff;stroke:#0000ff;" x="213.876293" xlink:href="#md2e0c2b3ef" y="78.394034"/>
     <use style="fill:#0000ff;stroke:#0000ff;" x="432.516202" xlink:href="#md2e0c2b3ef" y="253.951326"/>
     <use style="fill:#0000ff;stroke:#0000ff;" x="324.336851" xlink:href="#md2e0c2b3ef" y="115.89865"/>
     <use style="fill:#0000ff;stroke:#0000ff;" x="137.046107" xlink:href="#md2e0c2b3ef" y="107.413948"/>
     <use style="fill:#0000ff;stroke:#0000ff;" x="338.598486" xlink:href="#md2e0c2b3ef" y="109.792713"/>
     <use style="fill:#0000ff;stroke:#0000ff;" x="243.281229" xlink:href="#md2e0c2b3ef" y="158.433515"/>
     <use style="fill:#0000ff;stroke:#0000ff;" x="309.0397" xlink:href="#md2e0c2b3ef" y="143.923234"/>
     <use style="fill:#0000ff;stroke:#0000ff;" x="426.794732" xlink:href="#md2e0c2b3ef" y="261.234548"/>
     <use style="fill:#0000ff;stroke:#0000ff;" x="253.329689" xlink:href="#md2e0c2b3ef" y="182.861181"/>
     <use style="fill:#0000ff;stroke:#0000ff;" x="434.207839" xlink:href="#md2e0c2b3ef" y="251.378196"/>
     <use style="fill:#0000ff;stroke:#0000ff;" x="340.637784" xlink:href="#md2e0c2b3ef" y="110.926149"/>
     <use style="fill:#0000ff;stroke:#0000ff;" x="141.29549" xlink:href="#md2e0c2b3ef" y="103.464727"/>
     <use style="fill:#0000ff;stroke:#0000ff;" x="441.066115" xlink:href="#md2e0c2b3ef" y="239.427736"/>
     <use style="fill:#0000ff;stroke:#0000ff;" x="362.797586" xlink:href="#md2e0c2b3ef" y="152.86477"/>
     <use style="fill:#0000ff;stroke:#0000ff;" x="463.340368" xlink:href="#md2e0c2b3ef" y="194.69842"/>
     <use style="fill:#0000ff;stroke:#0000ff;" x="192.651726" xlink:href="#md2e0c2b3ef" y="53.450553"/>
     <use style="fill:#0000ff;stroke:#0000ff;" x="181.100535" xlink:href="#md2e0c2b3ef" y="56.305408"/>
     <use style="fill:#0000ff;stroke:#0000ff;" x="442.102376" xlink:href="#md2e0c2b3ef" y="237.453626"/>
     <use style="fill:#0000ff;stroke:#0000ff;" x="364.740432" xlink:href="#md2e0c2b3ef" y="158.501296"/>
     <use style="fill:#0000ff;stroke:#0000ff;" x="157.759923" xlink:href="#md2e0c2b3ef" y="83.160677"/>
     <use style="fill:#0000ff;stroke:#0000ff;" x="383.982669" xlink:href="#md2e0c2b3ef" y="217.750393"/>
     <use style="fill:#0000ff;stroke:#0000ff;" x="383.461996" xlink:href="#md2e0c2b3ef" y="216.237149"/>
     <use style="fill:#0000ff;stroke:#0000ff;" x="438.962016" xlink:href="#md2e0c2b3ef" y="243.317632"/>
     <use style="fill:#0000ff;stroke:#0000ff;" x="369.565879" xlink:href="#md2e0c2b3ef" y="173.181396"/>
     <use style="fill:#0000ff;stroke:#0000ff;" x="176.879412" xlink:href="#md2e0c2b3ef" y="59.654031"/>
     <use style="fill:#0000ff;stroke:#0000ff;" x="142.627271" xlink:href="#md2e0c2b3ef" y="102.089095"/>
     <use style="fill:#0000ff;stroke:#0000ff;" x="144.704515" xlink:href="#md2e0c2b3ef" y="99.823252"/>
     <use style="fill:#0000ff;stroke:#0000ff;" x="145.39208" xlink:href="#md2e0c2b3ef" y="99.04283"/>
     <use style="fill:#0000ff;stroke:#0000ff;" x="216.889725" xlink:href="#md2e0c2b3ef" y="85.048713"/>
     <use style="fill:#0000ff;stroke:#0000ff;" x="418.291924" xlink:href="#md2e0c2b3ef" y="267.111441"/>
     <use style="fill:#0000ff;stroke:#0000ff;" x="312.902579" xlink:href="#md2e0c2b3ef" y="135.483627"/>
     <use style="fill:#0000ff;stroke:#0000ff;" x="317.493201" xlink:href="#md2e0c2b3ef" y="126.438644"/>
     <use style="fill:#0000ff;stroke:#0000ff;" x="412.38683" xlink:href="#md2e0c2b3ef" y="267.078497"/>
     <use style="fill:#0000ff;stroke:#0000ff;" x="176.847373" xlink:href="#md2e0c2b3ef" y="59.683243"/>
     <use style="fill:#0000ff;stroke:#0000ff;" x="227.708516" xlink:href="#md2e0c2b3ef" y="113.4165"/>
     <use style="fill:#0000ff;stroke:#0000ff;" x="328.300403" xlink:href="#md2e0c2b3ef" y="111.850943"/>
     <use style="fill:#0000ff;stroke:#0000ff;" x="454.242704" xlink:href="#md2e0c2b3ef" y="212.804039"/>
     <use style="fill:#0000ff;stroke:#0000ff;" x="320.186443" xlink:href="#md2e0c2b3ef" y="121.810371"/>
     <use style="fill:#0000ff;stroke:#0000ff;" x="142.222757" xlink:href="#md2e0c2b3ef" y="102.513515"/>
     <use style="fill:#0000ff;stroke:#0000ff;" x="398.803475" xlink:href="#md2e0c2b3ef" y="252.996073"/>
     <use style="fill:#0000ff;stroke:#0000ff;" x="212.546541" xlink:href="#md2e0c2b3ef" y="75.674647"/>
     <use style="fill:#0000ff;stroke:#0000ff;" x="400.927203" xlink:href="#md2e0c2b3ef" y="256.473466"/>
     <use style="fill:#0000ff;stroke:#0000ff;" x="263.367" xlink:href="#md2e0c2b3ef" y="198.587118"/>
     <use style="fill:#0000ff;stroke:#0000ff;" x="419.444888" xlink:href="#md2e0c2b3ef" y="266.70628"/>
     <use style="fill:#0000ff;stroke:#0000ff;" x="381.245732" xlink:href="#md2e0c2b3ef" y="209.657623"/>
     <use style="fill:#0000ff;stroke:#0000ff;" x="318.61478" xlink:href="#md2e0c2b3ef" y="124.442524"/>
     <use style="fill:#0000ff;stroke:#0000ff;" x="180.877245" xlink:href="#md2e0c2b3ef" y="56.45589"/>
     <use style="fill:#0000ff;stroke:#0000ff;" x="155.764172" xlink:href="#md2e0c2b3ef" y="85.879605"/>
     <use style="fill:#0000ff;stroke:#0000ff;" x="175.918855" xlink:href="#md2e0c2b3ef" y="60.553297"/>
     <use style="fill:#0000ff;stroke:#0000ff;" x="150.722427" xlink:href="#md2e0c2b3ef" y="92.551053"/>
     <use style="fill:#0000ff;stroke:#0000ff;" x="171.37469" xlink:href="#md2e0c2b3ef" y="65.380695"/>
     <use style="fill:#0000ff;stroke:#0000ff;" x="210.162811" xlink:href="#md2e0c2b3ef" y="71.155627"/>
     <use style="fill:#0000ff;stroke:#0000ff;" x="370.046311" xlink:href="#md2e0c2b3ef" y="174.68032"/>
     <use style="fill:#0000ff;stroke:#0000ff;" x="319.755551" xlink:href="#md2e0c2b3ef" y="122.512002"/>
     <use style="fill:#0000ff;stroke:#0000ff;" x="140.22411" xlink:href="#md2e0c2b3ef" y="104.52508"/>
     <use style="fill:#0000ff;stroke:#0000ff;" x="159.720114" xlink:href="#md2e0c2b3ef" y="80.476169"/>
     <use style="fill:#0000ff;stroke:#0000ff;" x="453.48167" xlink:href="#md2e0c2b3ef" y="214.374212"/>
     <use style="fill:#0000ff;stroke:#0000ff;" x="322.506292" xlink:href="#md2e0c2b3ef" y="118.309305"/>
     <use style="fill:#0000ff;stroke:#0000ff;" x="202.807763" xlink:href="#md2e0c2b3ef" y="60.312266"/>
     <use style="fill:#0000ff;stroke:#0000ff;" x="218.896039" xlink:href="#md2e0c2b3ef" y="89.82932"/>
     <use style="fill:#0000ff;stroke:#0000ff;" x="380.164336" xlink:href="#md2e0c2b3ef" y="206.376583"/>
     <use style="fill:#0000ff;stroke:#0000ff;" x="200.227552" xlink:href="#md2e0c2b3ef" y="57.672852"/>
     <use style="fill:#0000ff;stroke:#0000ff;" x="326.856586" xlink:href="#md2e0c2b3ef" y="113.13154"/>
     <use style="fill:#0000ff;stroke:#0000ff;" x="454.381904" xlink:href="#md2e0c2b3ef" y="212.517257"/>
     <use style="fill:#0000ff;stroke:#0000ff;" x="413.961093" xlink:href="#md2e0c2b3ef" y="267.440477"/>
     <use style="fill:#0000ff;stroke:#0000ff;" x="214.801831" xlink:href="#md2e0c2b3ef" y="80.367098"/>
     <use style="fill:#0000ff;stroke:#0000ff;" x="298.117298" xlink:href="#md2e0c2b3ef" y="169.057564"/>
     <use style="fill:#0000ff;stroke:#0000ff;" x="339.520752" xlink:href="#md2e0c2b3ef" y="110.241466"/>
     <use style="fill:#0000ff;stroke:#0000ff;" x="408.104938" xlink:href="#md2e0c2b3ef" y="264.758129"/>
     <use style="fill:#0000ff;stroke:#0000ff;" x="187.549836" xlink:href="#md2e0c2b3ef" y="53.438746"/>
     <use style="fill:#0000ff;stroke:#0000ff;" x="142.199432" xlink:href="#md2e0c2b3ef" y="102.537808"/>
     <use style="fill:#0000ff;stroke:#0000ff;" x="159.07959" xlink:href="#md2e0c2b3ef" y="81.353688"/>
     <use style="fill:#0000ff;stroke:#0000ff;" x="295.681179" xlink:href="#md2e0c2b3ef" y="174.399969"/>
     <use style="fill:#0000ff;stroke:#0000ff;" x="335.04978" xlink:href="#md2e0c2b3ef" y="109.049976"/>
     <use style="fill:#0000ff;stroke:#0000ff;" x="322.752698" xlink:href="#md2e0c2b3ef" y="117.966121"/>
     <use style="fill:#0000ff;stroke:#0000ff;" x="240.235509" xlink:href="#md2e0c2b3ef" y="149.922349"/>
     <use style="fill:#0000ff;stroke:#0000ff;" x="460.483575" xlink:href="#md2e0c2b3ef" y="200.197602"/>
     <use style="fill:#0000ff;stroke:#0000ff;" x="326.327106" xlink:href="#md2e0c2b3ef" y="113.65784"/>
     <use style="fill:#0000ff;stroke:#0000ff;" x="260.83413" xlink:href="#md2e0c2b3ef" y="195.614629"/>
     <use style="fill:#0000ff;stroke:#0000ff;" x="316.878393" xlink:href="#md2e0c2b3ef" y="127.571849"/>
     <use style="fill:#0000ff;stroke:#0000ff;" x="380.659322" xlink:href="#md2e0c2b3ef" y="207.883542"/>
     <use style="fill:#0000ff;stroke:#0000ff;" x="355.689306" xlink:href="#md2e0c2b3ef" y="134.307451"/>
     <use style="fill:#0000ff;stroke:#0000ff;" x="223.028251" xlink:href="#md2e0c2b3ef" y="100.436198"/>
     <use style="fill:#0000ff;stroke:#0000ff;" x="157.86973" xlink:href="#md2e0c2b3ef" y="83.010453"/>
     <use style="fill:#0000ff;stroke:#0000ff;" x="257.534291" xlink:href="#md2e0c2b3ef" y="190.69899"/>
     <use style="fill:#0000ff;stroke:#0000ff;" x="342.723736" xlink:href="#md2e0c2b3ef" y="112.616263"/>
     <use style="fill:#0000ff;stroke:#0000ff;" x="205.065445" xlink:href="#md2e0c2b3ef" y="63.124414"/>
     <use style="fill:#0000ff;stroke:#0000ff;" x="383.094299" xlink:href="#md2e0c2b3ef" y="215.16052"/>
     <use style="fill:#0000ff;stroke:#0000ff;" x="157.935893" xlink:href="#md2e0c2b3ef" y="82.919953"/>
     <use style="fill:#0000ff;stroke:#0000ff;" x="221.517461" xlink:href="#md2e0c2b3ef" y="96.449862"/>
     <use style="fill:#0000ff;stroke:#0000ff;" x="400.155927" xlink:href="#md2e0c2b3ef" y="255.262957"/>
     <use style="fill:#0000ff;stroke:#0000ff;" x="199.572898" xlink:href="#md2e0c2b3ef" y="57.101049"/>
     <use style="fill:#0000ff;stroke:#0000ff;" x="345.920678" xlink:href="#md2e0c2b3ef" y="116.22892"/>
     <use style="fill:#0000ff;stroke:#0000ff;" x="308.256231" xlink:href="#md2e0c2b3ef" y="145.697752"/>
     <use style="fill:#0000ff;stroke:#0000ff;" x="439.547187" xlink:href="#md2e0c2b3ef" y="242.253039"/>
     <use style="fill:#0000ff;stroke:#0000ff;" x="222.495791" xlink:href="#md2e0c2b3ef" y="99.018136"/>
     <use style="fill:#0000ff;stroke:#0000ff;" x="157.747099" xlink:href="#md2e0c2b3ef" y="83.17819"/>
     <use style="fill:#0000ff;stroke:#0000ff;" x="377.290089" xlink:href="#md2e0c2b3ef" y="197.486476"/>
     <use style="fill:#0000ff;stroke:#0000ff;" x="389.467095" xlink:href="#md2e0c2b3ef" y="232.744869"/>
     <use style="fill:#0000ff;stroke:#0000ff;" x="433.971827" xlink:href="#md2e0c2b3ef" y="251.74741"/>
     <use style="fill:#0000ff;stroke:#0000ff;" x="441.897831" xlink:href="#md2e0c2b3ef" y="237.846068"/>
     <use style="fill:#0000ff;stroke:#0000ff;" x="140.682024" xlink:href="#md2e0c2b3ef" y="104.077052"/>
     <use style="fill:#0000ff;stroke:#0000ff;" x="213.001903" xlink:href="#md2e0c2b3ef" y="76.590271"/>
     <use style="fill:#0000ff;stroke:#0000ff;" x="338.478214" xlink:href="#md2e0c2b3ef" y="109.741966"/>
     <use style="fill:#0000ff;stroke:#0000ff;" x="447.490297" xlink:href="#md2e0c2b3ef" y="226.733132"/>
    </g>
   </g>
   <g id="patch_3">
    <path d="M 54.342207 293.301871 
L 54.342207 10.7 
" style="fill:none;stroke:#000000;stroke-linecap:square;stroke-linejoin:miter;stroke-width:0.8;"/>
   </g>
   <g id="patch_4">
    <path d="M 545.14 293.301871 
L 545.14 10.7 
" style="fill:none;stroke:#000000;stroke-linecap:square;stroke-linejoin:miter;stroke-width:0.8;"/>
   </g>
   <g id="patch_5">
    <path d="M 54.342207 293.301871 
L 545.14 293.301871 
" style="fill:none;stroke:#000000;stroke-linecap:square;stroke-linejoin:miter;stroke-width:0.8;"/>
   </g>
   <g id="patch_6">
    <path d="M 54.342207 10.7 
L 545.14 10.7 
" style="fill:none;stroke:#000000;stroke-linecap:square;stroke-linejoin:miter;stroke-width:0.8;"/>
   </g>
   <g id="legend_1">
    <g id="patch_7">
     <path d="M 408.168569 90.398429 
L 533.94 90.398429 
Q 537.14 90.398429 537.14 87.198429 
L 537.14 21.9 
Q 537.14 18.7 533.94 18.7 
L 408.168569 18.7 
Q 404.968569 18.7 404.968569 21.9 
L 404.968569 87.198429 
Q 404.968569 90.398429 408.168569 90.398429 
z
" style="fill:#ffffff;opacity:0.8;stroke:#cccccc;stroke-linejoin:miter;"/>
    </g>
    <g id="line2d_16">
     <path d="M 411.368569 30.7 
L 443.368569 30.7 
" style="fill:none;stroke:#3465a4;stroke-linecap:square;stroke-width:2;"/>
    </g>
    <g id="line2d_17"/>
    <g id="text_16">
     <!-- Mean -->
     <defs>
      <path d="M 20.90625 66 
C 20.296875 67.5 20.203125 67.5 18.09375 67.5 
L 5.296875 67.5 
L 5.296875 65 
C 12.203125 65 13.296875 65 13.296875 60.546875 
L 13.296875 9.53125 
C 13.296875 7.046875 13.296875 2.390625 5.296875 2.390625 
L 5.296875 -0.203125 
C 7.59375 0 11.796875 0 14.296875 0 
C 16.796875 0 21 0 23.296875 -0.203125 
L 23.296875 2.390625 
C 15.296875 2.390625 15.296875 7.046875 15.296875 9.53125 
L 15.296875 64.609375 
L 15.40625 64.609375 
L 38.90625 1.390625 
C 39.296875 0.390625 39.5 -0.203125 40.296875 -0.203125 
C 41.09375 -0.203125 41.296875 0.390625 41.703125 1.390625 
L 65.40625 65.09375 
L 65.5 65.09375 
L 65.5 6.84375 
C 65.5 2.390625 64.40625 2.390625 57.5 2.390625 
L 57.5 -0.203125 
C 60.203125 0 65.59375 0 68.5 0 
C 71.40625 0 76.90625 0 79.59375 -0.203125 
L 79.59375 2.390625 
C 72.703125 2.390625 71.59375 2.390625 71.59375 6.84375 
L 71.59375 60.546875 
C 71.59375 65 72.703125 65 79.59375 65 
L 79.59375 67.5 
L 66.90625 67.5 
C 64.796875 67.5 64.703125 67.40625 64.09375 65.90625 
L 42.5 7.84375 
z
" id="CMR17-77"/>
      <path d="M 38.09375 23 
C 38.5 23.40625 38.5 23.609375 38.5 24.625 
C 38.5 34.96875 33.09375 44 21.703125 44 
C 11.09375 44 2.703125 33.890625 2.703125 21.609375 
C 2.703125 8.609375 12.203125 -1 22.796875 -1 
C 34 -1 38.40625 9.484375 38.40625 11.5625 
C 38.40625 12.25 37.796875 12.25 37.59375 12.25 
C 36.90625 12.25 36.796875 12.046875 36.40625 10.875 
C 34.203125 4.140625 28.703125 0.796875 23.5 0.796875 
C 19.203125 0.796875 14.90625 3.171875 12.203125 7.5 
C 9.09375 12.546875 9.09375 18.375 9.09375 23 
z
M 9.203125 24.5 
C 9.90625 39.140625 17.59375 42.40625 21.59375 42.40625 
C 28.40625 42.40625 33 35.890625 33.09375 24.5 
z
" id="CMR17-101"/>
      <path d="M 36 25.828125 
C 36 32.375 36 35.84375 31.796875 39.734375 
C 28.09375 43 23.796875 44 20.40625 44 
C 12.5 44 6.796875 37.609375 6.796875 30.796875 
C 6.796875 27 9.796875 27 10.40625 27 
C 11.703125 27 14 27.78125 14 30.53125 
C 14 33 12.09375 34.078125 10.40625 34.078125 
C 10 34.078125 9.5 33.96875 9.203125 33.875 
C 11.296875 40.5 16.703125 42.40625 20.203125 42.40625 
C 25.203125 42.40625 30.703125 37.953125 30.703125 29.453125 
L 30.703125 25 
C 24.796875 25 17.703125 24.203125 12.09375 21.203125 
C 5.796875 17.703125 4 12.703125 4 8.90625 
C 4 1.203125 13 -1 18.296875 -1 
C 23.796875 -1 28.90625 2.171875 31.09375 7.984375 
C 31.296875 3.640625 34.09375 -0.28125 38.5 -0.28125 
C 40.59375 -0.28125 45.90625 1.09375 45.90625 8.859375 
L 45.90625 14.375 
L 44.09375 14.375 
L 44.09375 8.78125 
C 44.09375 2.78125 41.40625 2 40.09375 2 
C 36 2 36 7.15625 36 11.53125 
z
M 30.703125 13.59375 
C 30.703125 4.953125 24.5 0.59375 19 0.59375 
C 14 0.59375 10.09375 4.296875 10.09375 8.90625 
C 10.09375 11.890625 11.40625 17.1875 17.203125 20.390625 
C 22 23.09375 27.5 23.5 30.703125 23.5 
z
" id="CMR17-97"/>
      <path d="M 41.5 30.203125 
C 41.5 35.296875 40.5 43.59375 28.703125 43.59375 
C 20.796875 43.59375 16.703125 37.5 15.203125 33.5 
L 15.09375 33.5 
L 15.09375 43.59375 
L 3.296875 42.5 
L 3.296875 39.90625 
C 9.203125 39.90625 10.09375 39.296875 10.09375 34.5 
L 10.09375 6.6875 
C 10.09375 2.875 9.703125 2.390625 3.296875 2.390625 
L 3.296875 -0.203125 
C 5.703125 0 10.09375 0 12.703125 0 
C 15.296875 0 19.796875 0 22.203125 -0.203125 
L 22.203125 2.390625 
C 15.796875 2.390625 15.40625 2.78125 15.40625 6.6875 
L 15.40625 25.90625 
C 15.40625 35.109375 21 42 28 42 
C 35.40625 42 36.203125 35.40625 36.203125 30.59375 
L 36.203125 6.6875 
C 36.203125 2.875 35.796875 2.390625 29.40625 2.390625 
L 29.40625 -0.203125 
C 31.796875 0 36.203125 0 38.796875 0 
C 41.40625 0 45.90625 0 48.296875 -0.203125 
L 48.296875 2.390625 
C 41.90625 2.390625 41.5 2.78125 41.5 6.6875 
z
" id="CMR17-110"/>
     </defs>
     <g transform="translate(456.168569 36.3)scale(0.16 -0.16)">
      <use transform="scale(0.996264)" xlink:href="#CMR17-77"/>
      <use transform="translate(84.686941 0)scale(0.996264)" xlink:href="#CMR17-101"/>
      <use transform="translate(125.172601 0)scale(0.996264)" xlink:href="#CMR17-97"/>
      <use transform="translate(170.863078 0)scale(0.996264)" xlink:href="#CMR17-110"/>
     </g>
    </g>
    <g id="line2d_18"/>
    <g id="line2d_19">
     <g>
      <use style="fill:#0000ff;stroke:#0000ff;" x="427.368569" xlink:href="#md2e0c2b3ef" y="52.999476"/>
     </g>
    </g>
    <g id="text_17">
     <!-- Truth -->
     <defs>
      <path d="M 62.203125 67.59375 
L 4.5 67.59375 
L 2.796875 45.59375 
L 4.59375 45.59375 
C 5.90625 62.125 7.296875 65 22.703125 65 
C 24.5 65 27.40625 65 28.203125 64.90625 
C 30.09375 64.609375 30.09375 63.40625 30.09375 61.125 
L 30.09375 7.171875 
C 30.09375 3.59375 29.796875 2.5 21.5 2.5 
L 18.703125 2.5 
L 18.703125 0 
C 23.5 0 28.5 0 33.40625 0 
C 38.296875 0 43.296875 0 48.09375 0 
L 48.09375 2.5 
L 45.296875 2.5 
C 37 2.5 36.703125 3.59375 36.703125 7.171875 
L 36.703125 61.125 
C 36.703125 63.3125 36.703125 64.515625 38.5 64.90625 
C 39.296875 65 42.203125 65 44 65 
C 59.296875 65 60.796875 62.125 62.09375 45.59375 
L 63.90625 45.59375 
z
" id="CMR17-84"/>
      <path d="M 15 23.390625 
C 15 33 19.09375 42 26.59375 42 
C 27.296875 42 28 41.90625 28.703125 41.59375 
C 28.703125 41.59375 26.5 40.890625 26.5 38.3125 
C 26.5 35.90625 28.40625 34.90625 29.90625 34.90625 
C 31.09375 34.90625 33.296875 35.609375 33.296875 38.40625 
C 33.296875 41.609375 30.09375 43.59375 26.703125 43.59375 
C 19.09375 43.59375 15.796875 36.203125 14.796875 32.703125 
L 14.703125 32.703125 
L 14.703125 43.59375 
L 3.09375 42.5 
L 3.09375 39.90625 
C 9 39.90625 9.90625 39.296875 9.90625 34.5 
L 9.90625 6.6875 
C 9.90625 2.875 9.5 2.390625 3.09375 2.390625 
L 3.09375 -0.203125 
C 5.5 0 10.09375 0 12.703125 0 
C 15.59375 0 20.703125 0 23.40625 -0.203125 
L 23.40625 2.390625 
C 16.203125 2.390625 15 2.390625 15 6.875 
z
" id="CMR17-114"/>
      <path d="M 29.40625 42.078125 
L 29.40625 39.5 
C 35.296875 39.5 36.203125 38.890625 36.203125 34.15625 
L 36.203125 16.125 
C 36.203125 7.8125 31.703125 0.59375 24.296875 0.59375 
C 16.09375 0.59375 15.40625 5.4375 15.40625 10.59375 
L 15.40625 43.171875 
L 3.296875 42.078125 
L 3.296875 39.5 
C 7.296875 39.5 10 39.5 10.09375 35.53125 
L 10.09375 16.53125 
C 10.09375 9.890625 10.09375 5.640625 12.703125 2.859375 
C 14 1.578125 16.5 -1 23.703125 -1 
C 32.203125 -1 35.5 5.890625 36.296875 7.90625 
L 36.40625 7.90625 
L 36.40625 -0.984375 
L 48.296875 -0.984375 
L 48.296875 2 
C 42.40625 2 41.5 2.59375 41.5 7.390625 
L 41.5 43.171875 
z
" id="CMR17-117"/>
      <path d="M 15.09375 40 
L 29.09375 40 
L 29.09375 42.578125 
L 15.09375 42.578125 
L 15.09375 61 
L 13.296875 61 
C 13.09375 50.703125 9.59375 41.6875 1.09375 41.6875 
L 1.09375 40 
L 9.796875 40 
L 9.796875 12.046875 
C 9.796875 10.15625 9.796875 -1 21.40625 -1 
C 27.296875 -1 30.703125 4.78125 30.703125 12.140625 
L 30.703125 17.8125 
L 28.90625 17.8125 
L 28.90625 12.234375 
C 28.90625 5.375 26.203125 0.796875 22 0.796875 
C 19.09375 0.796875 15.09375 2.78125 15.09375 11.84375 
z
" id="CMR17-116"/>
      <path d="M 41.5 30.203125 
C 41.5 35.296875 40.5 43.59375 28.703125 43.59375 
C 20.5 43.59375 16.5 37 15.296875 33.703125 
L 15.203125 33.703125 
L 15.203125 68.6875 
L 3.296875 67.59375 
L 3.296875 65 
C 9.203125 65 10.09375 64.40625 10.09375 59.640625 
L 10.09375 6.65625 
C 10.09375 2.875 9.703125 2.390625 3.296875 2.390625 
L 3.296875 -0.203125 
C 5.703125 0 10.09375 0 12.703125 0 
C 15.296875 0 19.796875 0 22.203125 -0.203125 
L 22.203125 2.390625 
C 15.796875 2.390625 15.40625 2.78125 15.40625 6.6875 
L 15.40625 25.90625 
C 15.40625 35.109375 21 42 28 42 
C 35.40625 42 36.203125 35.40625 36.203125 30.59375 
L 36.203125 6.6875 
C 36.203125 2.875 35.796875 2.390625 29.40625 2.390625 
L 29.40625 -0.203125 
C 31.796875 0 36.203125 0 38.796875 0 
C 41.40625 0 45.90625 0 48.296875 -0.203125 
L 48.296875 2.390625 
C 41.90625 2.390625 41.5 2.78125 41.5 6.6875 
z
" id="CMR17-104"/>
     </defs>
     <g transform="translate(456.168569 58.599476)scale(0.16 -0.16)">
      <use transform="scale(0.996264)" xlink:href="#CMR17-84"/>
      <use transform="translate(58.702625 0)scale(0.996264)" xlink:href="#CMR17-114"/>
      <use transform="translate(93.983393 0)scale(0.996264)" xlink:href="#CMR17-117"/>
      <use transform="translate(144.878763 0)scale(0.996264)" xlink:href="#CMR17-116"/>
      <use transform="translate(180.159531 0)scale(0.996264)" xlink:href="#CMR17-104"/>
     </g>
    </g>
    <g id="patch_8">
     <path d="M 411.368569 80.898952 
L 443.368569 80.898952 
L 443.368569 69.698952 
L 411.368569 69.698952 
z
" style="fill:#729fcf;opacity:0.2;stroke:#204a87;stroke-linejoin:miter;stroke-width:0.5;"/>
    </g>
    <g id="text_18">
     <!-- Confidence -->
     <defs>
      <path d="M 62.09375 67.015625 
C 62.09375 68.796875 62 68.90625 61.40625 68.90625 
C 61 68.90625 60.90625 68.796875 60.203125 67.609375 
L 55.796875 59.25 
C 50.90625 65.421875 44.90625 69 37.203125 69 
C 20.09375 69 4.59375 54 4.59375 33.5625 
C 4.59375 12.90625 20.09375 -2 37.296875 -2 
C 52.59375 -2 62.09375 11.40625 62.09375 22.828125 
C 62.09375 23.8125 62.09375 24.21875 61.203125 24.21875 
C 60.40625 24.21875 60.40625 23.921875 60.296875 23.03125 
C 59.5 9.140625 49.5 0.59375 38.703125 0.59375 
C 28.5 0.59375 12.203125 7.734375 12.203125 33.546875 
C 12.203125 59.453125 28.796875 66.40625 38.5 66.40625 
C 49.796875 66.40625 58 56.6875 59.90625 42.890625 
C 60.09375 41.6875 60.09375 41.484375 61 41.484375 
C 62.09375 41.484375 62.09375 41.6875 62.09375 43.484375 
z
" id="CMR17-67"/>
      <path d="M 43.09375 21.1875 
C 43.09375 34 33.796875 44 22.90625 44 
C 12 44 2.703125 34 2.703125 21.1875 
C 2.703125 8.609375 12 -1 22.90625 -1 
C 33.796875 -1 43.09375 8.609375 43.09375 21.1875 
z
M 22.90625 0.796875 
C 18.203125 0.796875 14.203125 3.59375 11.90625 7.5 
C 9.40625 11.984375 9.09375 17.59375 9.09375 22 
C 9.09375 26.203125 9.296875 31.40625 11.90625 35.90625 
C 13.90625 39.203125 17.796875 42.40625 22.90625 42.40625 
C 27.40625 42.40625 31.203125 39.90625 33.59375 36.40625 
C 36.703125 31.703125 36.703125 25.109375 36.703125 22 
C 36.703125 18.09375 36.5 12.109375 33.796875 7.296875 
C 31 2.703125 26.703125 0.796875 22.90625 0.796875 
z
" id="CMR17-111"/>
      <path d="M 39.90625 43.1875 
C 37.5 43.1875 30.09375 43.1875 28.203125 42.796875 
C 27.59375 42.578125 27.40625 42.578125 26.203125 42.578125 
L 14.796875 42.578125 
L 14.796875 54.203125 
C 14.796875 63.640625 22.40625 68 28.40625 68 
C 30.296875 68 34.59375 67.5 36.796875 64.078125 
C 35.796875 64.078125 32.59375 64.078125 32.59375 60.59375 
C 32.59375 58.203125 34.203125 57 36.203125 57 
C 38 57 39.796875 58 39.796875 60.703125 
C 39.796875 65.703125 35 69.59375 28.796875 69.59375 
C 20.90625 69.59375 9.90625 65.125 9.90625 54.203125 
L 9.90625 42.578125 
L 1.90625 42.578125 
L 1.90625 40 
L 9.90625 40 
L 9.90625 6.671875 
C 9.90625 2.875 9.5 2.390625 3.09375 2.390625 
L 3.09375 -0.203125 
C 5.5 0 9.90625 0 12.40625 0 
C 15 0 19.40625 0 21.796875 -0.203125 
L 21.796875 2.390625 
C 15.40625 2.390625 15 2.78125 15 6.671875 
L 15 40 
L 29.703125 40 
C 34 40 34.796875 39.09375 34.796875 34.71875 
L 34.796875 6.671875 
C 34.796875 2.875 34.40625 2.390625 28 2.390625 
L 28 -0.203125 
C 30.40625 0 34.796875 0 37.296875 0 
C 39.90625 0 44.296875 0 46.703125 -0.203125 
L 46.703125 2.390625 
C 40.296875 2.390625 39.90625 2.78125 39.90625 6.671875 
z
" id="CMR17-12"/>
      <path d="M 29.203125 67.59375 
L 29.203125 65 
C 35.09375 65 36 64.40625 36 59.6875 
L 36 36.640625 
C 35.59375 37.140625 31.5 43.59375 23.40625 43.59375 
C 13.203125 43.59375 3.296875 34.5 3.296875 21.3125 
C 3.296875 8.203125 12.59375 -1 22.40625 -1 
C 30.90625 -1 35.296875 5.265625 35.796875 5.9375 
L 35.796875 -0.984375 
L 47.90625 -0.984375 
L 47.90625 2 
C 42 2 41.09375 2.59375 41.09375 7.390625 
L 41.09375 68.6875 
z
M 35.796875 11.796875 
C 35.796875 8.796875 34 6.09375 31.703125 4.09375 
C 28.296875 1.09375 24.90625 0.59375 23 0.59375 
C 20.09375 0.59375 9.703125 2.09375 9.703125 21.1875 
C 9.703125 40.8125 21.296875 42 23.90625 42 
C 28.5 42 32.203125 39.40625 34.5 35.796875 
C 35.796875 33.703125 35.796875 33.40625 35.796875 31.609375 
z
" id="CMR17-100"/>
      <path d="M 34.90625 35 
C 33 35 30.203125 35 30.203125 31.515625 
C 30.203125 28.71875 32.5 27.921875 33.796875 27.921875 
C 34.5 27.921875 37.40625 28.234375 37.40625 31.625 
C 37.40625 38.546875 30.59375 43.796875 22.90625 43.796875 
C 12.296875 43.796875 3.296875 34.03125 3.296875 21.296875 
C 3.296875 8.0625 12.703125 -1 22.90625 -1 
C 35.296875 -1 38.40625 10.578125 38.40625 11.6875 
C 38.40625 12.09375 38.296875 12.390625 37.59375 12.390625 
C 36.90625 12.390625 36.796875 12.296875 36.40625 10.984375 
C 33.796875 2.8125 28.09375 0.796875 23.796875 0.796875 
C 17.40625 0.796875 9.703125 6.671875 9.703125 21.390625 
C 9.703125 36.53125 17.09375 42 23 42 
C 26.90625 42 32.703125 40.203125 34.90625 35 
z
" id="CMR17-99"/>
     </defs>
     <g transform="translate(456.168569 80.898952)scale(0.16 -0.16)">
      <use transform="scale(0.996264)" xlink:href="#CMR17-67"/>
      <use transform="translate(66.509881 0)scale(0.996264)" xlink:href="#CMR17-111"/>
      <use transform="translate(112.200358 0)scale(0.996264)" xlink:href="#CMR17-110"/>
      <use transform="translate(163.095727 0)scale(0.996264)" xlink:href="#CMR17-12"/>
      <use transform="translate(212.837951 0)scale(0.996264)" xlink:href="#CMR17-100"/>
      <use transform="translate(263.733321 0)scale(0.996264)" xlink:href="#CMR17-101"/>
      <use transform="translate(304.218981 0)scale(0.996264)" xlink:href="#CMR17-110"/>
      <use transform="translate(355.114351 0)scale(0.996264)" xlink:href="#CMR17-99"/>
      <use transform="translate(395.600011 0)scale(0.996264)" xlink:href="#CMR17-101"/>
     </g>
    </g>
   </g>
  </g>
 </g>
 <defs>
  <clipPath id="pa8e48c5569">
   <rect height="282.601871" width="490.797793" x="54.342207" y="10.7"/>
  </clipPath>
 </defs>
</svg>
